<svg width="486" height="486" viewBox="0 0 486 486" fill="none" xmlns="http://www.w3.org/2000/svg">
<path d="M158.558 41.2685L156.814 32.8513C156.567 32.9739 156.327 33.0904 156.093 33.2009C155.863 33.3105 155.625 33.417 155.38 33.5203L155.005 32.6113C155.211 32.5019 155.431 32.3658 155.664 32.2031C155.902 32.0395 156.131 31.8681 156.351 31.689C156.576 31.509 156.774 31.3369 156.945 31.1728C157.115 31.0042 157.241 30.866 157.324 30.7583L158.076 30.7312L160.189 40.9305L158.558 41.2685ZM166.899 39.6545C166.227 39.7937 165.623 39.7663 165.087 39.5723C164.556 39.3774 164.092 39.0612 163.697 38.6237C163.3 38.1817 162.969 37.6545 162.704 37.0422C162.443 36.4244 162.244 35.765 162.108 35.064C161.907 34.0238 161.897 33.0895 162.078 32.2608C162.258 31.4276 162.591 30.744 163.076 30.2098C163.565 29.6746 164.173 29.3318 164.9 29.1812C165.585 29.0392 166.187 29.0551 166.704 29.2291C167.226 29.4021 167.676 29.6973 168.053 30.1148C168.429 30.5277 168.741 31.0326 168.989 31.6294C169.235 32.2217 169.429 32.8702 169.571 33.5748C169.779 34.6277 169.808 35.5844 169.658 36.4449C169.507 37.3053 169.197 38.0177 168.728 38.582C168.258 39.1417 167.648 39.4992 166.899 39.6545ZM166.648 38.2051C167.337 38.0768 167.786 37.6573 167.996 36.9465C168.206 36.2357 168.181 35.2543 167.922 34.0023C167.77 33.2711 167.565 32.6369 167.306 32.0996C167.047 31.5624 166.733 31.1628 166.364 30.9008C165.999 30.6334 165.581 30.5484 165.11 30.6459C164.434 30.7861 163.982 31.2038 163.755 31.8991C163.531 32.5935 163.539 33.5142 163.776 34.6612C163.923 35.3694 164.132 36.0077 164.402 36.5761C164.672 37.1444 164.996 37.5801 165.373 37.8831C165.75 38.1816 166.175 38.289 166.648 38.2051ZM174.92 37.9922C174.559 38.067 174.23 38.0757 173.932 38.0183C173.634 37.9609 173.378 37.8043 173.163 37.5486C172.951 37.2874 172.79 36.8895 172.679 36.3549L171.733 31.7899L170.746 31.9944L170.57 31.1445C170.888 30.9784 171.13 30.845 171.295 30.744C171.459 30.6386 171.559 30.4676 171.596 30.2313C171.612 30.1232 171.628 29.9958 171.646 29.8493C171.662 29.6981 171.68 29.5324 171.7 29.3519C171.719 29.1669 171.739 28.9672 171.762 28.7529L172.708 28.5569L173.068 30.2979L175.207 29.8548L175.448 31.02L173.31 31.4632L174.082 35.192C174.185 35.6855 174.28 36.0422 174.369 36.2622C174.461 36.4766 174.573 36.6035 174.705 36.6429C174.841 36.6767 175.027 36.669 175.265 36.6197C175.393 36.5932 175.536 36.5492 175.695 36.4877C175.857 36.4207 176.009 36.3487 176.151 36.2718C176.297 36.1939 176.405 36.1213 176.477 36.054L176.925 36.9048C176.81 37.0383 176.646 37.1794 176.434 37.3283C176.225 37.4716 175.988 37.6041 175.723 37.7258C175.462 37.8466 175.194 37.9354 174.92 37.9922ZM178.562 37.1231L176.253 25.9779L177.829 25.6512L178.48 28.7905L178.683 30.1853L178.571 30.0227C178.723 29.8386 178.927 29.6463 179.181 29.446C179.434 29.2456 179.717 29.0656 180.027 28.9061C180.336 28.7419 180.652 28.6217 180.974 28.5453C181.801 28.3501 182.452 28.4536 182.926 28.8557C183.404 29.2569 183.759 30.015 183.99 31.13L184.958 35.7979L183.381 36.1245L182.411 31.443C182.281 30.817 182.089 30.3849 181.835 30.1469C181.585 29.9079 181.185 29.8599 180.633 30.0029C180.392 30.0576 180.113 30.1749 179.798 30.3546C179.482 30.5344 179.199 30.767 178.949 31.0524L180.139 36.7964L178.562 37.1231ZM189.748 34.8051L187.638 24.6195L189.255 24.2842L190.173 28.7122L194.82 27.7491L193.903 23.3212L195.507 22.9888L197.617 33.1745L196.013 33.5068L195.076 28.9829L190.429 29.946L191.366 34.4699L189.748 34.8051ZM202.884 32.1975C202.262 32.3263 201.712 32.326 201.232 32.1966C200.753 32.0672 200.339 31.8408 199.99 31.5174C199.642 31.194 199.356 30.8006 199.131 30.3373C198.91 29.8684 198.745 29.3616 198.637 28.8168C198.482 27.996 198.501 27.2747 198.696 26.6528C198.892 26.0309 199.225 25.5234 199.696 25.1303C200.167 24.7325 200.733 24.465 201.396 24.3277C202.227 24.1554 202.932 24.2072 203.508 24.4833C204.089 24.7538 204.553 25.1771 204.901 25.7531C205.253 26.3236 205.499 26.9708 205.639 27.6947C205.795 28.5155 205.776 29.2391 205.582 29.8656C205.391 30.4865 205.06 30.9958 204.59 31.3936C204.124 31.7903 203.555 32.0583 202.884 32.1975ZM202.693 31.0717C203.321 30.9511 203.743 30.6183 203.959 30.0731C204.178 29.5225 204.2 28.8199 204.023 27.9654C203.913 27.4353 203.749 26.9688 203.532 26.5657C203.314 26.1581 203.041 25.8525 202.713 25.6489C202.39 25.4443 202.015 25.3837 201.589 25.4672C200.965 25.5823 200.543 25.9032 200.323 26.4301C200.103 26.957 200.082 27.6477 200.259 28.5022C200.369 29.0322 200.534 29.5057 200.754 29.9224C200.973 30.3391 201.246 30.6544 201.572 30.8681C201.897 31.0818 202.271 31.1497 202.693 31.0717ZM210.37 30.6461C209.872 30.7493 209.454 30.7549 209.116 30.663C208.777 30.5711 208.498 30.3978 208.279 30.143C208.058 29.8837 207.877 29.5591 207.734 29.1693C207.596 28.7786 207.476 28.3387 207.375 27.8498L206.449 23.3807L208.025 23.054L208.948 27.5094C209.073 28.1126 209.211 28.5463 209.361 28.8107C209.516 29.0741 209.7 29.2266 209.913 29.2682C210.131 29.3087 210.4 29.2959 210.72 29.2296C210.908 29.1908 211.101 29.1222 211.3 29.0238C211.502 28.9199 211.689 28.8097 211.86 28.6932C212.03 28.5721 212.163 28.4636 212.257 28.3678L211.027 22.4319L212.604 22.1052L214.209 29.8507L213.482 30.0012C213.272 30.0448 213.099 30.0473 212.962 30.0089C212.826 29.9751 212.732 29.8325 212.68 29.5812L212.57 29.0466L212.66 29.3425C212.482 29.5222 212.267 29.7026 212.014 29.8837C211.764 30.0593 211.497 30.2173 211.211 30.3574C210.925 30.493 210.645 30.5893 210.37 30.6461ZM215.99 28.8954L215.968 27.6847C216.047 27.7208 216.202 27.76 216.435 27.8023C216.672 27.8391 216.948 27.8628 217.265 27.8734C217.585 27.8785 217.908 27.8497 218.233 27.7871C218.673 27.7007 218.991 27.5562 219.187 27.3535C219.384 27.1508 219.453 26.9101 219.395 26.6313C219.354 26.4348 219.25 26.2777 219.083 26.1599C218.916 26.042 218.698 25.9465 218.43 25.8733C218.166 25.7946 217.867 25.7185 217.532 25.6448C217.082 25.5427 216.677 25.4146 216.316 25.2606C215.955 25.1066 215.655 24.8996 215.415 24.6395C215.18 24.3784 215.022 24.0395 214.94 23.6227C214.855 23.1685 214.908 22.7668 215.098 22.4177C215.291 22.063 215.583 21.7691 215.973 21.5357C216.363 21.3024 216.816 21.1322 217.333 21.0252C217.812 20.9258 218.243 20.8889 218.625 20.9146C219.006 20.9358 219.261 20.9688 219.389 21.0137L219.403 22.2546C219.307 22.2031 219.165 22.1634 218.978 22.1354C218.795 22.1019 218.587 22.0878 218.355 22.093C218.122 22.0983 217.889 22.1251 217.656 22.1734C217.19 22.27 216.853 22.4114 216.643 22.5978C216.433 22.7795 216.349 22.9924 216.39 23.2365C216.454 23.5711 216.62 23.7964 216.887 23.9126C217.159 24.0279 217.476 24.1314 217.838 24.2232C218.356 24.3541 218.828 24.4922 219.254 24.6376C219.678 24.7783 220.03 24.9699 220.309 25.2123C220.592 25.4492 220.777 25.7779 220.864 26.1983C221.012 26.9112 220.879 27.5033 220.467 27.9748C220.055 28.4462 219.424 28.77 218.574 28.9461C218.222 29.0191 217.873 29.0627 217.529 29.077C217.188 29.0903 216.881 29.0801 216.607 29.0463C216.338 29.0115 216.132 28.9613 215.99 28.8954ZM226.079 27.3909C224.982 27.6182 224.065 27.4461 223.327 26.8746C222.589 26.3031 222.092 25.4005 221.836 24.1667C221.683 23.4264 221.676 22.7368 221.815 22.098C221.959 21.4581 222.251 20.9138 222.692 20.4651C223.137 20.0153 223.734 19.7083 224.481 19.5438C224.863 19.4551 225.236 19.4352 225.598 19.4839C225.961 19.5326 226.298 19.6511 226.609 19.8393C226.918 20.023 227.186 20.2819 227.413 20.6163C227.644 20.9496 227.817 21.3594 227.932 21.8455C227.992 22.1334 228.043 22.392 228.086 22.6214C228.128 22.8463 228.148 23.0493 228.148 23.2306L222.829 24.3328L222.758 23.3036L226.528 22.5224C226.475 22.1521 226.381 21.8119 226.245 21.5016C226.113 21.1859 225.917 20.9502 225.656 20.7946C225.398 20.6334 225.057 20.5969 224.632 20.685C224.276 20.7588 223.977 20.9257 223.735 21.1854C223.492 21.4406 223.342 21.8197 223.284 22.3225C223.226 22.8254 223.296 23.483 223.493 24.2952C223.64 24.8653 223.85 25.2958 224.125 25.5868C224.4 25.8778 224.719 26.0595 225.082 26.1321C225.445 26.2046 225.832 26.1982 226.243 26.113C226.417 26.077 226.625 26.0147 226.869 25.9261C227.112 25.8329 227.344 25.7324 227.564 25.6247C227.789 25.5115 227.955 25.4056 228.063 25.3069L228.552 26.1492C228.412 26.3213 228.206 26.4902 227.935 26.6559C227.669 26.8207 227.373 26.9678 227.047 27.0973C226.722 27.2267 226.399 27.3246 226.079 27.3909Z" fill="white"/>
<path d="M376.451 73.6994C376.143 73.3673 375.878 73.0088 375.655 72.6239C375.435 72.2423 375.283 71.8518 375.199 71.4524C375.118 71.0563 375.133 70.6672 375.244 70.2851C375.36 69.9032 375.599 69.5457 375.958 69.2127C376.205 68.9843 376.513 68.8095 376.885 68.6883C377.259 68.5639 377.69 68.5242 378.177 68.5691C378.664 68.6141 379.201 68.7717 379.789 69.0417L379.895 70.1454C379.568 69.9712 379.233 69.856 378.888 69.7999C378.55 69.7441 378.224 69.7531 377.911 69.8271C377.598 69.901 377.323 70.0474 377.087 70.2662C376.83 70.5041 376.66 70.7634 376.577 71.0443C376.5 71.3253 376.518 71.6265 376.631 71.9478C376.748 72.2726 376.971 72.613 377.301 72.969C377.51 73.1949 377.751 73.3725 378.024 73.5018C378.296 73.6311 378.573 73.6862 378.854 73.6672C379.136 73.6482 379.396 73.5277 379.636 73.3057C379.876 73.0837 380.019 72.8233 380.067 72.5246C380.121 72.2262 380.117 71.8991 380.055 71.5434C379.992 71.1877 379.904 70.8145 379.79 70.4238C379.677 70.0331 379.569 69.636 379.469 69.2326C379.372 68.8261 379.317 68.4227 379.302 68.0226C379.288 67.6225 379.346 67.235 379.476 66.8602C379.609 66.4888 379.85 66.1414 380.199 65.8179C380.606 65.4404 381.047 65.2294 381.521 65.1847C381.998 65.1369 382.474 65.2243 382.947 65.4471C383.424 65.6734 383.867 66.0073 384.276 66.4488C384.692 66.8973 384.981 67.3574 385.145 67.8293C385.312 68.3045 385.35 68.7584 385.261 69.1909C385.172 69.6234 384.953 70.0014 384.604 70.3249C384.351 70.5597 384.033 70.749 383.651 70.8929C383.276 71.0371 382.857 71.1004 382.395 71.0828C381.934 71.0652 381.453 70.9346 380.954 70.691L380.896 69.6189C381.381 69.895 381.849 69.9888 382.302 69.9004C382.758 69.8154 383.144 69.6353 383.462 69.3601C383.796 69.0822 383.961 68.7451 383.956 68.3486C383.955 67.949 383.775 67.5558 383.417 67.169C383.099 66.8267 382.742 66.6166 382.346 66.5387C381.949 66.4608 381.597 66.5646 381.289 66.8501C381.042 67.0785 380.885 67.3515 380.817 67.6692C380.752 67.9838 380.744 68.3285 380.792 68.7035C380.847 69.0788 380.926 69.4698 381.03 69.8766C381.133 70.2834 381.233 70.6934 381.33 71.1066C381.433 71.52 381.5 71.9221 381.531 72.313C381.566 72.7073 381.535 73.0792 381.439 73.4289C381.347 73.7754 381.158 74.0836 380.874 74.3535C380.412 74.7882 379.919 75.0287 379.395 75.0748C378.878 75.1211 378.364 75.0189 377.851 74.7682C377.346 74.5178 376.879 74.1615 376.451 73.6994ZM381.756 79.4252C381.505 79.1547 381.328 78.8772 381.223 78.5925C381.118 78.3078 381.12 78.0074 381.228 77.6912C381.342 77.3752 381.6 77.0317 382 76.6606L385.42 73.4921L384.735 72.7527L385.371 72.1627C385.678 72.3494 385.917 72.4873 386.089 72.5764C386.264 72.6624 386.462 72.66 386.683 72.5694C386.784 72.527 386.902 72.4753 387.036 72.4144C387.174 72.3503 387.325 72.2801 387.49 72.2039C387.658 72.1244 387.84 72.0389 388.035 71.9472L388.691 72.6558L387.387 73.8643L388.871 75.4663L387.998 76.2751L386.514 74.6731L383.721 77.2612C383.351 77.6037 383.095 77.8697 382.952 78.0591C382.816 78.2487 382.766 78.4103 382.8 78.5437C382.841 78.6773 382.944 78.8332 383.109 79.0112C383.198 79.107 383.31 79.207 383.444 79.3112C383.586 79.4157 383.726 79.5085 383.865 79.5898C384.007 79.6745 384.125 79.7302 384.22 79.7569L383.723 80.58C383.549 80.5503 383.344 80.483 383.107 80.3782C382.876 80.2736 382.64 80.1391 382.399 79.9747C382.161 79.8138 381.946 79.6306 381.756 79.4252ZM384.382 82.0946L392.731 74.3588L393.825 75.5398L391.474 77.7187L390.384 78.6134L390.466 78.4332C390.702 78.4687 390.972 78.5433 391.274 78.6572C391.577 78.7712 391.877 78.9196 392.174 79.1027C392.474 79.2825 392.74 79.4908 392.972 79.7275C393.567 80.3347 393.814 80.9451 393.715 81.5588C393.619 82.176 393.153 82.8715 392.318 83.6454L388.821 86.8853L387.727 85.7043L391.234 82.4549C391.703 82.0204 391.973 81.6328 392.046 81.2921C392.121 80.9549 391.955 80.5869 391.548 80.1883C391.376 80.0101 391.132 79.8324 390.815 79.6552C390.498 79.478 390.153 79.3558 389.779 79.2887L385.476 83.2756L384.382 82.0946ZM392.146 90.4742L399.776 83.4045L400.899 84.6163L397.582 87.6897L400.808 91.171L404.125 88.0976L405.238 89.2992L397.608 96.3689L396.495 95.1674L399.884 92.0274L396.658 88.546L393.269 91.686L392.146 90.4742ZM401.165 100.373C400.734 99.9076 400.45 99.4361 400.313 98.9586C400.176 98.4812 400.156 98.0098 400.253 97.5446C400.35 97.0794 400.539 96.6309 400.819 96.1991C401.106 95.7676 401.455 95.3648 401.866 94.9908C402.488 94.4333 403.116 94.0775 403.749 93.9233C404.382 93.7691 404.989 93.7923 405.569 93.9927C406.153 94.19 406.675 94.5368 407.135 95.0331C407.712 95.6561 408.031 96.2858 408.093 96.9222C408.161 97.5588 408.038 98.175 407.725 98.7707C407.418 99.3666 406.992 99.9117 406.444 100.406C405.822 100.963 405.193 101.321 404.556 101.478C403.926 101.636 403.319 101.616 402.735 101.419C402.155 101.225 401.632 100.876 401.165 100.373ZM402.031 99.6284C402.458 100.104 402.961 100.293 403.54 100.196C404.125 100.1 404.737 99.7547 405.377 99.1616C405.774 98.7937 406.089 98.4127 406.322 98.0187C406.559 97.6216 406.679 97.2299 406.684 96.8437C406.692 96.461 406.55 96.1088 406.259 95.7873C405.838 95.3123 405.345 95.1168 404.78 95.2009C404.216 95.2851 403.613 95.6237 402.973 96.2168C402.576 96.5848 402.256 96.9705 402.013 97.374C401.77 97.7775 401.64 98.1738 401.626 98.5629C401.611 98.952 401.746 99.3072 402.031 99.6284ZM406.362 105.982C406.016 105.608 405.795 105.253 405.699 104.916C405.603 104.579 405.607 104.251 405.712 103.931C405.82 103.608 406.004 103.285 406.264 102.961C406.527 102.641 406.842 102.311 407.208 101.972L410.556 98.87L411.65 100.051L408.313 103.143C407.861 103.562 407.561 103.904 407.412 104.169C407.266 104.438 407.231 104.674 407.305 104.878C407.383 105.086 407.533 105.31 407.755 105.549C407.885 105.69 408.044 105.82 408.231 105.939C408.424 106.059 408.615 106.162 408.804 106.248C408.995 106.331 409.157 106.389 409.287 106.42L413.734 102.3L414.828 103.481L409.026 108.857L408.522 108.313C408.376 108.155 408.284 108.008 408.246 107.871C408.205 107.738 408.279 107.584 408.467 107.409L408.868 107.038L408.661 107.268C408.415 107.209 408.15 107.118 407.864 106.995C407.584 106.872 407.311 106.724 407.043 106.552C406.779 106.377 406.552 106.187 406.362 105.982ZM410.764 109.888L411.789 109.244C411.799 109.33 411.846 109.484 411.93 109.705C412.021 109.926 412.143 110.175 412.298 110.452C412.459 110.729 412.65 110.99 412.872 111.237C413.173 111.568 413.461 111.766 413.736 111.829C414.011 111.893 414.253 111.828 414.462 111.634C414.609 111.498 414.69 111.327 414.704 111.123C414.719 110.919 414.688 110.683 414.612 110.416C414.543 110.15 414.454 109.854 414.344 109.529C414.199 109.091 414.099 108.678 414.045 108.29C413.99 107.901 414.012 107.537 414.111 107.197C414.213 106.861 414.421 106.55 414.736 106.265C415.081 105.958 415.452 105.796 415.849 105.778C416.253 105.76 416.655 105.858 417.057 106.071C417.458 106.285 417.838 106.585 418.196 106.972C418.529 107.331 418.783 107.681 418.959 108.021C419.137 108.358 419.241 108.593 419.269 108.726L418.213 109.38C418.208 109.27 418.169 109.129 418.096 108.954C418.03 108.78 417.935 108.595 417.81 108.398C417.685 108.202 417.542 108.017 417.38 107.842C417.057 107.493 416.761 107.277 416.494 107.194C416.23 107.108 416.004 107.146 415.816 107.307C415.563 107.535 415.455 107.793 415.494 108.082C415.536 108.374 415.611 108.699 415.719 109.057C415.875 109.568 416 110.043 416.096 110.483C416.195 110.919 416.213 111.319 416.149 111.684C416.092 112.048 415.907 112.376 415.592 112.668C415.058 113.163 414.482 113.355 413.866 113.246C413.249 113.137 412.646 112.764 412.056 112.127C411.811 111.863 411.594 111.587 411.404 111.3C411.216 111.015 411.066 110.747 410.954 110.495C410.844 110.246 410.781 110.044 410.764 109.888ZM417.265 117.749C416.504 116.927 416.177 116.053 416.285 115.126C416.393 114.199 416.909 113.307 417.833 112.451C418.388 111.937 418.975 111.575 419.594 111.364C420.216 111.156 420.833 111.125 421.445 111.271C422.06 111.42 422.631 111.772 423.158 112.327C423.431 112.608 423.641 112.917 423.787 113.252C423.932 113.588 424.005 113.938 424.004 114.301C424.007 114.661 423.924 115.024 423.755 115.391C423.589 115.761 423.327 116.121 422.97 116.471C422.755 116.67 422.56 116.848 422.385 117.003C422.215 117.155 422.051 117.278 421.896 117.371L418.204 113.386L419.049 112.794L421.665 115.618C421.955 115.382 422.198 115.125 422.393 114.849C422.595 114.572 422.696 114.282 422.694 113.978C422.699 113.675 422.554 113.364 422.259 113.046C422.012 112.779 421.714 112.609 421.367 112.536C421.023 112.46 420.621 112.527 420.161 112.738C419.7 112.948 419.173 113.347 418.579 113.936C418.167 114.356 417.907 114.759 417.8 115.144C417.693 115.53 417.702 115.897 417.828 116.245C417.953 116.593 418.158 116.921 418.444 117.229C418.564 117.359 418.726 117.506 418.927 117.669C419.133 117.828 419.338 117.975 419.545 118.108C419.758 118.242 419.934 118.33 420.075 118.371L419.606 119.225C419.386 119.194 419.135 119.105 418.853 118.959C418.575 118.816 418.296 118.639 418.017 118.427C417.738 118.214 417.487 117.989 417.265 117.749Z" fill="white"/>
<path d="M443.514 161.912C444.063 162.011 444.609 162.104 445.154 162.189C445.705 162.278 446.254 162.36 446.801 162.435C447.347 162.51 447.893 162.581 448.438 162.647C448.982 162.714 449.523 162.776 450.061 162.834C450.599 162.893 451.131 162.95 451.658 163.007C452.19 163.062 452.714 163.114 453.23 163.164L451.915 158.219L453.208 157.879L454.907 164.199L454.54 164.668L443.992 163.69L443.514 161.912ZM445.888 171.174C445.792 170.818 445.764 170.489 445.804 170.189C445.844 169.888 445.985 169.623 446.228 169.393C446.477 169.167 446.864 168.983 447.392 168.841L451.894 167.631L451.632 166.658L452.47 166.432C452.655 166.74 452.802 166.974 452.912 167.133C453.027 167.29 453.204 167.38 453.442 167.403C453.551 167.413 453.679 167.422 453.826 167.431C453.978 167.438 454.144 167.446 454.326 167.456C454.512 167.464 454.712 167.473 454.927 167.483L455.178 168.415L453.461 168.877L454.028 170.986L452.879 171.295L452.312 169.186L448.634 170.174C448.148 170.305 447.797 170.421 447.583 170.522C447.374 170.627 447.254 170.746 447.222 170.88C447.196 171.018 447.215 171.203 447.278 171.438C447.312 171.564 447.364 171.705 447.435 171.86C447.511 172.018 447.592 172.165 447.677 172.302C447.763 172.443 447.842 172.547 447.913 172.615L447.09 173.112C446.95 173.005 446.8 172.849 446.639 172.646C446.483 172.446 446.337 172.217 446.2 171.959C446.065 171.706 445.96 171.444 445.888 171.174ZM446.967 174.759L457.959 171.805L458.377 173.359L455.281 174.192L453.9 174.476L454.056 174.354C454.249 174.496 454.453 174.687 454.667 174.929C454.882 175.171 455.078 175.442 455.256 175.742C455.438 176.041 455.576 176.35 455.671 176.667C455.914 177.481 455.849 178.137 455.475 178.634C455.102 179.135 454.366 179.533 453.266 179.829L448.663 181.066L448.245 179.511L452.862 178.27C453.479 178.104 453.899 177.888 454.122 177.62C454.346 177.357 454.371 176.954 454.196 176.411C454.127 176.174 453.994 175.903 453.796 175.598C453.598 175.294 453.35 175.025 453.05 174.791L447.385 176.314L446.967 174.759ZM449.933 185.791L459.978 183.091L460.407 184.686L456.04 185.86L457.272 190.444L461.639 189.27L462.064 190.852L452.019 193.552L451.594 191.97L456.055 190.771L454.823 186.187L450.362 187.387L449.933 185.791ZM453.301 198.752C453.136 198.139 453.104 197.59 453.205 197.103C453.307 196.617 453.509 196.191 453.811 195.824C454.114 195.458 454.49 195.149 454.939 194.898C455.395 194.65 455.891 194.456 456.428 194.316C457.239 194.113 457.96 194.091 458.592 194.249C459.224 194.408 459.75 194.711 460.17 195.159C460.595 195.605 460.895 196.155 461.071 196.809C461.291 197.629 461.28 198.335 461.038 198.927C460.802 199.522 460.406 200.01 459.852 200.391C459.303 200.775 458.671 201.059 457.956 201.241C457.146 201.444 456.422 201.467 455.786 201.31C455.155 201.156 454.627 200.855 454.203 200.409C453.779 199.967 453.479 199.415 453.301 198.752ZM454.413 198.497C454.57 199.116 454.927 199.518 455.484 199.702C456.047 199.889 456.749 199.869 457.592 199.643C458.115 199.502 458.571 199.312 458.961 199.072C459.355 198.831 459.644 198.54 459.828 198.201C460.014 197.866 460.052 197.488 459.944 197.068C459.793 196.451 459.448 196.049 458.909 195.86C458.37 195.672 457.68 195.691 456.837 195.917C456.314 196.058 455.851 196.25 455.448 196.493C455.045 196.737 454.746 197.028 454.551 197.365C454.357 197.702 454.311 198.08 454.413 198.497ZM455.285 206.136C455.153 205.645 455.123 205.228 455.195 204.884C455.268 204.541 455.424 204.253 455.666 204.019C455.912 203.783 456.225 203.583 456.606 203.418C456.988 203.257 457.42 203.112 457.903 202.983L462.31 201.798L462.728 203.353L458.334 204.534C457.739 204.694 457.314 204.856 457.059 205.021C456.805 205.191 456.663 205.384 456.634 205.599C456.607 205.82 456.635 206.087 456.72 206.403C456.77 206.588 456.849 206.776 456.959 206.969C457.075 207.165 457.195 207.345 457.322 207.509C457.453 207.672 457.569 207.798 457.67 207.887L463.524 206.314L463.942 207.868L456.303 209.922L456.11 209.205C456.055 208.998 456.042 208.825 456.072 208.686C456.098 208.549 456.235 208.447 456.483 208.38L457.01 208.238L456.72 208.345C456.53 208.179 456.338 207.975 456.142 207.732C455.952 207.493 455.779 207.236 455.623 206.959C455.47 206.681 455.358 206.406 455.285 206.136ZM457.36 211.644L458.568 211.551C458.536 211.632 458.506 211.79 458.477 212.025C458.455 212.263 458.447 212.54 458.455 212.857C458.468 213.177 458.516 213.498 458.597 213.819C458.709 214.253 458.872 214.562 459.086 214.746C459.3 214.93 459.544 214.986 459.819 214.912C460.013 214.86 460.163 214.747 460.271 214.573C460.379 214.399 460.462 214.176 460.519 213.904C460.583 213.636 460.641 213.333 460.695 212.994C460.771 212.539 460.875 212.127 461.008 211.758C461.141 211.389 461.33 211.077 461.576 210.822C461.822 210.572 462.152 210.395 462.563 210.289C463.011 210.178 463.416 210.207 463.775 210.376C464.14 210.549 464.451 210.823 464.707 211.199C464.962 211.574 465.158 212.017 465.295 212.526C465.423 212.999 465.484 213.427 465.481 213.81C465.482 214.192 465.464 214.448 465.427 214.579L464.189 214.665C464.234 214.566 464.266 214.422 464.283 214.234C464.306 214.049 464.308 213.84 464.289 213.609C464.27 213.377 464.23 213.146 464.168 212.916C464.044 212.457 463.884 212.128 463.685 211.93C463.492 211.731 463.274 211.658 463.033 211.714C462.703 211.798 462.487 211.976 462.387 212.25C462.288 212.528 462.203 212.85 462.132 213.217C462.032 213.742 461.921 214.221 461.801 214.654C461.685 215.086 461.514 215.449 461.289 215.742C461.069 216.037 460.751 216.241 460.337 216.353C459.634 216.542 459.035 216.444 458.54 216.06C458.045 215.676 457.685 215.065 457.46 214.226C457.367 213.879 457.303 213.534 457.269 213.191C457.236 212.852 457.228 212.544 457.246 212.269C457.265 211.998 457.303 211.79 457.36 211.644ZM459.45 221.628C459.159 220.547 459.277 219.621 459.805 218.851C460.332 218.081 461.205 217.532 462.421 217.205C463.152 217.009 463.84 216.962 464.485 217.064C465.133 217.17 465.693 217.43 466.167 217.844C466.641 218.262 466.983 218.84 467.19 219.577C467.301 219.953 467.343 220.323 467.315 220.688C467.288 221.053 467.189 221.396 467.019 221.717C466.854 222.037 466.611 222.32 466.291 222.566C465.971 222.816 465.572 223.012 465.094 223.156C464.81 223.232 464.554 223.298 464.328 223.354C464.106 223.409 463.904 223.441 463.723 223.451L462.313 218.206L463.337 218.075L464.336 221.793C464.703 221.719 465.037 221.605 465.339 221.451C465.646 221.301 465.87 221.091 466.01 220.822C466.156 220.555 466.173 220.213 466.06 219.793C465.966 219.442 465.782 219.153 465.508 218.927C465.239 218.7 464.852 218.572 464.347 218.543C463.841 218.515 463.189 218.623 462.39 218.866C461.829 219.046 461.411 219.282 461.137 219.573C460.863 219.864 460.7 220.193 460.648 220.559C460.597 220.926 460.626 221.312 460.735 221.718C460.781 221.889 460.855 222.094 460.958 222.332C461.065 222.569 461.179 222.794 461.299 223.008C461.425 223.226 461.541 223.386 461.646 223.488L460.833 224.025C460.653 223.895 460.473 223.699 460.292 223.439C460.112 223.183 459.947 222.896 459.799 222.578C459.651 222.26 459.534 221.944 459.45 221.628Z" fill="white"/>
<path d="M454.544 323.747C453.813 323.573 453.157 323.299 452.574 322.925C451.987 322.549 451.476 322.111 451.039 321.608C450.599 321.1 450.237 320.558 449.952 319.981C449.667 319.405 449.46 318.825 449.331 318.243C449.202 317.655 449.15 317.101 449.174 316.579L450.267 316.401C450.285 317.067 450.408 317.701 450.634 318.302C450.855 318.901 451.155 319.446 451.532 319.934C451.905 320.421 452.33 320.834 452.805 321.173C453.282 321.508 453.782 321.745 454.305 321.884C454.914 322.048 455.496 322.142 456.052 322.164C456.605 322.181 457.077 322.082 457.468 321.869C457.86 321.655 458.119 321.283 458.246 320.752C458.344 320.339 458.317 319.97 458.164 319.646C458.011 319.321 457.776 319.052 457.458 318.836C457.136 318.616 456.776 318.458 456.376 318.362C455.836 318.234 455.397 318.203 455.06 318.271C454.723 318.335 454.467 318.463 454.291 318.656C454.115 318.85 453.998 319.071 453.938 319.321C453.875 319.584 453.854 319.824 453.875 320.04C453.895 320.256 453.925 320.421 453.965 320.536L452.936 320.715C452.874 320.614 452.821 320.465 452.777 320.267C452.728 320.068 452.702 319.836 452.698 319.572C452.695 319.302 452.731 319.011 452.806 318.698C452.945 318.117 453.198 317.657 453.567 317.318C453.936 316.979 454.372 316.759 454.876 316.659C455.376 316.552 455.894 316.563 456.43 316.691C456.911 316.806 457.358 316.992 457.772 317.249C458.182 317.5 458.528 317.818 458.811 318.202C459.089 318.585 459.276 319.028 459.372 319.531C459.468 320.033 459.443 320.591 459.296 321.204C459.123 321.93 458.795 322.512 458.312 322.948C457.83 323.38 457.258 323.663 456.597 323.798C455.932 323.932 455.248 323.915 454.544 323.747ZM461.196 313.247C461.11 313.605 460.978 313.907 460.799 314.153C460.621 314.398 460.37 314.564 460.047 314.65C459.721 314.73 459.293 314.707 458.761 314.58L454.227 313.498L453.993 314.478L453.149 314.277C453.133 313.918 453.115 313.643 453.094 313.451C453.068 313.257 452.956 313.094 452.758 312.96C452.666 312.9 452.558 312.831 452.433 312.753C452.303 312.674 452.16 312.587 452.005 312.493C451.846 312.397 451.674 312.294 451.489 312.183L451.714 311.243L453.443 311.656L453.95 309.531L455.108 309.808L454.601 311.932L458.305 312.816C458.795 312.933 459.158 312.998 459.395 313.011C459.628 313.019 459.791 312.972 459.882 312.869C459.971 312.76 460.043 312.588 460.099 312.352C460.13 312.225 460.151 312.076 460.162 311.906C460.171 311.731 460.17 311.563 460.16 311.402C460.152 311.237 460.132 311.108 460.102 311.014L461.062 310.97C461.134 311.131 461.193 311.339 461.237 311.594C461.278 311.844 461.298 312.115 461.295 312.407C461.294 312.695 461.261 312.974 461.196 313.247ZM461.955 309.58L450.884 306.938L451.258 305.372L454.377 306.116L455.726 306.524L455.531 306.557C455.429 306.341 455.341 306.075 455.268 305.76C455.194 305.445 455.151 305.114 455.138 304.765C455.121 304.415 455.146 304.078 455.214 303.754C455.388 302.922 455.758 302.377 456.324 302.119C456.89 301.856 457.727 301.857 458.835 302.121L463.472 303.228L463.098 304.794L458.447 303.684C457.826 303.535 457.353 303.526 457.029 303.655C456.707 303.779 456.493 304.122 456.388 304.682C456.336 304.924 456.324 305.225 456.352 305.587C456.381 305.949 456.471 306.304 456.623 306.652L462.329 308.014L461.955 309.58ZM464.607 298.469L454.49 296.054L454.873 294.447L459.271 295.497L460.373 290.88L455.975 289.831L456.355 288.237L466.473 290.652L466.093 292.245L461.599 291.173L460.497 295.789L464.991 296.862L464.607 298.469ZM467.825 285.469C467.678 286.087 467.443 286.585 467.123 286.964C466.802 287.343 466.421 287.622 465.981 287.8C465.54 287.978 465.062 288.07 464.547 288.077C464.029 288.078 463.5 288.011 462.961 287.878C462.152 287.671 461.507 287.346 461.027 286.905C460.547 286.465 460.229 285.947 460.073 285.354C459.913 284.759 459.911 284.132 460.068 283.474C460.265 282.648 460.611 282.033 461.106 281.628C461.598 281.217 462.178 280.977 462.847 280.906C463.513 280.83 464.204 280.882 464.919 281.062C465.728 281.27 466.375 281.595 466.859 282.036C467.341 282.473 467.661 282.988 467.822 283.583C467.983 284.173 467.984 284.802 467.825 285.469ZM466.725 285.164C466.882 284.544 466.76 284.021 466.358 283.594C465.953 283.161 465.326 282.844 464.477 282.641C463.95 282.515 463.459 282.465 463.002 282.49C462.54 282.515 462.147 282.632 461.824 282.843C461.501 283.049 461.287 283.362 461.182 283.783C461.021 284.397 461.132 284.916 461.516 285.338C461.9 285.761 462.516 286.073 463.365 286.276C463.891 286.402 464.39 286.454 464.861 286.432C465.331 286.41 465.732 286.297 466.064 286.093C466.396 285.889 466.616 285.579 466.725 285.164ZM469.6 278.032C469.482 278.527 469.309 278.908 469.082 279.175C468.855 279.443 468.58 279.622 468.256 279.712C467.928 279.802 467.557 279.829 467.143 279.792C466.731 279.751 466.282 279.673 465.796 279.557L461.357 278.498L461.73 276.932L466.156 277.988C466.755 278.131 467.206 278.19 467.509 278.167C467.814 278.139 468.03 278.037 468.158 277.861C468.288 277.681 468.39 277.432 468.466 277.114C468.51 276.928 468.53 276.724 468.526 276.502C468.518 276.275 468.497 276.059 468.464 275.854C468.427 275.649 468.385 275.483 468.339 275.356L462.442 273.949L462.816 272.383L470.51 274.219L470.338 274.941C470.288 275.15 470.216 275.308 470.124 275.415C470.035 275.524 469.866 275.548 469.617 275.489L469.086 275.362L469.392 275.406C469.479 275.643 469.551 275.915 469.608 276.221C469.661 276.521 469.69 276.83 469.696 277.148C469.697 277.465 469.665 277.76 469.6 278.032ZM470.401 272.202L469.296 271.707C469.362 271.651 469.464 271.527 469.601 271.334C469.734 271.136 469.873 270.895 470.018 270.613C470.158 270.325 470.269 270.021 470.351 269.699C470.459 269.265 470.463 268.916 470.363 268.652C470.263 268.388 470.075 268.223 469.798 268.157C469.603 268.11 469.416 268.138 469.238 268.239C469.061 268.341 468.882 268.497 468.702 268.709C468.518 268.914 468.322 269.153 468.113 269.425C467.83 269.789 467.542 270.101 467.249 270.363C466.956 270.624 466.641 270.808 466.304 270.914C465.968 271.016 465.594 271.016 465.182 270.913C464.735 270.796 464.393 270.578 464.158 270.258C463.919 269.932 463.777 269.543 463.731 269.091C463.686 268.639 463.724 268.156 463.846 267.643C463.96 267.167 464.11 266.761 464.295 266.426C464.476 266.09 464.614 265.874 464.709 265.777L465.839 266.291C465.751 266.356 465.655 266.468 465.55 266.625C465.442 266.777 465.341 266.959 465.247 267.172C465.153 267.384 465.079 267.606 465.023 267.838C464.913 268.301 464.898 268.667 464.977 268.935C465.053 269.203 465.21 269.37 465.448 269.436C465.778 269.52 466.053 269.465 466.271 269.273C466.491 269.076 466.719 268.833 466.956 268.544C467.295 268.131 467.62 267.762 467.933 267.438C468.24 267.114 468.563 266.876 468.901 266.727C469.236 266.572 469.612 266.544 470.029 266.643C470.738 266.812 471.217 267.184 471.469 267.757C471.721 268.331 471.746 269.039 471.545 269.884C471.461 270.233 471.353 270.567 471.219 270.885C471.087 271.199 470.947 271.473 470.8 271.707C470.654 271.936 470.521 272.101 470.401 272.202ZM473.324 262.428C473.064 263.518 472.518 264.275 471.688 264.701C470.857 265.126 469.829 265.193 468.603 264.9C467.868 264.725 467.24 264.438 466.721 264.041C466.203 263.639 465.834 263.143 465.615 262.553C465.397 261.959 465.373 261.289 465.541 260.542C465.623 260.159 465.763 259.813 465.961 259.505C466.159 259.198 466.41 258.943 466.712 258.742C467.01 258.54 467.358 258.407 467.757 258.344C468.157 258.276 468.601 258.293 469.09 258.396C469.376 258.464 469.632 258.527 469.858 258.586C470.08 258.644 470.272 258.711 470.436 258.789L469.175 264.072L468.213 263.699L469.107 259.954C468.749 259.845 468.401 259.786 468.063 259.777C467.721 259.762 467.424 259.84 467.172 260.01C466.917 260.175 466.739 260.468 466.638 260.89C466.554 261.245 466.578 261.586 466.71 261.915C466.838 262.243 467.118 262.54 467.548 262.806C467.979 263.072 468.604 263.288 469.423 263.455C470.001 263.564 470.481 263.556 470.861 263.431C471.241 263.306 471.541 263.094 471.761 262.797C471.98 262.499 472.139 262.146 472.237 261.737C472.278 261.565 472.31 261.349 472.333 261.091C472.352 260.832 472.359 260.579 472.356 260.334C472.349 260.082 472.323 259.887 472.28 259.747L473.25 259.662C473.346 259.862 473.412 260.12 473.447 260.436C473.483 260.746 473.49 261.077 473.469 261.427C473.448 261.777 473.4 262.111 473.324 262.428Z" fill="white"/>
<path d="M387.65 420.017C387.571 420.096 387.467 420.191 387.339 420.3C387.213 420.412 387.096 420.5 386.988 420.562L386.215 419.791C386.264 419.741 386.318 419.69 386.378 419.637C386.437 419.584 386.492 419.533 386.541 419.484C387.085 418.939 387.49 418.374 387.757 417.79C388.02 417.202 388.137 416.653 388.107 416.141C388.077 415.623 387.893 415.196 387.556 414.86C387.094 414.398 386.64 414.189 386.194 414.232C385.752 414.272 385.259 414.565 384.715 415.11C384.524 415.301 384.34 415.533 384.162 415.803C383.98 416.071 383.806 416.365 383.638 416.685L383.252 416.774L379.882 412.857L383.67 409.062L384.542 410.15L381.734 412.965L383.409 415.012C383.57 414.758 383.731 414.523 383.893 414.309C384.054 414.094 384.219 413.903 384.387 413.734C385.099 413.021 385.822 412.66 386.554 412.653C387.284 412.642 387.98 412.968 388.644 413.631C388.968 413.954 389.209 414.357 389.368 414.838C389.527 415.313 389.58 415.838 389.528 416.412C389.475 416.986 389.3 417.582 389 418.199C388.697 418.813 388.247 419.419 387.65 420.017ZM394.402 413.193C394.142 413.454 393.871 413.642 393.591 413.758C393.311 413.874 393.01 413.884 392.69 413.789C392.37 413.687 392.017 413.443 391.63 413.057L388.331 409.764L387.618 410.477L387.004 409.864C387.179 409.55 387.307 409.306 387.389 409.131C387.468 408.953 387.458 408.755 387.359 408.537C387.313 408.438 387.257 408.323 387.191 408.191C387.121 408.055 387.045 407.907 386.962 407.745C386.877 407.581 386.784 407.402 386.685 407.211L387.367 406.527L388.626 407.783L390.168 406.238L391.011 407.078L389.468 408.624L392.163 411.314C392.52 411.67 392.796 411.916 392.99 412.051C393.185 412.179 393.349 412.224 393.481 412.184C393.613 412.138 393.764 412.029 393.936 411.857C394.028 411.764 394.124 411.649 394.222 411.51C394.321 411.365 394.409 411.221 394.484 411.079C394.563 410.934 394.614 410.814 394.637 410.718L395.479 411.182C395.456 411.357 395.397 411.565 395.302 411.806C395.206 412.041 395.081 412.282 394.926 412.529C394.775 412.774 394.6 412.995 394.402 413.193ZM396.967 410.465L388.911 402.424L390.048 401.285L392.318 403.549L393.254 404.603L393.071 404.529C393.097 404.291 393.161 404.019 393.263 403.712C393.365 403.405 393.502 403.099 393.673 402.796C393.841 402.489 394.039 402.215 394.266 401.973C394.85 401.356 395.45 401.085 396.067 401.16C396.688 401.232 397.401 401.67 398.207 402.475L401.581 405.842L400.443 406.982L397.059 403.604C396.607 403.153 396.209 402.897 395.866 402.838C395.526 402.776 395.165 402.956 394.782 403.379C394.611 403.557 394.443 403.808 394.278 404.132C394.114 404.455 394.005 404.805 393.953 405.181L398.104 409.325L396.967 410.465ZM405.037 402.379L397.675 395.031L398.842 393.862L402.042 397.056L405.395 393.697L402.194 390.503L403.352 389.343L410.714 396.691L409.557 397.851L406.287 394.587L402.934 397.946L406.204 401.21L405.037 402.379ZM414.576 392.98C414.128 393.43 413.668 393.732 413.196 393.888C412.724 394.043 412.254 394.081 411.785 394.003C411.317 393.924 410.861 393.753 410.419 393.489C409.976 393.219 409.56 392.886 409.171 392.491C408.589 391.891 408.209 391.277 408.03 390.65C407.852 390.024 407.851 389.416 408.029 388.829C408.203 388.238 408.529 387.703 409.007 387.224C409.607 386.623 410.224 386.279 410.857 386.193C411.491 386.1 412.111 386.198 412.719 386.488C413.326 386.771 413.888 387.177 414.403 387.704C414.984 388.304 415.366 388.919 415.548 389.549C415.73 390.173 415.734 390.78 415.56 391.371C415.389 391.958 415.061 392.495 414.576 392.98ZM413.798 392.145C414.256 391.699 414.426 391.189 414.307 390.615C414.187 390.034 413.819 389.435 413.201 388.819C412.818 388.437 412.425 388.137 412.022 387.919C411.616 387.699 411.22 387.593 410.834 387.604C410.451 387.611 410.105 387.766 409.795 388.07C409.337 388.509 409.161 389.009 409.267 389.57C409.373 390.131 409.735 390.72 410.352 391.336C410.736 391.719 411.134 392.023 411.546 392.251C411.959 392.478 412.36 392.591 412.749 392.591C413.139 392.591 413.488 392.442 413.798 392.145ZM419.977 387.569C419.618 387.929 419.272 388.163 418.939 388.273C418.605 388.382 418.277 388.39 417.954 388.298C417.627 388.203 417.297 388.032 416.963 387.785C416.633 387.534 416.291 387.232 415.938 386.88L412.707 383.656L413.845 382.516L417.065 385.73C417.501 386.165 417.855 386.452 418.125 386.591C418.399 386.726 418.637 386.752 418.838 386.669C419.043 386.583 419.26 386.424 419.491 386.193C419.626 386.058 419.75 385.894 419.862 385.703C419.974 385.505 420.069 385.31 420.148 385.119C420.224 384.924 420.275 384.76 420.301 384.628L416.011 380.346L417.148 379.206L422.747 384.794L422.222 385.319C422.071 385.471 421.927 385.569 421.792 385.612C421.66 385.658 421.503 385.591 421.322 385.409L420.935 385.024L421.173 385.221C421.124 385.469 421.043 385.738 420.931 386.029C420.819 386.312 420.683 386.591 420.521 386.865C420.356 387.136 420.175 387.371 419.977 387.569ZM423.709 383.017L423.025 382.018C423.111 382.005 423.263 381.952 423.48 381.859C423.698 381.76 423.942 381.628 424.213 381.463C424.483 381.291 424.737 381.089 424.974 380.858C425.294 380.544 425.48 380.249 425.533 379.972C425.585 379.694 425.511 379.455 425.309 379.254C425.167 379.112 424.994 379.038 424.789 379.032C424.585 379.025 424.35 379.065 424.087 379.151C423.823 379.231 423.531 379.332 423.211 379.454C422.779 379.616 422.37 379.732 421.984 379.802C421.598 379.871 421.233 379.863 420.89 379.778C420.55 379.689 420.231 379.493 419.934 379.19C419.613 378.857 419.436 378.492 419.403 378.097C419.37 377.694 419.452 377.288 419.649 376.879C419.847 376.469 420.132 376.078 420.505 375.705C420.851 375.358 421.19 375.09 421.523 374.902C421.853 374.71 422.084 374.598 422.216 374.565L422.91 375.594C422.801 375.604 422.661 375.648 422.489 375.728C422.318 375.8 422.137 375.903 421.945 376.035C421.754 376.167 421.574 376.318 421.406 376.486C421.07 376.823 420.866 377.127 420.793 377.397C420.718 377.665 420.764 377.889 420.933 378.07C421.17 378.314 421.433 378.411 421.72 378.362C422.01 378.309 422.332 378.221 422.685 378.098C423.189 377.923 423.66 377.779 424.095 377.666C424.527 377.55 424.926 377.517 425.293 377.566C425.659 377.609 425.994 377.782 426.298 378.085C426.813 378.599 427.028 379.167 426.943 379.787C426.858 380.408 426.509 381.025 425.896 381.639C425.642 381.894 425.375 382.122 425.094 382.323C424.817 382.521 424.555 382.682 424.308 382.804C424.064 382.923 423.864 382.994 423.709 383.017ZM431.31 376.214C430.519 377.007 429.658 377.368 428.727 377.296C427.797 377.224 426.886 376.743 425.994 375.853C425.459 375.319 425.074 374.747 424.839 374.137C424.607 373.523 424.552 372.908 424.674 372.291C424.798 371.67 425.128 371.086 425.662 370.538C425.932 370.254 426.232 370.032 426.562 369.873C426.892 369.715 427.238 369.629 427.601 369.615C427.961 369.598 428.327 369.667 428.7 369.822C429.077 369.973 429.447 370.22 429.81 370.563C430.018 370.771 430.203 370.959 430.365 371.127C430.523 371.292 430.652 371.45 430.751 371.602L426.914 375.447L426.29 374.625L429.009 371.9C428.762 371.62 428.496 371.388 428.212 371.203C427.928 371.012 427.634 370.923 427.33 370.937C427.027 370.944 426.722 371.101 426.415 371.408C426.158 371.666 426 371.969 425.941 372.319C425.878 372.666 425.961 373.065 426.189 373.517C426.418 373.969 426.837 374.48 427.448 375.05C427.884 375.446 428.297 375.689 428.686 375.781C429.076 375.873 429.442 375.85 429.785 375.711C430.128 375.572 430.448 375.354 430.745 375.057C430.87 374.931 431.01 374.764 431.165 374.556C431.317 374.345 431.455 374.134 431.58 373.922C431.705 373.705 431.786 373.525 431.822 373.383L432.694 373.817C432.671 374.039 432.592 374.293 432.457 374.58C432.325 374.864 432.159 375.149 431.958 375.437C431.757 375.724 431.541 375.983 431.31 376.214Z" fill="white"/>
<path d="M273.415 467.477L272.841 466.857C272.923 466.433 272.999 466.018 273.068 465.613C273.135 465.203 273.198 464.801 273.255 464.408C273.316 464.01 273.374 463.617 273.428 463.23C273.481 462.838 273.535 462.449 273.589 462.062C273.642 461.67 273.697 461.278 273.755 460.885C273.817 460.491 273.88 460.091 273.944 459.687C274.011 459.277 274.084 458.861 274.163 458.438L274.669 458.3L275.86 458.622C275.777 458.993 275.703 459.351 275.637 459.698C275.571 460.04 275.51 460.378 275.456 460.712C275.402 461.046 275.349 461.377 275.298 461.705C275.247 462.034 275.193 462.365 275.134 462.7C275.078 463.03 275.018 463.368 274.953 463.714C274.887 464.061 274.813 464.42 274.73 464.791L274.428 465.918L280.507 464.264L280.832 465.459L273.415 467.477ZM278.288 468.27L277.401 465.007L276.667 461.725L278.072 461.342L279.842 467.847L278.288 468.27ZM285.245 466.493C284.89 466.59 284.561 466.619 284.26 466.58C283.96 466.541 283.694 466.4 283.464 466.158C283.237 465.91 283.052 465.523 282.908 464.996L281.685 460.498L280.712 460.762L280.484 459.925C280.792 459.739 281.025 459.591 281.183 459.481C281.34 459.365 281.43 459.188 281.452 458.95C281.461 458.841 281.47 458.713 281.478 458.566C281.485 458.414 281.493 458.248 281.502 458.066C281.509 457.88 281.518 457.68 281.527 457.465L282.459 457.211L282.926 458.927L285.033 458.353L285.346 459.502L283.238 460.075L284.238 463.749C284.37 464.236 284.487 464.586 284.589 464.8C284.694 465.008 284.814 465.128 284.948 465.159C285.085 465.185 285.271 465.166 285.505 465.102C285.631 465.068 285.772 465.015 285.926 464.944C286.085 464.867 286.232 464.786 286.368 464.701C286.509 464.614 286.613 464.535 286.681 464.463L287.18 465.285C287.073 465.425 286.918 465.576 286.716 465.738C286.516 465.894 286.288 466.04 286.03 466.178C285.777 466.315 285.515 466.42 285.245 466.493ZM288.828 465.403L285.84 454.42L287.393 453.997L288.235 457.091L288.523 458.47L288.401 458.315C288.542 458.122 288.733 457.918 288.974 457.702C289.215 457.486 289.486 457.29 289.786 457.111C290.084 456.929 290.392 456.789 290.709 456.693C291.523 456.448 292.178 456.511 292.676 456.884C293.179 457.255 293.579 457.99 293.878 459.088L295.129 463.688L293.576 464.111L292.321 459.497C292.153 458.881 291.935 458.461 291.667 458.239C291.403 458.016 291 457.992 290.458 458.169C290.22 458.238 289.95 458.372 289.646 458.571C289.342 458.77 289.074 459.019 288.841 459.32L290.381 464.98L288.828 465.403ZM299.851 462.404L297.12 452.367L298.714 451.933L299.901 456.296L304.481 455.051L303.294 450.687L304.874 450.257L307.605 460.294L306.024 460.724L304.811 456.266L300.232 457.512L301.445 461.97L299.851 462.404ZM312.801 458.997C312.189 459.163 311.639 459.197 311.153 459.097C310.666 458.997 310.239 458.797 309.872 458.495C309.505 458.194 309.195 457.819 308.942 457.37C308.693 456.915 308.497 456.42 308.356 455.883C308.15 455.073 308.126 454.352 308.282 453.719C308.439 453.086 308.741 452.559 309.187 452.138C309.632 451.712 310.181 451.411 310.834 451.233C311.654 451.01 312.36 451.019 312.952 451.259C313.548 451.493 314.038 451.887 314.42 452.441C314.806 452.989 315.092 453.62 315.276 454.334C315.482 455.143 315.507 455.867 315.351 456.504C315.199 457.135 314.901 457.664 314.455 458.09C314.015 458.514 313.463 458.817 312.801 458.997ZM312.542 457.885C313.162 457.726 313.563 457.368 313.745 456.811C313.93 456.248 313.908 455.545 313.679 454.703C313.537 454.181 313.345 453.725 313.104 453.336C312.862 452.942 312.57 452.654 312.23 452.471C311.895 452.286 311.517 452.249 311.097 452.358C310.481 452.512 310.079 452.858 309.892 453.397C309.705 453.936 309.727 454.627 309.956 455.469C310.098 455.991 310.291 456.454 310.536 456.856C310.781 457.259 311.072 457.557 311.41 457.75C311.748 457.944 312.126 457.989 312.542 457.885ZM320.179 456.99C319.688 457.123 319.271 457.155 318.928 457.084C318.585 457.013 318.295 456.857 318.061 456.616C317.825 456.37 317.623 456.058 317.457 455.677C317.295 455.296 317.149 454.864 317.018 454.382L315.82 449.978L317.373 449.556L318.568 453.946C318.729 454.54 318.893 454.965 319.059 455.22C319.23 455.473 319.423 455.614 319.639 455.642C319.859 455.67 320.126 455.64 320.442 455.555C320.626 455.504 320.815 455.424 321.007 455.314C321.203 455.198 321.383 455.076 321.546 454.949C321.709 454.818 321.835 454.702 321.923 454.6L320.332 448.751L321.885 448.328L323.962 455.961L323.246 456.156C323.039 456.212 322.866 456.225 322.727 456.195C322.589 456.17 322.487 456.033 322.42 455.785L322.276 455.259L322.384 455.548C322.218 455.739 322.014 455.932 321.773 456.128C321.535 456.319 321.277 456.493 321.001 456.65C320.723 456.803 320.449 456.916 320.179 456.99ZM325.681 454.898L325.584 453.691C325.665 453.722 325.823 453.752 326.058 453.78C326.297 453.802 326.574 453.809 326.891 453.8C327.211 453.786 327.531 453.737 327.852 453.655C328.286 453.542 328.594 453.378 328.778 453.163C328.961 452.949 329.016 452.705 328.941 452.43C328.888 452.236 328.775 452.086 328.601 451.978C328.426 451.871 328.203 451.789 327.932 451.732C327.663 451.67 327.36 451.612 327.021 451.559C326.566 451.485 326.153 451.382 325.784 451.25C325.414 451.119 325.102 450.93 324.847 450.686C324.596 450.439 324.417 450.111 324.31 449.7C324.198 449.252 324.226 448.847 324.394 448.487C324.565 448.122 324.838 447.81 325.213 447.553C325.588 447.297 326.03 447.099 326.539 446.961C327.012 446.832 327.44 446.769 327.822 446.771C328.204 446.769 328.46 446.786 328.591 446.823L328.681 448.061C328.582 448.015 328.438 447.984 328.25 447.968C328.065 447.946 327.856 447.944 327.625 447.964C327.393 447.983 327.162 448.024 326.933 448.087C326.473 448.212 326.145 448.374 325.947 448.572C325.749 448.767 325.677 448.984 325.733 449.226C325.818 449.555 325.998 449.77 326.271 449.87C326.55 449.968 326.872 450.052 327.239 450.122C327.764 450.221 328.244 450.33 328.678 450.449C329.11 450.563 329.473 450.733 329.766 450.958C330.063 451.177 330.268 451.493 330.38 451.908C330.572 452.61 330.476 453.209 330.093 453.705C329.711 454.201 329.1 454.563 328.263 454.791C327.916 454.885 327.571 454.95 327.228 454.985C326.889 455.019 326.582 455.028 326.306 455.011C326.035 454.993 325.827 454.955 325.681 454.898ZM335.659 452.779C334.578 453.073 333.652 452.957 332.88 452.432C332.109 451.907 331.557 451.036 331.227 449.82C331.028 449.091 330.979 448.403 331.079 447.757C331.183 447.109 331.442 446.548 331.854 446.073C332.271 445.597 332.848 445.254 333.584 445.044C333.959 444.932 334.33 444.89 334.695 444.916C335.06 444.942 335.403 445.04 335.725 445.209C336.045 445.373 336.329 445.615 336.575 445.935C336.827 446.254 337.024 446.652 337.169 447.13C337.246 447.414 337.313 447.669 337.37 447.895C337.425 448.117 337.458 448.319 337.469 448.5L332.227 449.925L332.094 448.903L335.809 447.892C335.734 447.526 335.619 447.192 335.464 446.89C335.313 446.583 335.102 446.36 334.832 446.221C334.565 446.076 334.223 446.06 333.804 446.174C333.453 446.27 333.164 446.454 332.939 446.728C332.713 446.998 332.586 447.386 332.559 447.891C332.532 448.396 332.642 449.049 332.888 449.847C333.069 450.407 333.306 450.824 333.598 451.098C333.89 451.371 334.22 451.533 334.586 451.583C334.953 451.634 335.339 451.603 335.744 451.493C335.915 451.447 336.12 451.372 336.358 451.268C336.594 451.16 336.82 451.046 337.033 450.925C337.25 450.798 337.41 450.682 337.512 450.577L338.052 451.388C337.922 451.568 337.727 451.749 337.467 451.931C337.211 452.112 336.925 452.277 336.607 452.426C336.29 452.576 335.974 452.693 335.659 452.779Z" fill="white"/>
<path d="M162.414 455.847L162.678 454.781C162.855 454.861 163.035 454.937 163.219 455.009C163.407 455.082 163.587 455.141 163.759 455.186C164.395 455.353 164.976 455.42 165.5 455.388C166.03 455.353 166.468 455.229 166.813 455.015C167.16 454.797 167.381 454.503 167.478 454.133C167.576 453.758 167.585 453.411 167.505 453.091C167.43 452.767 167.245 452.49 166.948 452.258C166.652 452.026 166.228 451.857 165.677 451.752L164.978 451.742L164.949 450.606C165.191 450.621 165.43 450.623 165.664 450.612C165.898 450.601 166.121 450.58 166.332 450.548C166.838 450.478 167.257 450.33 167.591 450.104C167.931 449.874 168.15 449.582 168.248 449.226C168.38 448.759 168.323 448.387 168.077 448.11C167.835 447.835 167.498 447.641 167.064 447.527C166.586 447.402 166.16 447.37 165.787 447.432C165.418 447.495 165.095 447.579 164.816 447.685L164.478 446.627C164.682 446.53 164.946 446.44 165.272 446.357C165.602 446.274 165.965 446.224 166.36 446.207C166.756 446.19 167.147 446.232 167.536 446.334C168.086 446.478 168.559 446.698 168.955 446.994C169.351 447.286 169.632 447.639 169.799 448.054C169.971 448.466 169.991 448.925 169.859 449.43C169.746 449.859 169.54 450.223 169.241 450.52C168.942 450.814 168.588 451.042 168.179 451.205C167.771 451.364 167.348 451.458 166.911 451.488L166.962 451.292C167.574 451.442 168.057 451.689 168.411 452.033C168.765 452.376 168.999 452.763 169.113 453.193C169.229 453.619 169.231 454.042 169.122 454.461C168.98 455.003 168.664 455.463 168.175 455.842C167.691 456.217 167.074 456.463 166.324 456.581C165.581 456.695 164.744 456.63 163.814 456.387C163.552 456.319 163.304 456.234 163.069 456.135C162.838 456.04 162.62 455.945 162.414 455.847ZM172.985 452.722L173.159 451.668C173.263 451.546 173.446 451.43 173.706 451.319C173.968 451.204 174.261 451.124 174.587 451.079C174.916 451.035 175.235 451.053 175.542 451.134C175.713 451.179 175.858 451.224 175.977 451.269C176.1 451.316 176.186 451.365 176.235 451.416L175.852 452.879C175.794 452.825 175.7 452.76 175.571 452.682C175.446 452.606 175.23 452.528 174.923 452.448C174.643 452.375 174.38 452.349 174.133 452.371C173.892 452.39 173.673 452.434 173.476 452.504C173.279 452.573 173.116 452.646 172.985 452.722ZM170.06 457.876L172.029 450.345L173.356 450.692L173.213 451.682L173.186 452.283L171.617 458.283L170.06 457.876ZM179.944 460.461L180.206 459.459L180.136 459.397L181.531 454.06L181.596 454.034L181.932 452.53L182.743 449.428L184.3 449.836L181.42 460.847L179.944 460.461ZM177.81 460.019C177.281 459.88 176.823 459.621 176.436 459.24C176.053 458.86 175.791 458.367 175.651 457.761C175.515 457.156 175.553 456.445 175.767 455.628C175.981 454.811 176.327 454.134 176.804 453.598C177.283 453.058 177.85 452.688 178.506 452.488C179.167 452.284 179.879 452.282 180.642 452.482C181.107 452.604 181.483 452.762 181.769 452.958C182.057 453.149 182.233 453.294 182.299 453.393L181.483 454.243C181.379 454.09 181.219 453.962 181.005 453.858C180.796 453.755 180.538 453.663 180.231 453.583C179.847 453.482 179.472 453.498 179.105 453.628C178.742 453.76 178.413 454.012 178.119 454.383C177.824 454.755 177.593 455.249 177.427 455.867C177.182 456.748 177.166 457.436 177.379 457.931C177.592 458.425 177.987 458.748 178.565 458.899C178.918 458.992 179.248 459.008 179.558 458.949C179.872 458.891 180.122 458.822 180.307 458.74L180.363 459.579C180.225 459.664 180.044 459.764 179.821 459.879C179.598 459.994 179.321 460.076 178.99 460.125C178.659 460.173 178.266 460.138 177.81 460.019ZM186.147 462.083L188.779 452.02L190.378 452.438L189.233 456.813L193.825 458.014L194.969 453.639L196.554 454.053L193.922 464.117L192.337 463.702L193.506 459.233L188.915 458.032L187.746 462.501L186.147 462.083ZM199.074 465.58C198.46 465.42 197.967 465.175 197.595 464.846C197.223 464.517 196.952 464.13 196.784 463.686C196.616 463.242 196.534 462.762 196.538 462.247C196.548 461.729 196.626 461.201 196.771 460.665C196.996 459.861 197.334 459.223 197.785 458.753C198.236 458.282 198.76 457.975 199.357 457.832C199.955 457.685 200.581 457.697 201.236 457.868C202.058 458.083 202.666 458.442 203.06 458.946C203.459 459.446 203.687 460.031 203.744 460.702C203.805 461.369 203.738 462.058 203.543 462.769C203.318 463.574 202.979 464.214 202.527 464.689C202.081 465.16 201.558 465.47 200.96 465.618C200.367 465.766 199.738 465.754 199.074 465.58ZM199.404 464.487C200.02 464.658 200.546 464.547 200.981 464.154C201.422 463.758 201.753 463.138 201.974 462.294C202.111 461.77 202.172 461.28 202.156 460.822C202.142 460.36 202.033 459.965 201.83 459.637C201.631 459.31 201.322 459.089 200.903 458.975C200.293 458.801 199.772 458.901 199.341 459.275C198.91 459.65 198.585 460.259 198.364 461.104C198.227 461.627 198.164 462.125 198.176 462.596C198.188 463.067 198.292 463.47 198.489 463.806C198.686 464.142 198.991 464.369 199.404 464.487ZM206.471 467.515C205.979 467.386 205.602 467.205 205.34 466.973C205.077 466.74 204.904 466.461 204.821 466.135C204.738 465.805 204.72 465.433 204.765 465.021C204.815 464.609 204.903 464.162 205.029 463.679L206.184 459.263L207.741 459.671L206.59 464.073C206.434 464.669 206.365 465.118 206.382 465.422C206.404 465.727 206.501 465.945 206.674 466.077C206.851 466.21 207.098 466.318 207.414 466.401C207.599 466.449 207.802 466.474 208.024 466.474C208.252 466.471 208.468 466.455 208.673 466.426C208.88 466.394 209.046 466.355 209.174 466.311L210.708 460.447L212.265 460.854L210.264 468.507L209.546 468.319C209.338 468.265 209.182 468.19 209.076 468.095C208.97 468.004 208.949 467.835 209.014 467.586L209.152 467.058L209.101 467.363C208.863 467.446 208.59 467.512 208.282 467.561C207.981 467.608 207.671 467.631 207.353 467.63C207.036 467.624 206.742 467.586 206.471 467.515ZM212.284 468.442L212.801 467.347C212.856 467.414 212.978 467.519 213.168 467.66C213.364 467.798 213.601 467.942 213.88 468.092C214.165 468.239 214.467 468.356 214.786 468.445C215.218 468.563 215.567 468.574 215.833 468.48C216.099 468.385 216.268 468.201 216.34 467.925C216.391 467.731 216.367 467.544 216.27 467.364C216.172 467.184 216.02 467.002 215.812 466.818C215.611 466.63 215.376 466.429 215.109 466.214C214.751 465.923 214.445 465.628 214.19 465.33C213.935 465.031 213.758 464.713 213.659 464.373C213.564 464.035 213.572 463.661 213.684 463.251C213.81 462.806 214.036 462.47 214.361 462.241C214.692 462.01 215.084 461.876 215.537 461.84C215.99 461.804 216.472 461.853 216.982 461.986C217.456 462.11 217.858 462.269 218.189 462.461C218.521 462.649 218.734 462.792 218.829 462.889L218.291 464.007C218.227 463.918 218.118 463.82 217.963 463.712C217.814 463.6 217.634 463.495 217.423 463.397C217.213 463.298 216.992 463.219 216.762 463.159C216.301 463.038 215.936 463.015 215.666 463.089C215.397 463.159 215.227 463.312 215.155 463.549C215.064 463.877 215.113 464.153 215.3 464.376C215.493 464.6 215.731 464.833 216.014 465.076C216.42 465.423 216.782 465.757 217.099 466.076C217.417 466.391 217.647 466.719 217.789 467.06C217.937 467.397 217.957 467.774 217.848 468.189C217.664 468.894 217.283 469.366 216.704 469.605C216.125 469.844 215.416 469.854 214.576 469.634C214.229 469.544 213.897 469.428 213.582 469.288C213.271 469.148 213 469.003 212.77 468.851C212.544 468.7 212.382 468.564 212.284 468.442ZM221.991 471.574C220.908 471.29 220.162 470.729 219.755 469.889C219.347 469.049 219.303 468.02 219.622 466.801C219.813 466.07 220.113 465.449 220.522 464.938C220.935 464.429 221.438 464.071 222.032 463.864C222.631 463.659 223.302 463.649 224.045 463.833C224.426 463.924 224.769 464.071 225.072 464.276C225.376 464.481 225.625 464.736 225.819 465.043C226.015 465.345 226.141 465.696 226.195 466.096C226.254 466.498 226.227 466.942 226.115 467.428C226.04 467.713 225.971 467.967 225.908 468.192C225.845 468.412 225.774 468.603 225.693 468.765L220.437 467.39L220.831 466.437L224.556 467.411C224.673 467.056 224.74 466.709 224.756 466.371C224.778 466.029 224.706 465.731 224.541 465.476C224.382 465.217 224.093 465.033 223.673 464.923C223.321 464.831 222.979 464.847 222.647 464.973C222.316 465.094 222.013 465.367 221.738 465.792C221.463 466.216 221.233 466.837 221.049 467.652C220.927 468.228 220.925 468.707 221.042 469.09C221.159 469.472 221.364 469.777 221.657 470.003C221.95 470.229 222.3 470.395 222.706 470.502C222.877 470.547 223.092 470.583 223.35 470.612C223.609 470.637 223.861 470.649 224.107 470.651C224.358 470.649 224.554 470.628 224.695 470.588L224.759 471.56C224.557 471.651 224.297 471.711 223.981 471.74C223.67 471.769 223.339 471.769 222.99 471.741C222.64 471.712 222.307 471.656 221.991 471.574Z" fill="white"/>
<path d="M62.3761 376.813L62.8056 376.066C63.3144 376.181 63.8617 376.273 64.4476 376.34C65.0335 376.407 65.6251 376.44 66.2226 376.439C66.8201 376.437 67.4005 376.394 67.9638 376.309C68.5304 376.22 69.0505 376.08 69.524 375.887C70.0007 375.698 70.4048 375.445 70.7361 375.13C71.1892 374.699 71.4279 374.256 71.4525 373.801C71.4802 373.349 71.3027 372.923 70.9199 372.52C70.5918 372.175 70.2152 371.922 69.7901 371.759C69.3717 371.597 68.9825 371.516 68.6227 371.517L68.8596 370.355C69.1237 370.355 69.4346 370.394 69.7925 370.472C70.1569 370.55 70.5362 370.695 70.9304 370.906C71.3279 371.114 71.7084 371.409 72.0719 371.791C72.5833 372.329 72.8984 372.867 73.017 373.404C73.1389 373.945 73.1029 374.463 72.9091 374.956C72.7153 375.45 72.4037 375.901 71.9743 376.309C71.4671 376.792 70.8358 377.157 70.0804 377.406C69.3281 377.658 68.506 377.796 67.6142 377.82C66.729 377.844 65.8217 377.761 64.8923 377.569L67.9488 380.69L66.9599 381.631L62.3761 376.813ZM68.3899 383.134L74.0293 377.769L75.0281 378.818L74.4345 379.393C74.661 379.441 74.9264 379.521 75.2306 379.63C75.5381 379.744 75.8448 379.887 76.1508 380.059C76.46 380.235 76.7338 380.442 76.9722 380.679C77.5649 381.268 77.821 381.852 77.7406 382.431C77.6635 383.007 77.2108 383.689 76.3825 384.477L72.8579 387.83L71.7385 386.654L75.2022 383.358C75.6756 382.908 75.9542 382.52 76.0382 382.196C76.1254 381.874 75.9562 381.514 75.5304 381.113C75.4145 380.998 75.2622 380.882 75.0737 380.765C74.8917 380.649 74.6864 380.544 74.4576 380.453C74.2354 380.362 73.9994 380.296 73.7495 380.257L69.4997 384.3L68.3899 383.134ZM77.7202 392.941L78.4708 392.227L78.4433 392.137L82.4395 388.335L82.5086 388.346L83.5857 387.244L85.9084 385.034L87.0181 386.201L78.7721 394.046L77.7202 392.941ZM76.1385 391.441C75.7621 391.045 75.5095 390.583 75.3808 390.055C75.2552 389.531 75.2921 388.974 75.4917 388.384C75.6944 387.799 76.1017 387.215 76.7137 386.632C77.3256 386.05 77.9758 385.657 78.6641 385.453C79.3558 385.246 80.0329 385.23 80.6953 385.405C81.3644 385.58 81.9707 385.953 82.5143 386.524C82.8456 386.873 83.0816 387.205 83.2223 387.522C83.3663 387.836 83.4401 388.053 83.4438 388.171L82.3026 388.465C82.294 388.28 82.2262 388.087 82.0992 387.885C81.9754 387.688 81.8041 387.474 81.5854 387.244C81.3119 386.956 80.9848 386.772 80.6039 386.69C80.2263 386.611 79.8143 386.652 79.368 386.812C78.9217 386.973 78.4654 387.272 77.999 387.709C77.3266 388.329 76.9509 388.906 76.8716 389.439C76.7923 389.972 76.9585 390.454 77.3703 390.887C77.6212 391.151 77.8938 391.339 78.188 391.452C78.4855 391.568 78.7346 391.641 78.9352 391.669L78.5404 392.411C78.3787 392.411 78.1727 392.401 77.9223 392.381C77.6719 392.362 77.3932 392.286 77.0863 392.152C76.7793 392.019 76.4634 391.782 76.1385 391.441ZM82.1399 397.586L89.6759 390.416L90.8147 391.613L87.5386 394.73L90.8099 398.168L94.0861 395.051L95.2151 396.238L87.6791 403.408L86.55 402.221L89.8971 399.037L86.6257 395.598L83.2786 398.783L82.1399 397.586ZM91.2891 407.365C90.8516 406.905 90.5612 406.437 90.4179 405.962C90.2746 405.486 90.2484 405.015 90.3392 404.549C90.43 404.082 90.6129 403.631 90.8878 403.196C91.1693 402.76 91.5128 402.353 91.9184 401.974C92.5332 401.408 93.1562 401.044 93.7875 400.881C94.4187 400.719 95.0256 400.734 95.6084 400.927C96.1945 401.116 96.7208 401.456 97.1872 401.946C97.7727 402.562 98.1004 403.187 98.1704 403.822C98.247 404.458 98.1326 405.076 97.8272 405.676C97.5284 406.276 97.1087 406.826 96.5681 407.328C95.9532 407.893 95.3285 408.259 94.6939 408.425C94.0659 408.591 93.4589 408.579 92.8728 408.389C92.2898 408.203 91.7619 407.862 91.2891 407.365ZM92.1447 406.609C92.5786 407.078 93.084 407.261 93.661 407.156C94.2445 407.052 94.8524 406.699 95.4847 406.098C95.8768 405.724 96.1868 405.339 96.4145 404.942C96.6457 404.542 96.7611 404.149 96.7608 403.763C96.7637 403.38 96.6173 403.03 96.3215 402.712C95.8942 402.242 95.3988 402.054 94.8354 402.145C94.272 402.237 93.6741 402.583 93.0419 403.185C92.6497 403.558 92.3347 403.948 92.0968 404.355C91.8589 404.761 91.7351 405.159 91.7254 405.549C91.7158 405.938 91.8555 406.291 92.1447 406.609ZM96.5593 412.904C96.2087 412.535 95.9831 412.183 95.8826 411.847C95.782 411.511 95.7819 411.183 95.8823 410.862C95.9861 410.538 96.1659 410.212 96.4216 409.885C96.6805 409.562 96.9908 409.228 97.3526 408.883L100.659 405.738L101.769 406.904L98.4725 410.04C98.0262 410.465 97.7304 410.811 97.5851 411.078C97.4431 411.348 97.4108 411.585 97.4882 411.788C97.5689 411.995 97.7218 412.217 97.947 412.453C98.0789 412.592 98.2391 412.72 98.4276 412.837C98.6228 412.954 98.815 413.054 99.0044 413.138C99.1971 413.219 99.3592 413.274 99.4904 413.304L103.882 409.125L104.992 410.292L99.2614 415.744L98.7499 415.206C98.6019 415.051 98.5082 414.905 98.4687 414.769C98.4258 414.636 98.4973 414.48 98.6833 414.304L99.0788 413.927L98.875 414.16C98.6288 414.104 98.362 414.017 98.0745 413.897C97.7936 413.778 97.5182 413.634 97.2484 413.466C96.982 413.294 96.7523 413.107 96.5593 412.904ZM101.013 416.752L102.029 416.094C102.04 416.18 102.089 416.333 102.176 416.553C102.27 416.773 102.396 417.021 102.554 417.295C102.719 417.57 102.914 417.829 103.139 418.072C103.444 418.4 103.735 418.594 104.01 418.654C104.286 418.713 104.527 418.645 104.734 418.449C104.879 418.311 104.957 418.139 104.969 417.935C104.981 417.73 104.947 417.495 104.868 417.229C104.795 416.963 104.702 416.669 104.588 416.346C104.437 415.91 104.332 415.498 104.272 415.11C104.212 414.722 104.23 414.358 104.324 414.017C104.421 413.68 104.626 413.366 104.937 413.077C105.278 412.765 105.647 412.598 106.043 412.575C106.447 412.552 106.85 412.644 107.254 412.852C107.659 413.06 108.042 413.355 108.406 413.737C108.744 414.092 109.002 414.439 109.182 414.777C109.365 415.111 109.472 415.345 109.501 415.478L108.455 416.145C108.448 416.036 108.407 415.895 108.332 415.721C108.263 415.548 108.166 415.364 108.038 415.169C107.911 414.975 107.766 414.791 107.602 414.619C107.273 414.274 106.975 414.062 106.706 413.982C106.441 413.9 106.216 413.94 106.03 414.104C105.78 414.336 105.676 414.595 105.718 414.884C105.764 415.175 105.843 415.499 105.957 415.855C106.119 416.364 106.251 416.838 106.352 417.276C106.457 417.711 106.48 418.111 106.421 418.476C106.369 418.841 106.188 419.172 105.877 419.468C105.349 419.969 104.777 420.17 104.158 420.068C103.54 419.967 102.932 419.602 102.334 418.973C102.086 418.713 101.865 418.44 101.671 418.155C101.48 417.873 101.327 417.606 101.211 417.356C101.098 417.109 101.032 416.908 101.013 416.752ZM107.617 424.526C106.845 423.715 106.507 422.845 106.603 421.916C106.698 420.988 107.203 420.089 108.116 419.221C108.663 418.7 109.245 418.33 109.861 418.111C110.481 417.895 111.097 417.856 111.711 417.993C112.328 418.134 112.904 418.479 113.438 419.027C113.715 419.304 113.929 419.61 114.079 419.944C114.229 420.278 114.306 420.626 114.31 420.989C114.318 421.349 114.239 421.714 114.075 422.083C113.914 422.455 113.657 422.818 113.305 423.172C113.092 423.375 112.9 423.555 112.727 423.713C112.558 423.867 112.397 423.992 112.243 424.087L108.498 420.151L109.335 419.548L111.989 422.338C112.276 422.097 112.515 421.837 112.707 421.558C112.905 421.279 113.001 420.988 112.996 420.684C112.997 420.381 112.848 420.071 112.548 419.757C112.298 419.493 111.998 419.327 111.65 419.259C111.305 419.188 110.904 419.261 110.446 419.477C109.989 419.693 109.467 420.1 108.881 420.696C108.474 421.121 108.22 421.528 108.118 421.914C108.016 422.301 108.03 422.668 108.16 423.015C108.29 423.361 108.5 423.687 108.789 423.991C108.911 424.119 109.074 424.264 109.278 424.424C109.486 424.581 109.693 424.725 109.901 424.855C110.116 424.986 110.294 425.071 110.435 425.111L109.978 425.971C109.757 425.943 109.505 425.857 109.221 425.715C108.941 425.576 108.66 425.402 108.378 425.194C108.096 424.985 107.842 424.763 107.617 424.526Z" fill="white"/>
<path d="M21.0932 273.608L29.3443 271.197C29.2025 270.962 29.0671 270.731 28.9382 270.507C28.8106 270.286 28.6855 270.058 28.563 269.821L29.4392 269.376C29.5647 269.572 29.7179 269.78 29.8987 270C30.0808 270.224 30.2699 270.438 30.466 270.644C30.6634 270.853 30.8507 271.037 31.0279 271.194C31.2096 271.35 31.3574 271.465 31.4713 271.539L31.5584 272.286L21.5604 275.207L21.0932 273.608ZM22.798 277.796L24.0031 277.677C23.9735 277.759 23.9468 277.917 23.9232 278.153C23.9054 278.391 23.9039 278.669 23.9186 278.985C23.9391 279.305 23.9935 279.625 24.082 279.944C24.2031 280.375 24.3726 280.681 24.5903 280.86C24.8081 281.04 25.0536 281.089 25.3268 281.01C25.5194 280.953 25.6678 280.837 25.7718 280.661C25.8759 280.485 25.9537 280.26 26.0053 279.987C26.0627 279.718 26.1147 279.413 26.1614 279.074C26.2273 278.617 26.3226 278.203 26.4473 277.831C26.572 277.459 26.7544 277.143 26.9945 276.883C27.236 276.628 27.5611 276.443 27.9701 276.328C28.4161 276.208 28.8208 276.228 29.1839 276.389C29.5528 276.554 29.8692 276.821 30.1329 277.192C30.3967 277.562 30.6025 278 30.7504 278.506C30.8878 278.976 30.9589 279.403 30.9638 279.786C30.9731 280.167 30.9605 280.423 30.926 280.555L29.6902 280.668C29.7338 280.568 29.7621 280.424 29.7751 280.235C29.7938 280.05 29.7913 279.841 29.7675 279.61C29.7437 279.379 29.6984 279.149 29.6317 278.92C29.4982 278.464 29.3302 278.138 29.1278 277.945C28.9298 277.75 28.7108 277.682 28.4708 277.743C28.1425 277.834 27.9311 278.017 27.8366 278.293C27.7434 278.573 27.6655 278.897 27.6029 279.265C27.5138 279.792 27.4138 280.273 27.3029 280.709C27.1965 281.144 27.0336 281.51 26.8142 281.807C26.6007 282.108 26.2878 282.319 25.8757 282.439C25.1769 282.643 24.5761 282.559 24.0732 282.185C23.5704 281.812 23.1972 281.209 22.9538 280.376C22.853 280.031 22.7817 279.687 22.7399 279.344C22.6995 279.006 22.6851 278.699 22.697 278.423C22.7101 278.152 22.7438 277.943 22.798 277.796ZM24.8755 286.953C24.7722 286.599 24.7372 286.272 24.7707 285.97C24.8041 285.669 24.9397 285.401 25.1774 285.166C25.4209 284.934 25.8047 284.742 26.3288 284.589L30.8037 283.281L30.521 282.314L31.3542 282.07C31.5451 282.374 31.6974 282.605 31.8112 282.761C31.9294 282.916 32.1078 283.002 32.3464 283.02C32.4554 283.027 32.5836 283.034 32.7311 283.039C32.883 283.043 33.0497 283.048 33.2312 283.053C33.4171 283.057 33.6178 283.062 33.8332 283.067L34.1041 283.994L32.3975 284.493L33.0099 286.589L31.8677 286.923L31.2552 284.827L27.6 285.895C27.1162 286.036 26.7683 286.16 26.5561 286.265C26.3497 286.374 26.2321 286.496 26.2034 286.631C26.1805 286.769 26.2031 286.954 26.2712 287.187C26.3078 287.313 26.3631 287.452 26.4371 287.605C26.5169 287.762 26.6008 287.908 26.6888 288.042C26.7781 288.182 26.8591 288.284 26.932 288.351L26.1196 288.865C25.9773 288.761 25.8236 288.609 25.6583 288.409C25.4988 288.213 25.3477 287.987 25.2052 287.732C25.064 287.482 24.9541 287.222 24.8755 286.953ZM26.748 292.963L36.7326 290.046L37.1959 291.631L32.8554 292.899L34.1864 297.455L38.5269 296.187L38.9863 297.759L29.0017 300.676L28.5423 299.104L32.9769 297.808L31.6459 293.253L27.2113 294.549L26.748 292.963ZM30.396 305.848C30.218 305.239 30.1743 304.69 30.265 304.201C30.3557 303.713 30.5483 303.282 30.8429 302.91C31.1375 302.537 31.5067 302.22 31.9507 301.959C32.4004 301.701 32.8925 301.496 33.4269 301.345C34.2326 301.124 34.9532 301.086 35.5887 301.231C36.2242 301.376 36.7567 301.668 37.1862 302.106C37.6202 302.544 37.9321 303.087 38.1219 303.736C38.3601 304.552 38.3646 305.258 38.1355 305.855C37.9121 306.455 37.5273 306.951 36.9809 307.344C36.4403 307.74 35.8148 308.037 35.1044 308.235C34.2987 308.456 33.5759 308.495 32.9359 308.351C32.3017 308.211 31.7676 307.922 31.3336 307.485C30.9009 307.052 30.5884 306.506 30.396 305.848ZM31.503 305.568C31.6733 306.184 32.0388 306.578 32.5994 306.75C33.1659 306.925 33.8679 306.89 34.7055 306.645C35.2252 306.493 35.6772 306.293 36.0616 306.045C36.4505 305.795 36.7333 305.499 36.9101 305.155C37.0882 304.816 37.1187 304.438 37.0015 304.02C36.8369 303.407 36.4833 303.012 35.9405 302.835C35.3978 302.658 34.7076 302.692 33.87 302.937C33.3504 303.089 32.8916 303.291 32.4938 303.543C32.0959 303.795 31.8035 304.092 31.6164 304.434C31.4293 304.775 31.3915 305.153 31.503 305.568ZM32.5402 313.187C32.3976 312.699 32.3585 312.282 32.4232 311.938C32.4878 311.593 32.6383 311.301 32.8747 311.062C33.1156 310.821 33.4246 310.614 33.8017 310.441C34.1802 310.272 34.6091 310.117 35.0884 309.977L39.4693 308.697L39.9208 310.243L35.5534 311.519C34.9621 311.692 34.5407 311.863 34.2891 312.034C34.0389 312.209 33.9016 312.405 33.8772 312.621C33.8542 312.842 33.8885 313.109 33.9801 313.423C34.0337 313.606 34.1176 313.793 34.2315 313.984C34.3513 314.177 34.476 314.354 34.6058 314.516C34.7401 314.676 34.8588 314.799 34.9619 314.886L40.7806 313.186L41.2321 314.731L33.6396 316.95L33.4315 316.237C33.3713 316.031 33.3549 315.859 33.3822 315.719C33.4051 315.581 33.5398 315.476 33.7861 315.404L34.3102 315.251L34.0224 315.365C33.8292 315.202 33.6321 315.002 33.4314 314.764C33.2364 314.53 33.0576 314.275 32.8951 314.002C32.737 313.727 32.6187 313.456 32.5402 313.187ZM34.7339 318.648L35.939 318.53C35.9093 318.611 35.8827 318.77 35.8591 319.005C35.8413 319.244 35.8398 319.521 35.8545 319.838C35.875 320.158 35.9294 320.477 36.0179 320.797C36.139 321.228 36.3085 321.533 36.5262 321.713C36.7439 321.892 36.9894 321.942 37.2627 321.862C37.4553 321.806 37.6036 321.69 37.7077 321.513C37.8118 321.337 37.8896 321.113 37.9412 320.84C37.9986 320.57 38.0506 320.266 38.0973 319.926C38.1632 319.47 38.2585 319.055 38.3832 318.683C38.5079 318.311 38.6903 317.996 38.9304 317.736C39.1718 317.481 39.497 317.296 39.906 317.181C40.352 317.06 40.7566 317.081 41.1198 317.242C41.4887 317.407 41.805 317.674 42.0688 318.044C42.3325 318.414 42.5384 318.853 42.6862 319.359C42.8237 319.829 42.8948 320.256 42.8996 320.638C42.909 321.02 42.8964 321.276 42.8619 321.408L41.626 321.521C41.6697 321.421 41.698 321.276 41.711 321.088C41.7297 320.902 41.7272 320.694 41.7034 320.463C41.6796 320.231 41.6343 320.002 41.5676 319.773C41.4341 319.316 41.2661 318.991 41.0637 318.797C40.8657 318.602 40.6467 318.535 40.4067 318.595C40.0784 318.686 39.867 318.87 39.7725 319.145C39.6793 319.425 39.6014 319.75 39.5388 320.118C39.4497 320.645 39.3496 321.126 39.2388 321.562C39.1324 321.997 38.9695 322.363 38.7501 322.66C38.5365 322.961 38.2237 323.171 37.8116 323.292C37.1128 323.496 36.512 323.411 36.0091 323.038C35.5062 322.665 35.1331 322.061 34.8897 321.228C34.7889 320.883 34.7176 320.54 34.6758 320.197C34.6354 319.859 34.621 319.552 34.6328 319.276C34.646 319.005 34.6797 318.796 34.7339 318.648ZM37.0392 328.585C36.7251 327.51 36.8234 326.582 37.3341 325.801C37.8448 325.02 38.7049 324.452 39.9144 324.099C40.64 323.887 41.3268 323.825 41.9748 323.913C42.6241 324.005 43.19 324.253 43.6725 324.656C44.1563 325.064 44.5101 325.634 44.7336 326.366C44.8525 326.74 44.9022 327.11 44.8826 327.475C44.8629 327.841 44.7717 328.186 44.6089 328.51C44.4506 328.834 44.2138 329.122 43.8987 329.374C43.5848 329.631 43.1902 329.836 42.7148 329.99C42.4326 330.072 42.1789 330.144 41.9536 330.205C41.7328 330.265 41.5321 330.301 41.3514 330.315L39.828 325.101L40.8483 324.949L41.928 328.645C42.2929 328.562 42.6245 328.441 42.9229 328.281C43.2271 328.124 43.4464 327.909 43.5806 327.637C43.7207 327.367 43.7299 327.024 43.6082 326.608C43.5061 326.258 43.3159 325.973 43.0377 325.753C42.7639 325.532 42.3741 325.412 41.8682 325.395C41.3624 325.377 40.7124 325.499 39.9185 325.76C39.3619 325.952 38.9496 326.197 38.6815 326.494C38.4134 326.791 38.2577 327.123 38.2144 327.491C38.171 327.858 38.2083 328.244 38.3261 328.647C38.3758 328.817 38.4546 329.02 38.5624 329.256C38.6747 329.491 38.7933 329.714 38.9183 329.925C39.0491 330.14 39.1679 330.297 39.275 330.397L38.4744 330.952C38.2916 330.825 38.1068 330.634 37.92 330.377C37.7345 330.125 37.5643 329.842 37.4092 329.527C37.2541 329.213 37.1308 328.899 37.0392 328.585Z" fill="white"/>
<path d="M29.1205 224.558L20.8197 222.325C20.8182 222.6 20.814 222.867 20.8071 223.126C20.8014 223.38 20.7894 223.641 20.7711 223.906L19.791 223.831C19.7861 223.598 19.7635 223.34 19.7233 223.059C19.6842 222.773 19.6344 222.491 19.5736 222.214C19.5142 221.932 19.4496 221.678 19.3801 221.452C19.3061 221.224 19.2396 221.049 19.1806 220.927L19.4951 220.243L29.5534 222.949L29.1205 224.558ZM30.3909 219.836L29.5297 219.858C29.363 219.364 29.156 218.849 28.9086 218.314C28.6612 217.778 28.3813 217.256 28.0689 216.747C27.7565 216.237 27.4174 215.764 27.0516 215.328C26.6813 214.89 26.2906 214.519 25.8795 214.215C25.4695 213.907 25.0438 213.693 24.6021 213.574C23.9983 213.412 23.4957 213.438 23.0946 213.654C22.6946 213.865 22.4224 214.239 22.2782 214.776C22.1545 215.235 22.1339 215.689 22.2165 216.136C22.2958 216.578 22.4295 216.952 22.6176 217.259L21.5016 217.662C21.3641 217.436 21.2356 217.151 21.1162 216.804C20.9934 216.452 20.9196 216.053 20.8947 215.607C20.8654 215.159 20.9192 214.681 21.0562 214.171C21.249 213.455 21.544 212.906 21.9414 212.525C22.3399 212.139 22.8004 211.9 23.3228 211.809C23.8451 211.718 24.3925 211.749 24.9648 211.903C25.6407 212.085 26.2815 212.434 26.8869 212.949C27.4936 213.46 28.0393 214.091 28.524 214.84C29.0055 215.583 29.4063 216.401 29.7266 217.294L30.8006 213.06L32.1187 213.415L30.3909 219.836ZM33.3297 209.345C33.2339 209.701 33.0933 209.999 32.9079 210.239C32.7225 210.479 32.4672 210.637 32.1421 210.714C31.8137 210.785 31.3858 210.75 30.8586 210.608L26.3567 209.397L26.0948 210.37L25.2566 210.145C25.2517 209.786 25.2413 209.51 25.2255 209.317C25.2052 209.123 25.0978 208.957 24.9033 208.817C24.8139 208.755 24.7076 208.683 24.5846 208.601C24.457 208.518 24.3171 208.428 24.1649 208.329C24.0082 208.229 23.8392 208.12 23.6579 208.004L23.9089 207.071L25.6259 207.533L26.1933 205.424L27.3424 205.733L26.775 207.842L30.4522 208.832C30.9389 208.962 31.3004 209.038 31.5366 209.058C31.7695 209.072 31.9333 209.029 32.0279 208.929C32.1192 208.823 32.1964 208.653 32.2595 208.419C32.2934 208.293 32.3187 208.145 32.3353 207.975C32.3486 207.8 32.3528 207.632 32.3477 207.471C32.3439 207.306 32.3281 207.176 32.3003 207.082L33.2617 207.065C33.329 207.228 33.3813 207.438 33.4186 207.694C33.4526 207.945 33.4642 208.216 33.4533 208.508C33.4436 208.796 33.4024 209.074 33.3297 209.345ZM34.194 205.701L23.2029 202.744L23.6212 201.189L26.7171 202.022L28.0539 202.469L27.8582 202.496C27.7625 202.277 27.6824 202.009 27.6178 201.692C27.5533 201.375 27.5196 201.042 27.5168 200.693C27.5095 200.344 27.5443 200.007 27.6214 199.685C27.8195 198.859 28.2049 198.325 28.7775 198.082C29.3513 197.836 30.188 197.86 31.2876 198.156L35.8909 199.395L35.4725 200.949L30.8557 199.707C30.2384 199.541 29.7662 199.518 29.4391 199.638C29.1133 199.753 28.89 200.089 28.7691 200.646C28.7093 200.886 28.6887 201.188 28.7071 201.55C28.7255 201.913 28.8057 202.27 28.9477 202.623L34.6123 204.147L34.194 205.701ZM37.162 194.67L27.1173 191.967L27.5465 190.372L31.9132 191.547L33.1463 186.964L28.7796 185.789L29.2051 184.207L39.2499 186.91L38.8243 188.492L34.363 187.291L33.1299 191.874L37.5913 193.075L37.162 194.67ZM40.7494 181.768C40.5845 182.381 40.3363 182.872 40.0048 183.242C39.6733 183.612 39.2848 183.88 38.8392 184.045C38.3936 184.21 37.9134 184.289 37.3985 184.281C36.8803 184.267 36.3536 184.186 35.8186 184.037C35.0156 183.806 34.3804 183.464 33.9131 183.009C33.4457 182.555 33.1427 182.029 33.0039 181.431C32.8607 180.832 32.877 180.206 33.0528 179.552C33.2734 178.732 33.6369 178.127 34.1431 177.736C34.646 177.34 35.2329 177.116 35.904 177.064C36.5718 177.007 37.2605 177.079 37.97 177.28C38.7731 177.51 39.4105 177.853 39.8823 178.309C40.3509 178.759 40.6568 179.283 40.8 179.882C40.9445 180.477 40.9276 181.105 40.7494 181.768ZM39.6585 181.431C39.8336 180.816 39.7264 180.289 39.3369 179.851C38.9441 179.407 38.3263 179.072 37.4836 178.845C36.9609 178.704 36.4707 178.64 36.0132 178.652C35.5511 178.663 35.1553 178.769 34.8257 178.971C34.4973 179.168 34.2745 179.475 34.1572 179.893C33.9788 180.502 34.0753 181.023 34.4468 181.457C34.8183 181.89 35.4254 182.22 36.2681 182.447C36.7908 182.588 37.2877 182.654 37.7588 182.645C38.2299 182.636 38.6341 182.535 38.9715 182.341C39.3089 182.146 39.5379 181.843 39.6585 181.431ZM42.7359 174.385C42.6037 174.876 42.4204 175.252 42.186 175.512C41.9515 175.773 41.6711 175.944 41.3448 176.026C41.0139 176.106 40.6423 176.122 40.23 176.074C39.8189 176.021 39.3723 175.93 38.8901 175.8L34.4828 174.614L34.9011 173.06L39.2949 174.242C39.8897 174.402 40.339 174.474 40.6426 174.459C40.9475 174.44 41.1665 174.344 41.2998 174.172C41.4342 173.996 41.5439 173.75 41.6288 173.434C41.6785 173.25 41.7042 173.046 41.7059 172.824C41.7043 172.597 41.69 172.38 41.6631 172.175C41.6317 171.968 41.5945 171.801 41.5515 171.674L35.6977 170.099L36.116 168.544L43.7544 170.599L43.5616 171.316C43.5058 171.523 43.43 171.679 43.3342 171.784C43.2429 171.89 43.0733 171.909 42.8254 171.843L42.2982 171.701L42.6029 171.754C42.6835 171.993 42.7477 172.266 42.7954 172.574C42.8398 172.876 42.8603 173.186 42.8569 173.504C42.849 173.821 42.8086 174.114 42.7359 174.385ZM43.7035 168.579L42.6126 168.054C42.6803 167.999 42.7855 167.878 42.9281 167.689C43.0674 167.495 43.2131 167.258 43.3653 166.98C43.5141 166.697 43.6338 166.395 43.7244 166.077C43.8453 165.645 43.8595 165.296 43.7669 165.03C43.6743 164.763 43.4905 164.593 43.2156 164.519C43.0219 164.467 42.8347 164.489 42.6541 164.585C42.4735 164.682 42.2903 164.833 42.1043 165.039C41.9151 165.239 41.7123 165.472 41.4959 165.738C41.202 166.094 40.905 166.398 40.6051 166.651C40.3051 166.904 39.985 167.078 39.6448 167.175C39.3058 167.268 38.9319 167.257 38.523 167.142C38.0793 167.013 37.7443 166.785 37.5181 166.458C37.2886 166.126 37.1575 165.733 37.1248 165.28C37.0922 164.826 37.1444 164.345 37.2814 163.836C37.4087 163.362 37.5698 162.961 37.7647 162.632C37.9551 162.301 38.0993 162.089 38.1972 161.994L39.3115 162.541C39.2221 162.604 39.1228 162.712 39.0137 162.866C38.9012 163.015 38.795 163.194 38.695 163.404C38.5951 163.614 38.5142 163.834 38.4523 164.064C38.3287 164.523 38.3029 164.888 38.375 165.159C38.4427 165.429 38.5947 165.6 38.8311 165.673C39.1589 165.766 39.4348 165.72 39.6588 165.534C39.8841 165.343 40.1193 165.107 40.3643 164.825C40.7145 164.421 41.0503 164.062 41.3718 163.747C41.6887 163.431 42.0182 163.204 42.3603 163.064C42.6992 162.918 43.0759 162.901 43.4904 163.013C44.1934 163.202 44.6626 163.586 44.8979 164.167C45.1332 164.747 45.138 165.457 44.9125 166.295C44.8192 166.642 44.7012 166.972 44.5586 167.287C44.4172 167.597 44.2698 167.866 44.1163 168.096C43.9639 168.321 43.8264 168.482 43.7035 168.579ZM46.9039 158.893C46.6129 159.975 46.0461 160.716 45.2035 161.118C44.3609 161.52 43.3312 161.557 42.1145 161.229C41.3845 161.033 40.7656 160.729 40.2579 160.317C39.7514 159.9 39.3971 159.394 39.1949 158.798C38.9939 158.198 38.9883 157.527 39.1782 156.786C39.271 156.405 39.4209 156.063 39.6278 155.761C39.8346 155.459 40.0921 155.212 40.4 155.02C40.7035 154.826 41.0554 154.703 41.456 154.651C41.8577 154.595 42.3015 154.625 42.7873 154.741C43.0712 154.818 43.3252 154.888 43.5493 154.954C43.7689 155.017 43.9595 155.09 44.121 155.173L42.7097 160.418L41.7592 160.017L42.7595 156.3C42.405 156.18 42.0587 156.111 41.7206 156.092C41.3792 156.068 41.0802 156.138 40.8237 156.301C40.5639 156.458 40.3777 156.746 40.2649 157.165C40.1703 157.517 40.1846 157.859 40.3077 158.191C40.4263 158.523 40.6971 158.828 41.12 159.106C41.543 159.384 42.1614 159.618 42.9753 159.808C43.5504 159.934 44.0297 159.94 44.4132 159.825C44.7968 159.711 45.1026 159.508 45.3308 159.217C45.559 158.925 45.7277 158.577 45.8368 158.171C45.8829 158 45.9213 157.786 45.9519 157.528C45.978 157.269 45.9927 157.017 45.996 156.772C45.9959 156.52 45.9762 156.324 45.9369 156.183L46.9091 156.126C46.9995 156.329 47.0577 156.589 47.0837 156.905C47.111 157.217 47.109 157.547 47.0779 157.896C47.0468 158.246 46.9888 158.578 46.9039 158.893Z" fill="white"/>
<path d="M72.5818 112.465L66.3758 106.517C66.2423 106.758 66.1102 106.99 65.9797 107.214C65.8523 107.434 65.7168 107.657 65.573 107.881L64.7497 107.344C64.8575 107.137 64.9614 106.9 65.0613 106.634C65.1645 106.365 65.2562 106.094 65.3362 105.821C65.4194 105.546 65.485 105.292 65.5329 105.06C65.5774 104.824 65.6032 104.639 65.6102 104.504L66.2146 104.055L73.7346 111.262L72.5818 112.465ZM76.9145 107.944L70.7085 101.996C70.5749 102.237 70.4429 102.469 70.3123 102.693C70.185 102.914 70.0494 103.136 69.9057 103.36L69.0823 102.823C69.1902 102.616 69.294 102.38 69.394 102.113C69.4972 101.844 69.5888 101.573 69.6688 101.301C69.7521 101.025 69.8177 100.771 69.8655 100.539C69.9101 100.304 69.9358 100.118 69.9428 99.9828L70.5472 99.5343L78.0672 106.741L76.9145 107.944ZM81.9383 102.864C81.6832 103.13 81.4167 103.324 81.1387 103.446C80.8607 103.567 80.5607 103.583 80.2387 103.494C79.9165 103.399 79.5583 103.162 79.1641 102.785L75.7983 99.5587L75.1008 100.286L74.4742 99.6859C74.6424 99.3688 74.7658 99.1219 74.8446 98.9453C74.92 98.7655 74.9059 98.5677 74.8023 98.3521C74.754 98.2541 74.6955 98.1398 74.6267 98.0093C74.5545 97.8755 74.4755 97.7286 74.3896 97.5687C74.3003 97.4056 74.2041 97.2294 74.1011 97.0401L74.7695 96.3427L76.0532 97.573L77.5643 95.9962L78.4235 96.8196L76.9123 98.3964L79.6615 101.031C80.0254 101.38 80.3061 101.62 80.5036 101.751C80.701 101.876 80.8653 101.917 80.9964 101.874C81.1274 101.825 81.2768 101.713 81.4447 101.538C81.5351 101.444 81.6283 101.326 81.7244 101.185C81.8203 101.038 81.9046 100.893 81.9775 100.749C82.0536 100.603 82.1022 100.481 82.1232 100.385L82.9744 100.832C82.955 101.007 82.9 101.217 82.8095 101.459C82.7188 101.696 82.5985 101.939 82.4487 102.19C82.3022 102.437 82.132 102.662 81.9383 102.864ZM84.4472 100.084L76.2298 92.2089L77.3438 91.0465L79.6585 93.2649L80.6161 94.2991L80.4315 94.2287C80.4528 93.9906 80.5114 93.7171 80.6071 93.4081C80.7029 93.0991 80.8333 92.791 80.9984 92.4839C81.1601 92.1735 81.3523 91.8954 81.5748 91.6498C82.1456 91.0204 82.7403 90.7372 83.3588 90.7999C83.9806 90.8593 84.7025 91.283 85.5246 92.0709L88.9662 95.3693L87.8522 96.5316L84.4005 93.2235C83.9389 92.7812 83.536 92.5339 83.1916 92.4818C82.8505 92.4264 82.493 92.6138 82.1193 93.0443C81.9515 93.2261 81.7886 93.4804 81.6305 93.8072C81.4724 94.134 81.371 94.486 81.3262 94.8632L85.5613 98.9221L84.4472 100.084ZM92.3516 91.8369L84.8417 84.6395L85.9848 83.4468L89.2495 86.5757L92.5334 83.1493L89.2687 80.0204L90.4021 78.8378L97.9119 86.0352L96.7786 87.2178L93.4431 84.0211L90.1592 87.4475L93.4947 90.6442L92.3516 91.8369ZM101.698 82.2466C101.259 82.7048 100.805 83.0164 100.337 83.1815C99.8682 83.3466 99.3989 83.3945 98.9287 83.3253C98.4586 83.2561 97.9996 83.0942 97.552 82.8396C97.1041 82.5785 96.6814 82.2541 96.2837 81.8665C95.6903 81.2784 95.2978 80.6729 95.1064 80.0498C94.9149 79.4268 94.902 78.8197 95.0677 78.2287C95.23 77.6345 95.5452 77.0931 96.0134 76.6045C96.6011 75.9913 97.2108 75.6351 97.8424 75.5359C98.4738 75.4301 99.0962 75.5159 99.7094 75.7933C100.322 76.0641 100.892 76.458 101.418 76.9749C102.011 77.563 102.405 78.1702 102.6 78.7965C102.795 79.4161 102.811 80.0231 102.649 80.6174C102.49 81.2082 102.173 81.7513 101.698 82.2466ZM100.903 81.4268C101.352 80.9716 101.512 80.4583 101.381 79.8868C101.249 79.3087 100.869 78.7177 100.239 78.1139C99.8481 77.7393 99.4491 77.4475 99.042 77.2383C98.6315 77.0259 98.2334 76.9287 97.8476 76.9468C97.465 76.9615 97.1219 77.1239 96.8183 77.434C96.369 77.8826 96.2031 78.3861 96.3206 78.9447C96.4381 79.5033 96.8119 80.0845 97.4419 80.6884C97.8327 81.0629 98.2367 81.3596 98.654 81.5785C99.0712 81.7974 99.4744 81.9027 99.8637 81.8944C100.253 81.8862 100.6 81.7303 100.903 81.4268ZM106.988 76.7265C106.637 77.0938 106.295 77.3354 105.964 77.4513C105.633 77.5673 105.305 77.5825 104.98 77.497C104.651 77.4082 104.318 77.2437 103.979 77.0033C103.644 76.7596 103.296 76.465 102.936 76.1195L99.6406 72.9615L100.755 71.7992L104.04 74.9475C104.484 75.3737 104.843 75.6532 105.117 75.786C105.394 75.9155 105.632 75.9368 105.831 75.8501C106.034 75.7599 106.248 75.597 106.474 75.3611C106.607 75.223 106.727 75.057 106.835 74.8633C106.943 74.663 107.035 74.4663 107.11 74.2733C107.181 74.077 107.229 73.9126 107.253 73.7801L102.876 69.5856L103.99 68.4233L109.701 73.8964L109.187 74.4321C109.039 74.5871 108.897 74.6875 108.763 74.7332C108.632 74.7822 108.474 74.7179 108.289 74.5403L107.894 74.1625L108.136 74.3554C108.092 74.6039 108.017 74.8745 107.911 75.1672C107.805 75.4533 107.674 75.735 107.518 76.0123C107.359 76.2863 107.182 76.5244 106.988 76.7265ZM110.627 72.1004L109.923 71.1153C110.008 71.1002 110.159 71.0442 110.375 70.9472C110.59 70.8436 110.832 70.7065 111.099 70.5358C111.366 70.3585 111.615 70.1518 111.848 69.9159C112.161 69.5957 112.342 69.2964 112.388 69.0182C112.435 68.7399 112.356 68.5023 112.151 68.3054C112.006 68.1665 111.831 68.096 111.626 68.0937C111.422 68.0915 111.188 68.136 110.926 68.2274C110.664 68.3122 110.374 68.419 110.057 68.5479C109.628 68.7187 109.221 68.8429 108.837 68.9204C108.452 68.9978 108.087 68.9973 107.742 68.9189C107.401 68.837 107.078 68.6475 106.775 68.3503C106.448 68.0238 106.264 67.663 106.222 67.2679C106.181 66.8661 106.254 66.4585 106.444 66.0452C106.633 65.6319 106.91 65.2349 107.275 64.8542C107.614 64.5005 107.948 64.226 108.277 64.0309C108.603 63.8325 108.832 63.7155 108.963 63.6797L109.678 64.6943C109.569 64.7065 109.43 64.754 109.26 64.8368C109.09 64.913 108.911 65.0192 108.722 65.1552C108.533 65.2912 108.357 65.4451 108.192 65.617C107.863 65.9606 107.665 66.2685 107.598 66.5406C107.528 66.8094 107.579 67.0328 107.751 67.2106C107.993 67.4497 108.258 67.5415 108.544 67.4859C108.833 67.4269 109.153 67.3327 109.503 67.2031C110.004 67.0175 110.471 66.864 110.904 66.7426C111.334 66.618 111.733 66.5765 112.1 66.6182C112.467 66.6533 112.805 66.8194 113.115 67.1165C113.641 67.6202 113.868 68.1831 113.795 68.8051C113.722 69.4272 113.386 70.0515 112.785 70.6782C112.537 70.9376 112.274 71.1709 111.998 71.3781C111.725 71.582 111.466 71.7475 111.221 71.8749C110.98 71.9988 110.782 72.074 110.627 72.1004ZM118.088 65.1446C117.314 65.9532 116.46 66.3311 115.528 66.2783C114.596 66.2255 113.676 65.7632 112.766 64.8914C112.22 64.3683 111.824 63.804 111.576 63.1987C111.332 62.59 111.265 61.9758 111.374 61.3563C111.486 60.7334 111.804 60.1425 112.326 59.5835C112.591 59.294 112.886 59.0666 113.213 58.9012C113.539 58.7358 113.884 58.6427 114.247 58.6218C114.606 58.5977 114.974 58.6592 115.35 58.8063C115.729 58.9501 116.104 59.1897 116.474 59.5251C116.686 59.7285 116.875 59.9126 117.04 60.0774C117.202 60.239 117.334 60.3946 117.436 60.5443L113.678 64.466L113.037 63.6578L115.701 60.8782C115.447 60.603 115.177 60.3761 114.889 60.1974C114.601 60.0121 114.306 59.9292 114.003 59.9489C113.699 59.9619 113.397 60.1251 113.097 60.4384C112.845 60.7012 112.693 61.0081 112.641 61.3591C112.586 61.7068 112.677 62.1043 112.914 62.5514C113.151 62.9985 113.581 63.501 114.204 64.0588C114.648 64.4454 115.065 64.6808 115.456 64.7649C115.848 64.849 116.213 64.8181 116.554 64.6723C116.894 64.5264 117.209 64.3019 117.5 63.9986C117.622 63.8706 117.759 63.701 117.91 63.4899C118.057 63.2755 118.191 63.0614 118.312 62.8476C118.433 62.6272 118.51 62.4457 118.543 62.3031L119.423 62.7201C119.405 62.9416 119.331 63.1973 119.202 63.4872C119.076 63.7737 118.915 64.0626 118.72 64.3539C118.525 64.6452 118.315 64.9088 118.088 65.1446Z" fill="white"/>
<path d="M272.703 23.1365C272.907 22.4279 273.227 21.8424 273.661 21.3799C274.095 20.9174 274.623 20.6105 275.245 20.4592C275.867 20.3035 276.558 20.3348 277.316 20.5531C278.06 20.7675 278.632 21.1241 279.033 21.6231C279.433 22.122 279.675 22.7042 279.761 23.3698C279.847 24.0309 279.789 24.7112 279.588 25.4107C279.368 26.1731 279.048 26.8554 278.627 27.4577C278.206 28.06 277.72 28.583 277.17 29.0267C276.624 29.4717 276.044 29.8339 275.429 30.1133C274.819 30.3941 274.21 30.5928 273.604 30.7095C273.001 30.8274 272.435 30.8634 271.904 30.8174L271.685 29.7342C272.406 29.7576 273.098 29.6507 273.758 29.4136C274.42 29.1721 275.022 28.8452 275.563 28.4329C276.109 28.0219 276.57 27.5671 276.947 27.0685C277.324 26.57 277.59 26.0738 277.747 25.5799C277.952 24.9348 278.07 24.3399 278.101 23.7951C278.133 23.2458 278.049 22.7796 277.848 22.3965C277.648 22.0134 277.292 21.7482 276.781 21.601C276.417 21.4963 276.074 21.5017 275.749 21.617C275.424 21.7324 275.143 21.9234 274.906 22.1902C274.671 22.4525 274.504 22.7541 274.405 23.0949C274.177 23.8886 274.153 24.5277 274.334 25.012C274.516 25.4919 274.832 25.7964 275.28 25.9256C275.59 26.0147 275.828 26.0543 275.996 26.0444C276.165 26.03 276.321 26.0118 276.464 25.9896L276.553 26.9696C276.41 27.0597 276.166 27.1252 275.819 27.1661C275.476 27.2084 275.047 27.1552 274.532 27.0067C273.953 26.8401 273.502 26.5522 273.178 26.1432C272.858 25.7355 272.66 25.2681 272.584 24.741C272.508 24.2094 272.548 23.6746 272.703 23.1365ZM282.148 33.0393C281.794 32.9373 281.498 32.7915 281.262 32.6019C281.025 32.4123 280.871 32.1543 280.8 31.8278C280.735 31.4982 280.777 31.0711 280.929 30.5464L282.219 26.0665L281.25 25.7875L281.49 24.9534C281.849 24.9548 282.125 24.9493 282.318 24.9369C282.513 24.92 282.681 24.8156 282.824 24.6236C282.888 24.5353 282.962 24.4303 283.046 24.3087C283.131 24.1826 283.224 24.0443 283.325 23.8939C283.428 23.739 283.54 23.5719 283.659 23.3927L284.587 23.66L284.095 25.3686L286.194 25.9731L285.865 27.1166L283.766 26.5121L282.712 30.1713C282.573 30.6557 282.491 31.0157 282.466 31.2516C282.448 31.4842 282.488 31.6487 282.587 31.7451C282.691 31.8383 282.86 31.9184 283.093 31.9856C283.218 32.0218 283.366 32.0496 283.535 32.0692C283.71 32.0856 283.878 32.0927 284.039 32.0905C284.204 32.0896 284.334 32.0761 284.429 32.05L284.429 33.0115C284.265 33.0759 284.054 33.1245 283.797 33.1573C283.546 33.1869 283.274 33.1937 282.983 33.1777C282.695 33.1629 282.417 33.1168 282.148 33.0393ZM285.776 33.9676L288.926 23.0303L290.473 23.4759L289.586 26.5566L289.116 27.8854L289.092 27.6892C289.313 27.5974 289.582 27.522 289.9 27.463C290.218 27.4041 290.552 27.3763 290.9 27.3796C291.25 27.3784 291.586 27.4192 291.907 27.5019C292.73 27.7146 293.257 28.1093 293.489 28.6861C293.726 29.2641 293.686 30.1002 293.371 31.1944L292.052 35.7752L290.505 35.3296L291.828 30.7354C292.005 30.121 292.036 29.6493 291.922 29.3202C291.813 28.9924 291.481 28.7632 290.926 28.6325C290.687 28.5686 290.386 28.5426 290.023 28.5546C289.66 28.5667 289.301 28.6406 288.947 28.7764L287.323 34.4132L285.776 33.9676ZM296.753 37.1294L299.632 27.1337L301.22 27.5909L299.968 31.9363L304.529 33.2498L305.78 28.9045L307.354 29.3578L304.475 39.3535L302.901 38.9001L304.18 34.4606L299.619 33.1471L298.341 37.5866L296.753 37.1294ZM309.59 40.9432C308.98 40.7675 308.493 40.5107 308.129 40.1728C307.765 39.8348 307.505 39.4417 307.347 38.9932C307.19 38.5448 307.12 38.0633 307.137 37.5486C307.16 37.0307 307.25 36.5056 307.409 35.9732C307.653 35.1744 308.007 34.5453 308.469 34.0861C308.932 33.6268 309.463 33.3331 310.063 33.2049C310.665 33.0722 311.291 33.0995 311.941 33.2868C312.757 33.5218 313.356 33.8959 313.738 34.4088C314.125 34.9186 314.339 35.5095 314.378 36.1813C314.424 36.85 314.34 37.5373 314.127 38.2433C313.882 39.0421 313.528 39.6734 313.064 40.1371C312.606 40.5977 312.076 40.8943 311.475 41.027C310.878 41.161 310.249 41.1331 309.59 40.9432ZM309.946 39.8584C310.558 40.0443 311.087 39.9464 311.532 39.5647C311.982 39.1797 312.329 38.568 312.57 37.7294C312.72 37.2092 312.793 36.7203 312.789 36.2626C312.786 35.8004 312.687 35.4027 312.491 35.0696C312.3 34.7378 311.997 34.5096 311.581 34.385C310.975 34.1959 310.452 34.2833 310.012 34.6471C309.572 35.0109 309.232 35.612 308.99 36.4506C308.84 36.9708 308.766 37.4665 308.766 37.9376C308.766 38.4088 308.86 38.8147 309.049 39.1555C309.237 39.4963 309.536 39.7306 309.946 39.8584ZM316.937 43.0593C316.449 42.9185 316.076 42.7286 315.819 42.4896C315.563 42.2506 315.397 41.9673 315.321 41.6396C315.247 41.3073 315.237 40.9355 315.293 40.5241C315.353 40.114 315.452 39.669 315.59 39.1892L316.853 34.8035L318.4 35.2491L317.141 39.6213C316.97 40.2133 316.89 40.6612 316.9 40.965C316.914 41.2702 317.006 41.4909 317.175 41.6272C317.349 41.7647 317.593 41.8787 317.907 41.9691C318.091 42.0221 318.294 42.0513 318.515 42.0569C318.743 42.0593 318.96 42.0489 319.166 42.0256C319.373 41.9979 319.54 41.9636 319.669 41.9228L321.346 36.0977L322.894 36.5432L320.704 44.1443L319.991 43.9389C319.785 43.8795 319.63 43.8009 319.527 43.7033C319.423 43.6101 319.406 43.4402 319.477 43.1936L319.629 42.6689L319.57 42.9726C319.33 43.049 319.055 43.1084 318.747 43.1507C318.444 43.1898 318.134 43.2048 317.816 43.1958C317.499 43.1823 317.206 43.1368 316.937 43.0593ZM322.725 44.1289L323.27 43.0474C323.323 43.1161 323.442 43.2234 323.629 43.3693C323.821 43.5121 324.054 43.6619 324.33 43.8189C324.611 43.9727 324.91 44.0977 325.227 44.1939C325.656 44.3224 326.005 44.3427 326.273 44.2548C326.541 44.1669 326.714 43.9862 326.793 43.7126C326.849 43.5198 326.83 43.3322 326.737 43.15C326.643 42.9678 326.495 42.7819 326.293 42.5923C326.096 42.3996 325.866 42.1927 325.605 41.9716C325.254 41.6715 324.955 41.3693 324.708 41.0649C324.46 40.7606 324.291 40.4375 324.2 40.0956C324.114 39.755 324.131 39.3814 324.253 38.9746C324.39 38.5332 324.624 38.2023 324.954 37.9818C325.291 37.7582 325.686 37.634 326.14 37.6094C326.594 37.5847 327.074 37.6453 327.581 37.7913C328.052 37.9269 328.45 38.0951 328.776 38.2958C329.103 38.492 329.313 38.6398 329.406 38.7394L328.84 39.8439C328.779 39.7534 328.672 39.6522 328.519 39.5404C328.373 39.4253 328.195 39.316 327.987 39.2123C327.779 39.1087 327.561 39.0239 327.332 38.9581C326.875 38.8263 326.51 38.7941 326.238 38.8615C325.968 38.9244 325.793 39.0734 325.716 39.3085C325.617 39.6345 325.659 39.9112 325.841 40.1385C326.028 40.3671 326.26 40.6064 326.538 40.8563C326.935 41.2136 327.288 41.5557 327.597 41.8826C327.907 42.2051 328.129 42.5385 328.263 42.8831C328.403 43.2244 328.413 43.6013 328.294 44.0139C328.093 44.7134 327.7 45.1757 327.116 45.4008C326.531 45.6258 325.822 45.6182 324.988 45.378C324.642 45.2785 324.314 45.1547 324.002 45.0066C323.695 44.8598 323.428 44.7077 323.201 44.5501C322.979 44.3939 322.82 44.2535 322.725 44.1289ZM332.353 47.4993C331.277 47.1893 330.545 46.6095 330.159 45.76C329.772 44.9105 329.753 43.8803 330.102 42.6696C330.311 41.9431 330.626 41.3297 331.047 40.8293C331.472 40.3302 331.985 39.9848 332.584 39.7931C333.187 39.6028 333.858 39.609 334.596 39.8119C334.975 39.9114 335.314 40.0672 335.612 40.2794C335.911 40.4916 336.153 40.7533 336.341 41.0646C336.529 41.3714 336.646 41.7255 336.69 42.1269C336.739 42.5295 336.702 42.9727 336.577 43.4564C336.495 43.7389 336.42 43.9916 336.351 44.2146C336.283 44.433 336.207 44.6223 336.122 44.7823L330.902 43.2789L331.32 42.3356L335.019 43.4012C335.145 43.0489 335.22 42.7039 335.245 42.3661C335.275 42.0251 335.211 41.725 335.052 41.4657C334.9 41.2032 334.615 41.0119 334.198 40.8918C333.848 40.791 333.506 40.7993 333.171 40.9165C332.837 41.0292 332.528 41.2946 332.242 41.7126C331.957 42.1306 331.712 42.7448 331.507 43.5552C331.372 44.128 331.357 44.6071 331.465 44.9926C331.572 45.3781 331.77 45.6875 332.057 45.9208C332.345 46.1541 332.69 46.3289 333.094 46.4451C333.264 46.4942 333.478 46.5363 333.735 46.5715C333.993 46.6021 334.245 46.6213 334.49 46.6288C334.742 46.6332 334.938 46.617 335.08 46.5801L335.12 47.5533C334.915 47.64 334.655 47.6936 334.338 47.7141C334.026 47.7359 333.695 47.7281 333.347 47.6908C332.998 47.6535 332.667 47.5897 332.353 47.4993Z" fill="white"/>
<circle cx="243" cy="243" r="242" stroke="white" stroke-width="2"/>
<circle cx="243" cy="243" r="198.073" stroke="white" stroke-width="2"/>
<line x1="244.982" y1="-0.00109526" x2="245.514" y2="485.999" stroke="white" stroke-width="2"/>
<line x1="126.598" y1="30.6494" x2="363.768" y2="451.693" stroke="white" stroke-width="2"/>
<line x1="33.0317" y1="364.174" x2="453.216" y2="123.178" stroke="white" stroke-width="2"/>
<line x1="126.311" y1="451.975" x2="365.397" y2="31.7462" stroke="white" stroke-width="2"/>
<path d="M32.968 126.714L457.486 357.471" stroke="white" stroke-width="2"/>
<line x1="1.86239" y1="242.266" x2="483.87" y2="242" stroke="white" stroke-width="2"/>
</svg>
