<svg width="540" height="414" viewBox="0 0 540 414" fill="none" xmlns="http://www.w3.org/2000/svg">
<path d="M137.72 300.59C137.78 300.86 137.97 300.51 137.72 300.59V300.59Z" fill="#1A263A"/>
<path d="M174.95 231.15C174.94 231.21 174.92 231.27 174.91 231.33C174.98 231.35 175.14 231.26 174.95 231.15Z" fill="#1A263A"/>
<path d="M170.68 310.16C160.61 316.56 159.74 330.71 159.64 341.45C159.56 349.65 160.41 357.77 160.81 365.95C160.94 368.64 161.14 371.3 161.33 373.99C161.44 375.65 161.7 378.3 161.33 380.55C157.92 369.13 154.65 357.66 151.44 346.17C151.4 346.02 151.35 345.87 151.31 345.72C150.89 343.9 150.54 342.06 150.23 340.21C150.27 340.21 150.31 340.21 150.35 340.21C150.29 340.08 150.23 339.96 150.17 339.83C146.77 319.05 150.2 296.4 157.4 276.71C158.73 274.54 160.98 273.36 163.21 272.28C165.34 271.25 167.39 270.13 169.45 268.96C173.96 266.41 178.49 264.11 183.36 262.37C190.78 259.71 199.66 257.27 204.02 250.1C204.2 249.81 204.2 249.43 203.9 249.21C200.86 246.91 195.13 249.18 191.96 250.18C188.12 251.38 183.97 252.61 180.31 254.53C181.27 253.59 182.27 252.68 183.18 251.69C185.71 248.92 188.23 246.1 190.47 243.09C192.51 240.35 194.66 237.26 195.22 233.83C195.28 233.42 195.06 233.19 194.77 233.05C196.11 231.87 197.45 230.69 198.78 229.49C204.21 224.59 210.81 220.84 215.62 215.27C216.73 213.98 224.74 207.2 222.99 205.72C221.24 204.25 212.11 210.01 210.38 210.85C205.34 213.3 200.84 217.01 196.59 220.84C197.23 218.97 197.84 217.09 198.63 215.28C199.63 212.99 201.03 210.97 202.34 208.86C204.49 205.41 208.32 192.47 207.47 188.18C206.68 184.16 201.83 195.35 200.2 197.01C196.73 200.55 195.21 205.51 193.51 210.04C191.14 216.34 188.73 222.64 187.3 229.4C185.36 231.16 183.38 232.87 181.55 234.74C178.84 237.51 176.33 240.45 173.76 243.34C172.58 244.67 171.33 245.99 170.21 247.39C171.13 245.06 171.97 242.69 172.67 240.24C173.46 237.45 174.21 234.46 174.9 231.33C174.86 231.32 174.84 231.28 174.94 231.15C177.22 228.43 179.94 225.19 181.89 222.24C183.77 219.4 185.52 216.87 186.61 213.61C188.88 206.81 189.64 199.45 189.78 192.31C189.78 191.83 189.29 191.76 189.04 192.05C193.73 185.09 193.71 185.72 196.81 178C197.5 176.27 206.62 156.1 205.1 154.45C203.55 152.77 197.42 163.09 196.05 164.27C193.43 166.51 191.65 169.71 190.01 172.69C188.35 175.71 186.84 178.81 185.36 181.93C184.54 178.98 183.65 176.04 183.19 173C182.91 171.13 182.78 169.25 182.54 167.37C182.18 164.49 179.85 155.88 179.01 152.68C177.64 147.45 179.28 152.33 179.01 152.68C175.29 157.42 175.4 169.54 175.93 175.1C176.22 178.12 176.5 181.09 177.24 184.05C177.97 186.98 178.9 190.17 180.8 192.59C178.06 200.11 176.25 207.86 175.42 215.85C175.35 215.53 175.38 215.18 175.15 214.67C174.43 206.52 171.87 198.47 169.17 190.83C167.72 186.73 165.84 182.84 164.24 178.8C163.1 175.89 162.18 172.89 160.72 170.11C159.86 168.47 155.09 159.39 153.07 159.04C151.42 158.75 154.05 166.76 153.78 168.28C153.4 170.4 153.94 172.76 154.43 174.81C155.4 178.86 156.92 182.74 158.64 186.52C160.91 191.52 163.24 196.53 165.72 201.43C166.9 203.77 168 206.17 169.28 208.45C170.45 210.54 172.3 212.88 171.96 215.42C171.94 215.57 172.08 215.58 172.15 215.67C174.34 224.93 171.01 236.38 168.03 245.1C163.98 256.97 157.36 267.69 153.39 279.64C153.07 280.59 152.81 281.6 152.5 282.57C152.43 282.2 152.35 281.83 152.28 281.46C151.95 275.82 151.79 270.24 152.43 264.55C153.15 258.23 154.58 252.03 155.4 245.74C156.53 237.14 157.26 227.82 156.36 219.13C156.16 217.21 156.01 213.64 154.31 212.28C153 211.24 151.58 211.95 150.91 213.32C149.66 215.91 150.45 219.97 150.41 222.76C150.33 229.06 149.94 235.31 150.13 241.62C150.35 249.06 148.79 256.22 148.5 263.62C148.23 270.77 149.77 277.74 151.17 284.7C151.23 285.02 151.44 285.19 151.67 285.3C147.73 298.81 145.35 313.79 146.19 328.22C145.36 325.39 144.56 322.55 143.72 319.72C141.9 313.59 139.87 306.82 137.69 300.6C137.13 298.06 136.79 295.43 135.58 293.08C133.79 287.95 132.46 282.67 131.23 277.36C131.21 275.72 131.2 274.07 131.2 272.43C131.58 266.51 130.78 260.56 132.62 254.71C134.78 247.84 138.04 241.73 139.39 234.56C140.92 226.44 141.25 218.24 141.88 210.02C142.29 204.6 143.72 198.63 140.33 193.86C140.14 193.59 139.78 193.54 139.49 193.64C136.43 194.71 135.83 199.35 135.41 202.08C134.48 208.15 134.84 214.41 134.44 220.53C133.93 228.36 132.76 235.97 131.24 243.67C130.84 245.72 130.42 247.78 130.04 249.86C129.46 248.96 128.52 248.41 127.36 248.88C125.61 249.6 125.48 251.97 125.39 253.57C125.38 253.79 125.35 254.01 125.33 254.22C122.98 246.06 121.05 237.88 119.42 229.61C119.52 229.43 119.56 229.21 119.48 228.97C116.83 220.99 122.8 214.28 126.5 207.76C129.45 202.57 132.79 197.13 134.6 191.4C135.26 189.31 135.8 186.97 135.26 184.79C134.94 183.49 133.37 171.76 131.7 172.13C129.78 172.55 129.67 185.44 129.22 186.95C128.17 190.47 127.51 194.09 126.47 197.62C124.29 205.02 121.07 212.4 117.45 219.26C117.43 219.13 117.39 219 117.37 218.86C116.76 214.69 116.37 210.54 116.12 206.38C118.61 202.15 121.21 198.01 123.51 193.67C124.27 192.24 125.45 190.25 125.19 188.54C124.94 186.92 123.31 186.81 122.07 187.42C119.43 188.71 117.4 191.09 115.74 193.71C115.74 193.63 115.74 193.55 115.74 193.47C115.78 193.15 115.83 192.83 115.87 192.51C117.15 185.78 120.12 179.95 123.97 174.32C127.4 169.31 130.24 163.89 134.09 159.16C138.59 153.64 145.04 150.23 149.97 145.11C151.31 143.72 162.16 136.45 161.69 134.25C161.17 131.8 149.86 137.16 148.15 137.89C144.9 139.27 141.95 141.75 139.48 144.24C134.99 148.75 131.14 153.84 127.5 159.04C121.99 166.9 117.73 176.07 115.74 185.62C115.75 184.17 115.76 182.71 115.78 181.25C119.53 162.69 127.97 146.07 140.36 131.25C141.23 130.21 142.19 129.32 143.1 128.34C150.31 127.72 157.2 125.21 164.39 124.42C171.01 123.69 176.95 122.69 182.5 118.74C182.61 118.66 182.63 118.55 182.67 118.45C187.99 119.07 193.23 119.87 198.35 121.46C201.49 122.44 204.66 122.79 207.91 122.13C209.41 121.83 211.63 121.22 211.69 119.35C211.76 117.2 208.8 115.62 207.15 114.94C202.22 112.93 196.62 113.11 191.24 113.25C192.11 112.71 193 112.18 193.81 111.54C194.05 111.35 193.96 111.1 193.88 110.88C195.96 111.02 198.03 111.16 200.13 111.14C205.81 111.08 211.45 111.07 217.13 111.18C218.71 111.21 221.63 111.49 222.66 109.93C223.92 108.03 221.34 105.71 219.93 104.79C216.72 102.69 212.59 102.79 208.92 102.49C207.35 102.36 205.83 102.29 204.3 102.19C206.3 100.67 208.05 98.84 209.8 97.05C211.22 95.61 212.71 94.26 214.17 92.86C215.66 91.43 217.12 89.95 218.48 88.39C219.48 87.23 220.76 85.84 221.16 84.31C221.41 83.33 221.12 82.25 220.08 81.92C218.91 81.54 217.49 82.18 216.44 82.66C213.43 84.04 210.6 86.02 208.01 88.08C203.35 91.79 196.83 97.51 192.53 102.28C184.73 102.97 176.16 103.41 168.58 106.03C173.69 101.64 179.58 97.33 183.99 92.02C183.33 92.62 184.29 92.14 183.99 92.02C194.43 82.57 195.17 79.45 200.85 73.68C204.63 69.85 205.32 65.67 207.49 60.65C208.37 58.61 214.26 51.92 212.54 50.25C212.34 50.06 212.78 50.15 212.54 50.25C205.67 53.08 198.89 64.65 194.57 70.28C192.43 73.06 190.19 75.74 188.29 78.7C187.11 80.53 186.02 82.5 185.27 84.67C183.96 87.04 182.26 89.11 180.45 91.08C180.86 90.17 181.23 89.26 181.57 88.41C183.39 83.82 184.57 79.02 185.94 74.28C187.86 67.63 189.8 60.85 193.13 54.74C195.81 49.82 200.28 40.85 200.06 35.02C200.04 34.5 200.47 34.89 200.06 35.02C196.81 36.07 192.93 42.27 191.27 45.05C188.96 48.92 186.47 52.7 184.46 56.73C182.21 61.23 180.36 66.03 178.7 70.9C178.83 70.21 178.99 69.54 179.12 68.85C180.01 64.05 181.05 59.28 181.95 54.48C182.68 50.64 187.29 38.77 185.79 35.01C185.63 34.6 185.79 35.01 180.87 42.22C174.89 50.99 173.69 61.85 172.74 71.47C172.05 78.49 169.95 85.35 167.3 91.86C165.93 95.23 164.02 98.34 162.64 101.69C161.45 104.57 160.37 107.37 158.8 110C152.33 115.09 146.44 120.35 141 126.26C142.25 123.54 142.62 120.05 143.51 117.49C145.76 111.04 148.16 104.65 150.14 98.11C153.28 87.74 157.32 76.41 156.63 65.46C156.5 63.36 154.36 50.84 152.49 49.34C150.85 48.03 153.38 47.86 152.49 49.34C150.6 52.5 148.7 67.27 148.69 70.8C148.67 76.77 147.79 82.58 146.65 88.44C145.14 96.2 143.73 104 141.49 111.6C139.45 118.53 136.99 125.38 135.63 132.49C135.13 133.1 134.61 133.67 134.11 134.3C132.62 136.21 131.16 138.2 129.73 140.26C129.74 140.19 129.75 140.12 129.77 140.05C130.59 136.29 132.02 132.85 133.61 129.36C136.13 123.83 139.26 117.57 137.77 111.35C137.69 110.99 137.2 110.8 136.88 110.92C135.01 111.65 133.82 113.52 132.87 115.19C131.39 117.78 130.31 120.6 129.34 123.41C127.27 129.41 126.05 135.63 124.92 141.86C124.4 139.3 123.85 136.75 123.28 134.18C122.67 131.41 121.97 128.67 121.35 125.91C121.69 125.83 122.01 125.59 121.99 125.14C121.71 119.31 120.74 113.37 121.27 107.53C121.83 101.35 124.58 95.42 127.3 89.91C129.8 84.84 132.75 80.05 135.67 75.22C138.28 70.91 143.96 61.01 144.77 55.97C144.85 55.46 145.25 55.99 144.77 55.97C141.45 55.82 134.64 64.42 132.88 66.73C129.33 71.42 127.15 76.83 124.81 82.17C122.32 87.84 119.03 93.33 117.87 99.48C117.31 102.44 117.26 105.46 117.29 108.49C117.25 108.34 117.22 108.19 117.19 108.04C115.57 101.87 112.35 92.51 114.93 86C115.1 86 115.28 85.96 115.32 85.73C115.99 82.31 117.47 79.18 118.56 75.89C119.89 71.89 121.07 67.8 122.2 63.74C123.42 59.38 124.18 54.95 125.02 50.51C126.48 42.82 128.09 34.85 127.89 26.99C127.84 25.07 127.41 13.26 125.75 11.87C124.19 10.58 123.28 20.19 122.55 21.77C121.02 25.08 121.15 29.44 120.97 33.02C120.66 39.05 118.8 44.45 117.02 50.19C115.4 55.4 113.89 60.78 112.53 66.18C112.4 62.07 112.4 57.98 111.84 53.86C111.07 48.13 110.11 42.45 109.59 36.69C109.16 31.94 108.32 26.59 109.09 21.86C109.49 19.4 110.14 16.9 109.99 14.39C108.81 -5.06 105.84 10.65 104.81 14.48C104.04 17.36 104.2 20.48 104.27 23.43C104.39 29.06 104.22 34.67 104.65 40.29C104.68 40.62 104.74 40.94 104.77 41.26C103.56 37.99 101.97 34.86 100.53 31.58C99.2002 28.55 97.7502 25.22 95.6402 22.58C80.8602 4.15 90.5102 22.1 91.1002 25.27C91.5602 27.71 93.0802 30.05 94.1302 32.28C95.6602 35.55 96.9702 38.9 98.4802 42.18C101.69 49.14 105.52 56.05 107.49 63.51C107.54 63.69 107.65 63.78 107.76 63.85C108.58 68.41 110.22 73.48 110.1 78.18C109.68 78.28 110.09 78.69 110.1 78.18C109.43 84.07 110.34 89.58 112.05 95.16C112.26 97.48 112.6 99.77 112.98 101.8C114.38 109.36 116.44 116.81 117.98 124.34C119.44 131.48 121.15 138.64 122.48 145.85L122.31 145.93C120.68 142.15 118.91 138.44 116.85 134.88C117.16 134.78 117.44 134.57 117.46 134.16C117.62 130.5 117.31 126.77 116.61 123.19C115.99 120.01 115.04 115.95 112.26 113.92C111.89 113.65 111.43 113.73 111.19 114.13C108.63 118.54 111.9 122.95 112.07 127.45C109.36 123.65 106.79 119.86 105.28 115.27C103.43 109.61 102.82 103.64 102.29 97.74C101.89 93.32 102.22 87.92 100.25 83.83C99.5402 82.36 96.7602 67.77 94.8402 68.95C91.9102 70.76 94.2702 90.05 94.6802 92.66C95.6202 98.65 97.6902 104.38 98.9002 110.31C99.9502 115.45 101.23 120.5 103.39 125.3C105.15 129.21 107.52 132.72 110.13 136.07C112.27 143.7 115.18 151.3 119.23 158.17C119.37 157.99 119.51 157.81 119.65 157.62C113.21 171.17 109.46 186.04 111.35 200.11C111.35 200.21 111.35 200.3 111.4 200.6C111.45 201 111.52 201.4 111.57 201.8C110.66 203.74 109.76 205.68 108.84 207.61C107.92 209.55 107.22 211.57 106.75 213.65C106.63 211.08 106.58 208.5 106.41 205.93C105.93 198.93 105.67 188.55 99.1202 184.2C98.9002 184.05 98.4902 184.05 98.3902 184.36C97.7902 186.16 98.0002 188.04 98.2302 189.89C98.5202 192.24 98.7002 194.6 99.0202 196.94C99.5502 200.83 99.6902 205.01 100.39 208.98C98.6002 203.68 96.3802 198.5 93.7302 193.41C89.9602 186.16 85.9902 178.39 80.5902 172.16C79.7002 171.13 73.8802 163 72.2502 163.47C70.5702 163.95 74.9702 172.19 75.3002 173.47C76.1102 176.6 78.2102 179.45 79.9902 182.1C82.7002 186.14 85.2502 190.31 87.7502 194.48C91.0202 199.93 93.8702 205.67 96.4402 211.48C98.6202 216.42 101.61 221.6 102.28 227.02C102.29 227.11 102.38 227.1 102.43 227.14C103.8 235.31 105.06 243.54 107.48 251.48C108.38 254.43 109.55 257.24 110.81 260.02C108.66 257.4 106.58 254.71 104.56 251.97C104.56 251.86 104.58 251.74 104.52 251.63C103.11 248.97 101.28 246.6 99.1702 244.46C95.5802 239.29 92.2702 234.06 87.8702 229.5C84.4902 226 81.5002 221.66 77.8202 218.34C77.3002 215.05 75.9702 211.95 75.1702 208.71C74.0802 204.27 73.1802 199.81 71.8002 195.44C70.6202 191.7 69.1502 188.1 67.5202 184.53C66.1402 181.49 64.7502 178.28 62.3902 175.84C61.5402 174.96 59.4802 172.95 58.0302 173.71C56.5902 174.46 57.6702 176.67 58.1302 177.66C59.9102 181.51 62.3202 185.05 64.1702 188.87C65.9602 192.57 67.1002 196.51 68.5002 200.36C69.8502 204.06 71.6302 207.58 73.1802 211.2C73.6502 212.31 74.0602 213.47 74.5302 214.59C72.1602 211.4 70.2302 207.91 68.1802 204.5C65.5002 200.05 62.4302 195.84 58.9102 192.01C58.7602 191.85 58.5902 191.69 58.4302 191.53C58.5902 191.38 58.6802 191.15 58.5102 190.91C54.0902 184.87 51.4002 177.56 47.7502 171.04C45.8102 167.57 43.5702 164.29 41.3402 160.99C39.9602 158.96 34.8902 149.85 32.7502 148.47C32.5402 148.34 32.1902 148.33 32.0902 148.62C31.1702 151.2 36.5002 160.33 37.5902 162.68C38.9402 165.6 40.7402 168.27 42.2102 171.12C43.7802 174.16 45.1002 178.35 47.2702 181.57C46.0402 180.63 44.8002 179.72 43.5602 178.84C42.2302 177.9 40.1702 176.29 38.4002 176.65C36.9002 176.96 36.6602 178.43 37.0902 179.7C37.9402 182.19 40.2902 184.3 42.0402 186.19C45.2602 189.67 48.8702 192.75 52.5002 195.8C54.7802 197.72 56.9202 199.78 59.1202 201.79C58.2702 201.1 57.4402 200.37 56.5602 199.72C53.3402 197.34 49.9502 195.11 46.4902 193.09C43.7402 191.48 40.7802 190.01 37.5302 189.94C37.3402 189.94 37.1802 190.12 37.1402 190.29C36.5302 193.08 39.4702 194.99 41.4902 196.26C45.1002 198.53 48.4302 200.95 51.8202 203.55C56.1202 206.85 60.9402 209.19 65.6602 211.81C67.8702 213.04 69.8502 214.41 71.8302 215.97C72.3902 216.41 72.9402 216.79 73.5102 217.15C73.5402 217.37 73.6202 217.59 73.8602 217.77C78.5502 221.41 81.9402 226.45 86.1102 230.66C88.8502 233.42 91.1402 236.46 93.3502 239.58C87.7802 235.56 81.3702 232.45 75.5302 229.65C73.8102 228.83 72.0502 228.21 70.3102 227.51C70.2402 227.44 70.1902 227.35 70.0602 227.31C69.9202 227.26 69.7602 227.27 69.6202 227.22C65.5802 225.65 61.4902 224.26 57.2402 223.06C55.9102 222.68 54.5402 222.36 53.1802 222.02C50.4102 220.32 47.8702 218.52 45.6402 216.1C44.6702 215.05 43.6702 214.03 42.6602 213.03C41.3202 211.69 30.4402 200.13 28.7102 203.5C27.4902 205.87 31.3302 209.03 32.7602 210.35C33.9102 211.41 35.1302 212.38 36.3602 213.33C35.2502 212.62 34.1402 211.89 32.9602 211.29C31.1302 210.36 29.1702 209.35 27.1402 208.95C26.5102 208.83 25.6602 208.73 25.1802 209.25C24.6002 209.89 25.0402 210.91 25.4402 211.51C26.2102 212.67 27.5402 213.4 28.7602 213.97C30.2002 214.65 31.7202 215.14 33.2302 215.66C36.5602 216.82 39.7402 218.41 43.0802 219.56C44.0902 220.26 45.0802 220.99 46.1502 221.62C47.2002 222.25 48.3202 222.66 49.4402 223.05C46.0302 223.13 42.6102 223.54 39.3002 223.95C35.3702 224.44 31.5402 225.36 27.7102 226.33C25.0002 227.02 21.8902 227.49 19.5802 229.18C18.6702 229.84 8.34017 233.57 9.21017 234.8C10.0502 235.98 21.1302 233.33 22.2602 233.13C30.3502 231.71 38.4502 230.3 46.5402 228.87C52.1202 227.88 58.3402 226.74 64.2102 227.26C67.1402 228.21 70.0402 229.27 72.8502 230.56C76.9102 232.43 81.2802 234.45 85.5202 236.79C78.4002 235.26 70.7502 236.46 63.5702 236.76C55.3302 237.11 47.3902 238.08 40.3102 242.63C39.0902 243.41 37.1802 244.71 37.7002 246.44C38.2202 248.17 40.1202 248.39 41.6002 248.09C44.2302 247.55 46.5202 246.02 48.9802 245.02C53.1602 243.33 57.7002 242.25 62.0802 241.22C66.4002 240.2 70.7702 239.3 75.1302 238.48C79.1402 237.73 83.2002 237.32 87.1902 238.41C87.4902 238.49 87.6702 238.31 87.7402 238.09C91.0102 240.02 94.1402 242.16 96.9102 244.62C97.2202 245.07 97.5302 245.52 97.8502 245.97C99.6902 248.58 101.57 251.19 103.5 253.76C103.45 253.73 103.41 253.7 103.37 253.67C101.2 252.31 99.1702 250.89 97.1302 249.33C93.7802 246.76 90.4002 244.82 86.5302 243.17C83.7302 241.97 80.9002 240.72 77.9102 240.07C75.8002 239.61 72.9602 239.3 71.6902 241.46C71.5802 241.65 71.6702 241.92 71.8202 242.05C74.6202 244.46 78.2402 245.6 81.6802 246.77C85.4602 248.06 89.0802 249.67 92.6502 251.48C96.3802 253.37 99.8602 255.72 103.61 257.57C104.79 258.15 105.99 258.7 107.15 259.33C107.54 259.55 108.01 259.79 108.47 260.07C108.88 260.57 109.26 261.1 109.67 261.59C111.2 263.41 112.78 265.23 114.29 267.1C115.66 269.7 117.07 272.29 118.48 274.88C118.48 274.89 118.49 274.91 118.5 274.92C112.33 267.54 101.68 265.49 93.3402 261.22C89.1302 259.06 85.2202 256.41 81.1402 254.03C79.7502 253.22 75.7002 250.44 74.0202 251.96C71.3302 254.39 80.7202 258.77 81.9102 259.4C87.3802 262.26 93.0802 264.61 98.6802 267.21C102.98 269.21 107.16 271.65 111.2 274.14C116.11 277.16 122 280.77 123.9 286.57C124.01 286.92 124.31 286.94 124.56 286.81C130.7 299.46 136.07 312.41 141.48 325.43C138.08 321.75 134.74 318.13 132.08 313.82C129 308.83 126.25 303.66 123.09 298.72C120.97 295.4 118.93 292.01 116.71 288.76C115.5 286.99 113.88 284.61 111.73 283.91C110.55 283.52 105.03 278.74 104.98 280.26C104.95 281.17 109.95 287.68 110.3 288.34C111.36 290.34 112.44 292.27 113.74 294.12C119.46 302.29 124.1 310.92 130.79 318.39C133.2 321.07 135.6 323.66 138.35 326C140.31 327.67 142.7 329.59 144.17 331.92C144.34 332.33 144.51 332.74 144.68 333.15C145.39 335.63 146.1 338.11 146.8 340.6C150.04 352.19 153.22 363.79 156.52 375.36C150.99 369.61 144.32 364.2 141.22 356.77C139.6 352.88 139.17 348.3 138.34 344.2C137.3 339.11 136.3 333.9 134.47 329.01C133.64 326.78 132.08 322.57 129 323.03C128.62 323.09 128.41 323.41 128.42 323.78C128.56 327.13 129.96 329.98 131 333.12C132.21 336.76 132.44 340.6 133.13 344.35C134.13 349.75 135.56 355.04 138.07 359.91C136.8 358.82 135.48 357.8 134.26 356.63C128.56 351.2 123.65 345 119.31 338.45C115.96 333.39 112.81 328.21 110.77 322.48C109.68 319.44 108.46 314.32 105.44 312.5C103.66 311.43 101.65 312.09 100.96 314.02C99.9102 316.96 101.41 320.95 102.33 323.75C105.63 333.71 112.87 342.54 120.25 349.8C125.85 355.32 132.24 359.26 138.61 363.76C145.12 368.37 151.17 373.59 157.47 378.48C157.47 378.48 159.99 379.08 162.45 383.9L162.4 383.99C162.87 385.46 163.35 386.85 162.45 383.9C162.97 380.77 163.9 377.73 164.31 374.58C164.76 371.11 164.86 367.58 164.98 364.08C165.24 356.66 165.21 349.24 166.42 341.89C167.44 335.7 169.72 330.07 171.47 324.08C172.76 319.66 173.76 314.82 171.82 310.45C171.62 310 171.12 309.92 170.74 310.17L170.68 310.16ZM202.52 102.09C202.46 102.09 202.41 102.09 202.35 102.09C202.45 102.09 202.52 102.09 202.52 102.09ZM116.81 267.6C114.26 262.88 111.87 258.09 110.13 253.06C108.67 248.85 107.58 244.52 106.57 240.17C106.64 240.1 106.71 240.04 106.72 239.91C107 237.24 106.7 234.57 106.83 231.9C106.93 229.89 107.05 227.9 107.11 225.9C107.36 226.05 107.72 226.05 107.83 225.72C108.29 224.32 108.5 222.85 109.06 221.48C109.71 219.91 110.58 218.47 111.18 216.87C111.85 215.1 112.55 213.38 113.32 211.69C113.68 215.38 114.12 219.07 114.7 222.74C115.73 229.19 117.04 235.47 118.58 241.71C118.28 240.97 117.89 240.28 117.39 239.64C116.53 238.55 115.17 237.47 113.76 238.24C112.17 239.11 111.97 241.22 112.02 242.83C112.1 245.04 112.69 247.2 113.08 249.37C113.68 252.78 114.61 256.06 115.82 259.3C117.12 262.78 118.35 266.19 119.29 269.79C119.52 270.69 119.8 271.59 120.04 272.5C120.1 272.9 120.19 273.3 120.25 273.7C119.33 271.53 118.17 269.49 116.8 267.58L116.81 267.6ZM123.74 280.17C123.3 279.34 122.83 278.51 122.37 277.68C122.28 277.2 122.17 276.73 122.01 276.23C121.85 275.72 121.72 275.21 121.57 274.71C120.5 268.14 119.99 261.57 119.61 254.88C119.44 251.92 119.86 248.32 119.44 245.05C120.68 249.84 122.05 254.61 123.53 259.41C123.92 260.68 124.27 261.95 124.62 263.23C124.72 266.87 125.4 270.46 126.26 273.99C127.76 280.18 129.81 286.26 130.89 292.53C130.97 293.54 131.07 294.54 131.22 295.54C128.86 290.35 126.42 285.2 123.74 280.17ZM131.72 291.06C132.12 292.23 132.53 293.4 132.98 294.54C134.18 299.26 135.89 303.88 137.42 308.53C137.14 308.11 136.8 307.71 136.51 307.3C136.65 307.78 136.8 308.27 136.94 308.76C135.68 305.78 134.41 302.8 133.11 299.84C133.11 299.82 133.15 299.81 133.14 299.79C132.21 296.95 131.88 294.02 131.72 291.07V291.06Z" fill="#649196"/>
<path d="M235.29 232.69C237.05 232.69 238.49 231.27 238.5 229.5L238.63 205.29C238.63 205.09 238.79 204.93 239 204.93H243.2C255.9 204.93 264.27 199.91 264.19 188.58C264.11 178.31 255.14 174.58 245.55 174.58H232.53C232.33 174.58 232.16 174.74 232.16 174.95V229.57C232.16 231.3 233.56 232.7 235.29 232.7V232.69ZM238.84 175.49H245.85C253.08 175.49 258.17 179.52 258.25 188.57C258.33 198.61 252.39 204.01 243.34 204.01H238.99C238.79 204.01 238.63 203.85 238.62 203.65L238.47 175.86C238.47 175.66 238.63 175.49 238.84 175.49Z" fill="white"/>
<path d="M276.36 181.92C278.89 182.39 281.33 180.27 281.14 177.71C280.98 175.59 279.3 174.01 277.2 174.01C274.84 174.01 273.09 175.76 273.09 178.04C273.09 179.98 274.44 181.56 276.37 181.92H276.36Z" fill="white"/>
<path d="M273.99 193.22V230.12C273.99 231.54 275.14 232.69 276.56 232.69H277.62C279.06 232.69 280.23 231.52 280.23 230.08V191.7C280.23 191.7 280.23 191.7 280.22 191.7L274 193.22H273.99Z" fill="white"/>
<path d="M298.48 230.18V205.83C298.48 196.85 306.01 192.67 311.33 192.67C319.62 192.67 321.45 197.84 321.45 206.89V230.17C321.45 231.55 322.57 232.67 323.95 232.67H325.11C326.49 232.67 327.61 231.55 327.61 230.17V207.27C327.61 196.09 322.59 191.22 313.16 191.22C307.53 191.22 300.87 194.23 298.48 200.64V194.55C298.48 192.93 296.96 191.73 295.39 192.12L294.16 192.42C293.04 192.69 292.25 193.7 292.25 194.85V230.16C292.25 231.54 293.37 232.66 294.75 232.66H295.98C297.36 232.66 298.48 231.54 298.48 230.16V230.18Z" fill="white"/>
<path d="M357.43 231.77C347.31 231.77 341.53 223.86 341.53 211.31C341.53 209.11 341.73 207.08 342.09 205.22H368.45C369.84 205.22 371.04 204.17 371.15 202.79C371.65 196.6 366.13 191.23 356.43 191.23C344.72 191.23 334.98 199.9 334.98 212.83C334.98 225.76 344.11 233.37 354.6 233.37C363.96 233.37 370.5 228.43 372.25 219.98L371.41 219.83C369.74 227.89 363.73 231.77 357.41 231.77H357.43ZM356.37 192.14C362.38 192.14 365.65 195.41 365.65 199.75C365.65 203.48 362.68 204.31 359.11 204.31H342.31C344.16 196.54 349.24 192.14 356.37 192.14Z" fill="white"/>
<path d="M402.04 174.57H384.32V175.49H402.04V232.69H408.35V175.49H426V174.57H408.35H402.04Z" fill="white"/>
<path d="M434.97 206.96C435.65 198.13 441.29 192.14 447.98 192.14C449.5 192.14 451.4 192.44 452.62 192.82L452.92 191.91C451.63 191.53 449.65 191.23 448.13 191.23C442.22 191.23 437.15 195.09 434.97 202.05V191.38L428.73 192.9V232.68H434.97V206.96Z" fill="white"/>
<path d="M475.06 231.77C464.94 231.77 459.16 223.86 459.16 211.31C459.16 209.11 459.36 207.08 459.72 205.22H486.45C487.63 205.22 488.61 204.33 488.75 203.15C489.5 196.8 483.96 191.22 474.06 191.22C462.35 191.22 452.61 199.89 452.61 212.82C452.61 225.75 461.74 233.36 472.24 233.36C481.59 233.36 488.14 228.42 489.89 219.97L489.05 219.82C487.38 227.88 481.37 231.76 475.05 231.76L475.06 231.77ZM473.99 192.14C480 192.14 483.27 195.41 483.27 199.75C483.27 203.48 480.3 204.31 476.73 204.31H459.93C461.78 196.54 466.86 192.14 473.99 192.14Z" fill="white"/>
<path d="M529.82 219.83C528.15 227.89 522.14 231.77 515.82 231.77C505.7 231.77 499.92 223.86 499.92 211.31C499.92 209.11 500.12 207.08 500.48 205.22H527.04C528.32 205.22 529.4 204.25 529.53 202.98C530.16 196.7 524.62 191.23 514.82 191.23C503.11 191.23 493.37 199.9 493.37 212.83C493.37 225.76 502.5 233.37 512.99 233.37C522.35 233.37 528.89 228.43 530.64 219.98L529.8 219.83H529.82ZM514.76 192.14C520.77 192.14 524.04 195.41 524.04 199.75C524.04 203.48 521.07 204.31 517.5 204.31H500.7C502.55 196.54 507.63 192.14 514.76 192.14Z" fill="white"/>
<path d="M285.6 251.2H283.78C283.2 251.2 282.66 251.5 282.36 251.99L259.31 289.66L237.84 252.03C237.54 251.51 236.99 251.19 236.4 251.19H233.7C232.78 251.19 232.04 251.93 232.04 252.85V309.3H232.95V255.8L254.68 294.23C254.98 294.75 255.53 295.07 256.13 295.07C256.73 295.07 257.25 294.77 257.55 294.27L280.95 255.97V307.63C280.95 308.55 281.69 309.29 282.61 309.29H285.6C286.52 309.29 287.26 308.55 287.26 307.63V252.84C287.26 251.92 286.52 251.18 285.6 251.18V251.2Z" fill="white"/>
<path d="M328.41 296.46V283.22C328.41 272.57 321.41 267.93 312.59 267.93C303.31 268.01 297.99 273.48 297.99 280.18C297.99 283.83 299.43 286.72 301.11 288.24L301.72 287.63C300.27 286.11 298.9 283.45 298.9 280.18C298.9 274.02 303.69 269.23 310.84 269.3C319.21 269.45 322.17 275 322.17 282V287.55C301.63 288.31 295.7 295 295.7 301.32C295.7 306.8 300.11 309.84 305.82 309.84C315.09 309.84 320.24 304.46 322.18 298.2C322.24 305.78 327.01 309.16 333.74 309.84L333.82 309.16C329.86 308.32 328.42 304.67 328.42 296.46H328.41ZM309.54 307.79C304.82 307.79 302.01 304.52 302.01 300.11C302.01 294.78 306.04 288.47 322.17 288.47V292.2C322.17 301.56 315.93 307.79 309.54 307.79Z" fill="white"/>
<path d="M352.59 296.38C342.4 293.03 341.48 291.97 341.48 290.29C341.48 289.23 342.34 287.84 343.86 286.99C346.12 288.35 348.98 289.15 352.21 289.15C360.12 289.15 365.83 284.51 365.83 278.35C365.83 274.46 363.4 271.22 359.56 269.41C360.82 267.41 362.8 266.49 364.84 266.49C366.28 266.49 368.19 267.02 369.48 268.7L370.16 268.17C368.41 265.96 366.43 265.58 364.84 265.58C362.57 265.58 360.12 266.7 358.68 269.03C356.78 268.28 354.59 267.86 352.21 267.86C344.45 267.86 338.67 272.35 338.67 278.36C338.67 281.67 340.33 284.53 343.06 286.48C341.05 287.86 339.35 290.28 339.35 292.89C339.35 297.45 342.39 299.28 352.05 302.63C364.83 307.04 368.48 309.25 368.48 314.95C368.48 320.65 363.08 325.6 352.81 325.6C342.24 325.52 336 319.29 336 311.38C336 307.73 337.45 304.76 339.04 302.94L338.28 302.41C336.53 304.31 335.09 307.58 335.09 311.39C335.09 319.68 341.71 326.45 352.81 326.53C363.92 326.53 370.69 320.75 370.69 311.32C370.69 304.02 366.2 300.67 352.59 296.41V296.38ZM352.21 268.62C357.92 268.62 360.42 273.18 360.42 278.36C360.42 283.54 357.91 288.4 352.21 288.4C346.51 288.4 344 283.53 344 278.36C344 273.19 346.51 268.62 352.21 268.62Z" fill="white"/>
<path d="M382.6 259.91C380.24 259.91 378.49 261.66 378.49 263.94C378.49 265.88 379.84 267.46 381.77 267.82C384.3 268.29 386.74 266.17 386.55 263.61C386.39 261.49 384.71 259.91 382.61 259.91H382.6Z" fill="white"/>
<path d="M379.14 269.83V306.65C379.14 308.11 380.33 309.3 381.79 309.3H382.71C384.18 309.3 385.38 308.11 385.38 306.63V268.31C385.38 268.31 385.38 268.31 385.37 268.31L379.15 269.83H379.14Z" fill="white"/>
<path d="M416.71 308.63C406.59 308.63 400.96 300.49 400.96 288.85C400.96 276.3 407.05 269.07 416.17 269.07C423.17 269.07 428.26 273.25 428.26 280.71C428.26 282.99 427.65 285.2 426.66 286.72L427.27 287.25C428.41 285.58 429.17 283.22 429.17 280.71C429.17 272.72 423.69 267.86 414.49 267.86C403.31 267.86 394.48 276.45 394.48 288.85C394.48 301.25 403.84 309.84 414.87 309.84C424.45 309.84 430.31 304.67 432.67 296.6L431.83 296.45C429.55 304.06 423.84 308.62 416.69 308.62L416.71 308.63Z" fill="white"/>
<path d="M465.39 288.24C463.11 282.91 459.38 281.47 456.19 281.47C454.35 281.47 452.51 281.89 450.71 282.55L471.56 268.38H470.04L445.32 285.23V253.77C445.32 251.8 443.48 250.36 441.57 250.83L441.46 250.86C440.11 251.19 439.16 252.41 439.16 253.8V306.29C439.16 307.96 440.51 309.32 442.19 309.32H442.3C443.97 309.32 445.33 307.97 445.33 306.29V286.23L447.05 285.06C448.76 284.07 450.55 283.3 452.18 283.3C454.84 283.3 457.35 284.36 459.33 288.93L467.14 307.46C467.61 308.58 468.71 309.31 469.93 309.31C472.11 309.31 473.57 307.08 472.71 305.08L465.42 288.24H465.39Z" fill="white"/>
<path d="M180.4 136.38C175.77 135.76 174.98 141.88 179.07 142.92C181.51 143.54 184.27 141.12 182.94 138.2C182.57 137.39 181.3 136.51 180.41 136.38H180.4Z" fill="white"/>
<path d="M263.36 62.66C265.51 62.18 266.33 59.09 264.64 57.59C262.97 55.34 259.83 55.24 258.79 58.49C258.09 60.58 260.27 63.35 263.36 62.66Z" fill="white"/>
<path d="M233.49 114.93C232.84 114.55 231.98 114.59 231.25 114.73C229.49 115.07 227.64 118.3 229.77 120.15C230.9 121.21 232.69 121.66 234.31 120.77C234.85 120.47 235.48 119.75 235.67 119C235.71 118.83 235.69 118.88 235.78 118.52C236.13 117.15 234.67 115.43 233.49 114.94V114.93Z" fill="white"/>
<path d="M199.69 286.35C197.28 284.84 194.35 288.06 195.71 290.8C196.02 291.44 196.6 292 197.26 292.28C199.11 293.18 201.44 292.35 201.77 289.56C201.75 288.78 200.94 287.14 199.69 286.35Z" fill="white"/>
<path d="M184.01 319.55C183.55 319.51 183.2 319.62 182.82 319.79C180.85 320.12 179.58 322.69 181.01 324.79C181.54 325.56 182.38 326.14 183.31 326.28C188.5 327.07 189 320.03 184.01 319.54V319.55Z" fill="white"/>
<path d="M248.55 67.26C238.89 62.7 236.24 58.66 233.39 43.64C233.31 43.23 232.73 43.23 232.65 43.64C229.8 58.66 227.15 62.7 217.49 67.26C217.2 67.4 217.2 67.81 217.49 67.94C227.15 72.5 229.8 76.54 232.65 91.56C232.73 91.97 233.31 91.97 233.39 91.56C236.24 76.54 238.89 72.5 248.55 67.94C248.84 67.8 248.84 67.39 248.55 67.26Z" fill="#C08497"/>
<path d="M221.73 375.18C221.68 374.9 221.27 374.9 221.22 375.18C219.26 385.52 217.44 388.3 210.79 391.44C210.59 391.53 210.59 391.82 210.79 391.91C217.44 395.05 219.26 397.83 221.22 408.17C221.27 408.45 221.68 408.45 221.73 408.17C223.69 397.83 225.51 395.05 232.16 391.91C232.36 391.82 232.36 391.53 232.16 391.44C225.51 388.3 223.69 385.52 221.73 375.18Z" fill="#CBD3EB"/>
<path d="M213.02 353.23C203.36 348.67 200.71 344.63 197.86 329.61C197.78 329.2 197.2 329.2 197.12 329.61C194.27 344.63 191.62 348.67 181.96 353.23C181.67 353.37 181.67 353.78 181.96 353.91C191.62 358.47 194.27 362.51 197.12 377.53C197.2 377.94 197.78 377.94 197.86 377.53C200.71 362.51 203.36 358.47 213.02 353.91C213.31 353.77 213.31 353.36 213.02 353.23Z" fill="#F59BBB"/>
<path d="M100.46 293.44C93.8099 290.3 91.9899 287.52 90.0299 277.18C89.9799 276.9 89.5699 276.9 89.5199 277.18C87.5599 287.52 85.7399 290.3 79.0899 293.44C78.8899 293.53 78.8899 293.82 79.0899 293.91C85.7399 297.05 87.5599 299.83 89.5199 310.17C89.5699 310.45 89.9799 310.45 90.0299 310.17C91.9899 299.83 93.8099 297.05 100.46 293.91C100.66 293.82 100.66 293.53 100.46 293.44Z" fill="#9ACAC6"/>
<path d="M84.9802 156.35C93.6602 160.45 96.0402 164.08 98.6002 177.57C98.6702 177.94 99.2001 177.94 99.2701 177.57C101.83 164.07 104.21 160.45 112.89 156.35C113.15 156.23 113.15 155.86 112.89 155.74C104.21 151.64 101.83 148.01 99.2701 134.52C99.2001 134.15 98.6702 134.15 98.6002 134.52C96.0402 148.02 93.6602 151.64 84.9802 155.74C84.7202 155.86 84.7202 156.23 84.9802 156.35Z" fill="#CBA3D8"/>
</svg>
