<svg width="449" height="383" viewBox="0 0 449 383" fill="none" xmlns="http://www.w3.org/2000/svg">
<g clip-path="url(#clip0_179_2)">
<path d="M260.59 381.07C253.21 381.07 245.78 380.62 238.33 379.7C196.17 374.49 156.45 353.45 126.47 320.44L128.33 318.75C157.91 351.31 197.08 372.07 238.64 377.2C309.1 385.91 378.06 352.07 414.31 290.99L416.47 292.27C383.55 347.74 324 381.06 260.59 381.06V381.07Z" fill="white" stroke="white" stroke-width="3" stroke-miterlimit="10"/>
<path d="M417.51 128.4C395.8 84.19 356.35 50.59 309.28 36.21C276.62 26.23 242.05 25.78 209.3 34.9L208.63 32.48C241.84 23.24 276.9 23.7 310.01 33.81C357.75 48.39 397.75 82.46 419.77 127.29L417.52 128.4H417.51Z" fill="white" stroke="white" stroke-width="3" stroke-miterlimit="10"/>
<path d="M110.36 253.85C110.58 253.78 110.41 254.08 110.36 253.85Z" fill="white"/>
<path d="M142.32 194.25C142.31 194.3 142.3 194.35 142.28 194.4C142.34 194.42 142.48 194.34 142.32 194.25Z" fill="white"/>
<path d="M138.66 262.07C130.01 267.57 129.27 279.71 129.18 288.93C129.11 295.97 129.84 302.94 130.18 309.96C130.29 312.27 130.47 314.55 130.62 316.86C130.72 318.29 130.94 320.56 130.62 322.49C127.69 312.68 124.88 302.84 122.13 292.98C122.09 292.85 122.06 292.73 122.02 292.6C121.66 291.04 121.36 289.46 121.1 287.87C121.13 287.87 121.17 287.87 121.2 287.87C121.15 287.76 121.1 287.65 121.04 287.54C118.12 269.7 121.07 250.26 127.25 233.36C128.39 231.5 130.33 230.48 132.24 229.56C134.07 228.67 135.83 227.71 137.59 226.71C141.46 224.52 145.35 222.55 149.53 221.05C155.9 218.77 163.52 216.67 167.27 210.52C167.42 210.27 167.43 209.95 167.17 209.75C164.56 207.78 159.64 209.73 156.92 210.58C153.62 211.61 150.06 212.67 146.92 214.32C147.75 213.51 148.6 212.74 149.38 211.89C151.55 209.51 153.71 207.09 155.64 204.51C157.39 202.16 159.24 199.51 159.72 196.56C159.78 196.21 159.58 196.01 159.34 195.89C160.49 194.87 161.64 193.86 162.78 192.83C167.44 188.62 173.11 185.41 177.23 180.62C178.19 179.51 185.06 173.69 183.55 172.42C182.05 171.16 174.21 176.1 172.73 176.83C168.41 178.93 164.54 182.12 160.89 185.41C161.44 183.81 161.96 182.19 162.64 180.63C163.5 178.67 164.7 176.93 165.83 175.12C167.68 172.16 170.96 161.05 170.24 157.37C169.56 153.92 165.4 163.53 164 164.95C161.02 167.99 159.72 172.25 158.26 176.14C156.23 181.55 154.16 186.95 152.93 192.75C151.26 194.26 149.57 195.73 148 197.34C145.68 199.72 143.52 202.24 141.31 204.72C140.29 205.86 139.22 206.99 138.26 208.2C139.05 206.2 139.77 204.16 140.37 202.06C141.04 199.66 141.69 197.09 142.29 194.42C142.26 194.41 142.24 194.37 142.33 194.27C144.29 191.94 146.62 189.16 148.3 186.63C149.92 184.2 151.42 182.02 152.35 179.22C154.3 173.38 154.95 167.07 155.07 160.93C155.07 160.52 154.65 160.46 154.43 160.71C158.46 154.74 158.44 155.28 161.1 148.65C161.7 147.17 169.52 129.85 168.21 128.43C166.88 126.98 161.62 135.85 160.44 136.86C158.19 138.78 156.66 141.53 155.26 144.09C153.84 146.68 152.54 149.34 151.27 152.02C150.56 149.49 149.8 146.96 149.4 144.36C149.16 142.76 149.04 141.14 148.84 139.53C148.53 137.06 146.53 129.67 145.81 126.92C146.04 126.62 144.64 122.43 145.81 126.92C142.61 130.99 142.71 141.4 143.17 146.17C143.42 148.77 143.66 151.31 144.3 153.85C144.93 156.36 145.72 159.1 147.35 161.18C145 167.64 143.44 174.29 142.73 181.15C142.67 180.87 142.69 180.58 142.5 180.13C141.89 173.13 139.69 166.22 137.36 159.67C136.11 156.15 134.5 152.81 133.13 149.34C132.15 146.85 131.36 144.27 130.11 141.88C129.37 140.47 125.27 132.68 123.54 132.37C122.12 132.12 124.38 138.99 124.15 140.3C123.82 142.12 124.29 144.14 124.71 145.91C125.54 149.39 126.85 152.72 128.32 155.96C130.27 160.25 132.27 164.55 134.4 168.76C135.41 170.76 136.35 172.82 137.45 174.78C138.46 176.58 140.04 178.59 139.75 180.77C139.73 180.9 139.86 180.91 139.91 180.99C141.79 188.94 138.93 198.77 136.38 206.25C132.9 216.43 127.22 225.64 123.82 235.9C123.55 236.72 123.32 237.59 123.06 238.42C123 238.1 122.93 237.78 122.87 237.47C122.59 232.63 122.45 227.84 123 222.96C123.61 217.54 124.84 212.22 125.55 206.81C126.52 199.43 127.14 191.43 126.37 183.97C126.2 182.32 126.07 179.26 124.61 178.09C123.49 177.2 122.26 177.8 121.69 178.98C120.61 181.2 121.29 184.69 121.26 187.08C121.19 192.48 120.86 197.86 121.02 203.27C121.21 209.65 119.87 215.8 119.62 222.15C119.38 228.28 120.71 234.27 121.91 240.24C121.97 240.51 122.14 240.66 122.34 240.75C118.96 252.35 116.92 265.2 117.64 277.6C116.92 275.17 116.24 272.73 115.52 270.3C113.95 265.04 112.21 259.22 110.34 253.89C109.86 251.71 109.56 249.45 108.53 247.44C106.99 243.04 105.85 238.51 104.8 233.95C104.78 232.54 104.77 231.13 104.77 229.71C105.1 224.63 104.41 219.52 105.99 214.5C107.85 208.6 110.64 203.36 111.8 197.21C113.12 190.24 113.4 183.2 113.94 176.15C114.29 171.49 115.52 166.37 112.61 162.28C112.45 162.05 112.14 162 111.89 162.09C109.26 163.01 108.75 167 108.39 169.34C107.59 174.55 107.9 179.92 107.56 185.18C107.12 191.9 106.11 198.44 104.81 205.04C104.46 206.8 104.11 208.57 103.78 210.35C103.28 209.57 102.48 209.1 101.48 209.51C99.9701 210.13 99.8601 212.16 99.7901 213.54C99.7801 213.73 99.7501 213.91 99.7401 214.1C97.7201 207.1 96.0701 200.08 94.6701 192.97C94.7601 192.82 94.7901 192.63 94.7201 192.42C92.4501 185.57 97.5701 179.81 100.74 174.22C103.27 169.76 106.14 165.09 107.69 160.17C108.25 158.38 108.72 156.36 108.26 154.5C107.98 153.38 106.64 143.32 105.2 143.63C103.55 143.99 103.46 155.06 103.07 156.35C102.17 159.37 101.6 162.48 100.71 165.51C98.8301 171.86 96.0801 178.2 92.9601 184.09C92.9401 183.97 92.9101 183.86 92.8901 183.74C92.3601 180.16 92.0301 176.59 91.8201 173.03C93.9501 169.4 96.1901 165.84 98.1601 162.12C98.8101 160.89 99.8301 159.18 99.6001 157.72C99.3901 156.33 97.9901 156.23 96.9201 156.76C94.6601 157.87 92.9101 159.91 91.4801 162.16C91.4801 162.09 91.4801 162.02 91.4801 161.95C91.5101 161.68 91.5501 161.4 91.5901 161.13C92.6901 155.36 95.2401 150.35 98.5401 145.52C101.48 141.22 103.92 136.56 107.22 132.51C111.08 127.77 116.62 124.85 120.85 120.45C122 119.26 131.31 113.02 130.91 111.13C130.46 109.03 120.76 113.63 119.29 114.25C116.5 115.44 113.97 117.56 111.85 119.7C108 123.57 104.69 127.94 101.56 132.4C96.8301 139.14 93.1801 147.02 91.4601 155.22C91.4701 153.97 91.4801 152.72 91.4901 151.47C94.7101 135.54 101.95 121.27 112.59 108.55C113.34 107.66 114.16 106.89 114.94 106.05C121.13 105.52 127.04 103.37 133.21 102.69C138.89 102.06 143.99 101.21 148.76 97.81C148.86 97.74 148.87 97.65 148.91 97.56C153.48 98.09 157.98 98.78 162.37 100.15C165.07 100.99 167.79 101.29 170.57 100.73C171.86 100.47 173.76 99.95 173.81 98.34C173.87 96.5 171.33 95.14 169.91 94.56C165.68 92.83 160.87 92.99 156.25 93.11C157 92.64 157.76 92.19 158.46 91.65C158.66 91.49 158.59 91.28 158.52 91.09C160.3 91.21 162.09 91.33 163.88 91.32C168.75 91.27 173.6 91.26 178.47 91.35C179.82 91.38 182.33 91.62 183.22 90.28C184.3 88.65 182.08 86.66 180.88 85.87C178.12 84.07 174.58 84.15 171.43 83.9C170.09 83.79 168.78 83.73 167.46 83.65C169.17 82.35 170.68 80.77 172.18 79.24C173.4 78 174.68 76.85 175.93 75.65C177.21 74.42 178.47 73.16 179.63 71.81C180.49 70.82 181.59 69.62 181.93 68.31C182.15 67.47 181.89 66.54 181 66.25C179.99 65.92 178.78 66.47 177.88 66.88C175.3 68.06 172.86 69.76 170.65 71.53C166.65 74.72 161.06 79.62 157.37 83.72C150.67 84.31 143.32 84.69 136.81 86.94C141.2 83.17 146.25 79.47 150.04 74.91C150.3 75.01 149.47 75.43 150.04 74.91C159.01 66.8 159.64 64.12 164.51 59.17C167.75 55.88 168.35 52.29 170.21 47.98C170.97 46.23 176.02 40.49 174.55 39.05C174.75 38.97 174.38 38.89 174.55 39.05C168.65 41.48 162.84 51.41 159.13 56.24C157.3 58.63 155.37 60.93 153.74 63.47C152.73 65.04 151.79 66.73 151.14 68.59C150.02 70.63 148.56 72.4 147 74.09C147.36 73.31 147.67 72.52 147.96 71.79C149.52 67.85 150.54 63.73 151.71 59.67C153.36 53.96 155.03 48.14 157.88 42.9C160.18 38.68 164.02 30.97 163.83 25.97C164.18 25.86 163.81 25.53 163.83 25.97C161.04 26.87 157.71 32.2 156.29 34.58C154.31 37.9 152.17 41.15 150.44 44.61C148.51 48.48 146.92 52.59 145.5 56.77C145.61 56.18 145.75 55.6 145.86 55.01C146.62 50.89 147.51 46.8 148.29 42.68C148.91 39.38 152.87 29.19 151.58 25.97C151.44 25.62 151.58 25.97 147.36 32.16C142.22 39.69 141.2 49.01 140.38 57.27C139.79 63.3 137.99 69.18 135.71 74.77C134.53 77.66 132.9 80.33 131.71 83.21C130.69 85.68 129.76 88.08 128.41 90.34C122.86 94.71 117.8 99.23 113.13 104.3C114.2 101.97 114.52 98.97 115.28 96.78C117.21 91.24 119.27 85.76 120.97 80.15C123.67 71.25 127.13 61.53 126.54 52.13C126.43 50.32 124.59 39.58 122.99 38.3C123.75 37.03 121.58 37.17 122.99 38.3C121.37 41.02 119.74 53.69 119.73 56.72C119.71 61.85 118.96 66.83 117.98 71.86C116.69 78.52 115.47 85.22 113.55 91.74C111.8 97.69 109.68 103.57 108.52 109.67C108.09 110.2 107.64 110.68 107.22 111.22C105.94 112.86 104.68 114.57 103.46 116.33C103.47 116.27 103.48 116.21 103.49 116.15C104.2 112.92 105.42 109.97 106.79 106.97C108.95 102.23 111.64 96.85 110.36 91.51C110.29 91.2 109.87 91.03 109.59 91.14C107.98 91.77 106.97 93.37 106.14 94.81C104.87 97.03 103.94 99.45 103.11 101.86C101.33 107.01 100.28 112.35 99.3101 117.7C98.8601 115.5 98.3901 113.31 97.9001 111.11C97.3801 108.73 96.7701 106.38 96.2401 104.01C96.5401 103.94 96.8001 103.74 96.7901 103.35C96.5501 98.34 95.7201 93.24 96.1701 88.23C96.6501 82.93 99.0101 77.83 101.35 73.1C103.5 68.75 106.02 64.64 108.54 60.49C110.78 56.79 115.65 48.29 116.35 43.97C116.76 43.99 116.42 43.53 116.35 43.97C113.5 43.84 107.65 51.22 106.15 53.21C103.11 57.23 101.23 61.88 99.2201 66.47C97.0901 71.34 94.2601 76.05 93.2601 81.33C92.7801 83.87 92.7401 86.47 92.7601 89.06C92.7301 88.93 92.7001 88.8 92.6701 88.67C91.2801 83.37 88.5201 75.34 90.7301 69.75C90.8701 69.75 91.0301 69.71 91.0701 69.52C91.6401 66.58 92.9101 63.9 93.8501 61.08C94.9901 57.64 96.0001 54.14 96.9701 50.65C98.0101 46.91 98.6701 43.1 99.3901 39.29C100.64 32.69 102.03 25.85 101.86 19.1C101.82 17.46 101.45 7.31 100.02 6.12C98.6801 5.01 97.9001 13.26 97.2801 14.62C95.9701 17.47 96.0801 21.21 95.9201 24.27C95.6501 29.45 94.0601 34.08 92.5301 39.01C91.1401 43.48 89.8401 48.1 88.6801 52.74C88.5701 49.21 88.5601 45.7 88.0901 42.16C87.4301 37.24 86.6101 32.36 86.1601 27.42C85.7901 23.34 85.0701 18.75 85.7301 14.69C86.0701 12.58 86.6301 10.43 86.5001 8.28C85.4901 -8.42 82.9401 5.07 82.0601 8.36C81.4001 10.83 81.5401 13.51 81.6001 16.04C81.7101 20.87 81.5601 25.69 81.9301 30.51C81.9501 30.79 82.0101 31.07 82.0301 31.35C80.9901 28.54 79.6301 25.86 78.3901 23.04C77.2401 20.44 76.0101 17.58 74.1901 15.32C61.5101 -0.500001 69.7901 14.91 70.3001 17.63C70.7001 19.73 72.0001 21.73 72.9001 23.64C74.2201 26.44 75.3401 29.33 76.6301 32.14C79.3801 38.12 82.6701 44.05 84.3601 50.45C84.4001 50.6 84.5001 50.68 84.5901 50.74C85.2901 54.66 86.7001 59.01 86.6001 63.04C86.5901 63.48 86.2401 63.12 86.6001 63.04C86.0301 68.09 86.8101 72.82 88.2701 77.62C88.4501 79.61 88.7501 81.57 89.0701 83.32C90.2701 89.81 92.0401 96.2 93.3601 102.67C94.6201 108.8 96.0801 114.95 97.2201 121.14L97.0701 121.21C95.6701 117.96 94.1501 114.78 92.3901 111.73C92.6601 111.65 92.9001 111.46 92.9101 111.12C93.0501 107.98 92.7801 104.78 92.1801 101.7C91.6401 98.97 90.8301 95.49 88.4401 93.74C88.1201 93.51 87.7301 93.58 87.5201 93.92C85.3201 97.71 88.1301 101.49 88.2701 105.35C85.9501 102.09 83.7401 98.84 82.4501 94.89C80.8601 90.03 80.3401 84.9 79.8801 79.84C79.5401 76.05 79.8201 71.41 78.1301 67.9C77.5201 66.64 75.1401 54.11 73.4801 55.13C70.9601 56.68 72.9901 73.24 73.3501 75.48C74.1501 80.62 75.9401 85.54 76.9701 90.63C77.8701 95.04 78.9701 99.38 80.8201 103.5C82.3301 106.86 84.3701 109.87 86.6001 112.74C88.4401 119.29 90.9301 125.82 94.4101 131.71C94.5301 131.55 94.6501 131.4 94.7701 131.24C89.2401 142.87 86.0201 155.64 87.6501 167.71C87.6501 167.79 87.6501 167.87 87.7001 168.13C87.7501 168.48 87.8001 168.82 87.8501 169.16C87.0701 170.82 86.3001 172.49 85.5101 174.15C84.7201 175.82 84.1201 177.55 83.7201 179.34C83.6201 177.13 83.5801 174.92 83.4301 172.71C83.0201 166.7 82.8001 157.79 77.1701 154.06C76.9801 153.93 76.6301 153.93 76.5401 154.2C76.0201 155.75 76.2101 157.36 76.4001 158.95C76.6501 160.97 76.8001 162.99 77.0701 165C77.5301 168.34 77.6401 171.93 78.2501 175.33C76.7101 170.78 74.8101 166.34 72.5301 161.96C69.2901 155.74 65.8801 149.07 61.2501 143.72C60.4801 142.84 55.4901 135.86 54.0901 136.26C52.6501 136.67 56.4201 143.75 56.7101 144.84C57.4101 147.52 59.2101 149.98 60.7301 152.24C63.0501 155.71 65.2401 159.29 67.3901 162.87C70.2001 167.55 72.6501 172.47 74.8501 177.46C76.7201 181.7 79.2901 186.14 79.8601 190.8C79.8601 190.87 79.9401 190.87 79.9901 190.9C81.1701 197.91 82.2401 204.98 84.3301 211.79C85.1001 214.32 86.1101 216.74 87.1901 219.12C85.3501 216.87 83.5601 214.57 81.8301 212.21C81.8301 212.11 81.8501 212.02 81.8001 211.91C80.5901 209.63 79.0201 207.6 77.2101 205.76C74.1301 201.32 71.2901 196.83 67.5101 192.91C64.6101 189.9 62.0501 186.18 58.8801 183.33C58.4301 180.5 57.2901 177.85 56.6101 175.06C55.6701 171.25 54.9001 167.42 53.7201 163.67C52.7101 160.46 51.4401 157.37 50.0501 154.3C48.8601 151.69 47.6701 148.93 45.6501 146.84C44.9201 146.08 43.1501 144.36 41.9101 145.01C40.6701 145.66 41.6001 147.55 42.0001 148.4C43.5301 151.71 45.5901 154.74 47.1901 158.02C48.7301 161.19 49.7001 164.58 50.9101 167.88C52.0701 171.06 53.6001 174.08 54.9301 177.19C55.3401 178.14 55.6901 179.14 56.0901 180.1C54.0601 177.36 52.4001 174.36 50.6401 171.44C48.3401 167.62 45.7101 164.01 42.6901 160.72C42.5601 160.58 42.4101 160.45 42.2801 160.3C42.4201 160.17 42.5001 159.97 42.3501 159.77C38.5601 154.58 36.2401 148.31 33.1101 142.71C31.4401 139.73 29.5201 136.91 27.6101 134.09C26.4301 132.35 22.0701 124.53 20.2401 123.34C20.0601 123.22 19.7601 123.22 19.6701 123.47C18.8801 125.68 23.4601 133.52 24.3901 135.54C25.5501 138.05 27.0901 140.34 28.3601 142.79C29.7101 145.4 30.8401 148.99 32.7001 151.76C31.6401 150.96 30.5801 150.17 29.5201 149.42C28.3801 148.62 26.6101 147.23 25.0901 147.54C23.8001 147.8 23.5901 149.07 23.9701 150.16C24.7001 152.3 26.7101 154.11 28.2201 155.73C30.9801 158.72 34.0901 161.36 37.2001 163.98C39.1601 165.63 41.0001 167.4 42.8801 169.12C42.1501 168.53 41.4401 167.9 40.6801 167.34C37.9101 165.3 35.0101 163.39 32.0401 161.65C29.6801 160.27 27.1401 159 24.3501 158.94C24.1801 158.94 24.0501 159.1 24.0101 159.24C23.4801 161.63 26.0101 163.28 27.7401 164.37C30.8401 166.32 33.7001 168.4 36.6101 170.63C40.3001 173.47 44.4401 175.47 48.4901 177.72C50.3901 178.77 52.0901 179.95 53.7801 181.29C54.2601 181.67 54.7401 182 55.2201 182.3C55.2501 182.49 55.3201 182.67 55.5201 182.83C59.5401 185.96 62.4601 190.28 66.0301 193.89C68.3801 196.26 70.3501 198.87 72.2501 201.54C67.4601 198.09 61.9601 195.42 56.9501 193.02C55.4701 192.31 53.9601 191.78 52.4701 191.19C52.4101 191.13 52.3701 191.05 52.2601 191.02C52.1401 190.98 52.0001 190.98 51.8801 190.95C48.4101 189.6 44.9001 188.41 41.2501 187.38C40.1001 187.06 38.9301 186.78 37.7701 186.48C35.3901 185.02 33.2101 183.48 31.2901 181.4C30.4601 180.5 29.6001 179.63 28.7401 178.76C27.5901 177.61 18.2501 167.69 16.7701 170.58C15.7301 172.61 19.0201 175.33 20.2501 176.46C21.2401 177.37 22.2901 178.2 23.3401 179.02C22.3901 178.41 21.4401 177.79 20.4201 177.27C18.8501 176.47 17.1701 175.61 15.4201 175.26C14.8801 175.15 14.1501 175.07 13.7401 175.52C13.2401 176.07 13.6201 176.95 13.9601 177.46C14.6201 178.45 15.7601 179.08 16.8101 179.58C18.0501 180.16 19.3501 180.58 20.6401 181.03C23.5001 182.03 26.2301 183.39 29.0901 184.38C29.9601 184.98 30.8101 185.6 31.7201 186.15C32.6201 186.69 33.5801 187.05 34.5501 187.38C31.6301 187.45 28.6901 187.8 25.8501 188.16C22.4801 188.58 19.1901 189.37 15.9001 190.2C13.5701 190.79 10.9001 191.2 8.92006 192.65C8.14006 193.22 -0.729938 196.42 0.0200615 197.47C0.740062 198.48 10.2501 196.21 11.2201 196.04C18.1701 194.82 25.1201 193.61 32.0601 192.38C36.8501 191.53 42.1901 190.55 47.2201 191C49.7401 191.82 52.2201 192.72 54.6301 193.84C58.1101 195.45 61.8701 197.18 65.5001 199.19C59.3901 197.88 52.8201 198.9 46.6501 199.17C39.5801 199.47 32.7601 200.3 26.6801 204.21C25.6301 204.88 24.0001 206 24.4401 207.48C24.8801 208.97 26.5101 209.16 27.7901 208.9C30.0501 208.44 32.0101 207.12 34.1301 206.27C37.7201 204.82 41.6101 203.89 45.3701 203.01C49.0701 202.14 52.8301 201.36 56.5701 200.66C60.0101 200.01 63.5001 199.66 66.9201 200.6C67.1801 200.67 67.3301 200.52 67.3901 200.32C70.2001 201.98 72.8801 203.82 75.2701 205.93C75.5401 206.32 75.8001 206.7 76.0701 207.09C77.6501 209.33 79.2601 211.57 80.9201 213.78C80.8801 213.76 80.8401 213.73 80.8101 213.7C78.9501 212.53 77.2001 211.31 75.4601 209.97C72.5801 207.77 69.6801 206.1 66.3601 204.68C63.9601 203.65 61.5301 202.58 58.9601 202.02C57.1501 201.63 54.7101 201.36 53.6201 203.21C53.5201 203.37 53.6001 203.6 53.7301 203.72C56.1401 205.79 59.2401 206.77 62.1901 207.77C65.4401 208.87 68.5401 210.26 71.6001 211.81C74.8001 213.43 77.7901 215.45 81.0101 217.04C82.0301 217.54 83.0601 218.01 84.0501 218.55C84.3901 218.73 84.7901 218.95 85.1801 219.18C85.5301 219.61 85.8601 220.06 86.2101 220.48C87.5201 222.05 88.8801 223.61 90.1801 225.21C91.3601 227.44 92.5701 229.66 93.7701 231.89C93.7701 231.9 93.7801 231.91 93.7901 231.92C88.4901 225.58 79.3501 223.83 72.1901 220.16C68.5701 218.3 65.2201 216.03 61.7101 213.98C60.5201 213.29 57.0401 210.9 55.6001 212.2C53.2901 214.28 61.3501 218.05 62.3701 218.58C67.0701 221.04 71.9601 223.05 76.7601 225.28C80.4501 227 84.0401 229.1 87.5101 231.23C91.7201 233.82 96.7801 236.92 98.4101 241.9C98.5101 242.2 98.7601 242.22 98.9701 242.11C104.24 252.97 108.85 264.08 113.49 275.26C110.58 272.1 107.71 269 105.42 265.29C102.78 261.01 100.42 256.57 97.7001 252.33C95.8801 249.48 94.1301 246.57 92.2201 243.78C91.1801 242.26 89.7901 240.22 87.9401 239.61C86.9301 239.28 82.1901 235.17 82.1401 236.48C82.1101 237.26 86.4001 242.85 86.7001 243.42C87.6101 245.13 88.5401 246.79 89.6501 248.38C94.5601 255.39 98.5401 262.8 104.29 269.21C106.36 271.51 108.42 273.73 110.78 275.74C112.46 277.18 114.51 278.82 115.78 280.82C115.93 281.17 116.07 281.53 116.22 281.88C116.83 284.01 117.44 286.14 118.04 288.28C120.82 298.22 123.55 308.19 126.39 318.12C121.64 313.19 115.92 308.54 113.26 302.16C111.87 298.82 111.5 294.89 110.78 291.37C109.89 287 109.03 282.53 107.46 278.33C106.74 276.41 105.41 272.8 102.76 273.19C102.43 273.24 102.25 273.52 102.27 273.83C102.39 276.7 103.59 279.16 104.48 281.85C105.52 284.97 105.71 288.27 106.31 291.49C107.17 296.12 108.39 300.67 110.55 304.84C109.46 303.9 108.32 303.03 107.28 302.03C102.39 297.37 98.1701 292.05 94.4501 286.42C91.5801 282.07 88.8701 277.63 87.1201 272.72C86.1901 270.11 85.1301 265.72 82.5401 264.15C81.0101 263.23 79.2901 263.8 78.6901 265.46C77.7901 267.99 79.0701 271.41 79.8701 273.81C82.7001 282.36 88.9201 289.94 95.2501 296.17C100.06 300.91 105.54 304.29 111.01 308.16C116.6 312.12 121.79 316.59 127.2 320.79C127.2 320.79 129.37 321.31 131.47 325.44L131.43 325.51C131.84 326.77 132.24 327.97 131.47 325.44C131.92 322.75 132.72 320.14 133.07 317.44C133.46 314.46 133.54 311.43 133.65 308.43C133.87 302.06 133.85 295.69 134.89 289.38C135.77 284.06 137.73 279.23 139.23 274.09C140.34 270.3 141.19 266.14 139.53 262.39C139.36 262.01 138.93 261.93 138.6 262.15L138.66 262.07ZM165.99 83.46C165.99 83.46 165.89 83.46 165.85 83.46C165.94 83.46 165.99 83.46 165.99 83.46ZM92.4101 225.53C90.2201 221.48 88.1701 217.37 86.6701 213.05C85.4101 209.43 84.4801 205.72 83.6201 201.99C83.6801 201.93 83.7401 201.87 83.7501 201.77C83.9901 199.48 83.7301 197.19 83.8401 194.89C83.9201 193.16 84.0301 191.45 84.0801 189.74C84.3001 189.87 84.6101 189.87 84.7001 189.59C85.1001 188.39 85.2701 187.12 85.7601 185.95C86.3201 184.61 87.0701 183.36 87.5801 182C88.1501 180.48 88.7501 179 89.4201 177.55C89.7301 180.72 90.1001 183.88 90.6101 187.04C91.4901 192.57 92.6201 197.97 93.9401 203.32C93.6801 202.69 93.3501 202.09 92.9201 201.55C92.1801 200.62 91.0201 199.69 89.8101 200.35C88.4401 201.1 88.2701 202.9 88.3201 204.29C88.3901 206.19 88.9001 208.04 89.2301 209.91C89.7501 212.84 90.5401 215.65 91.5801 218.44C92.7001 221.43 93.7501 224.35 94.5601 227.45C94.7601 228.23 95.0001 229 95.2001 229.78C95.2501 230.12 95.3301 230.47 95.3801 230.81C94.5901 228.95 93.6001 227.2 92.4201 225.56L92.4101 225.53ZM98.3601 236.32C97.9801 235.61 97.5801 234.9 97.1801 234.18C97.1101 233.77 97.0101 233.36 96.8701 232.94C96.7301 232.51 96.6201 232.07 96.4901 231.63C95.5701 225.99 95.1301 220.35 94.8101 214.61C94.6701 212.07 95.0301 208.98 94.6701 206.17C95.7401 210.28 96.9101 214.37 98.1801 218.49C98.5101 219.58 98.8201 220.67 99.1101 221.77C99.2001 224.89 99.7801 227.98 100.52 231C101.81 236.31 103.57 241.53 104.5 246.91C104.57 247.78 104.66 248.64 104.79 249.5C102.77 245.04 100.67 240.62 98.3701 236.3L98.3601 236.32ZM105.21 245.67C105.55 246.67 105.9 247.67 106.3 248.66C107.33 252.72 108.8 256.68 110.11 260.67C109.87 260.31 109.58 259.97 109.33 259.61C109.45 260.03 109.58 260.44 109.7 260.86C108.62 258.3 107.53 255.74 106.41 253.2C106.41 253.18 106.44 253.18 106.43 253.15C105.63 250.72 105.35 248.2 105.21 245.67Z" fill="white"/>
<path d="M194.11 195.56C195.62 195.56 196.85 194.34 196.86 192.82L196.97 172.04C196.97 171.87 197.11 171.73 197.28 171.73H200.88C211.78 171.73 218.97 167.42 218.9 157.69C218.84 148.88 211.13 145.68 202.9 145.68H191.72C191.55 145.68 191.41 145.82 191.41 145.99V192.88C191.41 194.36 192.61 195.56 194.09 195.56H194.11ZM197.16 146.46H203.18C209.38 146.46 213.76 149.92 213.82 157.69C213.89 166.31 208.79 170.94 201.02 170.94H197.28C197.11 170.94 196.97 170.8 196.97 170.63L196.84 146.77C196.84 146.6 196.98 146.45 197.15 146.45L197.16 146.46Z" fill="white" stroke="white" stroke-miterlimit="10"/>
<path d="M229.36 155.6C231.53 156 233.62 154.19 233.46 151.99C233.32 150.17 231.88 148.81 230.07 148.81C228.05 148.81 226.54 150.31 226.54 152.27C226.54 153.93 227.7 155.29 229.35 155.6H229.36Z" fill="white" stroke="white" stroke-miterlimit="10"/>
<path d="M227.33 161.68V193.35C227.33 194.57 228.32 195.56 229.54 195.56H230.45C231.69 195.56 232.69 194.56 232.69 193.32V160.36L227.34 161.66L227.33 161.68Z" fill="white" stroke="white" stroke-miterlimit="10"/>
<path d="M248.36 193.42V172.52C248.36 164.81 254.82 161.22 259.39 161.22C266.51 161.22 268.07 165.66 268.07 173.43V193.42C268.07 194.61 269.03 195.57 270.22 195.57H271.21C272.4 195.57 273.36 194.61 273.36 193.42V173.76C273.36 164.16 269.05 159.98 260.95 159.98C256.11 159.98 250.4 162.57 248.35 168.07V162.85C248.35 161.46 247.05 160.43 245.69 160.76L244.63 161.02C243.67 161.25 242.99 162.12 242.99 163.11V193.42C242.99 194.61 243.95 195.57 245.14 195.57H246.2C247.39 195.57 248.35 194.61 248.35 193.42H248.36Z" fill="white" stroke="white" stroke-miterlimit="10"/>
<path d="M298.96 194.78C290.28 194.78 285.31 187.99 285.31 177.22C285.31 175.33 285.48 173.59 285.79 172H308.42C309.61 172 310.64 171.1 310.74 169.91C311.17 164.59 306.43 159.99 298.1 159.99C288.05 159.99 279.69 167.43 279.69 178.53C279.69 189.63 287.53 196.16 296.53 196.16C304.56 196.16 310.18 191.92 311.68 184.67L310.96 184.54C309.52 191.46 304.36 194.79 298.95 194.79L298.96 194.78ZM298.04 160.76C303.2 160.76 306.01 163.57 306.01 167.29C306.01 170.49 303.46 171.21 300.39 171.21H285.97C287.55 164.54 291.92 160.76 298.04 160.76Z" fill="white" stroke="white" stroke-miterlimit="10"/>
<path d="M337.25 145.68H322.03V146.46H337.25V195.56H342.67V146.46H357.81V145.68H342.67H337.25Z" fill="white" stroke="white" stroke-miterlimit="10"/>
<path d="M365.52 173.48C366.11 165.9 370.94 160.76 376.69 160.76C378 160.76 379.63 161.02 380.67 161.35L380.93 160.57C379.82 160.24 378.12 159.98 376.82 159.98C371.75 159.98 367.4 163.29 365.52 169.27V160.11L360.17 161.42V195.57H365.52V173.49V173.48Z" fill="white" stroke="white" stroke-miterlimit="10"/>
<path d="M399.92 194.78C391.24 194.78 386.27 187.99 386.27 177.22C386.27 175.33 386.44 173.59 386.75 172H409.7C410.71 172 411.55 171.23 411.67 170.23C412.32 164.78 407.55 159.99 399.06 159.99C389 159.99 380.65 167.43 380.65 178.53C380.65 189.63 388.49 196.16 397.5 196.16C405.53 196.16 411.15 191.92 412.65 184.67L411.93 184.54C410.49 191.46 405.34 194.79 399.92 194.79V194.78ZM399.01 160.76C404.17 160.76 406.98 163.57 406.98 167.29C406.98 170.49 404.43 171.21 401.36 171.21H386.94C388.53 164.54 392.89 160.76 399.01 160.76Z" fill="white" stroke="white" stroke-miterlimit="10"/>
<path d="M446.93 184.53C445.49 191.45 440.33 194.78 434.92 194.78C426.24 194.78 421.27 187.99 421.27 177.22C421.27 175.33 421.44 173.59 421.75 172H444.55C445.65 172 446.58 171.17 446.69 170.08C447.23 164.69 442.48 159.99 434.07 159.99C424.02 159.99 415.66 167.43 415.66 178.53C415.66 189.63 423.5 196.16 432.5 196.16C440.53 196.16 446.15 191.92 447.65 184.67L446.93 184.54V184.53ZM434 160.76C439.16 160.76 441.97 163.57 441.97 167.29C441.97 170.49 439.42 171.21 436.35 171.21H421.93C423.51 164.54 427.88 160.76 434 160.76Z" fill="white" stroke="white" stroke-miterlimit="10"/>
<path d="M237.29 211.45H235.73C235.23 211.45 234.77 211.71 234.51 212.13L214.73 244.47L196.3 212.17C196.05 211.72 195.57 211.45 195.06 211.45H192.75C191.96 211.45 191.32 212.09 191.32 212.88V261.34H192.1V215.42L210.76 248.41C211.01 248.86 211.49 249.13 212 249.13C212.51 249.13 212.96 248.87 213.22 248.45L233.3 215.58V259.92C233.3 260.71 233.94 261.35 234.73 261.35H237.3C238.09 261.35 238.73 260.71 238.73 259.92V212.89C238.73 212.1 238.09 211.46 237.3 211.46L237.29 211.45Z" fill="white" stroke="white" stroke-miterlimit="10"/>
<path d="M274.04 250.3V238.94C274.04 229.8 268.03 225.82 260.46 225.82C252.49 225.88 247.92 230.59 247.92 236.33C247.92 239.46 249.16 241.95 250.6 243.25L251.12 242.73C249.88 241.42 248.7 239.14 248.7 236.33C248.7 231.04 252.81 226.93 258.95 226.99C266.13 227.12 268.68 231.89 268.68 237.89V242.66C251.05 243.31 245.96 249.06 245.96 254.48C245.96 259.18 249.75 261.79 254.64 261.79C262.59 261.79 267.02 257.17 268.68 251.8C268.73 258.3 272.83 261.21 278.6 261.79L278.66 261.2C275.26 260.48 274.03 257.35 274.03 250.3H274.04ZM257.85 260.03C253.8 260.03 251.39 257.22 251.39 253.44C251.39 248.87 254.85 243.45 268.69 243.45V246.65C268.69 254.68 263.34 260.03 257.85 260.03Z" fill="white" stroke="white" stroke-miterlimit="10"/>
<path d="M294.8 250.24C286.05 247.37 285.27 246.45 285.27 245.02C285.27 244.11 286.01 242.92 287.31 242.19C289.25 243.36 291.7 244.04 294.48 244.04C301.27 244.04 306.17 240.06 306.17 234.77C306.17 231.43 304.08 228.65 300.79 227.09C301.87 225.38 303.57 224.58 305.32 224.58C306.56 224.58 308.19 225.04 309.3 226.47L309.89 226.01C308.39 224.12 306.69 223.79 305.32 223.79C303.37 223.79 301.27 224.75 300.04 226.75C298.41 226.11 296.53 225.75 294.48 225.75C287.82 225.75 282.86 229.6 282.86 234.76C282.86 237.6 284.28 240.06 286.63 241.73C284.9 242.91 283.45 245 283.45 247.23C283.45 251.15 286.06 252.71 294.35 255.59C305.32 259.38 308.45 261.27 308.45 266.17C308.45 271.07 303.81 275.31 295 275.31C285.93 275.24 280.57 269.89 280.57 263.1C280.57 259.97 281.81 257.42 283.18 255.85L282.53 255.39C281.03 257.02 279.79 259.83 279.79 263.1C279.79 270.22 285.47 276.03 295 276.09C304.53 276.09 310.34 271.13 310.34 263.03C310.34 256.76 306.49 253.89 294.8 250.23V250.24ZM294.47 226.41C299.37 226.41 301.52 230.33 301.52 234.77C301.52 239.21 299.37 243.39 294.47 243.39C289.57 243.39 287.42 239.21 287.42 234.77C287.42 230.33 289.58 226.41 294.47 226.41Z" fill="white" stroke="white" stroke-miterlimit="10"/>
<path d="M320.56 218.93C318.54 218.93 317.03 220.43 317.03 222.39C317.03 224.05 318.19 225.41 319.84 225.72C322.01 226.12 324.1 224.31 323.94 222.11C323.8 220.29 322.36 218.93 320.55 218.93H320.56Z" fill="white" stroke="white" stroke-miterlimit="10"/>
<path d="M317.59 227.45V259.06C317.59 260.32 318.61 261.33 319.86 261.33H320.65C321.92 261.33 322.94 260.3 322.94 259.04V226.15L317.6 227.45H317.59Z" fill="white" stroke="white" stroke-miterlimit="10"/>
<path d="M349.84 260.75C341.16 260.75 336.32 253.76 336.32 243.77C336.32 233 341.54 226.79 349.38 226.79C355.39 226.79 359.76 230.38 359.76 236.78C359.76 238.74 359.24 240.63 358.39 241.94L358.91 242.4C359.89 240.96 360.54 238.94 360.54 236.78C360.54 229.92 355.84 225.75 347.94 225.75C338.34 225.75 330.77 233.13 330.77 243.77C330.77 254.41 338.8 261.79 348.27 261.79C356.5 261.79 361.52 257.35 363.55 250.43L362.83 250.3C360.87 256.83 355.97 260.75 349.84 260.75Z" fill="white" stroke="white" stroke-miterlimit="10"/>
<path d="M391.62 243.25C389.66 238.68 386.46 237.44 383.72 237.44C382.14 237.44 380.56 237.8 379.02 238.37L396.91 226.21H395.6L374.38 240.67V213.66C374.38 211.97 372.8 210.73 371.16 211.14L371.07 211.16C369.91 211.45 369.09 212.49 369.09 213.68V258.73C369.09 260.16 370.25 261.33 371.69 261.33H371.78C373.22 261.33 374.38 260.17 374.38 258.73V241.51L375.86 240.51C377.32 239.66 378.86 239 380.26 239C382.55 239 384.7 239.91 386.4 243.83L393.11 259.74C393.52 260.7 394.46 261.33 395.5 261.33C397.37 261.33 398.63 259.41 397.88 257.7L391.62 243.25Z" fill="white" stroke="white" stroke-miterlimit="10"/>
<path d="M147 112.89C143.02 112.36 142.35 117.61 145.85 118.5C147.94 119.03 150.31 116.95 149.17 114.45C148.85 113.75 147.76 113 147 112.89Z" fill="white"/>
<path d="M218.2 49.62C220.05 49.21 220.75 46.56 219.3 45.27C217.86 43.34 215.17 43.25 214.28 46.04C213.68 47.84 215.55 50.21 218.2 49.62Z" fill="white"/>
<path d="M192.56 94.48C192 94.16 191.27 94.19 190.63 94.31C189.12 94.61 187.53 97.37 189.36 98.96C190.33 99.87 191.87 100.26 193.26 99.49C193.73 99.23 194.27 98.62 194.43 97.97C194.47 97.83 194.45 97.86 194.52 97.55C194.82 96.38 193.56 94.9 192.56 94.48Z" fill="white"/>
<path d="M163.56 241.62C161.49 240.32 158.98 243.09 160.15 245.44C160.42 245.99 160.92 246.47 161.48 246.71C163.06 247.48 165.07 246.77 165.35 244.37C165.33 243.7 164.63 242.29 163.57 241.62H163.56Z" fill="white"/>
<path d="M150.09 270.12C149.7 270.08 149.39 270.18 149.06 270.33C147.37 270.61 146.28 272.82 147.51 274.62C147.96 275.28 148.68 275.78 149.49 275.9C153.95 276.58 154.37 270.54 150.09 270.12Z" fill="white"/>
<path d="M205.5 53.56C197.21 49.64 194.93 46.18 192.49 33.29C192.42 32.94 191.92 32.94 191.85 33.29C189.41 46.18 187.13 49.65 178.84 53.56C178.59 53.68 178.59 54.03 178.84 54.15C187.13 58.07 189.41 61.53 191.85 74.42C191.92 74.77 192.42 74.77 192.49 74.42C194.93 61.53 197.21 58.06 205.5 54.15C205.75 54.03 205.75 53.68 205.5 53.56Z" fill="white"/>
<path d="M182.47 317.88C182.42 317.64 182.08 317.64 182.03 317.88C180.35 326.76 178.78 329.14 173.07 331.84C172.9 331.92 172.9 332.16 173.07 332.24C178.78 334.94 180.34 337.32 182.03 346.2C182.08 346.44 182.42 346.44 182.47 346.2C184.15 337.32 185.72 334.94 191.43 332.24C191.6 332.16 191.6 331.92 191.43 331.84C185.72 329.14 184.16 326.76 182.47 317.88Z" fill="white"/>
<path d="M174.99 299.03C166.7 295.11 164.42 291.65 161.98 278.76C161.91 278.41 161.41 278.41 161.34 278.76C158.9 291.65 156.62 295.12 148.33 299.03C148.08 299.15 148.08 299.5 148.33 299.62C156.62 303.54 158.9 307 161.34 319.89C161.41 320.24 161.91 320.24 161.98 319.89C164.42 307 166.7 303.53 174.99 299.62C175.24 299.5 175.24 299.15 174.99 299.03Z" fill="white"/>
<path d="M78.3801 247.72C72.6701 245.02 71.1101 242.64 69.4201 233.76C69.3701 233.52 69.0301 233.52 68.9801 233.76C67.3001 242.64 65.7301 245.02 60.0201 247.72C59.8501 247.8 59.8501 248.04 60.0201 248.12C65.7301 250.82 67.2901 253.2 68.9801 262.08C69.0301 262.32 69.3701 262.32 69.4201 262.08C71.1001 253.2 72.6701 250.82 78.3801 248.12C78.5501 248.04 78.5501 247.8 78.3801 247.72Z" fill="white"/>
<path d="M65.08 130.04C72.53 133.56 74.57 136.67 76.77 148.26C76.83 148.58 77.28 148.58 77.34 148.26C79.54 136.68 81.58 133.56 89.03 130.04C89.25 129.93 89.25 129.62 89.03 129.51C81.58 125.99 79.54 122.88 77.34 111.29C77.28 110.97 76.83 110.97 76.77 111.29C74.57 122.87 72.53 125.99 65.08 129.51C64.86 129.61 64.86 129.93 65.08 130.04Z" fill="white"/>
</g>
<defs>
<clipPath id="clip0_179_2">
<rect width="448.24" height="382.57" fill="white"/>
</clipPath>
</defs>
</svg>
