<svg width="922" height="302" viewBox="0 0 922 302" fill="none" xmlns="http://www.w3.org/2000/svg">
<g clip-path="url(#clip0_309_21)">
<path d="M114.95 264.42C115 264.66 115.18 264.35 114.95 264.42V264.42Z" fill="#1A263A"/>
<path d="M148.24 202.33C148.23 202.38 148.21 202.43 148.2 202.49C148.26 202.51 148.4 202.43 148.24 202.33Z" fill="#1A263A"/>
<path d="M132.56 243.06C133.75 241.12 135.77 240.06 137.75 239.1C139.65 238.18 141.49 237.18 143.33 236.14C147.36 233.86 151.41 231.81 155.77 230.24C162.4 227.86 170.35 225.68 174.25 219.27C174.41 219.01 174.41 218.67 174.15 218.47C171.43 216.42 166.31 218.45 163.47 219.33C160.04 220.41 156.32 221.5 153.05 223.22C153.91 222.38 154.8 221.57 155.61 220.68C157.88 218.2 160.12 215.68 162.13 212.99C163.95 210.54 165.88 207.78 166.38 204.71C166.44 204.35 166.23 204.14 165.98 204.01C167.18 202.95 168.38 201.9 169.57 200.83C174.43 196.45 180.33 193.1 184.62 188.11C185.61 186.96 192.78 180.89 191.21 179.57C189.65 178.25 181.48 183.41 179.94 184.16C175.44 186.35 171.41 189.67 167.61 193.09C168.18 191.42 168.73 189.74 169.43 188.12C170.32 186.07 171.57 184.27 172.75 182.38C174.67 179.29 178.1 167.73 177.34 163.89C176.63 160.29 172.29 170.3 170.84 171.79C167.74 174.96 166.38 179.39 164.86 183.44C162.74 189.07 160.59 194.71 159.31 200.75C157.57 202.32 155.81 203.86 154.17 205.53C151.75 208.01 149.5 210.63 147.2 213.22C146.14 214.41 145.03 215.59 144.02 216.84C144.84 214.75 145.6 212.64 146.22 210.45C146.92 207.95 147.6 205.28 148.22 202.49C148.18 202.48 148.17 202.44 148.26 202.33C150.3 199.9 152.73 197 154.48 194.37C156.16 191.83 157.73 189.57 158.7 186.65C160.73 180.57 161.41 173.99 161.53 167.6C161.53 167.17 161.09 167.11 160.87 167.37C165.06 161.15 165.05 161.71 167.82 154.81C168.44 153.27 176.59 135.23 175.23 133.75C173.84 132.24 168.37 141.48 167.14 142.53C164.8 144.53 163.2 147.4 161.74 150.06C160.26 152.76 158.91 155.53 157.59 158.32C156.85 155.68 156.06 153.05 155.65 150.34C155.4 148.67 155.28 146.98 155.07 145.31C154.75 142.74 152.67 135.04 151.92 132.18C150.7 127.5 152.16 131.87 151.92 132.18C148.59 136.42 148.69 147.26 149.17 152.23C149.43 154.93 149.68 157.58 150.34 160.23C151 162.85 151.82 165.7 153.52 167.87C151.07 174.6 149.45 181.53 148.71 188.67C148.65 188.38 148.67 188.07 148.47 187.61C147.83 180.32 145.54 173.12 143.12 166.3C141.82 162.63 140.14 159.15 138.72 155.54C137.7 152.94 136.88 150.25 135.57 147.77C134.8 146.3 130.53 138.19 128.73 137.87C127.25 137.61 129.61 144.77 129.37 146.13C129.03 148.03 129.51 150.13 129.95 151.97C130.81 155.59 132.18 159.06 133.71 162.44C135.74 166.91 137.82 171.39 140.04 175.77C141.1 177.86 142.08 180 143.22 182.04C144.27 183.91 145.92 186 145.61 188.28C145.59 188.41 145.72 188.42 145.78 188.51C147.74 196.79 144.76 207.03 142.1 214.82C138.48 225.43 132.56 235.02 129.01 245.7C128.73 246.55 128.49 247.46 128.22 248.32C128.15 247.99 128.09 247.66 128.02 247.33C127.73 242.29 127.58 237.3 128.16 232.21C128.8 226.56 130.08 221.02 130.82 215.39C131.83 207.7 132.48 199.36 131.68 191.59C131.5 189.87 131.37 186.68 129.85 185.46C128.68 184.53 127.41 185.16 126.81 186.39C125.69 188.7 126.39 192.34 126.37 194.83C126.3 200.46 125.95 206.05 126.12 211.69C126.32 218.34 124.92 224.75 124.67 231.36C124.42 237.75 125.81 243.98 127.06 250.21C127.12 250.49 127.3 250.65 127.51 250.74C123.98 262.82 121.86 276.21 122.61 289.12C121.86 286.59 121.15 284.05 120.4 281.52C118.77 276.04 116.96 269.98 115.01 264.42C114.51 262.15 114.2 259.79 113.13 257.7C111.53 253.11 110.34 248.39 109.24 243.65C109.22 242.18 109.21 240.71 109.21 239.24C109.55 233.95 108.83 228.63 110.48 223.4C112.41 217.26 115.32 211.79 116.53 205.38C117.9 198.12 118.2 190.79 118.76 183.44C119.13 178.59 120.41 173.25 117.37 168.99C117.2 168.75 116.88 168.7 116.62 168.79C113.88 169.75 113.35 173.9 112.98 176.34C112.15 181.77 112.47 187.36 112.12 192.83C111.66 199.83 110.61 206.64 109.26 213.52C108.9 215.35 108.53 217.2 108.18 219.05C107.66 218.24 106.82 217.75 105.78 218.18C104.21 218.83 104.1 220.95 104.02 222.37C104.01 222.57 103.98 222.76 103.97 222.95C101.87 215.66 100.14 208.34 98.6901 200.94C98.7801 200.78 98.8101 200.58 98.7401 200.37C96.3701 193.24 101.7 187.23 105.01 181.41C107.65 176.77 110.64 171.9 112.25 166.78C112.84 164.91 113.33 162.82 112.84 160.87C112.55 159.71 111.15 149.22 109.66 149.55C107.94 149.92 107.84 161.45 107.44 162.8C106.5 165.95 105.91 169.19 104.98 172.34C103.03 178.96 100.16 185.56 96.9101 191.69C96.8901 191.57 96.8601 191.45 96.8401 191.33C96.2901 187.6 95.9401 183.89 95.7301 180.18C97.9501 176.4 100.28 172.7 102.34 168.81C103.02 167.53 104.08 165.75 103.84 164.23C103.62 162.79 102.16 162.68 101.05 163.23C98.6901 164.39 96.8701 166.51 95.3901 168.85C95.3901 168.78 95.3901 168.7 95.3901 168.63C95.4301 168.34 95.4701 168.06 95.5101 167.77C96.6501 161.76 99.3101 156.54 102.75 151.51C105.82 147.03 108.36 142.18 111.8 137.96C115.83 133.02 121.59 129.98 126 125.4C127.19 124.16 136.9 117.66 136.48 115.69C136.01 113.5 125.9 118.29 124.38 118.94C121.47 120.18 118.84 122.39 116.63 124.62C112.62 128.65 109.18 133.2 105.91 137.85C100.98 144.87 97.1801 153.08 95.3901 161.61C95.4001 160.31 95.4101 159 95.4301 157.7C98.7901 141.11 106.33 126.24 117.41 113C118.19 112.07 119.05 111.27 119.86 110.4C126.31 109.84 132.46 107.6 138.89 106.9C144.81 106.25 150.12 105.35 155.09 101.82C155.19 101.75 155.2 101.65 155.24 101.56C160 102.11 164.68 102.83 169.26 104.25C172.07 105.12 174.9 105.44 177.8 104.85C179.14 104.58 181.13 104.04 181.18 102.36C181.24 100.44 178.59 99.02 177.12 98.42C172.71 96.62 167.71 96.78 162.89 96.91C163.67 96.42 164.46 95.95 165.19 95.38C165.4 95.21 165.33 94.99 165.25 94.79C167.11 94.91 168.96 95.04 170.84 95.03C175.92 94.98 180.96 94.96 186.04 95.06C187.45 95.09 190.07 95.34 190.99 93.94C192.11 92.24 189.81 90.17 188.55 89.35C185.68 87.47 181.99 87.56 178.7 87.29C177.3 87.18 175.94 87.11 174.57 87.02C176.36 85.66 177.92 84.02 179.49 82.43C180.76 81.14 182.1 79.94 183.4 78.69C184.73 77.41 186.04 76.09 187.25 74.69C188.15 73.65 189.29 72.41 189.64 71.04C189.86 70.17 189.6 69.2 188.67 68.9C187.62 68.56 186.35 69.13 185.42 69.56C182.73 70.79 180.2 72.56 177.89 74.4C173.72 77.72 167.9 82.83 164.05 87.09C157.07 87.71 149.41 88.1 142.64 90.44C147.21 86.51 152.48 82.66 156.42 77.91C155.83 78.45 156.69 78.02 156.42 77.91C165.76 69.46 166.41 66.67 171.5 61.51C174.88 58.08 175.5 54.35 177.43 49.86C178.22 48.04 183.49 42.06 181.95 40.56C181.78 40.39 182.16 40.47 181.95 40.56C175.8 43.09 169.75 53.44 165.88 58.47C163.97 60.96 161.96 63.36 160.26 66C159.21 67.63 158.23 69.4 157.56 71.34C156.39 73.46 154.87 75.31 153.25 77.07C153.62 76.25 153.95 75.44 154.25 74.68C155.88 70.57 156.93 66.28 158.16 62.05C159.88 56.1 161.62 50.04 164.59 44.58C166.99 40.18 170.99 32.16 170.79 26.95C170.77 26.49 171.16 26.83 170.79 26.95C167.89 27.89 164.42 33.43 162.93 35.92C160.87 39.38 158.63 42.76 156.84 46.37C154.83 50.4 153.18 54.69 151.69 59.04C151.81 58.43 151.95 57.82 152.07 57.2C152.86 52.91 153.79 48.65 154.6 44.35C155.25 40.92 159.37 30.3 158.03 26.94C157.88 26.57 158.03 26.94 153.63 33.38C148.28 41.22 147.21 50.93 146.36 59.53C145.74 65.81 143.87 71.94 141.49 77.76C140.26 80.77 138.56 83.55 137.33 86.55C136.27 89.12 135.3 91.62 133.9 93.98C128.12 98.53 122.85 103.24 117.98 108.52C119.09 106.09 119.43 102.97 120.22 100.68C122.23 94.91 124.38 89.2 126.15 83.36C128.96 74.09 132.57 63.96 131.95 54.17C131.83 52.29 129.92 41.1 128.25 39.76C126.78 38.59 129.04 38.43 128.25 39.76C126.56 42.59 124.86 55.79 124.85 58.95C124.83 64.29 124.04 69.48 123.03 74.72C121.68 81.66 120.42 88.63 118.42 95.42C116.59 101.61 114.39 107.74 113.18 114.1C112.73 114.65 112.26 115.15 111.82 115.72C110.49 117.43 109.18 119.21 107.9 121.05C107.91 120.99 107.92 120.93 107.93 120.87C108.67 117.5 109.95 114.43 111.37 111.31C113.62 106.37 116.43 100.77 115.09 95.21C115.01 94.89 114.58 94.71 114.29 94.83C112.61 95.48 111.56 97.16 110.7 98.65C109.38 100.96 108.41 103.48 107.54 106C105.69 111.36 104.59 116.92 103.59 122.5C103.12 120.21 102.63 117.93 102.12 115.64C101.58 113.16 100.94 110.71 100.39 108.25C100.7 108.18 100.98 107.96 100.96 107.56C100.71 102.35 99.8401 97.03 100.32 91.81C100.82 86.28 103.28 80.98 105.71 76.05C107.95 71.51 110.58 67.24 113.19 62.91C115.52 59.05 120.6 50.21 121.32 45.7C121.39 45.24 121.75 45.72 121.32 45.7C118.35 45.57 112.26 53.25 110.69 55.32C107.52 59.51 105.57 64.35 103.47 69.13C101.25 74.2 98.3001 79.11 97.2601 84.61C96.7601 87.26 96.7201 89.96 96.7401 92.66C96.7101 92.53 96.6801 92.39 96.6501 92.26C95.2001 86.74 92.3301 78.37 94.6301 72.55C94.7801 72.55 94.9401 72.51 94.9801 72.31C95.5801 69.25 96.9001 66.46 97.8801 63.51C99.0701 59.93 100.12 56.28 101.13 52.65C102.22 48.75 102.9 44.79 103.65 40.82C104.95 33.94 106.4 26.82 106.22 19.79C106.18 18.08 105.79 7.51 104.3 6.27C102.9 5.11 102.09 13.71 101.44 15.12C100.07 18.08 100.19 21.98 100.02 25.17C99.7401 30.56 98.0801 35.39 96.4901 40.52C95.0401 45.18 93.6901 49.99 92.4801 54.82C92.3701 51.14 92.3601 47.49 91.8601 43.8C91.1701 38.68 90.3101 33.59 89.8501 28.44C89.4701 24.19 88.7201 19.41 89.4001 15.18C89.7601 12.98 90.3401 10.74 90.2001 8.5C89.1501 -8.88999 86.4901 5.16 85.5701 8.58C84.8801 11.15 85.0301 13.94 85.0901 16.58C85.2001 21.61 85.0501 26.63 85.4301 31.66C85.4501 31.95 85.5101 32.24 85.5401 32.53C84.4601 29.6 83.0401 26.81 81.7501 23.88C80.5601 21.17 79.2701 18.19 77.3801 15.84C64.1701 -0.639995 72.7901 15.41 73.3201 18.24C73.7301 20.42 75.0901 22.51 76.0301 24.5C77.4001 27.42 78.5701 30.42 79.9201 33.35C82.7901 39.58 86.2101 45.75 87.9801 52.42C88.0201 52.58 88.1201 52.66 88.2201 52.73C88.9501 56.81 90.4201 61.34 90.3201 65.55C89.9401 65.64 90.3101 66 90.3201 65.55C89.7201 70.81 90.5401 75.74 92.0601 80.73C92.2501 82.8 92.5601 84.85 92.8901 86.66C94.1401 93.42 95.9801 100.08 97.3601 106.81C98.6701 113.19 100.2 119.6 101.38 126.04L101.23 126.11C99.7701 122.73 98.1901 119.42 96.3501 116.23C96.6301 116.14 96.8801 115.95 96.9001 115.59C97.0501 112.32 96.7701 108.98 96.1401 105.78C95.5801 102.94 94.7401 99.31 92.2501 97.49C91.9201 97.25 91.5101 97.32 91.2901 97.68C89.0001 101.63 91.9301 105.56 92.0701 109.59C89.6501 106.19 87.3501 102.81 86.0001 98.7C84.3401 93.64 83.8001 88.3 83.3201 83.03C82.9601 79.08 83.2601 74.25 81.5001 70.6C80.8701 69.28 78.3801 56.24 76.6601 57.3C74.0401 58.92 76.1501 76.17 76.5201 78.5C77.3601 83.85 79.2101 88.98 80.2901 94.28C81.2301 98.88 82.3701 103.39 84.3001 107.69C85.8701 111.19 87.9901 114.32 90.3301 117.32C92.2501 124.14 94.8401 130.94 98.4601 137.08C98.5901 136.92 98.7101 136.76 98.8301 136.59C93.0701 148.71 89.7201 162 91.4101 174.58C91.4101 174.67 91.4101 174.75 91.4601 175.02C91.5101 175.38 91.5601 175.74 91.6101 176.1C90.8001 177.83 89.9901 179.57 89.1701 181.3C88.3501 183.04 87.7201 184.84 87.3101 186.7C87.2001 184.4 87.1601 182.09 87.0001 179.8C86.5701 173.54 86.3401 164.26 80.4801 160.37C80.2801 160.24 79.9201 160.23 79.8301 160.52C79.2901 162.13 79.4801 163.81 79.6901 165.47C79.9501 167.57 80.1101 169.68 80.3901 171.78C80.8701 175.26 80.9901 179 81.6101 182.54C80.0101 177.8 78.0201 173.17 75.6501 168.62C72.2801 162.14 68.7301 155.19 63.9001 149.62C63.1001 148.7 57.9001 141.43 56.4401 141.85C54.9401 142.28 58.8701 149.65 59.1601 150.79C59.8901 153.59 61.7601 156.14 63.3501 158.5C65.7701 162.11 68.0501 165.84 70.2901 169.57C73.2101 174.44 75.7701 179.57 78.0601 184.77C80.0101 189.19 82.6801 193.82 83.2801 198.66C83.2801 198.74 83.3701 198.73 83.4101 198.77C84.6401 206.07 85.7601 213.44 87.9301 220.53C88.7401 223.16 89.7801 225.68 90.9101 228.17C88.9901 225.83 87.1301 223.43 85.3201 220.98C85.3201 220.88 85.3401 220.78 85.2901 220.67C84.0301 218.29 82.3901 216.18 80.5101 214.26C77.3001 209.63 74.3401 204.96 70.4101 200.88C67.3901 197.75 64.7201 193.87 61.4301 190.9C60.9601 187.96 59.7801 185.19 59.0601 182.29C58.0801 178.32 57.2801 174.33 56.0501 170.42C55.0001 167.07 53.6801 163.85 52.2301 160.66C50.9901 157.94 49.7501 155.07 47.6501 152.89C46.8901 152.1 45.0501 150.31 43.7501 150.99C42.4601 151.66 43.4301 153.63 43.8401 154.52C45.4401 157.97 47.5801 161.13 49.2401 164.54C50.8401 167.84 51.8601 171.38 53.1101 174.81C54.3201 178.12 55.9101 181.27 57.2901 184.5C57.7101 185.49 58.0801 186.53 58.5001 187.53C56.3801 184.68 54.6601 181.55 52.8201 178.51C50.4201 174.53 47.6801 170.77 44.5401 167.34C44.4001 167.19 44.2501 167.05 44.1101 166.91C44.2601 166.77 44.3301 166.57 44.1801 166.36C40.2301 160.96 37.8201 154.43 34.5601 148.59C32.8201 145.48 30.8201 142.55 28.8301 139.61C27.6001 137.79 23.0601 129.65 21.1501 128.42C20.9601 128.3 20.6501 128.29 20.5601 128.55C19.7301 130.85 24.5101 139.02 25.4701 141.13C26.6701 143.74 28.2801 146.13 29.6001 148.68C31.0101 151.4 32.1901 155.14 34.1201 158.02C33.0201 157.18 31.9101 156.36 30.8001 155.58C29.6101 154.74 27.7601 153.3 26.1801 153.63C24.8401 153.9 24.6201 155.22 25.0101 156.36C25.7701 158.59 27.8701 160.47 29.4301 162.16C32.3101 165.28 35.5401 168.02 38.7801 170.75C40.8201 172.47 42.7301 174.31 44.7001 176.1C43.9401 175.48 43.2001 174.83 42.4101 174.25C39.5301 172.13 36.5001 170.13 33.4101 168.32C30.9501 166.88 28.3001 165.56 25.4001 165.5C25.2301 165.5 25.0801 165.66 25.0501 165.82C24.5001 168.31 27.1301 170.02 28.9401 171.16C32.1701 173.19 35.1501 175.35 38.1801 177.68C42.0301 180.63 46.3301 182.72 50.5601 185.07C52.5401 186.17 54.3001 187.39 56.0701 188.79C56.5701 189.18 57.0701 189.53 57.5701 189.85C57.6001 190.05 57.6701 190.24 57.8801 190.4C62.0701 193.66 65.1101 198.16 68.8301 201.92C71.2801 204.39 73.3301 207.11 75.3101 209.89C70.3301 206.3 64.6001 203.51 59.3701 201.01C57.8301 200.27 56.2601 199.72 54.7001 199.1C54.6401 199.03 54.5901 198.96 54.4801 198.93C54.3501 198.89 54.2101 198.89 54.0901 198.85C50.4701 197.45 46.8201 196.21 43.0201 195.13C41.8301 194.79 40.6001 194.51 39.3901 194.2C36.9101 192.68 34.6401 191.07 32.6401 188.9C31.7801 187.96 30.8801 187.05 29.9801 186.15C28.7801 184.95 19.0501 174.62 17.5101 177.63C16.4201 179.75 19.8501 182.57 21.1301 183.75C22.1601 184.7 23.2501 185.56 24.3501 186.41C23.3601 185.77 22.3701 185.13 21.3101 184.59C19.6701 183.76 17.9201 182.86 16.1001 182.5C15.5401 182.39 14.7701 182.3 14.3501 182.77C13.8301 183.34 14.2301 184.26 14.5801 184.79C15.2701 185.82 16.4501 186.48 17.5501 186.99C18.8401 187.6 20.2001 188.04 21.5401 188.5C24.5201 189.54 27.3601 190.96 30.3401 191.98C31.2401 192.61 32.1301 193.25 33.0801 193.82C34.0201 194.38 35.0201 194.75 36.0301 195.1C32.9801 195.17 29.9201 195.54 26.9601 195.91C23.4501 196.35 20.0201 197.17 16.5901 198.04C14.1701 198.65 11.3801 199.08 9.32011 200.59C8.51011 201.18 -0.729892 204.52 0.0501078 205.61C0.800108 206.66 10.7101 204.29 11.7101 204.12C18.9501 202.85 26.1801 201.59 33.4201 200.31C38.4101 199.43 43.9701 198.41 49.2101 198.87C51.8301 199.72 54.4201 200.67 56.9301 201.82C60.5601 203.49 64.4701 205.3 68.2601 207.39C61.9001 206.02 55.0501 207.09 48.6301 207.37C41.2701 207.69 34.1601 208.55 27.8301 212.62C26.7401 213.32 25.0301 214.48 25.4901 216.02C25.9501 217.57 27.6501 217.77 28.9801 217.49C31.3401 217.01 33.3801 215.64 35.5801 214.75C39.3201 213.24 43.3801 212.27 47.2901 211.35C51.1501 210.44 55.0601 209.63 58.9601 208.9C62.5401 208.23 66.1801 207.86 69.7401 208.84C70.0101 208.91 70.1701 208.75 70.2301 208.55C73.1601 210.28 75.9501 212.19 78.4301 214.39C78.7101 214.79 78.9801 215.19 79.2701 215.6C80.9201 217.94 82.6001 220.27 84.3201 222.57C84.2801 222.55 84.2401 222.51 84.2001 222.49C82.2601 221.27 80.4401 220 78.6201 218.61C75.6201 216.31 72.6001 214.58 69.1401 213.1C66.6401 212.03 64.1101 210.91 61.4401 210.33C59.5501 209.92 57.0101 209.64 55.8801 211.57C55.7801 211.74 55.8601 211.98 56.0001 212.1C58.5101 214.25 61.7401 215.27 64.8101 216.32C68.1901 217.47 71.4301 218.91 74.6101 220.53C77.9501 222.22 81.0601 224.33 84.4101 225.98C85.4701 226.5 86.5401 226.99 87.5801 227.55C87.9301 227.74 88.3501 227.97 88.7601 228.21C89.1201 228.66 89.4701 229.13 89.8301 229.57C91.2001 231.2 92.6101 232.83 93.9601 234.49C95.1901 236.81 96.4401 239.13 97.7001 241.45C97.7001 241.46 97.7101 241.47 97.7201 241.49C92.2001 234.89 82.6801 233.06 75.2301 229.24C71.4601 227.31 67.9701 224.94 64.3201 222.81C63.0801 222.09 59.4501 219.6 57.9501 220.96C55.5501 223.13 63.9401 227.05 65.0001 227.61C69.8901 230.17 74.9901 232.27 79.9901 234.59C83.8401 236.38 87.5701 238.56 91.1801 240.79C95.5701 243.49 100.84 246.72 102.53 251.9C102.63 252.21 102.9 252.23 103.12 252.12C108.61 263.43 113.41 275.01 118.25 286.65C115.21 283.36 112.22 280.13 109.84 276.27C107.09 271.81 104.63 267.19 101.8 262.77C99.9001 259.8 98.0801 256.77 96.0901 253.86C95.0101 252.28 93.5601 250.15 91.6301 249.52C90.5801 249.17 85.6401 244.9 85.5901 246.26C85.5601 247.07 90.0301 252.9 90.3401 253.49C91.2901 255.27 92.2601 257 93.4201 258.66C98.5401 265.96 102.68 273.69 108.67 280.36C110.82 282.76 112.97 285.07 115.43 287.17C117.18 288.67 119.32 290.38 120.64 292.46C120.79 292.83 120.94 293.2 121.09 293.56C121.73 295.78 122.36 298 122.98 300.22C125.88 310.58 126.08 260.7 132.52 243.09L132.56 243.06ZM172.9 86.93C172.9 86.93 172.8 86.93 172.75 86.93C172.84 86.93 172.9 86.93 172.9 86.93ZM96.2601 234.92C93.9801 230.7 91.8501 226.42 90.2801 221.92C88.9701 218.15 88.0001 214.29 87.1001 210.4C87.1601 210.34 87.2201 210.28 87.2301 210.17C87.4801 207.78 87.2101 205.4 87.3301 203.01C87.4201 201.21 87.5201 199.43 87.5801 197.64C87.8101 197.77 88.1301 197.77 88.2201 197.48C88.6301 196.23 88.8201 194.91 89.3201 193.69C89.9001 192.29 90.6801 191 91.2201 189.57C91.8201 187.99 92.4401 186.45 93.1301 184.94C93.4501 188.24 93.8401 191.54 94.3701 194.82C95.2901 200.58 96.4701 206.21 97.8401 211.78C97.5701 211.12 97.2301 210.5 96.7801 209.93C96.0101 208.96 94.8001 207.99 93.5401 208.68C92.1201 209.46 91.9401 211.34 91.9901 212.78C92.0601 214.76 92.5901 216.69 92.9301 218.63C93.4701 221.68 94.3001 224.61 95.3801 227.51C96.5401 230.62 97.6401 233.67 98.4801 236.89C98.6901 237.7 98.9301 238.5 99.1501 239.31C99.2001 239.67 99.2801 240.03 99.3401 240.38C98.5101 238.44 97.4801 236.62 96.2501 234.91L96.2601 234.92ZM102.45 246.16C102.05 245.42 101.63 244.68 101.23 243.94C101.15 243.51 101.05 243.09 100.91 242.65C100.76 242.2 100.65 241.74 100.51 241.29C99.5501 235.41 99.0901 229.54 98.7601 223.56C98.6101 220.92 98.9801 217.69 98.6101 214.77C99.7201 219.05 100.95 223.32 102.27 227.61C102.62 228.74 102.94 229.88 103.24 231.03C103.33 234.28 103.94 237.5 104.7 240.65C106.05 246.18 107.87 251.62 108.84 257.23C108.91 258.13 109 259.03 109.14 259.92C107.03 255.28 104.85 250.68 102.45 246.17V246.16ZM109.59 255.9C109.95 256.95 110.31 257.99 110.72 259.02C111.79 263.24 113.32 267.37 114.69 271.53C114.44 271.15 114.14 270.8 113.87 270.43C114 270.86 114.13 271.3 114.26 271.73C113.14 269.06 112 266.4 110.84 263.75C110.84 263.73 110.87 263.73 110.86 263.7C110.03 261.16 109.73 258.54 109.59 255.91V255.9Z" fill="#CBD3EB"/>
<path d="M153.12 117.59C148.98 117.03 148.27 122.51 151.93 123.43C154.11 123.98 156.58 121.82 155.39 119.21C155.06 118.49 153.93 117.7 153.13 117.58L153.12 117.59Z" fill="white"/>
<path d="M227.29 51.69C229.21 51.26 229.94 48.5 228.43 47.16C226.93 45.15 224.13 45.06 223.2 47.96C222.57 49.83 224.52 52.3 227.29 51.69Z" fill="white"/>
<path d="M200.58 98.41C200 98.07 199.23 98.1 198.57 98.23C196.99 98.54 195.34 101.42 197.24 103.07C198.25 104.01 199.85 104.42 201.3 103.62C201.79 103.35 202.35 102.71 202.52 102.04C202.56 101.89 202.54 101.93 202.62 101.61C202.93 100.39 201.63 98.84 200.58 98.41Z" fill="white"/>
<path d="M39.5698 120.89C37.4098 119.54 34.7998 122.42 36.0098 124.87C36.2898 125.44 36.8098 125.94 37.3898 126.19C39.0398 126.99 41.1298 126.25 41.4198 123.76C41.3998 123.07 40.6698 121.59 39.5598 120.89H39.5698Z" fill="white"/>
<path d="M152.68 240.27C152.27 240.23 151.95 240.34 151.61 240.49C149.85 240.79 148.71 243.08 149.99 244.96C150.46 245.65 151.21 246.17 152.05 246.29C156.69 247 157.14 240.7 152.68 240.27Z" fill="white"/>
<path d="M214.05 55.79C205.41 51.71 203.04 48.1 200.5 34.67C200.43 34.3 199.91 34.3 199.84 34.67C197.29 48.1 194.93 51.71 186.29 55.79C186.03 55.91 186.03 56.28 186.29 56.4C194.93 60.48 197.3 64.09 199.84 77.52C199.91 77.89 200.43 77.89 200.5 77.52C203.05 64.09 205.41 60.48 214.05 56.4C214.31 56.28 214.31 55.91 214.05 55.79Z" fill="#C08497"/>
<path d="M58.1599 83.4C58.1099 83.15 57.7499 83.15 57.6999 83.4C55.9499 92.65 54.3199 95.13 48.3699 97.94C48.1899 98.02 48.1899 98.28 48.3699 98.36C54.3199 101.17 55.9499 103.65 57.6999 112.9C57.7499 113.15 58.1099 113.15 58.1599 112.9C59.9099 103.65 61.5399 101.17 67.4899 98.36C67.6699 98.28 67.6699 98.02 67.4899 97.94C61.5399 95.13 59.9099 92.65 58.1599 83.4Z" fill="#649196"/>
<path d="M52.4501 240.09C43.8101 236.01 41.4401 232.4 38.9001 218.97C38.8301 218.6 38.3101 218.6 38.2401 218.97C35.6901 232.4 33.3301 236.01 24.6901 240.09C24.4301 240.21 24.4301 240.58 24.6901 240.7C33.3301 244.78 35.7001 248.39 38.2401 261.82C38.3101 262.19 38.8301 262.19 38.9001 261.82C41.4501 248.39 43.8101 244.78 52.4501 240.7C52.7101 240.58 52.7101 240.21 52.4501 240.09Z" fill="#F59BBB"/>
<path d="M81.6398 258.03C75.6898 255.22 74.0598 252.74 72.3098 243.49C72.2598 243.24 71.8998 243.24 71.8498 243.49C70.0998 252.73 68.4698 255.22 62.5198 258.03C62.3398 258.11 62.3398 258.37 62.5198 258.45C68.4698 261.26 70.0998 263.74 71.8498 272.99C71.8998 273.24 72.2598 273.24 72.3098 272.99C74.0598 263.74 75.6898 261.26 81.6398 258.45C81.8198 258.37 81.8198 258.11 81.6398 258.03Z" fill="#9ACAC6"/>
<path d="M67.7902 135.45C75.5502 139.12 77.6802 142.36 79.9702 154.42C80.0302 154.75 80.5002 154.75 80.5702 154.42C82.8602 142.35 84.9902 139.11 92.7502 135.45C92.9802 135.34 92.9802 135.01 92.7502 134.9C84.9902 131.23 82.8602 127.99 80.5702 115.93C80.5102 115.6 80.0402 115.6 79.9702 115.93C77.6802 128 75.5502 131.24 67.7902 134.9C67.5602 135.01 67.5602 135.34 67.7902 135.45Z" fill="#CBA3D8"/>
<path d="M232.86 179.89C235.04 179.89 236.81 178.13 236.83 175.95L236.99 146C236.99 145.75 237.19 145.55 237.44 145.55H242.64C258.35 145.55 268.7 139.34 268.61 125.32C268.52 112.62 257.41 108.01 245.56 108.01H229.45C229.2 108.01 229 108.21 229 108.46V176.03C229 178.16 230.73 179.9 232.87 179.9L232.86 179.89ZM237.26 109.13H245.93C254.87 109.13 261.17 114.12 261.27 125.31C261.37 137.73 254.03 144.41 242.83 144.41H237.45C237.2 144.41 237 144.21 237 143.96L236.82 109.58C236.82 109.33 237.02 109.12 237.27 109.12L237.26 109.13Z" fill="white"/>
<path d="M280.74 131.06V176.7C280.74 178.46 282.17 179.88 283.92 179.88H285.23C287.01 179.88 288.45 178.44 288.45 176.65V129.17C288.45 129.17 288.45 129.16 288.44 129.16L280.75 131.04C280.75 131.04 280.75 131.04 280.75 131.05L280.74 131.06Z" fill="white"/>
<path d="M311.04 176.8V146.68C311.04 135.58 320.36 130.4 326.94 130.4C337.2 130.4 339.46 136.8 339.46 147.99V176.79C339.46 178.5 340.85 179.88 342.55 179.88H343.98C345.69 179.88 347.07 178.49 347.07 176.79V148.46C347.07 134.63 340.86 128.61 329.19 128.61C322.22 128.61 313.98 132.34 311.03 140.27V132.74C311.03 130.73 309.15 129.26 307.2 129.73L305.68 130.1C304.29 130.44 303.32 131.68 303.32 133.11V176.8C303.32 178.51 304.71 179.89 306.41 179.89H307.93C309.64 179.89 311.02 178.5 311.02 176.8H311.04Z" fill="white"/>
<path d="M383.96 178.76C371.44 178.76 364.29 168.97 364.29 153.45C364.29 150.73 364.53 148.22 364.99 145.92H397.6C399.32 145.92 400.81 144.62 400.94 142.91C401.56 135.25 394.72 128.61 382.73 128.61C368.24 128.61 356.2 139.34 356.2 155.33C356.2 171.32 367.49 180.73 380.48 180.73C392.05 180.73 400.15 174.61 402.31 164.17L401.28 163.98C399.21 173.95 391.78 178.75 383.97 178.75L383.96 178.76ZM382.64 129.74C390.07 129.74 394.12 133.79 394.12 139.15C394.12 143.76 390.45 144.8 386.03 144.8H365.25C367.53 135.19 373.82 129.75 382.64 129.75V129.74Z" fill="white"/>
<path d="M439.14 108H417.22V109.13H439.14V179.89H446.95V109.13H468.78V108H446.95H439.14Z" fill="white"/>
<path d="M479.88 148.07C480.72 137.14 487.69 129.74 495.97 129.74C497.85 129.74 500.2 130.12 501.71 130.59L502.09 129.46C500.49 128.99 498.04 128.61 496.16 128.61C488.85 128.61 482.58 133.39 479.88 142V128.8L472.17 130.68V179.89H479.88V148.07Z" fill="white"/>
<path d="M529.46 178.76C516.95 178.76 509.79 168.97 509.79 153.45C509.79 150.73 510.03 148.22 510.49 145.92H543.56C545.02 145.92 546.23 144.81 546.4 143.36C547.33 135.51 540.47 128.6 528.23 128.6C513.74 128.6 501.69 139.33 501.69 155.32C501.69 171.31 512.98 180.72 525.97 180.72C537.54 180.72 545.64 174.6 547.8 164.16L546.76 163.97C544.69 173.94 537.26 178.74 529.45 178.74L529.46 178.76ZM528.15 129.74C535.58 129.74 539.63 133.79 539.63 139.15C539.63 143.76 535.96 144.8 531.54 144.8H510.76C513.04 135.19 519.34 129.75 528.15 129.75V129.74Z" fill="white"/>
<path d="M597.21 163.99C595.14 173.96 587.71 178.76 579.9 178.76C567.38 178.76 560.23 168.97 560.23 153.45C560.23 150.73 560.47 148.22 560.93 145.92H593.78C595.36 145.92 596.71 144.72 596.86 143.15C597.64 135.39 590.79 128.61 578.67 128.61C564.18 128.61 552.14 139.34 552.14 155.33C552.14 171.32 563.43 180.73 576.42 180.73C587.99 180.73 596.09 174.61 598.25 164.17L597.22 163.98L597.21 163.99ZM578.58 129.74C586.01 129.74 590.06 133.79 590.06 139.15C590.06 143.76 586.39 144.8 581.97 144.8H561.19C563.47 135.19 569.76 129.75 578.58 129.75V129.74Z" fill="white"/>
<path d="M690.66 109.49H688.41C687.69 109.49 687.03 109.86 686.66 110.47L658.15 157.07L631.59 110.52C631.22 109.88 630.54 109.48 629.8 109.48H626.46C625.32 109.48 624.4 110.4 624.4 111.54V181.37H625.53V115.19L652.41 162.73C652.78 163.37 653.46 163.77 654.2 163.77C654.94 163.77 655.58 163.4 655.96 162.79L684.9 115.41V179.31C684.9 180.45 685.82 181.37 686.96 181.37H690.66C691.8 181.37 692.72 180.45 692.72 179.31V111.54C692.72 110.4 691.8 109.48 690.66 109.48V109.49Z" fill="white"/>
<path d="M743.62 165.48V149.11C743.62 135.94 734.96 130.2 724.05 130.2C712.57 130.29 705.98 137.07 705.98 145.35C705.98 149.87 707.77 153.44 709.84 155.32L710.59 154.57C708.8 152.69 707.11 149.39 707.11 145.35C707.11 137.73 713.04 131.8 721.88 131.9C732.23 132.09 735.9 138.96 735.9 147.61V154.48C710.5 155.42 703.16 163.7 703.16 171.51C703.16 178.28 708.62 182.05 715.67 182.05C727.13 182.05 733.51 175.39 735.91 167.65C735.99 177.02 741.89 181.21 750.21 182.05L750.3 181.2C745.41 180.17 743.62 175.65 743.62 165.49V165.48ZM720.28 179.5C714.45 179.5 710.96 175.45 710.96 170C710.96 163.41 715.95 155.6 735.89 155.6V160.21C735.89 171.78 728.17 179.5 720.27 179.5H720.28Z" fill="white"/>
<path d="M773.53 165.38C760.92 161.24 759.79 159.92 759.79 157.85C759.79 156.54 760.85 154.82 762.73 153.77C765.52 155.45 769.06 156.44 773.06 156.44C782.85 156.44 789.9 150.7 789.9 143.08C789.9 138.27 786.89 134.25 782.15 132.02C783.71 129.55 786.16 128.41 788.68 128.41C790.47 128.41 792.82 129.07 794.42 131.14L795.27 130.48C793.11 127.75 790.66 127.28 788.68 127.28C785.87 127.28 782.84 128.66 781.07 131.55C778.72 130.63 776.01 130.11 773.06 130.11C763.46 130.11 756.31 135.66 756.31 143.09C756.31 147.18 758.36 150.72 761.75 153.13C759.26 154.83 757.16 157.84 757.16 161.06C757.16 166.71 760.92 168.96 772.87 173.1C788.68 178.56 793.19 181.29 793.19 188.34C793.19 195.39 786.51 201.51 773.81 201.51C760.73 201.42 753.02 193.7 753.02 183.92C753.02 179.4 754.81 175.73 756.78 173.48L755.84 172.82C753.68 175.17 751.89 179.22 751.89 183.92C751.89 194.18 760.08 202.55 773.81 202.64C787.55 202.64 795.92 195.49 795.92 183.82C795.92 174.79 790.37 170.65 773.53 165.38ZM773.06 131.04C780.12 131.04 783.22 136.69 783.22 143.08C783.22 149.47 780.12 155.5 773.06 155.5C766 155.5 762.9 149.48 762.9 143.08C762.9 136.68 766.01 131.04 773.06 131.04Z" fill="white"/>
<path d="M810.66 113.34C807.74 113.34 805.58 115.5 805.58 118.33C805.58 120.73 807.25 122.69 809.63 123.13C812.75 123.71 815.77 121.09 815.54 117.92C815.34 115.3 813.26 113.34 810.66 113.34Z" fill="white"/>
<path d="M806.38 132.54C806.38 132.54 806.38 132.54 806.38 132.55V178.1C806.38 179.91 807.85 181.38 809.66 181.38H810.8C812.62 181.38 814.1 179.9 814.1 178.08V130.68C814.1 130.68 814.1 130.67 814.09 130.67L806.4 132.55L806.38 132.54Z" fill="white"/>
<path d="M852.85 180.53C840.34 180.53 833.37 170.46 833.37 156.07C833.37 140.54 840.9 131.61 852.19 131.61C860.85 131.61 867.15 136.78 867.15 146.01C867.15 148.83 866.4 151.56 865.17 153.44L865.92 154.1C867.33 152.03 868.27 149.11 868.27 146.01C868.27 136.13 861.5 130.11 850.11 130.11C836.28 130.11 825.36 140.74 825.36 156.08C825.36 171.42 836.93 182.05 850.58 182.05C862.43 182.05 869.68 175.65 872.6 165.68L871.56 165.49C868.74 174.9 861.68 180.54 852.84 180.54L852.85 180.53Z" fill="white"/>
<path d="M913.07 155.32C910.25 148.73 905.64 146.95 901.68 146.95C899.4 146.95 897.12 147.47 894.9 148.29L920.69 130.77H918.81L888.23 151.61V112.69C888.23 110.26 885.95 108.47 883.59 109.06L883.45 109.09C881.78 109.5 880.6 111 880.6 112.72V177.65C880.6 179.72 882.28 181.39 884.34 181.39H884.48C886.55 181.39 888.22 179.71 888.22 177.65V152.83L890.35 151.39C892.46 150.17 894.68 149.22 896.69 149.22C899.98 149.22 903.09 150.54 905.54 156.18L915.21 179.11C915.79 180.5 917.15 181.4 918.66 181.4C921.35 181.4 923.17 178.64 922.1 176.17L913.08 155.34L913.07 155.32Z" fill="white"/>
<path d="M283.67 122.63C286.79 123.21 289.81 120.59 289.58 117.42C289.38 114.8 287.3 112.84 284.7 112.84C281.78 112.84 279.62 115 279.62 117.83C279.62 120.23 281.29 122.19 283.67 122.63Z" fill="white"/>
</g>
<defs>
<clipPath id="clip0_309_21">
<rect width="921.99" height="301.59" fill="white"/>
</clipPath>
</defs>
</svg>
