<svg width="131" height="169" viewBox="0 0 131 169" fill="none" xmlns="http://www.w3.org/2000/svg">
<path d="M65.7099 151.47C101.503 151.47 130.52 122.454 130.52 86.6601C130.52 50.8665 101.503 21.8501 65.7099 21.8501C29.9163 21.8501 0.899902 50.8665 0.899902 86.6601C0.899902 122.454 29.9163 151.47 65.7099 151.47Z" fill="#CBA3D8"/>
<path d="M58.07 118.25L60.54 128.71L70.9 125.61L63 132.96L70.9 140.31L60.54 137.2L58.07 147.66L55.59 137.2L45.22 140.31L53.12 132.96L45.22 125.61L55.59 128.71L58.07 118.25Z" fill="#1A263A"/>
<path d="M67.7498 54.74L68.6599 59.94L73.6698 58.12L69.5798 61.51L73.6698 64.89L68.6599 63.07L67.7498 68.28L66.8499 63.07L61.8398 64.89L65.9398 61.51L61.8398 58.12L66.8499 59.94L67.7498 54.74Z" fill="#1A263A"/>
<path d="M91.8099 131.81L92.7899 139.19L99.7199 136.34L93.7699 140.87L99.7199 145.39L92.7899 142.54L91.8099 149.91L90.8399 142.54L83.8999 145.39L89.8499 140.87L83.8999 136.34L90.8399 139.19L91.8099 131.81Z" fill="#1A263A"/>
<path d="M77.6098 91.5298C87.3998 95.6698 87.3998 91.8998 77.6098 96.0398C73.4198 105.75 77.2398 105.75 73.0498 96.0398C63.2698 91.8998 63.2698 95.6698 73.0498 91.5298C77.2398 81.8198 73.4198 81.8198 77.6098 91.5298Z" fill="#1A263A"/>
<path d="M44.6 91.88C43.23 88.31 42.45 85.74 42.13 83.8C40.18 83.5 37.58 82.72 33.98 81.37V81.24C37.58 79.89 40.18 79.11 42.13 78.81C42.45 76.87 43.22 74.3 44.6 70.73H44.72C46.09 74.3 46.88 76.87 47.19 78.81C49.15 79.11 51.74 79.89 55.34 81.24V81.37C51.74 82.72 49.15 83.5 47.19 83.8C46.88 85.74 46.1 88.31 44.72 91.88H44.6Z" fill="#1A263A"/>
<path d="M75.9198 162.12C71.1498 164.33 71.4698 164 69.2398 168.75C67.0298 164 67.3498 164.33 62.5698 162.12C67.3398 159.91 67.0198 160.23 69.2398 155.49C71.4698 160.22 71.1498 159.91 75.9198 162.12Z" fill="#1A263A"/>
<path d="M30.7299 109.1C26.4099 109.97 25.4499 110.92 24.5699 115.21C24.5299 115.41 24.2399 115.41 24.1999 115.21C23.3199 110.93 22.3599 109.97 18.0399 109.1C17.8399 109.06 17.8399 108.77 18.0399 108.73C22.3599 107.86 23.3199 106.91 24.1999 102.62C24.2399 102.41 24.5299 102.41 24.5699 102.62C25.4499 106.9 26.4099 107.86 30.7299 108.73C30.9399 108.77 30.9399 109.06 30.7299 109.1Z" fill="#1A263A"/>
<path d="M77.97 36.01C74.68 36.68 73.94 37.41 73.28 40.68C73.24 40.84 73.03 40.84 72.99 40.68C72.32 37.41 71.59 36.69 68.28 36.01C68.13 35.98 68.13 35.77 68.28 35.73C71.59 35.07 72.32 34.34 72.99 31.06C73.03 30.91 73.24 30.91 73.28 31.06C73.95 34.34 74.68 35.07 77.97 35.73C78.13 35.77 78.13 35.98 77.97 36.01Z" fill="#1A263A"/>
<path d="M52.9699 26.3099C50.1699 27.6099 50.3599 27.4099 49.0599 30.1799C47.7499 27.3999 47.9399 27.5999 45.1399 26.3099C47.9399 25.0099 47.7499 25.1999 49.0599 22.4199C50.3499 25.1999 50.1699 25.0099 52.9699 26.3099Z" fill="#1A263A"/>
<path d="M69.9398 4.17992C67.6098 4.65992 67.0898 5.16992 66.6198 7.48992C66.5898 7.59992 66.4298 7.59992 66.4198 7.48992C65.9398 5.17992 65.4198 4.65992 63.0898 4.17992C62.9798 4.16992 62.9798 4.00992 63.0898 3.97992C65.4198 3.51992 65.9398 2.99992 66.4198 0.689922C66.4298 0.579922 66.5898 0.579922 66.6198 0.689922C67.0898 2.99992 67.6098 3.51992 69.9398 3.97992C70.0498 4.00992 70.0498 4.16992 69.9398 4.17992Z" fill="#1A263A"/>
</svg>
