<svg width="130" height="130" viewBox="0 0 130 130" fill="none" xmlns="http://www.w3.org/2000/svg">
<path d="M65.03 129.73C100.824 129.73 129.84 100.714 129.84 64.9201C129.84 29.1265 100.824 0.110107 65.03 0.110107C29.2364 0.110107 0.219971 29.1265 0.219971 64.9201C0.219971 100.714 29.2364 129.73 65.03 129.73Z" fill="#CBD3EB"/>
<path d="M84.6302 59.4802C84.6302 59.4802 84.6302 59.3802 84.6102 59.3302C84.6102 59.2902 84.6102 59.2502 84.5902 59.2102C84.5902 59.2102 84.5902 59.2102 84.5902 59.1902C84.5902 59.1502 84.5602 59.1102 84.5502 59.0702C84.5402 59.0302 84.5302 58.9902 84.5102 58.9502C84.4902 58.9002 84.4602 58.8502 84.4202 58.8002C84.4002 58.7702 84.3902 58.7502 84.3802 58.7202C84.3402 58.6602 84.2902 58.6102 84.2402 58.5602C84.2302 58.5502 84.2202 58.5302 84.2102 58.5202L65.9302 41.3102C65.9302 41.3102 65.9102 41.2902 65.8902 41.2802C65.8502 41.2402 65.8002 41.2102 65.7502 41.1702C65.7302 41.1502 65.7002 41.1402 65.6802 41.1302C65.6402 41.1102 65.5902 41.0802 65.5502 41.0602C65.5202 41.0502 65.5002 41.0402 65.4702 41.0302C65.4202 41.0102 65.3702 41.0002 65.3202 40.9902C65.3002 40.9902 65.2702 40.9802 65.2502 40.9702C65.1802 40.9602 65.1002 40.9502 65.0202 40.9502C64.9402 40.9502 64.8702 40.9502 64.7902 40.9702C64.7702 40.9702 64.7402 40.9802 64.7202 40.9902C64.6702 41.0002 64.6202 41.0202 64.5702 41.0302C64.5402 41.0302 64.5202 41.0502 64.4902 41.0602C64.4402 41.0802 64.4002 41.1002 64.3602 41.1302C64.3302 41.1402 64.3102 41.1602 64.2902 41.1802C64.2402 41.2102 64.2002 41.2502 64.1602 41.2802C64.1502 41.2902 64.1302 41.3002 64.1202 41.3102L45.8502 58.5302C45.8502 58.5302 45.8102 58.5702 45.8002 58.5902C45.7602 58.6302 45.7202 58.6702 45.6802 58.7202C45.6602 58.7502 45.6402 58.7802 45.6202 58.8202C45.5902 58.8602 45.5702 58.9102 45.5502 58.9502C45.5302 58.9902 45.5202 59.0302 45.5102 59.0802C45.5002 59.1202 45.4802 59.1502 45.4702 59.1902C45.4702 59.1902 45.4702 59.1902 45.4702 59.2002C45.4702 59.2402 45.4602 59.2802 45.4502 59.3202C45.4502 59.3702 45.4402 59.4202 45.4402 59.4702C45.4402 59.4702 45.4402 59.4702 45.4402 59.4802V91.8602C45.4402 91.8602 45.4402 91.9102 45.4402 91.9302C45.4402 91.9702 45.4402 92.0102 45.4502 92.0502C45.4502 92.0902 45.4702 92.1402 45.4802 92.1802C45.4802 92.2202 45.5002 92.2602 45.5102 92.2902C45.5202 92.3302 45.5402 92.3702 45.5602 92.4102C45.5802 92.4402 45.5902 92.4802 45.6102 92.5102C45.6302 92.5502 45.6602 92.5802 45.6802 92.6202C45.7002 92.6502 45.7302 92.6802 45.7502 92.7102C45.7502 92.7202 45.7702 92.7302 45.7702 92.7402L64.0402 112.73C64.0402 112.73 64.0602 112.75 64.0702 112.76C64.1202 112.81 64.1702 112.85 64.2202 112.89C64.2302 112.9 64.2502 112.91 64.2602 112.92C64.3302 112.97 64.4002 113.01 64.4702 113.04C64.4902 113.04 64.5102 113.05 64.5302 113.06C64.5902 113.08 64.6502 113.1 64.7102 113.12C64.7302 113.12 64.7602 113.13 64.7802 113.14C64.8602 113.16 64.9402 113.17 65.0202 113.17C65.1002 113.17 65.1902 113.16 65.2702 113.14C65.2902 113.14 65.3102 113.14 65.3402 113.12C65.4002 113.1 65.4602 113.08 65.5202 113.06C65.5402 113.06 65.5602 113.05 65.5702 113.04C65.6402 113.01 65.7102 112.97 65.7802 112.92C65.7902 112.91 65.8102 112.9 65.8202 112.89C65.8702 112.85 65.9202 112.81 65.9702 112.76C65.9702 112.76 65.9902 112.74 66.0002 112.73L84.2902 92.7402C84.2902 92.7402 84.3102 92.7202 84.3202 92.7102C84.3502 92.6802 84.3702 92.6502 84.3902 92.6202C84.4202 92.5802 84.4402 92.5502 84.4602 92.5102C84.4802 92.4802 84.5002 92.4402 84.5102 92.4102C84.5302 92.3702 84.5502 92.3302 84.5602 92.2902C84.5702 92.2502 84.5802 92.2202 84.5902 92.1802C84.6002 92.1402 84.6102 92.0902 84.6202 92.0502C84.6202 92.0102 84.6202 91.9702 84.6302 91.9302C84.6302 91.9102 84.6302 91.8802 84.6302 91.8602V59.4802C84.6302 59.4802 84.6302 59.4802 84.6302 59.4702V59.4802ZM59.7702 94.1602V63.5302H70.2902V94.1602H59.7702ZM60.2802 60.8802L65.0302 46.4902L69.7902 60.8802H60.2802ZM69.6602 96.8002L65.0302 108.33L60.4102 96.8002H69.6602ZM72.9402 63.2602L81.9902 61.1602V90.9002L72.9402 93.6802V63.2502V63.2602ZM72.4902 60.6502L67.9202 46.8202L80.6102 58.7702L72.4902 60.6502ZM57.5702 60.6502L49.4502 58.7702L62.1302 46.8202L57.5702 60.6502ZM57.1302 63.2602V93.6902L48.0802 90.9102V61.1702L57.1302 63.2702V63.2602ZM57.4602 96.5602L61.0902 105.61L51.0102 94.5802L57.4602 96.5602ZM72.6102 96.5602L79.0602 94.5802L68.9702 105.61L72.6002 96.5702L72.6102 96.5602Z" fill="#1A263A"/>
<path d="M35.8601 53.54L14.8401 47.1C14.1401 46.89 13.4001 47.28 13.1901 47.98C12.9801 48.68 13.3701 49.42 14.0701 49.63L35.0901 56.07C35.2201 56.11 35.3501 56.13 35.4801 56.13C36.0501 56.13 36.5701 55.76 36.7401 55.19C36.9501 54.49 36.5601 53.75 35.8601 53.54Z" fill="#1A263A"/>
<path d="M36.4101 24.5701C35.9601 23.9901 35.1301 23.8801 34.5601 24.3301C33.9801 24.7801 33.8701 25.6101 34.3201 26.1801L45.2001 40.3001C45.4601 40.6401 45.8501 40.8201 46.2501 40.8201C46.5301 40.8201 46.8201 40.7301 47.0601 40.5401C47.6401 40.0901 47.7501 39.2601 47.3001 38.6901L36.4201 24.5701H36.4101Z" fill="#1A263A"/>
<path d="M35.0801 71.64L20.1001 76.23C19.4001 76.44 19.0101 77.18 19.2201 77.88C19.3901 78.45 19.9201 78.82 20.4801 78.82C20.6101 78.82 20.7401 78.8 20.8701 78.76L35.8501 74.17C36.5501 73.96 36.9401 73.22 36.7301 72.52C36.5201 71.82 35.7701 71.43 35.0801 71.64Z" fill="#1A263A"/>
<path d="M65.0202 10.3401C64.2902 10.3401 63.7002 10.9301 63.7002 11.6601V33.2001C63.7002 33.9301 64.2902 34.5201 65.0202 34.5201C65.7502 34.5201 66.3402 33.9301 66.3402 33.2001V11.6601C66.3402 10.9301 65.7502 10.3401 65.0202 10.3401Z" fill="#1A263A"/>
<path d="M116.88 47.98C116.67 47.28 115.93 46.89 115.23 47.1L94.21 53.54C93.51 53.75 93.12 54.49 93.33 55.19C93.5 55.76 94.03 56.13 94.59 56.13C94.72 56.13 94.85 56.11 94.98 56.07L116 49.63C116.7 49.42 117.09 48.68 116.88 47.98Z" fill="#1A263A"/>
<path d="M95.51 24.3301C94.93 23.8801 94.1 23.9901 93.66 24.5701L82.78 38.6901C82.33 39.2701 82.44 40.1001 83.02 40.5401C83.26 40.7301 83.54 40.8201 83.83 40.8201C84.23 40.8201 84.62 40.6401 84.88 40.3001L95.76 26.1801C96.21 25.6001 96.1 24.7701 95.52 24.3301H95.51Z" fill="#1A263A"/>
<path d="M109.96 76.2301L94.98 71.6401C94.28 71.4201 93.54 71.8201 93.33 72.5201C93.12 73.2201 93.51 73.9601 94.21 74.1701L109.19 78.7601C109.32 78.8001 109.45 78.8201 109.58 78.8201C110.15 78.8201 110.67 78.4501 110.84 77.8801C111.05 77.1801 110.66 76.4401 109.96 76.2301Z" fill="#1A263A"/>
</svg>
