<svg width="130" height="130" viewBox="0 0 130 130" fill="none" xmlns="http://www.w3.org/2000/svg">
<path d="M65.02 129.92C100.814 129.92 129.83 100.904 129.83 65.11C129.83 29.3165 100.814 0.300049 65.02 0.300049C29.2264 0.300049 0.209961 29.3165 0.209961 65.11C0.209961 100.904 29.2264 129.92 65.02 129.92Z" fill="#F59BBB"/>
<path d="M44.6001 81.5C41.3101 82.17 40.5701 82.9 39.9101 86.17C39.8701 86.33 39.6601 86.33 39.6201 86.17C38.9501 82.9 38.2201 82.18 34.9101 81.5C34.7601 81.47 34.7601 81.26 34.9101 81.22C38.2201 80.56 38.9501 79.83 39.6201 76.55C39.6601 76.4 39.8701 76.4 39.9101 76.55C40.5801 79.83 41.3101 80.56 44.6001 81.22C44.7601 81.26 44.7601 81.47 44.6001 81.5Z" fill="#1A263A"/>
<path d="M23.57 72.5699C20.77 73.8699 20.96 73.6699 19.66 76.4399C18.35 73.6599 18.54 73.8599 15.74 72.5699C18.54 71.2699 18.35 71.4599 19.66 68.6799C20.95 71.4599 20.77 71.2699 23.57 72.5699Z" fill="#1A263A"/>
<path d="M63.4601 93.72C61.1301 94.2 60.6101 94.71 60.1401 97.03C60.1101 97.14 59.9501 97.14 59.9401 97.03C59.4601 94.72 58.9401 94.2 56.6101 93.72C56.5001 93.71 56.5001 93.55 56.6101 93.52C58.9401 93.06 59.4601 92.54 59.9401 90.23C59.9501 90.12 60.1101 90.12 60.1401 90.23C60.6101 92.54 61.1301 93.06 63.4601 93.52C63.5701 93.55 63.5701 93.71 63.4601 93.72Z" fill="#1A263A"/>
<path d="M103.49 72.56C102.64 70.35 102.16 68.77 101.96 67.57C100.76 67.38 99.1499 66.9 96.9199 66.07V65.99C99.1499 65.16 100.75 64.67 101.96 64.49C102.16 63.29 102.64 61.7 103.49 59.5H103.56C104.41 61.71 104.9 63.29 105.09 64.49C106.3 64.68 107.9 65.16 110.13 65.99V66.07C107.9 66.9 106.3 67.39 105.09 67.57C104.9 68.77 104.41 70.36 103.56 72.56H103.49Z" fill="#1A263A"/>
<path d="M24.05 55.43C23.2 53.21 22.72 51.62 22.52 50.41C21.31 50.22 19.7 49.74 17.46 48.9V48.8201C19.7 47.9801 21.31 47.5 22.52 47.31C22.72 46.1 23.2 44.51 24.05 42.29H24.12C24.97 44.51 25.46 46.1 25.65 47.31C26.87 47.5 28.47 47.9801 30.71 48.8201V48.9C28.47 49.74 26.87 50.22 25.65 50.41C25.46 51.62 24.97 53.21 24.12 55.43H24.05Z" fill="#1A263A"/>
<path d="M90.98 79.7999C88.56 80.9199 88.72 80.7499 87.6 83.1599C86.48 80.7599 86.64 80.9199 84.22 79.7999C86.64 78.6799 86.48 78.8399 87.6 76.4399C88.73 78.8399 88.57 78.6799 90.98 79.7999Z" fill="#1A263A"/>
<path d="M95.1001 47.3501C91.8101 48.0201 91.0701 48.7501 90.4101 52.0201C90.3701 52.1801 90.1601 52.1801 90.1201 52.0201C89.4501 48.7501 88.7201 48.0301 85.4101 47.3501C85.2601 47.3201 85.2601 47.1101 85.4101 47.0701C88.7201 46.4101 89.4501 45.6801 90.1201 42.4001C90.1601 42.2501 90.3701 42.2501 90.4101 42.4001C91.0801 45.6801 91.8101 46.4101 95.1001 47.0701C95.2601 47.1101 95.2601 47.3201 95.1001 47.3501Z" fill="#1A263A"/>
<path d="M36.1 61.7301C33.65 62.8601 33.81 62.6901 32.68 65.1201C31.54 62.6901 31.7 62.8701 29.25 61.7301C31.7 60.6001 31.54 60.7601 32.68 58.3301C33.81 60.7601 33.65 60.6001 36.1 61.7301Z" fill="#1A263A"/>
<path d="M63.0801 87.53C62.7701 87.53 62.4601 87.42 62.2101 87.2C53.0401 79.12 43.5701 70.76 43.5701 62.14C43.5701 56.99 48.2401 52.79 53.9901 52.79C58.4701 52.79 61.0401 54.6601 63.0901 57.6301C65.1401 54.6701 67.7001 52.79 72.1901 52.79C77.9301 52.79 82.6101 56.98 82.6101 62.14C82.6101 70.76 73.1301 79.12 63.9701 87.2C63.7201 87.42 63.4101 87.53 63.1001 87.53H63.0801ZM53.9801 55.43C49.6901 55.43 46.2101 58.4401 46.2101 62.1301C46.2101 69.3101 54.6401 76.99 63.0801 84.44C71.5201 76.99 79.9501 69.3101 79.9501 62.1301C79.9501 58.4401 76.4601 55.43 72.1801 55.43C68.5001 55.43 66.5001 56.78 64.2301 60.78C63.9901 61.19 63.5601 61.45 63.0801 61.45C62.6001 61.45 62.1601 61.19 61.9301 60.78C59.6601 56.78 57.6601 55.43 53.9801 55.43Z" fill="#1A263A"/>
</svg>
