<svg width="467" height="399" viewBox="0 0 467 399" fill="none" xmlns="http://www.w3.org/2000/svg">
<path d="M271.437 396.942C263.747 396.942 256.017 396.472 248.247 395.512C204.337 390.092 162.957 368.172 131.727 333.792L133.667 332.032C164.477 365.952 205.277 387.572 248.577 392.922C321.967 401.992 393.807 366.742 431.557 303.132L433.807 304.462C399.517 362.242 337.487 396.942 271.437 396.942Z" fill="white"/>
<path d="M271.436 398.092C263.676 398.092 255.826 397.612 248.106 396.652C203.926 391.192 162.286 369.142 130.876 334.562L130.106 333.712L133.746 330.402L134.516 331.252C165.136 364.962 205.696 386.462 248.716 391.772C321.666 400.782 393.046 365.762 430.566 302.532L431.156 301.542L435.386 304.052L434.796 305.042C417.936 333.452 393.836 357.082 365.096 373.362C336.556 389.542 304.176 398.082 271.436 398.082V398.092ZM133.356 333.872C164.306 367.562 205.116 389.032 248.386 394.382C256.016 395.322 263.766 395.802 271.436 395.802C303.776 395.802 335.766 387.352 363.956 371.372C392.006 355.472 415.586 332.492 432.216 304.862L431.946 304.702C393.806 368.092 321.896 403.142 248.426 394.062C205.226 388.732 164.486 367.292 133.586 333.662L133.356 333.872Z" fill="white"/>
<path d="M434.887 133.752C412.277 87.7021 371.187 52.7021 322.147 37.7321C288.127 27.3421 252.117 26.8721 218.007 36.3621L217.307 33.8421C251.897 24.2121 288.417 24.6921 322.907 35.2221C372.637 50.4121 414.307 85.9021 437.227 132.592L434.877 133.742L434.887 133.752Z" fill="white"/>
<path d="M434.357 135.292L433.847 134.262C411.377 88.5022 370.537 53.7122 321.807 38.8322C287.997 28.5022 252.207 28.0322 218.317 37.4722L217.207 37.7822L215.887 33.0422L216.997 32.7322C251.797 23.0422 288.537 23.5222 323.247 34.1222C373.277 49.4022 415.207 85.1122 438.267 132.092L438.777 133.122L434.367 135.292H434.357ZM267.677 28.4222C286.117 28.4222 304.577 31.1622 322.477 36.6322C371.447 51.5922 412.547 86.3922 435.407 132.212L435.687 132.072C412.797 86.1721 371.627 51.3022 322.567 36.3222C288.647 25.9622 252.767 25.3922 218.717 34.6422L218.797 34.9422C234.817 30.5922 251.237 28.4122 267.667 28.4122L267.677 28.4222Z" fill="white"/>
<path d="M114.946 264.422C115.176 264.352 114.996 264.662 114.946 264.422Z" fill="white"/>
<path d="M148.236 202.332C148.226 202.382 148.206 202.432 148.196 202.492C148.256 202.512 148.396 202.432 148.236 202.332Z" fill="white"/>
<path d="M144.427 272.982C135.417 278.712 134.647 291.362 134.547 300.962C134.477 308.292 135.237 315.552 135.597 322.872C135.717 325.272 135.897 327.662 136.057 330.062C136.157 331.552 136.397 333.922 136.057 335.922C133.007 325.712 130.087 315.462 127.217 305.182C127.177 305.052 127.137 304.912 127.097 304.782C126.717 303.162 126.407 301.512 126.137 299.862C126.177 299.862 126.207 299.862 126.247 299.862C126.197 299.752 126.137 299.632 126.087 299.522C123.047 280.942 126.117 260.692 132.557 243.082C133.747 241.142 135.767 240.082 137.747 239.122C139.647 238.202 141.487 237.202 143.327 236.162C147.357 233.882 151.407 231.832 155.767 230.262C162.397 227.882 170.347 225.702 174.247 219.292C174.407 219.032 174.407 218.692 174.147 218.492C171.427 216.442 166.307 218.472 163.467 219.352C160.037 220.432 156.317 221.522 153.047 223.242C153.907 222.402 154.797 221.592 155.607 220.702C157.877 218.222 160.117 215.702 162.127 213.012C163.947 210.562 165.877 207.802 166.377 204.732C166.437 204.372 166.227 204.162 165.977 204.032C167.177 202.972 168.377 201.922 169.567 200.852C174.427 196.472 180.327 193.122 184.617 188.132C185.607 186.982 192.777 180.912 191.207 179.592C189.647 178.272 181.477 183.432 179.937 184.182C175.437 186.372 171.407 189.692 167.607 193.112C168.177 191.442 168.727 189.762 169.427 188.142C170.317 186.092 171.567 184.292 172.747 182.402C174.667 179.312 178.097 167.752 177.337 163.912C176.627 160.312 172.287 170.322 170.837 171.812C167.737 174.982 166.377 179.412 164.857 183.462C162.737 189.092 160.587 194.732 159.307 200.772C157.567 202.342 155.807 203.882 154.167 205.552C151.747 208.032 149.497 210.652 147.197 213.242C146.137 214.432 145.027 215.612 144.017 216.862C144.837 214.772 145.597 212.662 146.217 210.472C146.917 207.972 147.597 205.302 148.217 202.512C148.177 202.502 148.167 202.462 148.257 202.352C150.297 199.922 152.727 197.022 154.477 194.392C156.157 191.852 157.727 189.592 158.697 186.672C160.727 180.592 161.407 174.012 161.527 167.622C161.527 167.192 161.087 167.132 160.867 167.392C165.057 161.172 165.047 161.732 167.817 154.832C168.437 153.292 176.587 135.252 175.227 133.772C173.837 132.262 168.367 141.502 167.137 142.552C164.797 144.552 163.197 147.422 161.737 150.082C160.257 152.782 158.907 155.552 157.587 158.342C156.847 155.702 156.057 153.072 155.647 150.362C155.397 148.692 155.277 147.002 155.067 145.332C154.747 142.762 152.667 135.062 151.917 132.202C152.157 131.892 150.697 127.522 151.917 132.202C148.587 136.442 148.687 147.282 149.167 152.252C149.427 154.952 149.677 157.602 150.337 160.252C150.997 162.872 151.817 165.722 153.517 167.892C151.067 174.622 149.447 181.552 148.707 188.692C148.647 188.402 148.667 188.092 148.467 187.632C147.827 180.342 145.537 173.142 143.117 166.322C141.817 162.652 140.137 159.172 138.717 155.562C137.697 152.962 136.877 150.272 135.567 147.792C134.797 146.322 130.527 138.212 128.727 137.892C127.247 137.632 129.607 144.792 129.367 146.152C129.027 148.052 129.507 150.152 129.947 151.992C130.807 155.612 132.177 159.082 133.707 162.462C135.737 166.932 137.817 171.412 140.037 175.792C141.097 177.882 142.077 180.022 143.217 182.062C144.267 183.932 145.917 186.022 145.607 188.302C145.587 188.432 145.717 188.442 145.777 188.532C147.737 196.812 144.757 207.052 142.097 214.842C138.477 225.452 132.557 235.042 129.007 245.722C128.727 246.572 128.487 247.482 128.217 248.342C128.147 248.012 128.087 247.682 128.017 247.352C127.727 242.312 127.577 237.322 128.157 232.232C128.797 226.582 130.077 221.042 130.817 215.412C131.827 207.722 132.477 199.382 131.677 191.612C131.497 189.892 131.367 186.702 129.847 185.482C128.677 184.552 127.407 185.182 126.807 186.412C125.687 188.722 126.387 192.362 126.367 194.852C126.297 200.482 125.947 206.072 126.117 211.712C126.317 218.362 124.917 224.772 124.667 231.382C124.417 237.772 125.807 244.002 127.057 250.232C127.117 250.512 127.297 250.672 127.507 250.762C123.977 262.842 121.857 276.232 122.607 289.142C121.857 286.612 121.147 284.072 120.397 281.542C118.767 276.062 116.957 270.002 115.007 264.442C114.507 262.172 114.197 259.812 113.127 257.722C111.527 253.132 110.337 248.412 109.237 243.672C109.217 242.202 109.207 240.732 109.207 239.262C109.547 233.972 108.827 228.652 110.477 223.422C112.407 217.282 115.317 211.812 116.527 205.402C117.897 198.142 118.197 190.812 118.757 183.462C119.127 178.612 120.407 173.272 117.367 169.012C117.197 168.772 116.877 168.722 116.617 168.812C113.877 169.772 113.347 173.922 112.977 176.362C112.147 181.792 112.467 187.382 112.117 192.852C111.657 199.852 110.607 206.662 109.257 213.542C108.897 215.372 108.527 217.222 108.177 219.072C107.657 218.262 106.817 217.772 105.777 218.202C104.207 218.852 104.097 220.972 104.017 222.392C104.007 222.592 103.977 222.782 103.967 222.972C101.867 215.682 100.137 208.362 98.6867 200.962C98.7767 200.802 98.8067 200.602 98.7367 200.392C96.3667 193.262 101.697 187.252 105.007 181.432C107.647 176.792 110.637 171.922 112.247 166.802C112.837 164.932 113.327 162.842 112.837 160.892C112.547 159.732 111.147 149.242 109.657 149.572C107.937 149.942 107.837 161.472 107.437 162.822C106.497 165.972 105.907 169.212 104.977 172.362C103.027 178.982 100.157 185.582 96.9067 191.712C96.8867 191.592 96.8567 191.472 96.8367 191.352C96.2867 187.622 95.9367 183.912 95.7267 180.202C97.9467 176.422 100.277 172.722 102.337 168.832C103.017 167.552 104.077 165.772 103.837 164.252C103.617 162.812 102.157 162.702 101.047 163.252C98.6867 164.412 96.8667 166.532 95.3867 168.872C95.3867 168.802 95.3867 168.722 95.3867 168.652C95.4267 168.362 95.4667 168.082 95.5067 167.792C96.6467 161.782 99.3067 156.562 102.747 151.532C105.817 147.052 108.357 142.202 111.797 137.982C115.827 133.042 121.587 130.002 125.997 125.422C127.187 124.182 136.897 117.682 136.477 115.712C136.007 113.522 125.897 118.312 124.377 118.962C121.467 120.202 118.837 122.412 116.627 124.642C112.617 128.672 109.177 133.222 105.907 137.872C100.977 144.892 97.1767 153.102 95.3867 161.632C95.3967 160.332 95.4067 159.022 95.4267 157.722C98.7867 141.132 106.327 126.262 117.407 113.022C118.187 112.092 119.047 111.292 119.857 110.422C126.307 109.862 132.457 107.622 138.887 106.922C144.807 106.272 150.117 105.372 155.087 101.842C155.187 101.772 155.197 101.672 155.237 101.582C159.997 102.132 164.677 102.852 169.257 104.272C172.067 105.142 174.897 105.462 177.797 104.872C179.137 104.602 181.127 104.062 181.177 102.382C181.237 100.462 178.587 99.0421 177.117 98.4421C172.707 96.6421 167.707 96.8021 162.887 96.9321C163.667 96.4421 164.457 95.9721 165.187 95.4021C165.397 95.2321 165.327 95.0121 165.247 94.8121C167.107 94.9321 168.957 95.0621 170.837 95.0521C175.917 95.0021 180.957 94.9821 186.037 95.0821C187.447 95.1121 190.067 95.3621 190.987 93.9621C192.107 92.2621 189.807 90.1921 188.547 89.3721C185.677 87.4921 181.987 87.5821 178.697 87.3121C177.297 87.2021 175.937 87.1321 174.567 87.0421C176.357 85.6821 177.917 84.0421 179.487 82.4521C180.757 81.1621 182.097 79.9621 183.397 78.7121C184.727 77.4321 186.037 76.1121 187.247 74.7121C188.147 73.6721 189.287 72.4321 189.637 71.0621C189.857 70.1921 189.597 69.2221 188.667 68.9221C187.617 68.5821 186.347 69.1521 185.417 69.5821C182.727 70.8121 180.197 72.5821 177.887 74.4221C173.717 77.7421 167.897 82.8521 164.047 87.1121C157.067 87.7321 149.407 88.1221 142.637 90.4621C147.207 86.5321 152.477 82.6821 156.417 77.9321C156.687 78.0421 155.827 78.4721 156.417 77.9321C165.757 69.4821 166.407 66.6921 171.497 61.5321C174.877 58.1021 175.497 54.3721 177.427 49.8821C178.217 48.0621 183.487 42.0821 181.947 40.5821C182.157 40.4921 181.777 40.4121 181.947 40.5821C175.797 43.1121 169.747 53.4621 165.877 58.4921C163.967 60.9821 161.957 63.3821 160.257 66.0221C159.207 67.6521 158.227 69.4221 157.557 71.3621C156.387 73.4821 154.867 75.3321 153.247 77.0921C153.617 76.2721 153.947 75.4621 154.247 74.7021C155.877 70.5921 156.927 66.3021 158.157 62.0721C159.877 56.1221 161.617 50.0621 164.587 44.6021C166.987 40.2021 170.987 32.1821 170.787 26.9721C171.157 26.8521 170.767 26.5121 170.787 26.9721C167.887 27.9121 164.417 33.4521 162.927 35.9421C160.867 39.4021 158.627 42.7821 156.837 46.3921C154.827 50.4221 153.177 54.7121 151.687 59.0621C151.807 58.4521 151.947 57.8421 152.067 57.2221C152.857 52.9321 153.787 48.6721 154.597 44.3721C155.247 40.9421 159.367 30.3221 158.027 26.9621C157.877 26.5921 158.027 26.9621 153.627 33.4021C148.277 41.2421 147.207 50.9521 146.357 59.5521C145.737 65.8321 143.867 71.9621 141.487 77.7821C140.257 80.7921 138.557 83.5721 137.327 86.5721C136.267 89.1421 135.297 91.6421 133.897 94.0021C128.117 98.5521 122.847 103.262 117.977 108.542C119.087 106.112 119.427 102.992 120.217 100.702C122.227 94.9321 124.377 89.2221 126.147 83.3821C128.957 74.1121 132.567 63.9821 131.947 54.1921C131.827 52.3121 129.917 41.1221 128.247 39.7821C129.037 38.4521 126.777 38.6121 128.247 39.7821C126.557 42.6121 124.857 55.8121 124.847 58.9721C124.827 64.3121 124.037 69.5021 123.027 74.7421C121.677 81.6821 120.417 88.6521 118.417 95.4421C116.587 101.632 114.387 107.762 113.177 114.122C112.727 114.672 112.257 115.172 111.817 115.742C110.487 117.452 109.177 119.232 107.897 121.072C107.907 121.012 107.917 120.952 107.927 120.892C108.667 117.522 109.947 114.452 111.367 111.332C113.617 106.392 116.427 100.792 115.087 95.2321C115.007 94.9121 114.577 94.7321 114.287 94.8521C112.607 95.5021 111.557 97.1821 110.697 98.6721C109.377 100.982 108.407 103.502 107.537 106.022C105.687 111.382 104.587 116.942 103.587 122.522C103.117 120.232 102.627 117.952 102.117 115.662C101.577 113.182 100.937 110.732 100.387 108.272C100.697 108.202 100.977 107.982 100.957 107.582C100.707 102.372 99.8367 97.0521 100.317 91.8321C100.817 86.3021 103.277 81.0021 105.707 76.0721C107.947 71.5321 110.577 67.2621 113.187 62.9321C115.517 59.0721 120.597 50.2321 121.317 45.7221C121.747 45.7421 121.387 45.2621 121.317 45.7221C118.347 45.5921 112.257 53.2721 110.687 55.3421C107.517 59.5321 105.567 64.3721 103.467 69.1521C101.247 74.2221 98.2967 79.1321 97.2567 84.6321C96.7567 87.2821 96.7167 89.9821 96.7367 92.6821C96.7067 92.5521 96.6767 92.4121 96.6467 92.2821C95.1967 86.7621 92.3267 78.3921 94.6267 72.5721C94.7767 72.5721 94.9367 72.5321 94.9767 72.3321C95.5767 69.2721 96.8967 66.4821 97.8767 63.5321C99.0667 59.9521 100.117 56.3021 101.127 52.6721C102.217 48.7721 102.897 44.8121 103.647 40.8421C104.947 33.9621 106.397 26.8421 106.217 19.8121C106.177 18.1021 105.787 7.5321 104.297 6.2921C102.897 5.1321 102.087 13.7321 101.437 15.1421C100.067 18.1021 100.187 22.0021 100.017 25.1921C99.7367 30.5821 98.0767 35.4121 96.4867 40.5421C95.0367 45.2021 93.6867 50.0121 92.4767 54.8421C92.3667 51.1621 92.3567 47.5121 91.8567 43.8221C91.1667 38.7021 90.3067 33.6121 89.8467 28.4621C89.4667 24.2121 88.7167 19.4321 89.3967 15.2021C89.7567 13.0021 90.3367 10.7621 90.1967 8.5221C89.1467 -8.8679 86.4867 5.1821 85.5667 8.6021C84.8767 11.1721 85.0267 13.9621 85.0867 16.6021C85.1967 21.6321 85.0467 26.6521 85.4267 31.6821C85.4467 31.9721 85.5067 32.2621 85.5367 32.5521C84.4567 29.6221 83.0367 26.8321 81.7467 23.9021C80.5567 21.1921 79.2667 18.2121 77.3767 15.8621C64.1667 -0.6179 72.7867 15.4321 73.3167 18.2621C73.7267 20.4421 75.0867 22.5321 76.0267 24.5221C77.3967 27.4421 78.5667 30.4421 79.9167 33.3721C82.7867 39.6021 86.2067 45.7721 87.9767 52.4421C88.0167 52.6021 88.1167 52.6821 88.2167 52.7521C88.9467 56.8321 90.4167 61.3621 90.3167 65.5721C90.3067 66.0221 89.9367 65.6621 90.3167 65.5721C89.7167 70.8321 90.5367 75.7621 92.0567 80.7521C92.2467 82.8221 92.5567 84.8721 92.8867 86.6821C94.1367 93.4421 95.9767 100.102 97.3567 106.832C98.6667 113.212 100.197 119.622 101.377 126.062L101.227 126.132C99.7667 122.752 98.1867 119.442 96.3467 116.252C96.6267 116.162 96.8767 115.972 96.8967 115.612C97.0467 112.342 96.7667 109.002 96.1367 105.802C95.5767 102.962 94.7367 99.3321 92.2467 97.5121C91.9167 97.2721 91.5067 97.3421 91.2867 97.7021C88.9967 101.652 91.9267 105.582 92.0667 109.612C89.6467 106.212 87.3467 102.832 85.9967 98.7221C84.3367 93.6621 83.7967 88.3221 83.3167 83.0521C82.9567 79.1021 83.2567 74.2721 81.4967 70.6221C80.8667 69.3021 78.3767 56.2621 76.6567 57.3221C74.0367 58.9421 76.1467 76.1921 76.5167 78.5221C77.3567 83.8721 79.2067 89.0021 80.2867 94.3021C81.2267 98.9021 82.3667 103.412 84.2967 107.712C85.8667 111.212 87.9867 114.342 90.3267 117.342C92.2467 124.162 94.8367 130.962 98.4567 137.102C98.5867 136.942 98.7067 136.782 98.8267 136.612C93.0667 148.732 89.7167 162.022 91.4067 174.602C91.4067 174.692 91.4067 174.772 91.4567 175.042C91.5067 175.402 91.5567 175.762 91.6067 176.122C90.7967 177.852 89.9867 179.592 89.1667 181.322C88.3467 183.062 87.7167 184.862 87.3067 186.722C87.1967 184.422 87.1567 182.112 86.9967 179.822C86.5667 173.562 86.3367 164.282 80.4767 160.392C80.2767 160.262 79.9167 160.252 79.8267 160.542C79.2867 162.152 79.4767 163.832 79.6867 165.492C79.9467 167.592 80.1067 169.702 80.3867 171.802C80.8667 175.282 80.9867 179.022 81.6067 182.562C80.0067 177.822 78.0167 173.192 75.6467 168.642C72.2767 162.162 68.7267 155.212 63.8967 149.642C63.0967 148.722 57.8967 141.452 56.4367 141.872C54.9367 142.302 58.8667 149.672 59.1567 150.812C59.8867 153.612 61.7567 156.162 63.3467 158.522C65.7667 162.132 68.0467 165.862 70.2867 169.592C73.2067 174.462 75.7667 179.592 78.0567 184.792C80.0067 189.212 82.6767 193.842 83.2767 198.682C83.2767 198.762 83.3667 198.752 83.4067 198.792C84.6367 206.092 85.7567 213.462 87.9267 220.552C88.7367 223.182 89.7767 225.702 90.9067 228.192C88.9867 225.852 87.1267 223.452 85.3167 221.002C85.3167 220.902 85.3367 220.802 85.2867 220.692C84.0267 218.312 82.3867 216.202 80.5067 214.282C77.2967 209.652 74.3367 204.982 70.4067 200.902C67.3867 197.772 64.7167 193.892 61.4267 190.922C60.9567 187.982 59.7767 185.212 59.0567 182.312C58.0767 178.342 57.2767 174.352 56.0467 170.442C54.9967 167.092 53.6767 163.872 52.2267 160.682C50.9867 157.962 49.7467 155.092 47.6467 152.912C46.8867 152.122 45.0467 150.332 43.7467 151.012C42.4567 151.682 43.4267 153.652 43.8367 154.542C45.4367 157.992 47.5767 161.152 49.2367 164.562C50.8367 167.862 51.8567 171.402 53.1067 174.832C54.3167 178.142 55.9067 181.292 57.2867 184.522C57.7067 185.512 58.0767 186.552 58.4967 187.552C56.3767 184.702 54.6567 181.572 52.8167 178.532C50.4167 174.552 47.6767 170.792 44.5367 167.362C44.3967 167.212 44.2467 167.072 44.1067 166.932C44.2567 166.792 44.3267 166.592 44.1767 166.382C40.2267 160.982 37.8167 154.452 34.5567 148.612C32.8167 145.502 30.8167 142.572 28.8267 139.632C27.5967 137.812 23.0567 129.672 21.1467 128.442C20.9567 128.322 20.6467 128.312 20.5567 128.572C19.7267 130.872 24.5067 139.042 25.4667 141.152C26.6667 143.762 28.2767 146.152 29.5967 148.702C31.0067 151.422 32.1867 155.162 34.1167 158.042C33.0167 157.202 31.9067 156.382 30.7967 155.602C29.6067 154.762 27.7567 153.322 26.1767 153.652C24.8367 153.922 24.6167 155.242 25.0067 156.382C25.7667 158.612 27.8667 160.492 29.4267 162.182C32.3067 165.302 35.5367 168.042 38.7767 170.772C40.8167 172.492 42.7267 174.332 44.6967 176.122C43.9367 175.502 43.1967 174.852 42.4067 174.272C39.5267 172.152 36.4967 170.152 33.4067 168.342C30.9467 166.902 28.2967 165.582 25.3967 165.522C25.2267 165.522 25.0767 165.682 25.0467 165.842C24.4967 168.332 27.1267 170.042 28.9367 171.182C32.1667 173.212 35.1467 175.372 38.1767 177.702C42.0267 180.652 46.3267 182.742 50.5567 185.092C52.5367 186.192 54.2967 187.412 56.0667 188.812C56.5667 189.202 57.0667 189.552 57.5667 189.872C57.5967 190.072 57.6667 190.262 57.8767 190.422C62.0667 193.682 65.1067 198.182 68.8267 201.942C71.2767 204.412 73.3267 207.132 75.3067 209.912C70.3267 206.322 64.5967 203.532 59.3667 201.032C57.8267 200.292 56.2567 199.742 54.6967 199.122C54.6367 199.052 54.5867 198.982 54.4767 198.952C54.3467 198.912 54.2067 198.912 54.0867 198.872C50.4667 197.472 46.8167 196.232 43.0167 195.152C41.8267 194.812 40.5967 194.532 39.3867 194.222C36.9067 192.702 34.6367 191.092 32.6367 188.922C31.7767 187.982 30.8767 187.072 29.9767 186.172C28.7767 184.972 19.0467 174.642 17.5067 177.652C16.4167 179.772 19.8467 182.592 21.1267 183.772C22.1567 184.722 23.2467 185.582 24.3467 186.432C23.3567 185.792 22.3667 185.152 21.3067 184.612C19.6667 183.782 17.9167 182.882 16.0967 182.522C15.5367 182.412 14.7667 182.322 14.3467 182.792C13.8267 183.362 14.2267 184.282 14.5767 184.812C15.2667 185.842 16.4467 186.502 17.5467 187.012C18.8367 187.622 20.1967 188.062 21.5367 188.522C24.5167 189.562 27.3567 190.982 30.3367 192.002C31.2367 192.632 32.1267 193.272 33.0767 193.842C34.0167 194.402 35.0167 194.772 36.0267 195.122C32.9767 195.192 29.9167 195.562 26.9567 195.932C23.4467 196.372 20.0167 197.192 16.5867 198.062C14.1667 198.672 11.3767 199.102 9.31671 200.612C8.50671 201.202 -0.73331 204.542 0.0466898 205.632C0.79669 206.682 10.7067 204.312 11.7067 204.142C18.9467 202.872 26.1767 201.612 33.4167 200.332C38.4067 199.452 43.9667 198.432 49.2067 198.892C51.8267 199.742 54.4167 200.692 56.9267 201.842C60.5567 203.512 64.4667 205.322 68.2567 207.412C61.8967 206.042 55.0467 207.112 48.6267 207.392C41.2667 207.712 34.1567 208.572 27.8267 212.642C26.7367 213.342 25.0267 214.502 25.4867 216.042C25.9467 217.592 27.6467 217.792 28.9767 217.512C31.3367 217.032 33.3767 215.662 35.5767 214.772C39.3167 213.262 43.3767 212.292 47.2867 211.372C51.1467 210.462 55.0567 209.652 58.9567 208.922C62.5367 208.252 66.1767 207.882 69.7367 208.862C70.0067 208.932 70.1667 208.772 70.2267 208.572C73.1567 210.302 75.9467 212.212 78.4267 214.412C78.7067 214.812 78.9767 215.212 79.2667 215.622C80.9167 217.962 82.5967 220.292 84.3167 222.592C84.2767 222.572 84.2367 222.532 84.1967 222.512C82.2567 221.292 80.4367 220.022 78.6167 218.632C75.6167 216.332 72.5967 214.602 69.1367 213.122C66.6367 212.052 64.1067 210.932 61.4367 210.352C59.5467 209.942 57.0067 209.662 55.8767 211.592C55.7767 211.762 55.8567 212.002 55.9967 212.122C58.5067 214.272 61.7367 215.292 64.8067 216.342C68.1867 217.492 71.4267 218.932 74.6067 220.552C77.9467 222.242 81.0567 224.352 84.4067 226.002C85.4667 226.522 86.5367 227.012 87.5767 227.572C87.9267 227.762 88.3467 227.992 88.7567 228.232C89.1167 228.682 89.4667 229.152 89.8267 229.592C91.1967 231.222 92.6067 232.852 93.9567 234.512C95.1867 236.832 96.4367 239.152 97.6967 241.472C97.6967 241.482 97.7067 241.492 97.7167 241.512C92.1967 234.912 82.6767 233.082 75.2267 229.262C71.4567 227.332 67.9667 224.962 64.3167 222.832C63.0767 222.112 59.4467 219.622 57.9467 220.982C55.5467 223.152 63.9367 227.072 64.9967 227.632C69.8867 230.192 74.9867 232.292 79.9867 234.612C83.8367 236.402 87.5667 238.582 91.1767 240.812C95.5667 243.512 100.837 246.742 102.527 251.922C102.627 252.232 102.897 252.252 103.117 252.142C108.607 263.452 113.407 275.032 118.247 286.672C115.207 283.382 112.217 280.152 109.837 276.292C107.087 271.832 104.627 267.212 101.797 262.792C99.8967 259.822 98.0767 256.792 96.0867 253.882C95.0067 252.302 93.5567 250.172 91.6267 249.542C90.5767 249.192 85.6367 244.922 85.5867 246.282C85.5567 247.092 90.0267 252.922 90.3367 253.512C91.2867 255.292 92.2567 257.022 93.4167 258.682C98.5367 265.982 102.677 273.712 108.667 280.382C110.817 282.782 112.967 285.092 115.427 287.192C117.177 288.692 119.317 290.402 120.637 292.482C120.787 292.852 120.937 293.222 121.087 293.582C121.727 295.802 122.357 298.022 122.977 300.242C125.877 310.602 128.717 320.972 131.667 331.322C126.727 326.182 120.757 321.342 117.987 314.702C116.537 311.222 116.157 307.132 115.407 303.462C114.477 298.912 113.577 294.252 111.947 289.882C111.197 287.882 109.807 284.122 107.057 284.532C106.717 284.582 106.527 284.872 106.537 285.202C106.667 288.192 107.907 290.752 108.847 293.552C109.927 296.802 110.127 300.242 110.747 303.592C111.637 308.422 112.917 313.152 115.167 317.502C114.037 316.522 112.847 315.612 111.757 314.572C106.667 309.712 102.267 304.172 98.3867 298.312C95.3967 293.782 92.5767 289.152 90.7467 284.032C89.7767 281.312 88.6767 276.732 85.9767 275.112C84.3867 274.152 82.5867 274.742 81.9667 276.472C81.0267 279.102 82.3667 282.672 83.1967 285.172C86.1467 294.082 92.6267 301.972 99.2167 308.462C104.227 313.392 109.937 316.922 115.627 320.952C121.447 325.072 126.857 329.742 132.487 334.112C132.487 334.112 134.747 334.652 136.937 338.952L136.887 339.032C137.307 340.342 137.737 341.592 136.937 338.952C137.397 336.152 138.237 333.432 138.607 330.622C139.007 327.522 139.097 324.362 139.207 321.232C139.437 314.592 139.417 307.962 140.497 301.392C141.407 295.852 143.447 290.822 145.017 285.472C146.167 281.522 147.067 277.192 145.337 273.292C145.157 272.892 144.717 272.822 144.367 273.042L144.427 272.982ZM172.897 86.9421C172.897 86.9421 172.797 86.9421 172.747 86.9421C172.837 86.9421 172.897 86.9421 172.897 86.9421ZM96.2567 234.922C93.9767 230.702 91.8467 226.422 90.2767 221.922C88.9667 218.152 87.9967 214.292 87.0967 210.402C87.1567 210.342 87.2167 210.282 87.2267 210.172C87.4767 207.782 87.2067 205.402 87.3267 203.012C87.4167 201.212 87.5167 199.432 87.5767 197.642C87.8067 197.772 88.1267 197.772 88.2167 197.482C88.6267 196.232 88.8167 194.912 89.3167 193.692C89.8967 192.292 90.6767 191.002 91.2167 189.572C91.8167 187.992 92.4367 186.452 93.1267 184.942C93.4467 188.242 93.8367 191.542 94.3667 194.822C95.2867 200.582 96.4667 206.212 97.8367 211.782C97.5667 211.122 97.2267 210.502 96.7767 209.932C96.0067 208.962 94.7967 207.992 93.5367 208.682C92.1167 209.462 91.9367 211.342 91.9867 212.782C92.0567 214.762 92.5867 216.692 92.9267 218.632C93.4667 221.682 94.2967 224.612 95.3767 227.512C96.5367 230.622 97.6367 233.672 98.4767 236.892C98.6867 237.702 98.9267 238.502 99.1467 239.312C99.1967 239.672 99.2767 240.032 99.3367 240.382C98.5067 238.442 97.4767 236.622 96.2467 234.912L96.2567 234.922ZM102.447 246.162C102.047 245.422 101.627 244.682 101.227 243.942C101.147 243.512 101.047 243.092 100.907 242.652C100.757 242.202 100.647 241.742 100.507 241.292C99.5467 235.412 99.0867 229.542 98.7567 223.562C98.6067 220.922 98.9767 217.692 98.6067 214.772C99.7167 219.052 100.947 223.322 102.267 227.612C102.617 228.742 102.937 229.882 103.237 231.032C103.327 234.282 103.937 237.502 104.697 240.652C106.047 246.182 107.867 251.622 108.837 257.232C108.907 258.132 108.997 259.032 109.137 259.922C107.027 255.282 104.847 250.682 102.447 246.172V246.162ZM109.587 255.902C109.947 256.952 110.307 257.992 110.717 259.022C111.787 263.242 113.317 267.372 114.687 271.532C114.437 271.152 114.137 270.802 113.867 270.432C113.997 270.862 114.127 271.302 114.257 271.732C113.137 269.062 111.997 266.402 110.837 263.752C110.837 263.732 110.867 263.732 110.857 263.702C110.027 261.162 109.727 258.542 109.587 255.912V255.902Z" fill="white"/>
<path d="M202.186 203.712C203.766 203.712 205.046 202.442 205.056 200.862L205.176 179.212C205.176 179.032 205.326 178.882 205.506 178.882H209.256C220.616 178.882 228.096 174.392 228.026 164.262C227.956 155.082 219.936 151.752 211.366 151.752H199.727C199.547 151.752 199.396 151.902 199.396 152.082V200.922C199.396 202.462 200.646 203.712 202.186 203.712ZM205.366 152.562H211.636C218.096 152.562 222.656 156.162 222.716 164.262C222.786 173.242 217.476 178.072 209.386 178.072H205.496C205.316 178.072 205.166 177.922 205.166 177.742L205.036 152.892C205.036 152.712 205.186 152.562 205.366 152.562Z" fill="white"/>
<path d="M238.907 162.322C241.167 162.742 243.347 160.852 243.177 158.562C243.037 156.672 241.527 155.252 239.647 155.252C237.537 155.252 235.977 156.812 235.977 158.852C235.977 160.582 237.187 162.002 238.907 162.322Z" fill="white"/>
<path d="M236.797 168.422V201.412C236.797 202.682 237.827 203.712 239.097 203.712H240.037C241.327 203.712 242.367 202.672 242.367 201.382V167.062L236.807 168.422H236.797Z" fill="white"/>
<path d="M258.697 201.472V179.702C258.697 171.672 265.427 167.932 270.187 167.932C277.597 167.932 279.237 172.552 279.237 180.652V201.472C279.237 202.712 280.237 203.712 281.477 203.712H282.507C283.747 203.712 284.747 202.712 284.747 201.472V180.992C284.747 170.992 280.257 166.642 271.827 166.642C266.787 166.642 260.837 169.332 258.697 175.072V169.632C258.697 168.182 257.337 167.112 255.927 167.462L254.827 167.732C253.827 167.972 253.117 168.872 253.117 169.902V201.482C253.117 202.722 254.117 203.722 255.357 203.722H256.457C257.697 203.722 258.697 202.722 258.697 201.482V201.472Z" fill="white"/>
<path d="M311.397 202.892C302.347 202.892 297.187 195.822 297.187 184.602C297.187 182.632 297.367 180.822 297.687 179.162H321.257C322.497 179.162 323.577 178.222 323.677 176.982C324.127 171.442 319.187 166.642 310.507 166.642C300.037 166.642 291.327 174.392 291.327 185.952C291.327 197.512 299.487 204.312 308.877 204.312C317.247 204.312 323.097 199.892 324.657 192.342L323.907 192.202C322.407 199.412 317.037 202.882 311.397 202.882V202.892ZM310.447 167.462C315.817 167.462 318.747 170.382 318.747 174.262C318.747 177.592 316.097 178.342 312.897 178.342H297.877C299.527 171.392 304.077 167.462 310.447 167.462Z" fill="white"/>
<path d="M351.277 151.752H335.437V152.562H351.277V203.712H356.927V152.562H372.707V151.752H356.927H351.277Z" fill="white"/>
<path d="M380.727 180.712C381.337 172.812 386.376 167.462 392.356 167.462C393.716 167.462 395.416 167.732 396.506 168.072L396.776 167.252C395.616 166.912 393.856 166.642 392.496 166.642C387.216 166.642 382.677 170.092 380.727 176.322V166.782L375.146 168.142V203.712H380.727V180.712Z" fill="white"/>
<path d="M416.566 202.892C407.516 202.892 402.346 195.822 402.346 184.602C402.346 182.632 402.526 180.822 402.846 179.162H426.746C427.796 179.162 428.676 178.362 428.796 177.312C429.466 171.632 424.506 166.642 415.666 166.642C405.196 166.642 396.486 174.392 396.486 185.952C396.486 197.512 404.646 204.312 414.036 204.312C422.396 204.312 428.246 199.892 429.816 192.342L429.066 192.202C427.566 199.412 422.196 202.882 416.556 202.882L416.566 202.892ZM415.616 167.462C420.986 167.462 423.916 170.382 423.916 174.262C423.916 177.592 421.266 178.342 418.066 178.342H403.046C404.696 171.392 409.246 167.462 415.616 167.462Z" fill="white"/>
<path d="M465.537 192.212C464.037 199.422 458.667 202.892 453.027 202.892C443.977 202.892 438.817 195.822 438.817 184.602C438.817 182.632 438.997 180.822 439.317 179.162H463.067C464.207 179.162 465.177 178.292 465.297 177.162C465.857 171.552 460.907 166.652 452.147 166.652C441.677 166.652 432.967 174.402 432.967 185.962C432.967 197.522 441.127 204.322 450.517 204.322C458.887 204.322 464.737 199.902 466.297 192.352L465.547 192.212H465.537ZM452.067 167.462C457.437 167.462 460.367 170.382 460.367 174.262C460.367 177.592 457.717 178.342 454.517 178.342H439.497C441.147 171.392 445.697 167.462 452.067 167.462Z" fill="white"/>
<path d="M247.167 220.262H245.537C245.017 220.262 244.537 220.532 244.267 220.972L223.657 254.662L204.457 221.012C204.197 220.552 203.697 220.262 203.167 220.262H200.757C199.937 220.262 199.267 220.932 199.267 221.752V272.222H200.087V224.392L219.517 258.752C219.777 259.222 220.277 259.502 220.807 259.502C221.337 259.502 221.807 259.232 222.077 258.792L242.997 224.552V270.742C242.997 271.562 243.667 272.232 244.487 272.232H247.157C247.977 272.232 248.647 271.562 248.647 270.742V221.752C248.647 220.932 247.977 220.262 247.157 220.262H247.167Z" fill="white"/>
<path d="M285.447 260.732V248.902C285.447 239.382 279.187 235.232 271.297 235.232C262.997 235.302 258.237 240.192 258.237 246.182C258.237 249.442 259.527 252.032 261.027 253.392L261.567 252.852C260.277 251.492 259.047 249.112 259.047 246.182C259.047 240.672 263.327 236.392 269.727 236.452C277.207 236.592 279.857 241.552 279.857 247.812V252.782C261.497 253.462 256.187 259.442 256.187 265.092C256.187 269.992 260.127 272.712 265.237 272.712C273.527 272.712 278.137 267.902 279.867 262.302C279.927 269.072 284.187 272.102 290.197 272.712L290.267 272.102C286.727 271.352 285.437 268.092 285.437 260.742L285.447 260.732ZM268.577 270.862C264.357 270.862 261.847 267.942 261.847 263.992C261.847 259.232 265.447 253.582 279.867 253.582V256.912C279.867 265.272 274.287 270.852 268.577 270.852V270.862Z" fill="white"/>
<path d="M307.067 260.662C297.957 257.672 297.137 256.722 297.137 255.222C297.137 254.282 297.907 253.032 299.267 252.272C301.287 253.492 303.837 254.202 306.727 254.202C313.797 254.202 318.897 250.052 318.897 244.542C318.897 241.062 316.717 238.162 313.297 236.542C314.427 234.752 316.197 233.932 318.017 233.932C319.307 233.932 321.007 234.412 322.167 235.902L322.777 235.422C321.217 233.452 319.447 233.112 318.017 233.112C315.987 233.112 313.797 234.112 312.517 236.192C310.817 235.522 308.857 235.152 306.727 235.152C299.787 235.152 294.617 239.162 294.617 244.532C294.617 247.492 296.097 250.052 298.547 251.792C296.747 253.022 295.227 255.192 295.227 257.522C295.227 261.602 297.947 263.232 306.587 266.232C318.017 270.172 321.277 272.152 321.277 277.252C321.277 282.352 316.447 286.772 307.267 286.772C297.817 286.702 292.237 281.132 292.237 274.052C292.237 270.792 293.527 268.132 294.957 266.502L294.277 266.022C292.717 267.722 291.417 270.642 291.417 274.052C291.417 281.462 297.337 287.522 307.267 287.582C317.197 287.582 323.247 282.412 323.247 273.982C323.247 267.452 319.237 264.462 307.057 260.652L307.067 260.662ZM306.727 235.832C311.827 235.832 314.077 239.912 314.077 244.542C314.077 249.172 311.837 253.522 306.727 253.522C301.617 253.522 299.377 249.172 299.377 244.542C299.377 239.912 301.627 235.832 306.727 235.832Z" fill="white"/>
<path d="M333.906 223.042C331.796 223.042 330.236 224.602 330.236 226.642C330.236 228.372 331.446 229.792 333.166 230.112C335.426 230.532 337.606 228.642 337.436 226.352C337.296 224.462 335.786 223.042 333.906 223.042Z" fill="white"/>
<path d="M330.807 236.922V269.842C330.807 271.152 331.867 272.212 333.177 272.212H333.997C335.317 272.212 336.387 271.142 336.387 269.822V235.562L330.827 236.922H330.807Z" fill="white"/>
<path d="M364.397 271.612C355.347 271.612 350.317 264.332 350.317 253.932C350.317 242.712 355.757 236.252 363.917 236.252C370.177 236.252 374.727 239.992 374.727 246.662C374.727 248.702 374.187 250.672 373.297 252.032L373.837 252.512C374.857 251.012 375.537 248.912 375.537 246.662C375.537 239.522 370.637 235.172 362.407 235.172C352.407 235.172 344.517 242.852 344.517 253.942C344.517 265.032 352.887 272.712 362.747 272.712C371.317 272.712 376.557 268.092 378.657 260.882L377.907 260.742C375.867 267.542 370.767 271.622 364.377 271.622L364.397 271.612Z" fill="white"/>
<path d="M407.927 253.382C405.887 248.622 402.557 247.332 399.697 247.332C398.057 247.332 396.407 247.702 394.797 248.302L413.437 235.632H412.077L389.977 250.692V222.562C389.977 220.802 388.327 219.512 386.627 219.932L386.527 219.952C385.317 220.252 384.467 221.332 384.467 222.582V269.512C384.467 271.002 385.677 272.222 387.177 272.222H387.277C388.767 272.222 389.987 271.012 389.987 269.512V251.572L391.527 250.532C393.047 249.652 394.657 248.962 396.107 248.962C398.487 248.962 400.727 249.912 402.497 253.992L409.487 270.562C409.907 271.562 410.897 272.212 411.977 272.212C413.927 272.212 415.237 270.222 414.457 268.432L407.937 253.372L407.927 253.382Z" fill="white"/>
<path d="M153.117 117.592C148.977 117.032 148.267 122.512 151.927 123.432C154.107 123.982 156.577 121.822 155.387 119.212C155.057 118.492 153.927 117.702 153.127 117.582L153.117 117.592Z" fill="white"/>
<path d="M227.287 51.6921C229.207 51.2621 229.937 48.5021 228.427 47.1621C226.927 45.1521 224.127 45.0621 223.197 47.9621C222.567 49.8321 224.517 52.3021 227.287 51.6921Z" fill="white"/>
<path d="M200.577 98.4221C199.997 98.0821 199.227 98.1121 198.567 98.2421C196.987 98.5521 195.337 101.432 197.237 103.082C198.247 104.022 199.847 104.432 201.297 103.632C201.787 103.362 202.347 102.722 202.517 102.052C202.557 101.902 202.537 101.942 202.617 101.622C202.927 100.402 201.627 98.8521 200.577 98.4221Z" fill="white"/>
<path d="M170.356 251.692C168.196 250.342 165.586 253.222 166.796 255.672C167.076 256.242 167.596 256.742 168.176 256.992C169.826 257.792 171.916 257.052 172.206 254.562C172.186 253.872 171.456 252.392 170.346 251.692H170.356Z" fill="white"/>
<path d="M156.337 281.372C155.927 281.332 155.607 281.442 155.267 281.592C153.507 281.892 152.367 284.182 153.647 286.062C154.117 286.752 154.867 287.272 155.707 287.392C160.347 288.102 160.797 281.802 156.337 281.372Z" fill="white"/>
<path d="M214.047 55.802C205.407 51.722 203.037 48.112 200.497 34.682C200.427 34.312 199.907 34.312 199.837 34.682C197.287 48.112 194.927 51.722 186.287 55.802C186.027 55.922 186.027 56.292 186.287 56.412C194.927 60.492 197.297 64.102 199.837 77.532C199.907 77.902 200.427 77.902 200.497 77.532C203.047 64.102 205.407 60.492 214.047 56.412C214.307 56.292 214.307 55.922 214.047 55.802Z" fill="white"/>
<path d="M190.067 331.122C190.017 330.872 189.657 330.872 189.607 331.122C187.857 340.372 186.227 342.852 180.277 345.662C180.097 345.742 180.097 346.002 180.277 346.082C186.227 348.892 187.857 351.372 189.607 360.622C189.657 360.872 190.017 360.872 190.067 360.622C191.817 351.372 193.447 348.892 199.397 346.082C199.577 346.002 199.577 345.742 199.397 345.662C193.447 342.852 191.817 340.372 190.067 331.122Z" fill="white"/>
<path d="M182.276 311.482C173.636 307.402 171.266 303.792 168.726 290.362C168.656 289.992 168.136 289.992 168.066 290.362C165.516 303.792 163.156 307.402 154.516 311.482C154.256 311.602 154.256 311.972 154.516 312.092C163.156 316.172 165.526 319.782 168.066 333.212C168.136 333.582 168.656 333.582 168.726 333.212C171.276 319.782 173.636 316.172 182.276 312.092C182.536 311.972 182.536 311.602 182.276 311.482Z" fill="white"/>
<path d="M81.6368 258.032C75.6868 255.222 74.0568 252.742 72.3068 243.492C72.2568 243.242 71.8969 243.242 71.8469 243.492C70.0969 252.732 68.4668 255.222 62.5168 258.032C62.3368 258.112 62.3368 258.372 62.5168 258.452C68.4668 261.262 70.0969 263.742 71.8469 272.992C71.8969 273.242 72.2568 273.242 72.3068 272.992C74.0568 263.742 75.6868 261.262 81.6368 258.452C81.8168 258.372 81.8168 258.112 81.6368 258.032Z" fill="white"/>
<path d="M67.7868 135.452C75.5468 139.122 77.6768 142.362 79.9668 154.422C80.0268 154.752 80.4967 154.752 80.5667 154.422C82.8567 142.352 84.9867 139.112 92.7467 135.452C92.9767 135.342 92.9767 135.012 92.7467 134.902C84.9867 131.232 82.8567 127.992 80.5667 115.932C80.5067 115.602 80.0368 115.602 79.9668 115.932C77.6768 128.002 75.5468 131.242 67.7868 134.902C67.5568 135.012 67.5568 135.342 67.7868 135.452Z" fill="white"/>
</svg>
