<svg width="922" height="302" viewBox="0 0 922 302" fill="none" xmlns="http://www.w3.org/2000/svg">
<g clip-path="url(#clip0_292_172)">
<path d="M114.95 264.42C115 264.66 115.18 264.35 114.95 264.42V264.42Z" fill="#1A263A"/>
<path d="M148.24 202.33C148.23 202.38 148.21 202.43 148.2 202.49C148.26 202.51 148.4 202.43 148.24 202.33Z" fill="#1A263A"/>
<path d="M132.56 243.06C133.75 241.12 135.77 240.06 137.75 239.1C139.65 238.18 141.49 237.18 143.33 236.14C147.36 233.86 151.41 231.81 155.77 230.24C162.4 227.86 170.35 225.68 174.25 219.27C174.41 219.01 174.41 218.67 174.15 218.47C171.43 216.42 166.31 218.45 163.47 219.33C160.04 220.41 156.32 221.5 153.05 223.22C153.91 222.38 154.8 221.57 155.61 220.68C157.88 218.2 160.12 215.68 162.13 212.99C163.95 210.54 165.88 207.78 166.38 204.71C166.44 204.35 166.23 204.14 165.98 204.01C167.18 202.95 168.38 201.9 169.57 200.83C174.43 196.45 180.33 193.1 184.62 188.11C185.61 186.96 192.78 180.89 191.21 179.57C189.65 178.25 181.48 183.41 179.94 184.16C175.44 186.35 171.41 189.67 167.61 193.09C168.18 191.42 168.73 189.74 169.43 188.12C170.32 186.07 171.57 184.27 172.75 182.38C174.67 179.29 178.1 167.73 177.34 163.89C176.63 160.29 172.29 170.3 170.84 171.79C167.74 174.96 166.38 179.39 164.86 183.44C162.74 189.07 160.59 194.71 159.31 200.75C157.57 202.32 155.81 203.86 154.17 205.53C151.75 208.01 149.5 210.63 147.2 213.22C146.14 214.41 145.03 215.59 144.02 216.84C144.84 214.75 145.6 212.64 146.22 210.45C146.92 207.95 147.6 205.28 148.22 202.49C148.18 202.48 148.17 202.44 148.26 202.33C150.3 199.9 152.73 197 154.48 194.37C156.16 191.83 157.73 189.57 158.7 186.65C160.73 180.57 161.41 173.99 161.53 167.6C161.53 167.17 161.09 167.11 160.87 167.37C165.06 161.15 165.05 161.71 167.82 154.81C168.44 153.27 176.59 135.23 175.23 133.75C173.84 132.24 168.37 141.48 167.14 142.53C164.8 144.53 163.2 147.4 161.74 150.06C160.26 152.76 158.91 155.53 157.59 158.32C156.85 155.68 156.06 153.05 155.65 150.34C155.4 148.67 155.28 146.98 155.07 145.31C154.75 142.74 152.67 135.04 151.92 132.18C150.7 127.5 152.16 131.87 151.92 132.18C148.59 136.42 148.69 147.26 149.17 152.23C149.43 154.93 149.68 157.58 150.34 160.23C151 162.85 151.82 165.7 153.52 167.87C151.07 174.6 149.45 181.53 148.71 188.67C148.65 188.38 148.67 188.07 148.47 187.61C147.83 180.32 145.54 173.12 143.12 166.3C141.82 162.63 140.14 159.15 138.72 155.54C137.7 152.94 136.88 150.25 135.57 147.77C134.8 146.3 130.53 138.19 128.73 137.87C127.25 137.61 129.61 144.77 129.37 146.13C129.03 148.03 129.51 150.13 129.95 151.97C130.81 155.59 132.18 159.06 133.71 162.44C135.74 166.91 137.82 171.39 140.04 175.77C141.1 177.86 142.08 180 143.22 182.04C144.27 183.91 145.92 186 145.61 188.28C145.59 188.41 145.72 188.42 145.78 188.51C147.74 196.79 144.76 207.03 142.1 214.82C138.48 225.43 132.56 235.02 129.01 245.7C128.73 246.55 128.49 247.46 128.22 248.32C128.15 247.99 128.09 247.66 128.02 247.33C127.73 242.29 127.58 237.3 128.16 232.21C128.8 226.56 130.08 221.02 130.82 215.39C131.83 207.7 132.48 199.36 131.68 191.59C131.5 189.87 131.37 186.68 129.85 185.46C128.68 184.53 127.41 185.16 126.81 186.39C125.69 188.7 126.39 192.34 126.37 194.83C126.3 200.46 125.95 206.05 126.12 211.69C126.32 218.34 124.92 224.75 124.67 231.36C124.42 237.75 125.81 243.98 127.06 250.21C127.12 250.49 127.3 250.65 127.51 250.74C123.98 262.82 121.86 276.21 122.61 289.12C121.86 286.59 121.15 284.05 120.4 281.52C118.77 276.04 116.96 269.98 115.01 264.42C114.51 262.15 114.2 259.79 113.13 257.7C111.53 253.11 110.34 248.39 109.24 243.65C109.22 242.18 109.21 240.71 109.21 239.24C109.55 233.95 108.83 228.63 110.48 223.4C112.41 217.26 115.32 211.79 116.53 205.38C117.9 198.12 118.2 190.79 118.76 183.44C119.13 178.59 120.41 173.25 117.37 168.99C117.2 168.75 116.88 168.7 116.62 168.79C113.88 169.75 113.35 173.9 112.98 176.34C112.15 181.77 112.47 187.36 112.12 192.83C111.66 199.83 110.61 206.64 109.26 213.52C108.9 215.35 108.53 217.2 108.18 219.05C107.66 218.24 106.82 217.75 105.78 218.18C104.21 218.83 104.1 220.95 104.02 222.37C104.01 222.57 103.98 222.76 103.97 222.95C101.87 215.66 100.14 208.34 98.6896 200.94C98.7796 200.78 98.8096 200.58 98.7396 200.37C96.3696 193.24 101.7 187.23 105.01 181.41C107.65 176.77 110.64 171.9 112.25 166.78C112.84 164.91 113.33 162.82 112.84 160.87C112.55 159.71 111.15 149.22 109.66 149.55C107.94 149.92 107.84 161.45 107.44 162.8C106.5 165.95 105.91 169.19 104.98 172.34C103.03 178.96 100.16 185.56 96.9096 191.69C96.8896 191.57 96.8596 191.45 96.8396 191.33C96.2896 187.6 95.9396 183.89 95.7296 180.18C97.9496 176.4 100.28 172.7 102.34 168.81C103.02 167.53 104.08 165.75 103.84 164.23C103.62 162.79 102.16 162.68 101.05 163.23C98.6896 164.39 96.8696 166.51 95.3896 168.85C95.3896 168.78 95.3896 168.7 95.3896 168.63C95.4296 168.34 95.4696 168.06 95.5096 167.77C96.6496 161.76 99.3096 156.54 102.75 151.51C105.82 147.03 108.36 142.18 111.8 137.96C115.83 133.02 121.59 129.98 126 125.4C127.19 124.16 136.9 117.66 136.48 115.69C136.01 113.5 125.9 118.29 124.38 118.94C121.47 120.18 118.84 122.39 116.63 124.62C112.62 128.65 109.18 133.2 105.91 137.85C100.98 144.87 97.1796 153.08 95.3896 161.61C95.3996 160.31 95.4096 159 95.4296 157.7C98.7896 141.11 106.33 126.24 117.41 113C118.19 112.07 119.05 111.27 119.86 110.4C126.31 109.84 132.46 107.6 138.89 106.9C144.81 106.25 150.12 105.35 155.09 101.82C155.19 101.75 155.2 101.65 155.24 101.56C160 102.11 164.68 102.83 169.26 104.25C172.07 105.12 174.9 105.44 177.8 104.85C179.14 104.58 181.13 104.04 181.18 102.36C181.24 100.44 178.59 99.02 177.12 98.42C172.71 96.62 167.71 96.78 162.89 96.91C163.67 96.42 164.46 95.95 165.19 95.38C165.4 95.21 165.33 94.99 165.25 94.79C167.11 94.91 168.96 95.04 170.84 95.03C175.92 94.98 180.96 94.96 186.04 95.06C187.45 95.09 190.07 95.34 190.99 93.94C192.11 92.24 189.81 90.17 188.55 89.35C185.68 87.47 181.99 87.56 178.7 87.29C177.3 87.18 175.94 87.11 174.57 87.02C176.36 85.66 177.92 84.02 179.49 82.43C180.76 81.14 182.1 79.94 183.4 78.69C184.73 77.41 186.04 76.09 187.25 74.69C188.15 73.65 189.29 72.41 189.64 71.04C189.86 70.17 189.6 69.2 188.67 68.9C187.62 68.56 186.35 69.13 185.42 69.56C182.73 70.79 180.2 72.56 177.89 74.4C173.72 77.72 167.9 82.83 164.05 87.09C157.07 87.71 149.41 88.1 142.64 90.44C147.21 86.51 152.48 82.66 156.42 77.91C155.83 78.45 156.69 78.02 156.42 77.91C165.76 69.46 166.41 66.67 171.5 61.51C174.88 58.08 175.5 54.35 177.43 49.86C178.22 48.04 183.49 42.06 181.95 40.56C181.78 40.39 182.16 40.47 181.95 40.56C175.8 43.09 169.75 53.44 165.88 58.47C163.97 60.96 161.96 63.36 160.26 66C159.21 67.63 158.23 69.4 157.56 71.34C156.39 73.46 154.87 75.31 153.25 77.07C153.62 76.25 153.95 75.44 154.25 74.68C155.88 70.57 156.93 66.28 158.16 62.05C159.88 56.1 161.62 50.04 164.59 44.58C166.99 40.18 170.99 32.16 170.79 26.95C170.77 26.49 171.16 26.83 170.79 26.95C167.89 27.89 164.42 33.43 162.93 35.92C160.87 39.38 158.63 42.76 156.84 46.37C154.83 50.4 153.18 54.69 151.69 59.04C151.81 58.43 151.95 57.82 152.07 57.2C152.86 52.91 153.79 48.65 154.6 44.35C155.25 40.92 159.37 30.3 158.03 26.94C157.88 26.57 158.03 26.94 153.63 33.38C148.28 41.22 147.21 50.93 146.36 59.53C145.74 65.81 143.87 71.94 141.49 77.76C140.26 80.77 138.56 83.55 137.33 86.55C136.27 89.12 135.3 91.62 133.9 93.98C128.12 98.53 122.85 103.24 117.98 108.52C119.09 106.09 119.43 102.97 120.22 100.68C122.23 94.91 124.38 89.2 126.15 83.36C128.96 74.09 132.57 63.96 131.95 54.17C131.83 52.29 129.92 41.1 128.25 39.76C126.78 38.59 129.04 38.43 128.25 39.76C126.56 42.59 124.86 55.79 124.85 58.95C124.83 64.29 124.04 69.48 123.03 74.72C121.68 81.66 120.42 88.63 118.42 95.42C116.59 101.61 114.39 107.74 113.18 114.1C112.73 114.65 112.26 115.15 111.82 115.72C110.49 117.43 109.18 119.21 107.9 121.05C107.91 120.99 107.92 120.93 107.93 120.87C108.67 117.5 109.95 114.43 111.37 111.31C113.62 106.37 116.43 100.77 115.09 95.21C115.01 94.89 114.58 94.71 114.29 94.83C112.61 95.48 111.56 97.16 110.7 98.65C109.38 100.96 108.41 103.48 107.54 106C105.69 111.36 104.59 116.92 103.59 122.5C103.12 120.21 102.63 117.93 102.12 115.64C101.58 113.16 100.94 110.71 100.39 108.25C100.7 108.18 100.98 107.96 100.96 107.56C100.71 102.35 99.8396 97.03 100.32 91.81C100.82 86.28 103.28 80.98 105.71 76.05C107.95 71.51 110.58 67.24 113.19 62.91C115.52 59.05 120.6 50.21 121.32 45.7C121.39 45.24 121.75 45.72 121.32 45.7C118.35 45.57 112.26 53.25 110.69 55.32C107.52 59.51 105.57 64.35 103.47 69.13C101.25 74.2 98.2996 79.11 97.2596 84.61C96.7596 87.26 96.7196 89.96 96.7396 92.66C96.7096 92.53 96.6796 92.39 96.6496 92.26C95.1996 86.74 92.3296 78.37 94.6296 72.55C94.7796 72.55 94.9396 72.51 94.9796 72.31C95.5796 69.25 96.8996 66.46 97.8796 63.51C99.0696 59.93 100.12 56.28 101.13 52.65C102.22 48.75 102.9 44.79 103.65 40.82C104.95 33.94 106.4 26.82 106.22 19.79C106.18 18.08 105.79 7.51 104.3 6.27C102.9 5.11 102.09 13.71 101.44 15.12C100.07 18.08 100.19 21.98 100.02 25.17C99.7396 30.56 98.0796 35.39 96.4896 40.52C95.0396 45.18 93.6896 49.99 92.4796 54.82C92.3696 51.14 92.3596 47.49 91.8596 43.8C91.1696 38.68 90.3096 33.59 89.8496 28.44C89.4696 24.19 88.7196 19.41 89.3996 15.18C89.7596 12.98 90.3396 10.74 90.1996 8.5C89.1496 -8.88999 86.4896 5.16 85.5696 8.58C84.8796 11.15 85.0296 13.94 85.0896 16.58C85.1996 21.61 85.0496 26.63 85.4296 31.66C85.4496 31.95 85.5096 32.24 85.5396 32.53C84.4596 29.6 83.0396 26.81 81.7496 23.88C80.5596 21.17 79.2696 18.19 77.3796 15.84C64.1696 -0.639995 72.7896 15.41 73.3196 18.24C73.7296 20.42 75.0896 22.51 76.0296 24.5C77.3996 27.42 78.5696 30.42 79.9196 33.35C82.7896 39.58 86.2096 45.75 87.9796 52.42C88.0196 52.58 88.1196 52.66 88.2196 52.73C88.9496 56.81 90.4196 61.34 90.3196 65.55C89.9396 65.64 90.3096 66 90.3196 65.55C89.7196 70.81 90.5396 75.74 92.0596 80.73C92.2496 82.8 92.5596 84.85 92.8896 86.66C94.1396 93.42 95.9796 100.08 97.3596 106.81C98.6696 113.19 100.2 119.6 101.38 126.04L101.23 126.11C99.7696 122.73 98.1896 119.42 96.3496 116.23C96.6296 116.14 96.8796 115.95 96.8996 115.59C97.0496 112.32 96.7696 108.98 96.1396 105.78C95.5796 102.94 94.7396 99.31 92.2496 97.49C91.9196 97.25 91.5096 97.32 91.2896 97.68C88.9996 101.63 91.9296 105.56 92.0696 109.59C89.6496 106.19 87.3496 102.81 85.9996 98.7C84.3396 93.64 83.7996 88.3 83.3196 83.03C82.9596 79.08 83.2596 74.25 81.4996 70.6C80.8696 69.28 78.3796 56.24 76.6596 57.3C74.0396 58.92 76.1496 76.17 76.5196 78.5C77.3596 83.85 79.2096 88.98 80.2896 94.28C81.2296 98.88 82.3696 103.39 84.2996 107.69C85.8696 111.19 87.9896 114.32 90.3296 117.32C92.2496 124.14 94.8396 130.94 98.4596 137.08C98.5896 136.92 98.7096 136.76 98.8296 136.59C93.0696 148.71 89.7196 162 91.4096 174.58C91.4096 174.67 91.4096 174.75 91.4596 175.02C91.5096 175.38 91.5596 175.74 91.6096 176.1C90.7996 177.83 89.9896 179.57 89.1696 181.3C88.3496 183.04 87.7196 184.84 87.3096 186.7C87.1996 184.4 87.1596 182.09 86.9996 179.8C86.5696 173.54 86.3396 164.26 80.4796 160.37C80.2796 160.24 79.9196 160.23 79.8296 160.52C79.2896 162.13 79.4796 163.81 79.6896 165.47C79.9496 167.57 80.1096 169.68 80.3896 171.78C80.8696 175.26 80.9896 179 81.6096 182.54C80.0096 177.8 78.0196 173.17 75.6496 168.62C72.2796 162.14 68.7296 155.19 63.8996 149.62C63.0996 148.7 57.8996 141.43 56.4396 141.85C54.9396 142.28 58.8696 149.65 59.1596 150.79C59.8896 153.59 61.7596 156.14 63.3496 158.5C65.7696 162.11 68.0496 165.84 70.2896 169.57C73.2096 174.44 75.7696 179.57 78.0596 184.77C80.0096 189.19 82.6796 193.82 83.2796 198.66C83.2796 198.74 83.3696 198.73 83.4096 198.77C84.6396 206.07 85.7596 213.44 87.9296 220.53C88.7396 223.16 89.7796 225.68 90.9096 228.17C88.9896 225.83 87.1296 223.43 85.3196 220.98C85.3196 220.88 85.3396 220.78 85.2896 220.67C84.0296 218.29 82.3896 216.18 80.5096 214.26C77.2996 209.63 74.3396 204.96 70.4096 200.88C67.3896 197.75 64.7196 193.87 61.4296 190.9C60.9596 187.96 59.7796 185.19 59.0596 182.29C58.0796 178.32 57.2796 174.33 56.0496 170.42C54.9996 167.07 53.6796 163.85 52.2296 160.66C50.9896 157.94 49.7496 155.07 47.6496 152.89C46.8896 152.1 45.0496 150.31 43.7496 150.99C42.4596 151.66 43.4296 153.63 43.8396 154.52C45.4396 157.97 47.5796 161.13 49.2396 164.54C50.8396 167.84 51.8596 171.38 53.1096 174.81C54.3196 178.12 55.9096 181.27 57.2896 184.5C57.7096 185.49 58.0796 186.53 58.4996 187.53C56.3796 184.68 54.6596 181.55 52.8196 178.51C50.4196 174.53 47.6796 170.77 44.5396 167.34C44.3996 167.19 44.2496 167.05 44.1096 166.91C44.2596 166.77 44.3296 166.57 44.1796 166.36C40.2296 160.96 37.8196 154.43 34.5596 148.59C32.8196 145.48 30.8196 142.55 28.8296 139.61C27.5996 137.79 23.0596 129.65 21.1496 128.42C20.9596 128.3 20.6496 128.29 20.5596 128.55C19.7296 130.85 24.5096 139.02 25.4696 141.13C26.6696 143.74 28.2796 146.13 29.5996 148.68C31.0096 151.4 32.1896 155.14 34.1196 158.02C33.0196 157.18 31.9096 156.36 30.7996 155.58C29.6096 154.74 27.7596 153.3 26.1796 153.63C24.8396 153.9 24.6196 155.22 25.0096 156.36C25.7696 158.59 27.8696 160.47 29.4296 162.16C32.3096 165.28 35.5396 168.02 38.7796 170.75C40.8196 172.47 42.7296 174.31 44.6996 176.1C43.9396 175.48 43.1996 174.83 42.4096 174.25C39.5296 172.13 36.4996 170.13 33.4096 168.32C30.9496 166.88 28.2996 165.56 25.3996 165.5C25.2296 165.5 25.0796 165.66 25.0496 165.82C24.4996 168.31 27.1296 170.02 28.9396 171.16C32.1696 173.19 35.1496 175.35 38.1796 177.68C42.0296 180.63 46.3296 182.72 50.5596 185.07C52.5396 186.17 54.2996 187.39 56.0696 188.79C56.5696 189.18 57.0696 189.53 57.5696 189.85C57.5996 190.05 57.6696 190.24 57.8796 190.4C62.0696 193.66 65.1096 198.16 68.8296 201.92C71.2796 204.39 73.3296 207.11 75.3096 209.89C70.3296 206.3 64.5996 203.51 59.3696 201.01C57.8296 200.27 56.2596 199.72 54.6996 199.1C54.6396 199.03 54.5896 198.96 54.4796 198.93C54.3496 198.89 54.2096 198.89 54.0896 198.85C50.4696 197.45 46.8196 196.21 43.0196 195.13C41.8296 194.79 40.5996 194.51 39.3896 194.2C36.9096 192.68 34.6396 191.07 32.6396 188.9C31.7796 187.96 30.8796 187.05 29.9796 186.15C28.7796 184.95 19.0496 174.62 17.5096 177.63C16.4196 179.75 19.8496 182.57 21.1296 183.75C22.1596 184.7 23.2496 185.56 24.3496 186.41C23.3596 185.77 22.3696 185.13 21.3096 184.59C19.6696 183.76 17.9196 182.86 16.0996 182.5C15.5396 182.39 14.7696 182.3 14.3496 182.77C13.8296 183.34 14.2296 184.26 14.5796 184.79C15.2696 185.82 16.4496 186.48 17.5496 186.99C18.8396 187.6 20.1996 188.04 21.5396 188.5C24.5196 189.54 27.3596 190.96 30.3396 191.98C31.2396 192.61 32.1296 193.25 33.0796 193.82C34.0196 194.38 35.0196 194.75 36.0296 195.1C32.9796 195.17 29.9196 195.54 26.9596 195.91C23.4496 196.35 20.0196 197.17 16.5896 198.04C14.1696 198.65 11.3796 199.08 9.31962 200.59C8.50962 201.18 -0.73038 204.52 0.0496196 205.61C0.79962 206.66 10.7096 204.29 11.7096 204.12C18.9496 202.85 26.1796 201.59 33.4196 200.31C38.4096 199.43 43.9696 198.41 49.2096 198.87C51.8296 199.72 54.4196 200.67 56.9296 201.82C60.5596 203.49 64.4696 205.3 68.2596 207.39C61.8996 206.02 55.0496 207.09 48.6296 207.37C41.2696 207.69 34.1596 208.55 27.8296 212.62C26.7396 213.32 25.0296 214.48 25.4896 216.02C25.9496 217.57 27.6496 217.77 28.9796 217.49C31.3396 217.01 33.3796 215.64 35.5796 214.75C39.3196 213.24 43.3796 212.27 47.2896 211.35C51.1496 210.44 55.0596 209.63 58.9596 208.9C62.5396 208.23 66.1796 207.86 69.7396 208.84C70.0096 208.91 70.1696 208.75 70.2296 208.55C73.1596 210.28 75.9496 212.19 78.4296 214.39C78.7096 214.79 78.9796 215.19 79.2696 215.6C80.9196 217.94 82.5996 220.27 84.3196 222.57C84.2796 222.55 84.2396 222.51 84.1996 222.49C82.2596 221.27 80.4396 220 78.6196 218.61C75.6196 216.31 72.5996 214.58 69.1396 213.1C66.6396 212.03 64.1096 210.91 61.4396 210.33C59.5496 209.92 57.0096 209.64 55.8796 211.57C55.7796 211.74 55.8596 211.98 55.9996 212.1C58.5096 214.25 61.7396 215.27 64.8096 216.32C68.1896 217.47 71.4296 218.91 74.6096 220.53C77.9496 222.22 81.0596 224.33 84.4096 225.98C85.4696 226.5 86.5396 226.99 87.5796 227.55C87.9296 227.74 88.3496 227.97 88.7596 228.21C89.1196 228.66 89.4696 229.13 89.8296 229.57C91.1996 231.2 92.6096 232.83 93.9596 234.49C95.1896 236.81 96.4396 239.13 97.6996 241.45C97.6996 241.46 97.7096 241.47 97.7196 241.49C92.1996 234.89 82.6796 233.06 75.2296 229.24C71.4596 227.31 67.9696 224.94 64.3196 222.81C63.0796 222.09 59.4496 219.6 57.9496 220.96C55.5496 223.13 63.9396 227.05 64.9996 227.61C69.8896 230.17 74.9896 232.27 79.9896 234.59C83.8396 236.38 87.5696 238.56 91.1796 240.79C95.5696 243.49 100.84 246.72 102.53 251.9C102.63 252.21 102.9 252.23 103.12 252.12C108.61 263.43 113.41 275.01 118.25 286.65C115.21 283.36 112.22 280.13 109.84 276.27C107.09 271.81 104.63 267.19 101.8 262.77C99.8996 259.8 98.0796 256.77 96.0896 253.86C95.0096 252.28 93.5596 250.15 91.6296 249.52C90.5796 249.17 85.6396 244.9 85.5896 246.26C85.5596 247.07 90.0296 252.9 90.3396 253.49C91.2896 255.27 92.2596 257 93.4196 258.66C98.5396 265.96 102.68 273.69 108.67 280.36C110.82 282.76 112.97 285.07 115.43 287.17C117.18 288.67 119.32 290.38 120.64 292.46C120.79 292.83 120.94 293.2 121.09 293.56C121.73 295.78 122.36 298 122.98 300.22C125.88 310.58 126.08 260.7 132.52 243.09L132.56 243.06ZM172.9 86.93C172.9 86.93 172.8 86.93 172.75 86.93C172.84 86.93 172.9 86.93 172.9 86.93ZM96.2596 234.92C93.9796 230.7 91.8496 226.42 90.2796 221.92C88.9696 218.15 87.9996 214.29 87.0996 210.4C87.1596 210.34 87.2196 210.28 87.2296 210.17C87.4796 207.78 87.2096 205.4 87.3296 203.01C87.4196 201.21 87.5196 199.43 87.5796 197.64C87.8096 197.77 88.1296 197.77 88.2196 197.48C88.6296 196.23 88.8196 194.91 89.3196 193.69C89.8996 192.29 90.6796 191 91.2196 189.57C91.8196 187.99 92.4396 186.45 93.1296 184.94C93.4496 188.24 93.8396 191.54 94.3696 194.82C95.2896 200.58 96.4696 206.21 97.8396 211.78C97.5696 211.12 97.2296 210.5 96.7796 209.93C96.0096 208.96 94.7996 207.99 93.5396 208.68C92.1196 209.46 91.9396 211.34 91.9896 212.78C92.0596 214.76 92.5896 216.69 92.9296 218.63C93.4696 221.68 94.2996 224.61 95.3796 227.51C96.5396 230.62 97.6396 233.67 98.4796 236.89C98.6896 237.7 98.9296 238.5 99.1496 239.31C99.1996 239.67 99.2796 240.03 99.3396 240.38C98.5096 238.44 97.4796 236.62 96.2496 234.91L96.2596 234.92ZM102.45 246.16C102.05 245.42 101.63 244.68 101.23 243.94C101.15 243.51 101.05 243.09 100.91 242.65C100.76 242.2 100.65 241.74 100.51 241.29C99.5496 235.41 99.0896 229.54 98.7596 223.56C98.6096 220.92 98.9796 217.69 98.6096 214.77C99.7196 219.05 100.95 223.32 102.27 227.61C102.62 228.74 102.94 229.88 103.24 231.03C103.33 234.28 103.94 237.5 104.7 240.65C106.05 246.18 107.87 251.62 108.84 257.23C108.91 258.13 109 259.03 109.14 259.92C107.03 255.28 104.85 250.68 102.45 246.17V246.16ZM109.59 255.9C109.95 256.95 110.31 257.99 110.72 259.02C111.79 263.24 113.32 267.37 114.69 271.53C114.44 271.15 114.14 270.8 113.87 270.43C114 270.86 114.13 271.3 114.26 271.73C113.14 269.06 112 266.4 110.84 263.75C110.84 263.73 110.87 263.73 110.86 263.7C110.03 261.16 109.73 258.54 109.59 255.91V255.9Z" fill="#649196"/>
<path d="M153.12 117.59C148.98 117.03 148.27 122.51 151.93 123.43C154.11 123.98 156.58 121.82 155.39 119.21C155.06 118.49 153.93 117.7 153.13 117.58L153.12 117.59Z" fill="white"/>
<path d="M227.29 51.69C229.21 51.26 229.94 48.5 228.43 47.16C226.93 45.15 224.13 45.06 223.2 47.96C222.57 49.83 224.52 52.3 227.29 51.69Z" fill="white"/>
<path d="M200.58 98.41C200 98.07 199.23 98.1 198.57 98.23C196.99 98.54 195.34 101.42 197.24 103.07C198.25 104.01 199.85 104.42 201.3 103.62C201.79 103.35 202.35 102.71 202.52 102.04C202.56 101.89 202.54 101.93 202.62 101.61C202.93 100.39 201.63 98.84 200.58 98.41Z" fill="white"/>
<path d="M39.5703 120.89C37.4103 119.54 34.8003 122.42 36.0103 124.87C36.2903 125.44 36.8103 125.94 37.3903 126.19C39.0403 126.99 41.1303 126.25 41.4203 123.76C41.4003 123.07 40.6703 121.59 39.5603 120.89H39.5703Z" fill="white"/>
<path d="M152.68 240.27C152.27 240.23 151.95 240.34 151.61 240.49C149.85 240.79 148.71 243.08 149.99 244.96C150.46 245.65 151.21 246.17 152.05 246.29C156.69 247 157.14 240.7 152.68 240.27Z" fill="white"/>
<path d="M214.05 55.79C205.41 51.71 203.04 48.1 200.5 34.67C200.43 34.3 199.91 34.3 199.84 34.67C197.29 48.1 194.93 51.71 186.29 55.79C186.03 55.91 186.03 56.28 186.29 56.4C194.93 60.48 197.3 64.09 199.84 77.52C199.91 77.89 200.43 77.89 200.5 77.52C203.05 64.09 205.41 60.48 214.05 56.4C214.31 56.28 214.31 55.91 214.05 55.79Z" fill="#C08497"/>
<path d="M58.1604 83.4C58.1104 83.15 57.7504 83.15 57.7004 83.4C55.9504 92.65 54.3204 95.13 48.3704 97.94C48.1904 98.02 48.1904 98.28 48.3704 98.36C54.3204 101.17 55.9504 103.65 57.7004 112.9C57.7504 113.15 58.1104 113.15 58.1604 112.9C59.9104 103.65 61.5404 101.17 67.4904 98.36C67.6704 98.28 67.6704 98.02 67.4904 97.94C61.5404 95.13 59.9104 92.65 58.1604 83.4Z" fill="#649196"/>
<path d="M52.4501 240.09C43.8101 236.01 41.4401 232.4 38.9001 218.97C38.8301 218.6 38.3101 218.6 38.2401 218.97C35.6901 232.4 33.3301 236.01 24.6901 240.09C24.4301 240.21 24.4301 240.58 24.6901 240.7C33.3301 244.78 35.7001 248.39 38.2401 261.82C38.3101 262.19 38.8301 262.19 38.9001 261.82C41.4501 248.39 43.8101 244.78 52.4501 240.7C52.7101 240.58 52.7101 240.21 52.4501 240.09Z" fill="#F59BBB"/>
<path d="M81.6398 258.03C75.6898 255.22 74.0598 252.74 72.3098 243.49C72.2598 243.24 71.8998 243.24 71.8498 243.49C70.0998 252.73 68.4698 255.22 62.5198 258.03C62.3398 258.11 62.3398 258.37 62.5198 258.45C68.4698 261.26 70.0998 263.74 71.8498 272.99C71.8998 273.24 72.2598 273.24 72.3098 272.99C74.0598 263.74 75.6898 261.26 81.6398 258.45C81.8198 258.37 81.8198 258.11 81.6398 258.03Z" fill="#9ACAC6"/>
<path d="M67.7897 135.45C75.5497 139.12 77.6797 142.36 79.9697 154.42C80.0297 154.75 80.4997 154.75 80.5697 154.42C82.8597 142.35 84.9897 139.11 92.7497 135.45C92.9797 135.34 92.9797 135.01 92.7497 134.9C84.9897 131.23 82.8597 127.99 80.5697 115.93C80.5097 115.6 80.0397 115.6 79.9697 115.93C77.6797 128 75.5497 131.24 67.7897 134.9C67.5597 135.01 67.5597 135.34 67.7897 135.45Z" fill="#CBA3D8"/>
<path d="M232.86 179.89C235.04 179.89 236.81 178.13 236.83 175.95L236.99 146C236.99 145.75 237.19 145.55 237.44 145.55H242.64C258.35 145.55 268.7 139.34 268.61 125.32C268.52 112.62 257.41 108.01 245.56 108.01H229.45C229.2 108.01 229 108.21 229 108.46V176.03C229 178.16 230.73 179.9 232.87 179.9L232.86 179.89ZM237.26 109.13H245.93C254.87 109.13 261.17 114.12 261.27 125.31C261.37 137.73 254.03 144.41 242.83 144.41H237.45C237.2 144.41 237 144.21 237 143.96L236.82 109.58C236.82 109.33 237.02 109.12 237.27 109.12L237.26 109.13Z" fill="white"/>
<path d="M280.74 131.06V176.7C280.74 178.46 282.17 179.88 283.92 179.88H285.23C287.01 179.88 288.45 178.44 288.45 176.65V129.17C288.45 129.17 288.45 129.16 288.44 129.16L280.75 131.04C280.75 131.04 280.75 131.04 280.75 131.05L280.74 131.06Z" fill="white"/>
<path d="M311.04 176.8V146.68C311.04 135.58 320.36 130.4 326.94 130.4C337.2 130.4 339.46 136.8 339.46 147.99V176.79C339.46 178.5 340.85 179.88 342.55 179.88H343.98C345.69 179.88 347.07 178.49 347.07 176.79V148.46C347.07 134.63 340.86 128.61 329.19 128.61C322.22 128.61 313.98 132.34 311.03 140.27V132.74C311.03 130.73 309.15 129.26 307.2 129.73L305.68 130.1C304.29 130.44 303.32 131.68 303.32 133.11V176.8C303.32 178.51 304.71 179.89 306.41 179.89H307.93C309.64 179.89 311.02 178.5 311.02 176.8H311.04Z" fill="white"/>
<path d="M383.96 178.76C371.44 178.76 364.29 168.97 364.29 153.45C364.29 150.73 364.53 148.22 364.99 145.92H397.6C399.32 145.92 400.81 144.62 400.94 142.91C401.56 135.25 394.72 128.61 382.73 128.61C368.24 128.61 356.2 139.34 356.2 155.33C356.2 171.32 367.49 180.73 380.48 180.73C392.05 180.73 400.15 174.61 402.31 164.17L401.28 163.98C399.21 173.95 391.78 178.75 383.97 178.75L383.96 178.76ZM382.64 129.74C390.07 129.74 394.12 133.79 394.12 139.15C394.12 143.76 390.45 144.8 386.03 144.8H365.25C367.53 135.19 373.82 129.75 382.64 129.75V129.74Z" fill="white"/>
<path d="M439.14 108H417.22V109.13H439.14V179.89H446.95V109.13H468.78V108H446.95H439.14Z" fill="white"/>
<path d="M479.88 148.07C480.72 137.14 487.69 129.74 495.97 129.74C497.85 129.74 500.2 130.12 501.71 130.59L502.09 129.46C500.49 128.99 498.04 128.61 496.16 128.61C488.85 128.61 482.58 133.39 479.88 142V128.8L472.17 130.68V179.89H479.88V148.07Z" fill="white"/>
<path d="M529.46 178.76C516.95 178.76 509.79 168.97 509.79 153.45C509.79 150.73 510.03 148.22 510.49 145.92H543.56C545.02 145.92 546.23 144.81 546.4 143.36C547.33 135.51 540.47 128.6 528.23 128.6C513.74 128.6 501.69 139.33 501.69 155.32C501.69 171.31 512.98 180.72 525.97 180.72C537.54 180.72 545.64 174.6 547.8 164.16L546.76 163.97C544.69 173.94 537.26 178.74 529.45 178.74L529.46 178.76ZM528.15 129.74C535.58 129.74 539.63 133.79 539.63 139.15C539.63 143.76 535.96 144.8 531.54 144.8H510.76C513.04 135.19 519.34 129.75 528.15 129.75V129.74Z" fill="white"/>
<path d="M597.21 163.99C595.14 173.96 587.71 178.76 579.9 178.76C567.38 178.76 560.23 168.97 560.23 153.45C560.23 150.73 560.47 148.22 560.93 145.92H593.78C595.36 145.92 596.71 144.72 596.86 143.15C597.64 135.39 590.79 128.61 578.67 128.61C564.18 128.61 552.14 139.34 552.14 155.33C552.14 171.32 563.43 180.73 576.42 180.73C587.99 180.73 596.09 174.61 598.25 164.17L597.22 163.98L597.21 163.99ZM578.58 129.74C586.01 129.74 590.06 133.79 590.06 139.15C590.06 143.76 586.39 144.8 581.97 144.8H561.19C563.47 135.19 569.76 129.75 578.58 129.75V129.74Z" fill="white"/>
<path d="M690.66 109.49H688.41C687.69 109.49 687.03 109.86 686.66 110.47L658.15 157.07L631.59 110.52C631.22 109.88 630.54 109.48 629.8 109.48H626.46C625.32 109.48 624.4 110.4 624.4 111.54V181.37H625.53V115.19L652.41 162.73C652.78 163.37 653.46 163.77 654.2 163.77C654.94 163.77 655.58 163.4 655.96 162.79L684.9 115.41V179.31C684.9 180.45 685.82 181.37 686.96 181.37H690.66C691.8 181.37 692.72 180.45 692.72 179.31V111.54C692.72 110.4 691.8 109.48 690.66 109.48V109.49Z" fill="white"/>
<path d="M743.62 165.48V149.11C743.62 135.94 734.96 130.2 724.05 130.2C712.57 130.29 705.98 137.07 705.98 145.35C705.98 149.87 707.77 153.44 709.84 155.32L710.59 154.57C708.8 152.69 707.11 149.39 707.11 145.35C707.11 137.73 713.04 131.8 721.88 131.9C732.23 132.09 735.9 138.96 735.9 147.61V154.48C710.5 155.42 703.16 163.7 703.16 171.51C703.16 178.28 708.62 182.05 715.67 182.05C727.13 182.05 733.51 175.39 735.91 167.65C735.99 177.02 741.89 181.21 750.21 182.05L750.3 181.2C745.41 180.17 743.62 175.65 743.62 165.49V165.48ZM720.28 179.5C714.45 179.5 710.96 175.45 710.96 170C710.96 163.41 715.95 155.6 735.89 155.6V160.21C735.89 171.78 728.17 179.5 720.27 179.5H720.28Z" fill="white"/>
<path d="M773.531 165.38C760.921 161.24 759.791 159.92 759.791 157.85C759.791 156.54 760.851 154.82 762.731 153.77C765.521 155.45 769.061 156.44 773.061 156.44C782.851 156.44 789.901 150.7 789.901 143.08C789.901 138.27 786.891 134.25 782.151 132.02C783.711 129.55 786.161 128.41 788.681 128.41C790.471 128.41 792.821 129.07 794.421 131.14L795.271 130.48C793.111 127.75 790.661 127.28 788.681 127.28C785.871 127.28 782.841 128.66 781.071 131.55C778.721 130.63 776.011 130.11 773.061 130.11C763.461 130.11 756.311 135.66 756.311 143.09C756.311 147.18 758.361 150.72 761.751 153.13C759.261 154.83 757.161 157.84 757.161 161.06C757.161 166.71 760.921 168.96 772.871 173.1C788.681 178.56 793.191 181.29 793.191 188.34C793.191 195.39 786.511 201.51 773.811 201.51C760.731 201.42 753.021 193.7 753.021 183.92C753.021 179.4 754.811 175.73 756.781 173.48L755.841 172.82C753.681 175.17 751.891 179.22 751.891 183.92C751.891 194.18 760.081 202.55 773.811 202.64C787.551 202.64 795.921 195.49 795.921 183.82C795.921 174.79 790.371 170.65 773.531 165.38ZM773.061 131.04C780.121 131.04 783.221 136.69 783.221 143.08C783.221 149.47 780.121 155.5 773.061 155.5C766.001 155.5 762.901 149.48 762.901 143.08C762.901 136.68 766.011 131.04 773.061 131.04Z" fill="white"/>
<path d="M810.66 113.34C807.74 113.34 805.58 115.5 805.58 118.33C805.58 120.73 807.25 122.69 809.63 123.13C812.75 123.71 815.77 121.09 815.54 117.92C815.34 115.3 813.26 113.34 810.66 113.34Z" fill="white"/>
<path d="M806.381 132.54C806.381 132.54 806.381 132.54 806.381 132.55V178.1C806.381 179.91 807.851 181.38 809.661 181.38H810.801C812.621 181.38 814.101 179.9 814.101 178.08V130.68C814.101 130.68 814.101 130.67 814.091 130.67L806.401 132.55L806.381 132.54Z" fill="white"/>
<path d="M852.85 180.53C840.34 180.53 833.37 170.46 833.37 156.07C833.37 140.54 840.9 131.61 852.19 131.61C860.85 131.61 867.15 136.78 867.15 146.01C867.15 148.83 866.4 151.56 865.17 153.44L865.92 154.1C867.33 152.03 868.27 149.11 868.27 146.01C868.27 136.13 861.5 130.11 850.11 130.11C836.28 130.11 825.36 140.74 825.36 156.08C825.36 171.42 836.93 182.05 850.58 182.05C862.43 182.05 869.68 175.65 872.6 165.68L871.56 165.49C868.74 174.9 861.68 180.54 852.84 180.54L852.85 180.53Z" fill="white"/>
<path d="M913.071 155.32C910.251 148.73 905.641 146.95 901.681 146.95C899.401 146.95 897.121 147.47 894.901 148.29L920.691 130.77H918.811L888.231 151.61V112.69C888.231 110.26 885.951 108.47 883.591 109.06L883.451 109.09C881.781 109.5 880.601 111 880.601 112.72V177.65C880.601 179.72 882.281 181.39 884.341 181.39H884.481C886.551 181.39 888.221 179.71 888.221 177.65V152.83L890.351 151.39C892.461 150.17 894.681 149.22 896.691 149.22C899.981 149.22 903.091 150.54 905.541 156.18L915.211 179.11C915.791 180.5 917.151 181.4 918.661 181.4C921.351 181.4 923.171 178.64 922.101 176.17L913.081 155.34L913.071 155.32Z" fill="white"/>
<path d="M283.67 122.63C286.79 123.21 289.81 120.59 289.58 117.42C289.38 114.8 287.3 112.84 284.7 112.84C281.78 112.84 279.62 115 279.62 117.83C279.62 120.23 281.29 122.19 283.67 122.63Z" fill="white"/>
</g>
<defs>
<clipPath id="clip0_292_172">
<rect width="921.99" height="301.59" fill="white"/>
</clipPath>
</defs>
</svg>
