<svg width="130" height="130" viewBox="0 0 130 130" fill="none" xmlns="http://www.w3.org/2000/svg">
<path d="M64.81 129.62C100.604 129.62 129.62 100.604 129.62 64.81C129.62 29.0164 100.604 0 64.81 0C29.0164 0 0 29.0164 0 64.81C0 100.604 29.0164 129.62 64.81 129.62Z" fill="#CBD3EB"/>
<path d="M84.4102 59.3701C84.4102 59.3701 84.4102 59.2701 84.3902 59.2201C84.3902 59.1801 84.3902 59.1401 84.3702 59.1001C84.3702 59.1001 84.3702 59.1001 84.3702 59.0801C84.3702 59.0401 84.3402 59.0001 84.3302 58.9601C84.3202 58.9201 84.3102 58.8801 84.2902 58.8401C84.2702 58.7901 84.2402 58.7401 84.2002 58.6901C84.1802 58.6601 84.1702 58.6401 84.1602 58.6101C84.1202 58.5501 84.0702 58.5001 84.0202 58.4501C84.0102 58.4401 84.0002 58.4201 83.9902 58.4101L65.7102 41.2001C65.7102 41.2001 65.6902 41.1801 65.6702 41.1701C65.6302 41.1301 65.5802 41.1001 65.5302 41.0601C65.5102 41.0401 65.4802 41.0301 65.4602 41.0201C65.4202 41.0001 65.3702 40.9701 65.3302 40.9501C65.3002 40.9401 65.2802 40.9301 65.2502 40.9201C65.2002 40.9001 65.1502 40.8901 65.1002 40.8801C65.0802 40.8801 65.0502 40.8701 65.0302 40.8601C64.9602 40.8501 64.8802 40.8401 64.8002 40.8401C64.7202 40.8401 64.6502 40.8401 64.5702 40.8601C64.5502 40.8601 64.5202 40.8701 64.5002 40.8801C64.4502 40.8901 64.4002 40.9101 64.3502 40.9201C64.3202 40.9201 64.3002 40.9401 64.2702 40.9501C64.2202 40.9701 64.1802 40.9901 64.1402 41.0201C64.1102 41.0301 64.0902 41.0501 64.0702 41.0701C64.0202 41.1001 63.9802 41.1401 63.9402 41.1701C63.9302 41.1801 63.9102 41.1901 63.9002 41.2001L45.6302 58.4201C45.6302 58.4201 45.5902 58.4601 45.5802 58.4801C45.5402 58.5201 45.5002 58.5601 45.4602 58.6101C45.4402 58.6401 45.4202 58.6701 45.4002 58.7101C45.3702 58.7501 45.3502 58.8001 45.3302 58.8401C45.3102 58.8801 45.3002 58.9201 45.2902 58.9701C45.2802 59.0101 45.2602 59.0401 45.2502 59.0801C45.2502 59.0801 45.2502 59.0801 45.2502 59.0901C45.2502 59.1301 45.2402 59.1701 45.2302 59.2101C45.2302 59.2601 45.2202 59.3101 45.2202 59.3601C45.2202 59.3601 45.2202 59.3601 45.2202 59.3701V91.7501C45.2202 91.7501 45.2202 91.8001 45.2202 91.8201C45.2202 91.8601 45.2202 91.9001 45.2302 91.9401C45.2302 91.9801 45.2502 92.0301 45.2602 92.0701C45.2602 92.1101 45.2802 92.1501 45.2902 92.1801C45.3002 92.2201 45.3202 92.2601 45.3402 92.3001C45.3602 92.3301 45.3702 92.3701 45.3902 92.4001C45.4102 92.4401 45.4402 92.4701 45.4602 92.5101C45.4802 92.5401 45.5102 92.5701 45.5302 92.6001C45.5302 92.6101 45.5502 92.6201 45.5502 92.6301L63.8202 112.62C63.8202 112.62 63.8402 112.64 63.8502 112.65C63.9002 112.7 63.9502 112.74 64.0002 112.78C64.0102 112.79 64.0302 112.8 64.0402 112.81C64.1102 112.86 64.1802 112.9 64.2502 112.93C64.2702 112.93 64.2902 112.94 64.3102 112.95C64.3702 112.97 64.4302 112.99 64.4902 113.01C64.5102 113.01 64.5402 113.02 64.5602 113.03C64.6402 113.05 64.7202 113.06 64.8002 113.06C64.8802 113.06 64.9702 113.05 65.0502 113.03C65.0702 113.03 65.0902 113.03 65.1202 113.01C65.1802 112.99 65.2402 112.97 65.3002 112.95C65.3202 112.95 65.3402 112.94 65.3502 112.93C65.4202 112.9 65.4902 112.86 65.5602 112.81C65.5702 112.8 65.5902 112.79 65.6002 112.78C65.6502 112.74 65.7002 112.7 65.7502 112.65C65.7502 112.65 65.7702 112.63 65.7802 112.62L84.0702 92.6301C84.0702 92.6301 84.0902 92.6101 84.1002 92.6001C84.1302 92.5701 84.1502 92.5401 84.1702 92.5101C84.2002 92.4701 84.2202 92.4401 84.2402 92.4001C84.2602 92.3701 84.2802 92.3301 84.2902 92.3001C84.3102 92.2601 84.3302 92.2201 84.3402 92.1801C84.3502 92.1401 84.3602 92.1101 84.3702 92.0701C84.3802 92.0301 84.3902 91.9801 84.4002 91.9401C84.4002 91.9001 84.4002 91.8601 84.4102 91.8201C84.4102 91.8001 84.4102 91.7701 84.4102 91.7501V59.3701C84.4102 59.3701 84.4102 59.3701 84.4102 59.3601V59.3701ZM59.5502 94.0501V63.4201H70.0702V94.0501H59.5502ZM60.0602 60.7701L64.8102 46.3801L69.5702 60.7701H60.0602ZM69.4402 96.6901L64.8102 108.22L60.1902 96.6901H69.4402ZM72.7202 63.1501L81.7702 61.0501V90.7901L72.7202 93.5701V63.1401V63.1501ZM72.2702 60.5401L67.7002 46.7101L80.3902 58.6601L72.2702 60.5401ZM57.3502 60.5401L49.2302 58.6601L61.9102 46.7101L57.3502 60.5401ZM56.9102 63.1501V93.5801L47.8602 90.8001V61.0601L56.9102 63.1601V63.1501ZM57.2402 96.4501L60.8702 105.5L50.7902 94.4701L57.2402 96.4501ZM72.3902 96.4501L78.8402 94.4701L68.7502 105.5L72.3802 96.4601L72.3902 96.4501Z" fill="#1A263A"/>
<path d="M35.6401 53.4299L14.6201 46.9899C13.9201 46.7799 13.1801 47.1699 12.9701 47.8699C12.7601 48.5699 13.1501 49.3099 13.8501 49.5199L34.8701 55.9599C35.0001 55.9999 35.1301 56.0199 35.2601 56.0199C35.8301 56.0199 36.3501 55.6499 36.5201 55.0799C36.7301 54.3799 36.3401 53.6399 35.6401 53.4299Z" fill="#1A263A"/>
<path d="M36.1901 24.46C35.7401 23.88 34.9101 23.77 34.3401 24.22C33.7601 24.67 33.6501 25.5 34.1001 26.07L44.9801 40.19C45.2401 40.53 45.6301 40.71 46.0301 40.71C46.3101 40.71 46.6001 40.62 46.8401 40.43C47.4201 39.98 47.5301 39.15 47.0801 38.58L36.2001 24.46H36.1901Z" fill="#1A263A"/>
<path d="M34.8601 71.5299L19.8802 76.1199C19.1802 76.3299 18.7901 77.0699 19.0001 77.7699C19.1701 78.3399 19.7001 78.7099 20.2601 78.7099C20.3901 78.7099 20.5201 78.6899 20.6501 78.6499L35.6302 74.0599C36.3302 73.8499 36.7201 73.1099 36.5101 72.4099C36.3001 71.7099 35.5501 71.3199 34.8601 71.5299Z" fill="#1A263A"/>
<path d="M64.8002 10.23C64.0702 10.23 63.4802 10.82 63.4802 11.55V33.09C63.4802 33.82 64.0702 34.41 64.8002 34.41C65.5302 34.41 66.1202 33.82 66.1202 33.09V11.55C66.1202 10.82 65.5302 10.23 64.8002 10.23Z" fill="#1A263A"/>
<path d="M116.66 47.8699C116.45 47.1699 115.71 46.7799 115.01 46.9899L93.99 53.4299C93.29 53.6399 92.9 54.3799 93.11 55.0799C93.28 55.6499 93.81 56.0199 94.37 56.0199C94.5 56.0199 94.63 55.9999 94.76 55.9599L115.78 49.5199C116.48 49.3099 116.87 48.5699 116.66 47.8699Z" fill="#1A263A"/>
<path d="M95.2901 24.22C94.7101 23.77 93.8801 23.88 93.4401 24.46L82.5601 38.58C82.1101 39.16 82.2201 39.99 82.8001 40.43C83.0401 40.62 83.3201 40.71 83.6101 40.71C84.0101 40.71 84.4001 40.53 84.6601 40.19L95.5401 26.07C95.9901 25.49 95.8801 24.66 95.3001 24.22H95.2901Z" fill="#1A263A"/>
<path d="M109.74 76.12L94.76 71.53C94.06 71.31 93.32 71.71 93.11 72.41C92.9 73.11 93.29 73.85 93.99 74.06L108.97 78.65C109.1 78.69 109.23 78.71 109.36 78.71C109.93 78.71 110.45 78.34 110.62 77.77C110.83 77.07 110.44 76.33 109.74 76.12Z" fill="#1A263A"/>
</svg>
