<svg width="371" height="348" viewBox="0 0 371 348" fill="none" xmlns="http://www.w3.org/2000/svg">
<path d="M193.33 235.25C229.124 235.25 258.14 206.233 258.14 170.44C258.14 134.646 229.124 105.63 193.33 105.63C157.536 105.63 128.52 134.646 128.52 170.44C128.52 206.233 157.536 235.25 193.33 235.25Z" fill="#649196"/>
<path d="M282.99 87.63C282.82 87.51 282.67 87.39 282.53 87.29C279.47 84.99 277.17 82.93 275.13 81.11C273.66 79.79 272.31 78.6 270.96 77.56C274.28 77.24 276.61 76.04 277.64 74.66C278.68 73.27 278.68 72.09 278.5 71.35C278.31 70.55 277.7 69.42 275.9 68.54C274.33 67.78 272.64 66.86 270.84 65.89C267.83 64.26 264.73 62.57 261.63 61.31C258.09 59.88 255.4 58.7 252.8 57.56C251.04 56.79 249.38 56.06 247.49 55.26C242.65 53.24 242.37 53.17 237.44 52.9L237.01 52.88C231.36 52.56 218.25 51.3 211.5 50.42C205.25 47.84 199.08 45.47 195.78 46.16C195.75 46.16 195.71 46.18 195.68 46.19C189.52 48 183.77 49.89 178.22 51.71C172.7 53.52 167 55.39 160.9 57.18C154.27 58.32 148.28 59.14 142.49 59.93C130.62 61.56 118.34 63.23 100.24 67.74C99.6397 67.89 99.2397 68.43 99.2397 69.02C99.2397 69.13 99.2497 69.2299 99.2797 69.34C99.4597 70.0499 100.17 70.48 100.88 70.3C118.84 65.83 130.5 64.23 142.85 62.54C148.68 61.74 154.72 60.92 161.42 59.76C161.47 59.76 161.53 59.74 161.58 59.72C167.74 57.91 173.48 56.03 179.03 54.2C184.55 52.39 190.26 50.52 196.36 48.72C199.23 48.17 206.51 51.19 212.37 53.62C216.11 55.17 219.64 56.64 222.01 57.21C227.37 58.6 232.6 59.77 237.65 60.91C239.33 61.29 241.02 61.67 242.71 62.05C247.18 68.14 251.28 75.07 256.92 84.59C258.51 87.2799 260.24 90.19 262.13 93.36C263 95.5 263.78 97.36 264.54 99.16C265.68 101.87 266.75 104.43 267.92 107.46C268.24 108.34 268.3 109.05 268.09 109.36C267.9 109.63 267.33 109.77 266.62 109.78C262.98 109.71 258.83 108.6 255.12 101.44C255.78 101.59 256.44 101.7 257.1 101.77C259.24 102 261.8 102.04 262.67 100.24C263.5 98.54 261.9 96.37 260.62 94.63C260.45 94.3899 260.29 94.18 260.17 94.01C258.79 92 257.32 90.01 255.89 88.08C253.83 85.29 251.7 82.41 249.85 79.47L249.58 79.04C248.62 77.51 248.46 77.3 246.79 75.95C244.07 73.78 241.83 71.62 239.66 69.53C237.63 67.57 235.54 65.55 233.02 63.49C230.66 61.54 230.45 61.44 227.5 60.9L227.39 60.88C224.56 60.36 221.53 59.92 218.32 59.46C213.46 58.76 208.43 58.04 204.26 56.99C203.55 56.81 202.83 57.24 202.65 57.95C202.47 58.66 202.9 59.38 203.61 59.56C207.91 60.64 213.01 61.37 217.94 62.08C221.12 62.54 224.13 62.97 226.9 63.48L227.01 63.5C228.61 63.7933 230.06 64.48 231.36 65.56C233.78 67.54 235.83 69.52 237.82 71.44C240.03 73.57 242.32 75.78 245.13 78.02C246.043 78.7533 246.776 79.56 247.33 80.44L247.61 80.88C249.52 83.9 251.68 86.82 253.76 89.65C255.17 91.56 256.63 93.54 257.99 95.51C258.12 95.7 258.3 95.94 258.49 96.2C258.9 96.75 260.08 98.36 260.24 99.07C259.99 99.17 259.24 99.35 257.38 99.15C255.17 98.91 252.95 98.15 251.14 97C247.91 94.94 244.25 90.53 241.31 86.99C240.6 86.13 239.92 85.31 239.28 84.57C239.15 84.42 238.98 84.29 238.8 84.21C234.86 82.52 232.34 81.01 228.53 78.72C227.39 78.04 226.15 77.29 224.74 76.46C224.52 76.33 224.33 76.21 224.17 76.12C222.92 75.35 222.54 75.3 221.23 75.71C221.03 75.77 220.8 75.85 220.5 75.93C217.53 76.77 214.29 77.28 210.85 77.82C208.46 78.19 205.95 78.59 203.34 79.12C203.32 79.12 203.3 79.12 203.28 79.12C203.26 79.12 203.23 79.13 203.21 79.14C198.63 80.08 193.73 81.47 188.55 83.97C186.76 84.83 184.44 86.25 181.76 87.89C171.49 94.17 154.31 104.68 138.92 100.26C136.9 99.35 135.99 99.24 132.52 99.8C124.46 101.1 115.54 104.91 106.02 111.1C105.41 111.5 105.23 112.32 105.63 112.93C106.03 113.54 106.85 113.72 107.46 113.32C116.67 107.33 125.25 103.65 132.94 102.41C135.75 101.96 136.24 101.95 137.82 102.66C137.85 102.67 137.87 102.68 137.9 102.7C138.13 102.81 138.39 102.93 138.67 103.06C139.03 103.23 139.42 103.42 139.88 103.63C153.34 109.84 162.41 109.8 171.2 109.75C174.09 109.73 177.07 109.72 180.2 109.92C189.55 111.98 195.47 114.89 201.2 117.7C203.9 119.03 206.69 120.4 209.77 121.64C214.33 123.9 217.79 124.95 220.75 124.95C221.18 124.95 221.6 124.93 222.01 124.88C224.26 124.64 225.81 123.9 226.75 122.63C227.71 121.32 227.96 119.55 227.5 117.2C226.53 112.22 222.19 107.18 215.87 103.72C215.84 103.7 215.81 103.69 215.77 103.67C211.01 101.55 203.82 98.16 196.17 93.16C196.19 93.09 196.22 93.02 196.24 92.95C198.4 86.25 200.99 82.38 203.74 81.73C206.35 81.19 208.86 80.8 211.24 80.43C214.76 79.88 218.09 79.36 221.21 78.47C221.54 78.38 221.8 78.29 222.01 78.23C222.13 78.19 222.26 78.15 222.35 78.12C222.46 78.18 222.62 78.28 222.76 78.37C222.93 78.47 223.12 78.59 223.37 78.74C224.78 79.57 226.02 80.31 227.15 80.99C230.82 83.2 233.5 84.81 237.46 86.52C238.03 87.1899 238.64 87.92 239.27 88.68C242.49 92.55 246.13 96.94 249.71 99.23C250.32 99.62 250.96 99.9599 251.63 100.27C256.21 110.87 262 112.35 266.57 112.44H266.62C268.72 112.44 269.75 111.6 270.24 110.89C271 109.81 271.05 108.35 270.39 106.54C269.2 103.45 268.12 100.87 266.97 98.14C266.21 96.32 265.42 94.4399 264.54 92.27C264.51 92.2099 264.48 92.15 264.45 92.09C264 91.34 263.57 90.61 263.14 89.9C263.39 90.09 263.64 90.29 263.89 90.48C265.92 92.04 268.01 93.66 270.01 94.87C274.61 97.67 279.95 98.09 285.06 96.07C285.09 96.06 285.12 96.04 285.15 96.03C286.84 95.2 287.28 94.1 287.35 93.31C287.56 90.97 284.79 88.94 282.96 87.6L282.99 87.63ZM193.75 92.17C191.99 97.65 188.69 101.74 183.94 104.32C183.3 104.67 183.06 105.47 183.41 106.11C183.65 106.55 184.1 106.8 184.57 106.8C184.78 106.8 185 106.75 185.2 106.64C189.75 104.17 193.11 100.5 195.23 95.7C202.83 100.62 209.93 103.96 214.67 106.08C221.27 109.71 224.29 114.47 224.92 117.72C225.23 119.28 225.13 120.41 224.64 121.08C224.17 121.72 223.2 122.12 221.74 122.27C218.22 122.64 213.88 120.73 210.92 119.27C210.89 119.25 210.86 119.24 210.83 119.23C207.82 118.02 205.18 116.73 202.39 115.35C196.5 112.46 190.41 109.47 180.69 107.34C180.63 107.33 180.56 107.32 180.49 107.31C177.23 107.1 174.17 107.11 171.2 107.13C163.95 107.17 157.03 107.2 147.71 103.97C161.23 103.58 174.53 95.44 183.15 90.17C185.77 88.57 188.04 87.18 189.71 86.37C192.5 85.02 195.22 84.02 197.86 83.23C196.34 85.37 194.98 88.33 193.75 92.16V92.17ZM244.58 60.12C244.39 59.87 244.12 59.69 243.81 59.62C241.95 59.19 240.11 58.78 238.26 58.36C233.23 57.23 228.02 56.06 222.68 54.67C222.15 54.54 221.55 54.36 220.89 54.14C226.89 54.75 233.34 55.32 236.88 55.52L237.31 55.54C240.39 55.7133 243.45 56.4333 246.49 57.7C248.36 58.48 250.01 59.21 251.76 59.98C254.38 61.13 257.09 62.32 260.66 63.76C263.62 64.96 266.66 66.61 269.6 68.21C271.42 69.2 273.14 70.14 274.76 70.92C275.43 71.25 275.86 71.63 275.94 71.97C276.02 72.32 275.77 72.76 275.53 73.07C274.76 74.1 271.69 75.46 266.71 74.83C265.54 74.15 264.35 73.46 263.11 72.74C257.16 69.31 251.02 65.76 245.78 61.76C245.38 61.2 244.98 60.65 244.58 60.11V60.12ZM284.07 93.66C279.77 95.35 275.28 94.99 271.42 92.64C269.54 91.51 267.51 89.94 265.55 88.42C263.51 86.85 261.58 85.36 259.89 84.4C259.67 84.02 259.44 83.65 259.23 83.28C255.67 77.28 252.72 72.3 249.9 67.89C253.83 70.45 257.98 72.85 261.79 75.05C263.75 76.18 265.61 77.25 267.38 78.31C269.33 79.47 271.12 81.07 273.38 83.09C275.45 84.9399 277.8 87.04 280.95 89.41C281.09 89.52 281.26 89.6399 281.44 89.77C283.69 91.42 284.81 92.54 284.76 93.11C284.76 93.17 284.62 93.39 284.08 93.66H284.07Z" fill="#1A263A"/>
<path d="M287.08 281.23C286 281.15 282.59 281.97 273.15 284.34C261.32 287.3 245.12 291.36 238.97 291.42C219.18 292.15 191.33 291 166.78 289.87C162.46 289.66 160.54 289.54 156.29 288.45C151.42 287.21 146.52 285.93 141.77 284.69C138.32 283.79 134.87 282.89 131.41 282C123.58 279.97 120.83 279 113.89 274.79C112.54 273.97 111.15 273.13 109.77 272.31C106.22 270.19 102.87 268.19 100.35 266.4C97.2298 264.2 94.4198 261.98 91.4498 259.63C89.8498 258.37 88.1998 257.07 86.4998 255.77C86.2498 255.58 86.0098 255.4 85.7698 255.23C85.3598 254.93 84.7798 254.51 84.5098 254.22C84.7198 254.03 85.2398 253.66 86.4198 253.14C87.6598 252.6 89.2198 252.4 91.0698 252.53C97.7398 253.45 108.65 261.09 108.76 261.17C108.84 261.23 108.92 261.27 109.01 261.31C111.75 262.45 114.81 263.77 117.76 265.05C120.72 266.33 123.79 267.66 126.55 268.81C126.76 268.9 126.98 268.93 127.21 268.9C134.14 268.1 138.92 269.25 142.76 270.18C143.65 270.4 144.5 270.6 145.33 270.77C145.18 271.53 145.12 272 145.11 272.08C145.03 272.81 145.55 273.46 146.27 273.54C146.32 273.54 146.37 273.54 146.42 273.54C147.08 273.54 147.65 273.04 147.73 272.37C147.73 272.29 148.67 264.74 154.47 257.01C155.52 259.09 156.62 261.16 157.79 263.18C159.13 265.46 159.7 266.04 161.8 267.71C164.06 269.53 166.37 271.03 168.6 272.47C174.06 276.01 179.21 279.36 184.03 287.18C184.28 287.59 184.71 287.81 185.16 287.81C185.4 287.81 185.64 287.75 185.85 287.61C186.47 287.23 186.67 286.41 186.28 285.79C181.15 277.46 175.5 273.8 170.04 270.25C167.86 268.84 165.61 267.38 163.45 265.64C161.56 264.13 161.21 263.79 160.07 261.84C157.9 258.13 155.99 254.17 154.14 250.34C152.35 246.62 150.5 242.78 148.39 239.15C150.61 237.83 154.08 238.6 155.67 239.44C159.82 241.47 162.98 243.89 166.56 247.78C167.88 249.22 168.83 250.58 169.74 251.91C170.38 252.84 171.05 253.8 171.82 254.75C172.44 255.53 173.45 256.28 175.41 257.43C177.33 258.57 179.3 259.7 181.2 260.79L182.3 261.42C183.85 262.32 185.23 262.94 186.66 263.36C191.83 264.9 198.62 264.14 205.17 263.4C208.07 263.07 210.81 262.76 213.19 262.69C213.69 262.68 214.17 262.66 214.64 262.64C217.11 262.54 219.06 262.47 221.55 263.11C225.64 264.17 231.34 266.98 233.94 271.42C234.31 272.05 235.12 272.26 235.75 271.89C236.38 271.52 236.59 270.71 236.22 270.08C233.21 264.94 227 261.78 222.21 260.54C219.35 259.8 217.12 259.89 214.54 259.99C214.08 260.01 213.61 260.03 213.12 260.04C210.63 260.12 207.84 260.43 204.88 260.76C198.88 261.44 192.08 262.2 187.42 260.82C186.18 260.46 185.02 259.94 183.64 259.13L182.53 258.49C180.63 257.4 178.67 256.27 176.76 255.14C175.16 254.2 174.28 253.57 173.89 253.08C173.18 252.2 172.57 251.32 171.93 250.39C170.96 248.99 169.96 247.55 168.52 245.98C168.43 245.89 168.35 245.8 168.26 245.71C169.95 244.88 171.72 244.14 173.56 243.51C175.96 244.99 178.22 245.9 180.21 246.63C187.2 249.19 198.26 249.36 208.97 249.53C212.82 249.59 216.46 249.64 219.84 249.81C224.57 250.04 226.81 251.25 228.78 252.31C230.19 253.07 231.52 253.78 233.4 254.03C233.58 254.05 233.77 254.06 233.98 254.06C240.13 254.06 258.39 243.85 260.52 242.65C261.16 242.29 261.38 241.48 261.02 240.85C260.66 240.21 259.85 239.99 259.22 240.35C247.42 247.01 236.48 251.77 233.75 251.4C232.34 251.22 231.33 250.67 230.04 249.98C227.93 248.84 225.3 247.43 219.98 247.16C216.55 246.99 212.89 246.94 209.02 246.88C198.54 246.72 187.7 246.55 181.13 244.15C178.94 243.34 176.39 242.33 173.76 240.49C171.5 237.75 169.25 235.05 167.01 232.36C164.32 229.12 161.63 225.89 158.91 222.59C158.49 222.09 157.81 221.02 157.02 219.78C154.06 215.17 149.58 208.2 145.18 207.7C143.81 207.55 142.52 208.02 141.45 209.06C141.26 209.25 141.13 209.5 141.08 209.76C140.66 212.03 142.39 215.91 145.07 221.55C145.72 222.91 146.32 224.19 146.83 225.34C146.84 225.37 146.85 225.39 146.87 225.42C148.28 228.15 150.32 231.17 152.28 234.09C152.72 234.74 153.14 235.37 153.55 235.99C150.88 235.52 147.76 235.84 145.73 237.9C145.59 238.04 145.49 238.21 145.43 238.39C142.75 235.08 140.1 231.78 138.51 229.63C138.35 229.41 138.21 229.22 138.07 229.04C137.47 228.25 137.14 227.81 136.73 226.82C136.08 225.26 135.63 223.71 135.19 222.21C134.38 219.43 133.54 216.56 131.45 213.69C129.12 210.5 126.47 209.3 122.86 209.79C122.79 209.79 122.72 209.82 122.65 209.84C122.28 209.95 121.78 210.24 121.48 210.96C119.89 214.68 125.27 233.57 126.15 235.33C128.9 241.02 133.47 248.19 137.51 254.15C136.18 253.48 134.73 252.73 133.1 251.87C130.03 250.25 126.75 247.16 123.58 244.17C121.59 242.3 119.54 240.36 117.5 238.74C113.71 232.53 106 220.06 96.8698 222.54C95.4298 222.93 94.3698 223.29 93.9398 224.28C93.4998 225.28 93.9798 226.22 94.6498 227.53C94.7598 227.75 94.8898 227.99 95.0198 228.25C96.2298 230.7 98.2198 234.09 100.33 237.68C101.67 239.96 103.06 242.32 104.21 244.4C104.23 244.43 104.25 244.47 104.27 244.5C107.21 248.84 114.08 257.08 119.78 263.06C119.45 262.92 119.12 262.78 118.8 262.64C115.88 261.38 112.87 260.07 110.15 258.94C108.84 258.03 98.3598 250.86 91.3698 249.92C91.3398 249.92 91.3198 249.92 91.2898 249.92C88.9998 249.75 87.0098 250.03 85.3498 250.74C83.5798 251.52 81.9198 252.46 81.7598 253.99C81.5998 255.49 82.9198 256.45 84.1998 257.39C84.4198 257.55 84.6498 257.72 84.8798 257.9C86.5598 259.19 88.2098 260.48 89.7898 261.74C92.6598 264 95.6198 266.35 98.7998 268.59C101.41 270.43 104.8 272.46 108.39 274.61C109.76 275.43 111.14 276.26 112.49 277.08C119.9 281.57 123.01 282.6 130.72 284.6C134.18 285.49 137.63 286.39 141.08 287.29C145.83 288.53 150.74 289.81 155.61 291.05C160.1 292.19 162.23 292.33 166.63 292.54C185.86 293.42 207.11 294.32 224.95 294.32C229.94 294.32 234.67 294.25 239.01 294.09C245.44 294.02 261.82 289.92 273.77 286.93C279.73 285.44 285.89 283.89 286.88 283.89C287.62 283.94 288.23 283.39 288.28 282.66C288.33 281.93 287.78 281.3 287.05 281.25L287.08 281.23ZM149.25 224.26C148.73 223.08 148.12 221.79 147.47 220.44C145.87 217.09 143.73 212.59 143.66 210.67C144.05 210.4 144.44 210.3 144.89 210.35C148.04 210.7 152.44 217.55 154.8 221.23C155.67 222.59 156.36 223.66 156.88 224.29C159.6 227.59 162.29 230.83 164.99 234.07C167.06 236.56 169.13 239.05 171.22 241.57C169.53 242.21 167.9 242.95 166.33 243.76C163.57 241.09 160.89 239.16 157.67 237.5C156.73 235.98 155.64 234.36 154.49 232.64C152.57 229.79 150.59 226.85 149.25 224.27V224.26ZM123.83 212.35C126.14 212.2 127.72 213.04 129.33 215.25C131.15 217.74 131.88 220.28 132.66 222.96C133.12 224.53 133.59 226.15 134.3 227.85C134.84 229.15 135.34 229.81 135.97 230.65C136.1 230.82 136.24 231.01 136.39 231.22C138.74 234.39 143.29 239.97 146.94 244.45C148.26 246.07 149.46 247.54 150.4 248.71C150.86 249.65 151.31 250.59 151.76 251.53C152.22 252.49 152.69 253.45 153.16 254.42C151.59 256.36 150.32 258.31 149.3 260.16C147.13 258.91 144.97 257.84 142.35 256.56C142.33 256.52 142.31 256.48 142.29 256.45C137.83 250.05 131.82 241 128.52 234.18C127.36 231.85 123.34 215.65 123.82 212.37L123.83 212.35ZM106.5 243.06C105.34 240.97 103.95 238.61 102.62 236.34C100.54 232.79 98.5698 229.44 97.3998 227.07C97.2598 226.8 97.1298 226.55 97.0198 226.32C96.8598 226 96.6798 225.66 96.5698 225.4C96.7798 225.32 97.0998 225.22 97.5798 225.09C104.88 223.11 112.24 235.17 115.38 240.32C115.46 240.46 115.57 240.58 115.69 240.67C117.69 242.24 119.77 244.2 121.78 246.09C125.08 249.2 128.5 252.42 131.88 254.21C135.61 256.18 138.46 257.58 140.98 258.81C143.71 260.15 145.91 261.23 148.11 262.51C147.09 264.68 146.41 266.64 145.96 268.21C145.17 268.05 144.32 267.85 143.38 267.62C139.4 266.66 134.46 265.46 127.25 266.24C127 266.14 126.74 266.02 126.48 265.92C120.9 260.99 110.25 248.57 106.51 243.06H106.5Z" fill="#1A263A"/>
<path d="M202.22 205.29C182.29 205.29 166.07 189.21 166.07 169.45C166.07 149.69 182.29 133.6 202.22 133.6C202.3 133.6 202.38 133.6 202.46 133.6C202.5 133.6 202.53 133.6 202.57 133.6C203.15 133.6 203.66 133.98 203.83 134.53C204 135.08 203.79 135.69 203.31 136.01C194.23 142.2 188.82 152.42 188.82 163.35C188.82 181.47 203.69 196.36 221.97 196.54C222.55 196.54 223.05 196.93 223.22 197.48C223.39 198.03 223.18 198.63 222.7 198.96C216.67 203.09 209.58 205.27 202.21 205.27L202.22 205.29ZM198.44 136.45C181.74 138.32 168.72 152.4 168.72 169.45C168.72 187.75 183.75 202.64 202.22 202.64C207.66 202.64 212.92 201.36 217.67 198.91C199.95 196.63 186.18 181.5 186.18 163.37C186.18 153 190.7 143.21 198.45 136.46L198.44 136.45Z" fill="#1A263A"/>
<path d="M169.8 129.33C165.51 130.2 164.56 131.15 163.68 135.4C163.64 135.6 163.36 135.6 163.32 135.4C162.44 131.16 161.49 130.2 157.2 129.33C157 129.29 157 129.01 157.2 128.97C161.49 128.1 162.44 127.16 163.32 122.9C163.36 122.7 163.64 122.7 163.68 122.9C164.56 127.16 165.51 128.1 169.8 128.97C170 129.01 170 129.29 169.8 129.33Z" fill="#1A263A"/>
<path d="M211.22 176.76C210.39 174.63 209.93 173.1 209.74 171.93C208.58 171.74 207.03 171.28 204.89 170.48V170.4C207.04 169.59 208.58 169.13 209.74 168.95C209.93 167.8 210.39 166.27 211.22 164.12H211.29C212.1 166.26 212.57 167.8 212.76 168.95C213.93 169.14 215.48 169.6 217.63 170.4V170.48C215.48 171.29 213.94 171.75 212.76 171.93C212.57 173.09 212.11 174.63 211.29 176.76H211.22Z" fill="#1A263A"/>
<path d="M238.42 211.02C246.9 214.6 246.9 211.34 238.42 214.92C234.81 223.33 238.1 223.33 234.47 214.92C226 211.34 226 214.6 234.47 211.02C238.1 202.61 234.8 202.61 238.42 211.02Z" fill="#1A263A"/>
<path d="M245.48 142.47C237.62 143.38 236.88 144.14 235.94 151.93C235.01 144.14 234.26 143.39 226.4 142.47C234.26 141.54 235 140.8 235.94 133.01C236.87 140.8 237.62 141.54 245.48 142.47Z" fill="#1A263A"/>
<path d="M202.53 223.79C198.74 224.56 197.89 225.39 197.11 229.15C197.07 229.34 196.83 229.34 196.79 229.15C196.02 225.39 195.16 224.56 191.37 223.79C191.2 223.75 191.2 223.5 191.37 223.46C195.16 222.69 196.01 221.86 196.79 218.1C196.83 217.91 197.07 217.91 197.11 218.1C197.88 221.86 198.74 222.69 202.53 223.46C202.7 223.5 202.7 223.75 202.53 223.79Z" fill="#1A263A"/>
<path d="M140.57 159.13C156.82 163.08 156.82 159.63 140.57 163.59C136.58 179.7 140.06 179.7 136.08 163.59C119.82 159.64 119.82 163.09 136.08 159.13C140.07 143.01 136.59 143.01 140.57 159.13Z" fill="#1A263A"/>
<path d="M155.46 200.47C154.81 198.75 154.43 197.52 154.29 196.6C153.34 196.45 152.1 196.07 150.38 195.42V195.37C152.1 194.72 153.34 194.34 154.29 194.19C154.44 193.26 154.81 192.03 155.46 190.32H155.53C156.18 192.04 156.56 193.27 156.7 194.19C157.65 194.34 158.89 194.72 160.61 195.37V195.42C158.89 196.07 157.65 196.45 156.7 196.6C156.55 197.53 156.18 198.76 155.53 200.47H155.46Z" fill="#1A263A"/>
</svg>
