<svg width="371" height="348" viewBox="0 0 371 348" fill="none" xmlns="http://www.w3.org/2000/svg">
<g clip-path="url(#clip0_169_682)">
<path d="M165.71 153.47C201.503 153.47 230.52 124.454 230.52 88.6601C230.52 52.8665 201.503 23.8501 165.71 23.8501C129.916 23.8501 100.9 52.8665 100.9 88.6601C100.9 124.454 129.916 153.47 165.71 153.47Z" fill="#CBA3D8"/>
<path d="M158.07 120.25L160.54 130.71L170.9 127.61L163 134.96L170.9 142.31L160.54 139.2L158.07 149.66L155.59 139.2L145.22 142.31L153.12 134.96L145.22 127.61L155.59 130.71L158.07 120.25Z" fill="#1A263A"/>
<path d="M167.75 56.74L168.66 61.94L173.67 60.12L169.58 63.51L173.67 66.89L168.66 65.07L167.75 70.28L166.85 65.07L161.84 66.89L165.94 63.51L161.84 60.12L166.85 61.94L167.75 56.74Z" fill="#1A263A"/>
<path d="M191.81 133.81L192.79 141.19L199.72 138.34L193.77 142.87L199.72 147.39L192.79 144.54L191.81 151.91L190.84 144.54L183.9 147.39L189.85 142.87L183.9 138.34L190.84 141.19L191.81 133.81Z" fill="#1A263A"/>
<path d="M177.61 93.5298C187.4 97.6698 187.4 93.8998 177.61 98.0398C173.42 107.75 177.24 107.75 173.05 98.0398C163.27 93.8998 163.27 97.6698 173.05 93.5298C177.24 83.8198 173.42 83.8198 177.61 93.5298Z" fill="#1A263A"/>
<path d="M144.6 93.88C143.23 90.31 142.45 87.74 142.13 85.8C140.18 85.5 137.58 84.72 133.98 83.37V83.24C137.58 81.89 140.18 81.11 142.13 80.81C142.45 78.87 143.22 76.3 144.6 72.73H144.72C146.09 76.3 146.88 78.87 147.19 80.81C149.15 81.11 151.74 81.89 155.34 83.24V83.37C151.74 84.72 149.15 85.5 147.19 85.8C146.88 87.74 146.1 90.31 144.72 93.88H144.6Z" fill="#1A263A"/>
<path d="M175.92 164.12C171.15 166.33 171.47 166 169.24 170.75C167.03 166 167.35 166.33 162.57 164.12C167.34 161.91 167.02 162.23 169.24 157.49C171.47 162.22 171.15 161.91 175.92 164.12Z" fill="#1A263A"/>
<path d="M130.73 111.1C126.41 111.97 125.45 112.92 124.57 117.21C124.53 117.41 124.24 117.41 124.2 117.21C123.32 112.93 122.36 111.97 118.04 111.1C117.84 111.06 117.84 110.77 118.04 110.73C122.36 109.86 123.32 108.91 124.2 104.62C124.24 104.41 124.53 104.41 124.57 104.62C125.45 108.9 126.41 109.86 130.73 110.73C130.94 110.77 130.94 111.06 130.73 111.1Z" fill="#1A263A"/>
<path d="M177.97 38.01C174.68 38.68 173.94 39.41 173.28 42.68C173.24 42.84 173.03 42.84 172.99 42.68C172.32 39.41 171.59 38.69 168.28 38.01C168.13 37.98 168.13 37.77 168.28 37.73C171.59 37.07 172.32 36.34 172.99 33.06C173.03 32.91 173.24 32.91 173.28 33.06C173.95 36.34 174.68 37.07 177.97 37.73C178.13 37.77 178.13 37.98 177.97 38.01Z" fill="#1A263A"/>
<path d="M152.97 28.3099C150.17 29.6099 150.36 29.4099 149.06 32.1799C147.75 29.3999 147.94 29.5999 145.14 28.3099C147.94 27.0099 147.75 27.1999 149.06 24.4199C150.35 27.1999 150.17 27.0099 152.97 28.3099Z" fill="#1A263A"/>
<path d="M169.94 6.17992C167.61 6.65992 167.09 7.16992 166.62 9.48992C166.59 9.59992 166.43 9.59992 166.42 9.48992C165.94 7.17992 165.42 6.65992 163.09 6.17992C162.98 6.16992 162.98 6.00992 163.09 5.97992C165.42 5.51992 165.94 4.99992 166.42 2.68992C166.43 2.57992 166.59 2.57992 166.62 2.68992C167.09 4.99992 167.61 5.51992 169.94 5.97992C170.05 6.00992 170.05 6.16992 169.94 6.17992Z" fill="#1A263A"/>
<path d="M224.96 226.02C224.94 224.64 224.81 224.12 224.38 222.86C223.06 218.97 221.07 215.33 218.78 212.62C218.76 212.6 218.73 212.58 218.71 212.56C217.49 208.48 215.85 204.49 213.87 201.57C213.27 197.91 212.52 194.12 211.8 190.45C210.96 186.18 210.09 181.76 209.41 177.39C209.24 176.36 209.07 175.3 208.13 174.74C207.26 174.22 206.24 174.48 205.46 174.74C204.69 175 203.95 175.42 203.25 176C200.3 178.52 199.89 182.54 199.75 186.12C199.62 189.24 199.86 191.38 200.06 193.26C200.18 194.35 200.29 195.38 200.32 196.42C200.24 203.94 199.47 213.79 198.31 217.34C197.8 218.5 197.18 220.37 196.46 222.52C195.35 225.86 192.79 233.56 191.28 234.42C191.24 234.38 191.19 234.32 191.13 234.24C190.17 232.07 191.26 222.06 191.98 215.42C192.39 211.65 192.78 208.09 192.86 205.81C193.05 200.64 193.68 195.31 194.34 189.67C194.85 185.27 195.39 180.73 195.7 176.22V176.02C195.84 174.22 195.99 172.19 194.79 170.37C194.09 169.3 193.03 168.71 191.81 168.7H191.79C189.09 168.7 186.28 171.48 184.69 173.86C184.67 173.9 184.64 173.93 184.62 173.97C182.34 178.24 181.78 182.53 181.12 187.5C180.83 189.68 180.54 191.94 180.07 194.38C179.85 195.46 179.53 197.5 179.16 199.87C178.64 203.22 177.98 207.39 177.36 210.46C177.03 212.09 176.7 213.73 176.38 215.38C174.59 224.46 172.76 233.72 169.26 242.12C169.22 238.06 170.02 232.59 170.97 226.14C171.44 222.91 171.98 219.24 172.48 215.34C173.89 202.92 167.7 200.3 165.77 199.79C165.73 199.79 165.69 199.77 165.66 199.77C164.55 199.58 163.4 199.46 162.55 200.15C161.71 200.84 161.6 201.95 161.57 203.02C161.43 206.71 160.8 211.28 159.59 217.4C158.94 220.67 158.05 223.26 157.01 226.25C156.72 227.08 156.43 227.93 156.13 228.82C150.76 245.01 150.18 252.44 149.95 261.17C149.89 263.61 149.88 266.19 149.87 268.91C149.84 275.46 149.81 282.89 149 289.65C147.94 298.54 146.83 303 140.68 308.37C135.22 313.14 127.02 317.5 116.95 320.98C116.26 321.22 115.89 321.97 116.13 322.66C116.32 323.21 116.83 323.55 117.38 323.55C117.52 323.55 117.67 323.53 117.81 323.48C128.34 319.84 136.62 315.42 142.41 310.36C149.61 304.08 150.6 298.52 151.62 289.96C152.45 283.05 152.48 275.54 152.51 268.92C152.52 266.21 152.53 263.64 152.59 261.23C152.82 252.46 153.36 245.53 158.63 229.65C158.92 228.77 159.21 227.93 159.5 227.1C160.52 224.14 161.48 221.34 162.17 217.9C163.41 211.64 164.05 206.94 164.2 203.1C164.21 202.66 164.24 202.4 164.27 202.25C164.43 202.25 164.69 202.28 165.15 202.35C168.88 203.37 170.64 208.1 169.85 215.01C169.36 218.88 168.83 222.53 168.35 225.75C166.96 235.26 165.95 242.15 167.13 246.7C165.2 250.41 162.85 253.89 159.92 257.05C159.42 257.58 159.45 258.42 159.99 258.92C160.24 259.16 160.57 259.27 160.89 259.27C161.24 259.27 161.6 259.13 161.86 258.85C172.84 247.05 175.96 231.21 178.98 215.89C179.3 214.25 179.63 212.61 179.96 210.99C180.6 207.86 181.25 203.66 181.78 200.28C182.14 197.95 182.46 195.93 182.67 194.89C183.15 192.36 183.45 190.06 183.74 187.84C184.36 183.15 184.89 179.1 186.92 175.27C188.65 172.71 190.73 171.34 191.79 171.34C192.04 171.34 192.3 171.4 192.57 171.81C193.27 172.88 193.17 174.31 193.07 175.82V176.03C192.74 180.48 192.22 184.99 191.7 189.36C191.03 195.06 190.4 200.43 190.21 205.71C190.13 207.89 189.75 211.41 189.34 215.13C188.22 225.46 187.52 232.97 188.79 235.49C188.81 235.54 188.84 235.58 188.87 235.63C189.78 237.01 190.83 237.18 191.54 237.09C194.33 236.72 196.29 231.41 198.96 223.36C199.67 221.23 200.27 219.4 200.74 218.36C200.76 218.32 200.77 218.28 200.79 218.24C202.25 213.85 202.88 202.8 202.95 196.41C202.92 195.2 202.8 194.12 202.68 192.97C202.47 191.09 202.26 189.15 202.38 186.23C202.51 183.08 202.81 179.85 204.95 178.03C205.38 177.67 205.84 177.4 206.31 177.24C206.45 177.19 206.57 177.15 206.66 177.13C206.71 177.35 206.75 177.62 206.78 177.79C207.46 182.2 208.34 186.65 209.19 190.95C209.92 194.65 210.67 198.47 211.27 202.14L210.62 222.34C210.38 224.57 209.54 227.15 208.58 230.13C207.09 234.74 205.4 239.96 205.19 245.95C205.16 246.68 205.74 247.29 206.47 247.32C207.18 247.32 207.81 246.77 207.84 246.04C208.03 240.41 209.66 235.38 211.1 230.94C212.12 227.8 213 225.08 213.26 222.57C213.26 222.54 213.26 222.51 213.26 222.47L213.76 206.84C216.79 213.43 218.57 222.48 218.47 226.92C218.44 227.86 218.37 228.08 218.1 228.87L217.93 229.36C216.06 235.09 212.09 249.08 210.43 260.95C210.33 261.67 210.83 262.34 211.56 262.44C211.62 262.44 211.68 262.45 211.74 262.45C212.39 262.45 212.96 261.97 213.05 261.31C214.74 249.18 218.96 234.72 220.44 230.17L220.6 229.7C220.93 228.74 221.07 228.26 221.11 226.97C221.15 225.25 220.94 222.93 220.5 220.35C221 221.42 221.45 222.53 221.84 223.68C222.2 224.75 222.27 224.98 222.28 226.03C222.33 228.81 222.05 235.91 221.41 241.45C220.42 249.85 216.12 265.14 215.26 268.13C209.54 288.1 185.52 315.3 171.7 327.79C168.19 331.15 165.39 333.82 162.6 336.5C159.8 339.18 157 341.85 153.5 345.21C152.97 345.72 152.95 346.55 153.46 347.08C153.72 347.35 154.07 347.49 154.42 347.49C154.75 347.49 155.08 347.37 155.33 347.12C158.84 343.76 161.63 341.09 164.43 338.41C167.23 335.73 170.03 333.06 173.51 329.73C188.08 316.57 211.91 289.51 217.82 268.86C218.68 265.84 223.03 250.37 224.05 241.76C224.72 236.02 224.99 228.91 224.94 225.99L224.96 226.02Z" fill="#1A263A"/>
</g>
<defs>
<clipPath id="clip0_169_682">
<rect width="370.05" height="347.28" fill="white"/>
</clipPath>
</defs>
</svg>
