<svg width="135" height="131" viewBox="0 0 135 131" fill="none" xmlns="http://www.w3.org/2000/svg">
<path d="M69.5834 130.211C105.377 130.211 134.393 101.195 134.393 65.4011C134.393 29.6075 105.377 0.591064 69.5834 0.591064C33.7899 0.591064 4.77344 29.6075 4.77344 65.4011C4.77344 101.195 33.7899 130.211 69.5834 130.211Z" fill="#649196"/>
<path d="M78.4732 100.251C58.5432 100.251 42.3232 84.1713 42.3232 64.4113C42.3232 44.6513 58.5432 28.5613 78.4732 28.5613C78.5532 28.5613 78.6332 28.5613 78.7132 28.5613C78.7532 28.5613 78.7832 28.5613 78.8232 28.5613C79.4032 28.5613 79.9132 28.9413 80.0832 29.4913C80.2532 30.0413 80.0432 30.6513 79.5632 30.9713C70.4832 37.1613 65.0732 47.3813 65.0732 58.3113C65.0732 76.4313 79.9432 91.3213 98.2232 91.5013C98.8032 91.5013 99.3032 91.8913 99.4732 92.4413C99.6432 92.9913 99.4332 93.5913 98.9532 93.9213C92.9232 98.0513 85.8332 100.231 78.4632 100.231L78.4732 100.251ZM74.6932 31.4113C57.9932 33.2813 44.9732 47.3613 44.9732 64.4113C44.9732 82.7113 60.0032 97.6013 78.4732 97.6013C83.9132 97.6013 89.1732 96.3213 93.9232 93.8713C76.2032 91.5913 62.4332 76.4613 62.4332 58.3313C62.4332 47.9613 66.9532 38.1713 74.7032 31.4213L74.6932 31.4113Z" fill="#1A263A"/>
<path d="M46.0532 24.2912C41.7632 25.1612 40.8132 26.1112 39.9332 30.3612C39.8932 30.5612 39.6132 30.5612 39.5732 30.3612C38.6932 26.1212 37.7432 25.1612 33.4532 24.2912C33.2532 24.2512 33.2532 23.9712 33.4532 23.9312C37.7432 23.0612 38.6932 22.1212 39.5732 17.8612C39.6132 17.6612 39.8932 17.6612 39.9332 17.8612C40.8132 22.1212 41.7632 23.0612 46.0532 23.9312C46.2532 23.9712 46.2532 24.2512 46.0532 24.2912Z" fill="#1A263A"/>
<path d="M87.4731 71.7211C86.6431 69.5911 86.1831 68.0611 85.9931 66.8911C84.8331 66.7011 83.2831 66.2411 81.1431 65.4411V65.3611C83.2931 64.5511 84.8331 64.0911 85.9931 63.9111C86.1831 62.7611 86.6431 61.2311 87.4731 59.0811H87.5431C88.3531 61.2211 88.8231 62.7611 89.0131 63.9111C90.1831 64.1011 91.7331 64.5611 93.8831 65.3611V65.4411C91.7331 66.2511 90.1931 66.7111 89.0131 66.8911C88.8231 68.0511 88.3631 69.5911 87.5431 71.7211H87.4731Z" fill="#1A263A"/>
<path d="M114.673 105.981C123.153 109.561 123.153 106.301 114.673 109.881C111.063 118.291 114.353 118.291 110.723 109.881C102.253 106.301 102.253 109.561 110.723 105.981C114.353 97.5711 111.053 97.5711 114.673 105.981Z" fill="#1A263A"/>
<path d="M121.733 37.4312C113.873 38.3412 113.133 39.1012 112.193 46.8912C111.263 39.1012 110.513 38.3512 102.653 37.4312C110.513 36.5012 111.253 35.7612 112.193 27.9712C113.123 35.7612 113.873 36.5012 121.733 37.4312Z" fill="#1A263A"/>
<path d="M78.7831 118.751C74.9931 119.521 74.1431 120.351 73.3631 124.111C73.3231 124.301 73.0831 124.301 73.0431 124.111C72.2731 120.351 71.4131 119.521 67.6231 118.751C67.4531 118.711 67.4531 118.461 67.6231 118.421C71.4131 117.651 72.2631 116.821 73.0431 113.061C73.0831 112.871 73.3231 112.871 73.3631 113.061C74.1331 116.821 74.9931 117.651 78.7831 118.421C78.9531 118.461 78.9531 118.711 78.7831 118.751Z" fill="#1A263A"/>
<path d="M16.8232 54.0912C33.0732 58.0412 33.0732 54.5912 16.8232 58.5512C12.8332 74.6612 16.3132 74.6612 12.3332 58.5512C-3.92682 54.6012 -3.92682 58.0512 12.3332 54.0912C16.3232 37.9712 12.8432 37.9712 16.8232 54.0912Z" fill="#1A263A"/>
<path d="M31.7133 95.4312C31.0633 93.7112 30.6833 92.4812 30.5433 91.5612C29.5933 91.4112 28.3533 91.0312 26.6333 90.3812V90.3312C28.3533 89.6812 29.5933 89.3012 30.5433 89.1512C30.6933 88.2212 31.0633 86.9913 31.7133 85.2812H31.7833C32.4333 87.0013 32.8133 88.2312 32.9533 89.1512C33.9033 89.3012 35.1433 89.6812 36.8633 90.3312V90.3812C35.1433 91.0312 33.9033 91.4112 32.9533 91.5612C32.8033 92.4912 32.4333 93.7212 31.7833 95.4312H31.7133Z" fill="#1A263A"/>
</svg>
