<svg width="130" height="169" viewBox="0 0 130 169" fill="none" xmlns="http://www.w3.org/2000/svg">
<path d="M64.81 150.863C100.604 150.863 129.62 121.846 129.62 86.0527C129.62 50.2591 100.604 21.2427 64.81 21.2427C29.0164 21.2427 0 50.2591 0 86.0527C0 121.846 29.0164 150.863 64.81 150.863Z" fill="#CBA3D8"/>
<path d="M57.1701 117.643L59.6401 128.103L70.0001 125.003L62.1001 132.353L70.0001 139.703L59.6401 136.593L57.1701 147.053L54.6901 136.593L44.3201 139.703L52.2201 132.353L44.3201 125.003L54.6901 128.103L57.1701 117.643Z" fill="#1A263A"/>
<path d="M66.8499 54.1326L67.7599 59.3326L72.7699 57.5126L68.6799 60.9026L72.7699 64.2826L67.7599 62.4626L66.8499 67.6726L65.95 62.4626L60.9399 64.2826L65.0399 60.9026L60.9399 57.5126L65.95 59.3326L66.8499 54.1326Z" fill="#1A263A"/>
<path d="M90.91 131.202L91.89 138.582L98.82 135.732L92.87 140.262L98.82 144.782L91.89 141.932L90.91 149.302L89.94 141.932L83 144.782L88.95 140.262L83 135.732L89.94 138.582L90.91 131.202Z" fill="#1A263A"/>
<path d="M76.7099 90.9224C86.4999 95.0624 86.4999 91.2924 76.7099 95.4324C72.5199 105.142 76.3399 105.142 72.1499 95.4324C62.3699 91.2924 62.3699 95.0624 72.1499 90.9224C76.3399 81.2124 72.5199 81.2124 76.7099 90.9224Z" fill="#1A263A"/>
<path d="M43.7001 91.2726C42.3301 87.7026 41.5501 85.1326 41.2301 83.1926C39.2801 82.8926 36.6801 82.1126 33.0801 80.7626V80.6326C36.6801 79.2826 39.2801 78.5026 41.2301 78.2026C41.5501 76.2626 42.3201 73.6926 43.7001 70.1226H43.8201C45.1901 73.6926 45.9801 76.2626 46.2901 78.2026C48.2501 78.5026 50.8401 79.2826 54.4401 80.6326V80.7626C50.8401 82.1126 48.2501 82.8926 46.2901 83.1926C45.9801 85.1326 45.2001 87.7026 43.8201 91.2726H43.7001Z" fill="#1A263A"/>
<path d="M75.0199 161.513C70.2499 163.723 70.5699 163.393 68.3399 168.143C66.1299 163.393 66.4499 163.723 61.6699 161.513C66.4399 159.303 66.1199 159.623 68.3399 154.883C70.5699 159.613 70.2499 159.303 75.0199 161.513Z" fill="#1A263A"/>
<path d="M29.83 108.492C25.51 109.362 24.55 110.312 23.67 114.602C23.63 114.802 23.34 114.802 23.3 114.602C22.42 110.322 21.46 109.362 17.14 108.492C16.94 108.452 16.94 108.162 17.14 108.122C21.46 107.252 22.42 106.302 23.3 102.012C23.34 101.802 23.63 101.802 23.67 102.012C24.55 106.292 25.51 107.252 29.83 108.122C30.04 108.162 30.04 108.452 29.83 108.492Z" fill="#1A263A"/>
<path d="M77.0701 35.4026C73.7801 36.0726 73.0401 36.8026 72.3801 40.0726C72.3401 40.2326 72.1301 40.2326 72.0901 40.0726C71.4201 36.8026 70.6901 36.0826 67.3801 35.4026C67.2301 35.3726 67.2301 35.1626 67.3801 35.1226C70.6901 34.4626 71.4201 33.7326 72.0901 30.4526C72.1301 30.3026 72.3401 30.3026 72.3801 30.4526C73.0501 33.7326 73.7801 34.4626 77.0701 35.1226C77.2301 35.1626 77.2301 35.3726 77.0701 35.4026Z" fill="#1A263A"/>
<path d="M52.07 25.7025C49.27 27.0025 49.46 26.8025 48.16 29.5725C46.85 26.7925 47.04 26.9925 44.24 25.7025C47.04 24.4025 46.85 24.5925 48.16 21.8125C49.45 24.5925 49.27 24.4025 52.07 25.7025Z" fill="#1A263A"/>
<path d="M69.0399 3.5725C66.7099 4.0525 66.1899 4.5625 65.7199 6.8825C65.6899 6.9925 65.5299 6.9925 65.5199 6.8825C65.0399 4.5725 64.5199 4.0525 62.1899 3.5725C62.0799 3.5625 62.0799 3.4025 62.1899 3.3725C64.5199 2.9125 65.0399 2.3925 65.5199 0.0825C65.5299 -0.0275 65.6899 -0.0275 65.7199 0.0825C66.1899 2.3925 66.7099 2.9125 69.0399 3.3725C69.1499 3.4025 69.1499 3.5625 69.0399 3.5725Z" fill="#1A263A"/>
</svg>
