<svg width="130" height="130" viewBox="0 0 130 130" fill="none" xmlns="http://www.w3.org/2000/svg">
<path d="M64.81 129.62C100.604 129.62 129.62 100.604 129.62 64.81C129.62 29.0164 100.604 0 64.81 0C29.0164 0 0 29.0164 0 64.81C0 100.604 29.0164 129.62 64.81 129.62Z" fill="#CBA3D8"/>
<path d="M57.4074 85.5613L59.08 92.6443L66.0952 90.5451L60.7458 95.5221L66.0952 100.499L59.08 98.3932L57.4074 105.476L55.7281 98.3932L48.7061 100.499L54.0555 95.5221L48.7061 90.5451L55.7281 92.6443L57.4074 85.5613Z" fill="#1A263A"/>
<path d="M63.9622 42.5557L64.5784 46.0768L67.9709 44.8444L65.2013 47.14L67.9709 49.4287L64.5784 48.1963L63.9622 51.7243L63.3527 48.1963L59.9602 49.4287L62.7365 47.14L59.9602 44.8444L63.3527 46.0768L63.9622 42.5557Z" fill="#1A263A"/>
<path d="M80.2542 94.7434L80.9178 99.7408L85.6104 97.8109L81.5814 100.878L85.6104 103.939L80.9178 102.009L80.2542 107L79.5974 102.009L74.8979 103.939L78.927 100.878L74.8979 97.8109L79.5974 99.7408L80.2542 94.7434Z" fill="#1A263A"/>
<path d="M70.6387 67.4677C77.268 70.2711 77.268 67.7183 70.6387 70.5217C67.8014 77.0968 70.3881 77.0968 67.5509 70.5217C60.9284 67.7183 60.9284 70.2711 67.5509 67.4677C70.3881 60.8926 67.8014 60.8926 70.6387 67.4677Z" fill="#1A263A"/>
<path d="M48.2861 67.705C47.3584 65.2876 46.8302 63.5473 46.6135 62.2336C45.2931 62.0305 43.5325 61.5023 41.0947 60.5882V60.5001C43.5325 59.586 45.2931 59.0578 46.6135 58.8547C46.8302 57.541 47.3516 55.8007 48.2861 53.3833H48.3673C49.295 55.8007 49.83 57.541 50.0399 58.8547C51.3671 59.0578 53.1209 59.586 55.5586 60.5001V60.5882C53.1209 61.5023 51.3671 62.0305 50.0399 62.2336C49.83 63.5473 49.3018 65.2876 48.3673 67.705H48.2861Z" fill="#1A263A"/>
<path d="M69.4943 115.268C66.2643 116.764 66.481 116.541 64.9709 119.757C63.4744 116.541 63.6911 116.764 60.4543 115.268C63.6843 113.771 63.4677 113.988 64.9709 110.778C66.481 113.981 66.2643 113.771 69.4943 115.268Z" fill="#1A263A"/>
<path d="M38.894 79.3654C35.9688 79.9545 35.3187 80.5978 34.7228 83.5028C34.6957 83.6382 34.4994 83.6382 34.4723 83.5028C33.8764 80.6046 33.2263 79.9545 30.301 79.3654C30.1656 79.3383 30.1656 79.142 30.301 79.1149C33.2263 78.5258 33.8764 77.8825 34.4723 74.9775C34.4994 74.8353 34.6957 74.8353 34.7228 74.9775C35.3187 77.8757 35.9688 78.5258 38.894 79.1149C39.0363 79.142 39.0363 79.3383 38.894 79.3654Z" fill="#1A263A"/>
<path d="M70.8826 29.8726C68.6548 30.3263 68.1537 30.8207 67.7068 33.0349C67.6797 33.1433 67.5375 33.1433 67.5104 33.0349C67.0567 30.8207 66.5624 30.3331 64.3211 29.8726C64.2195 29.8523 64.2195 29.7101 64.3211 29.683C66.5624 29.2361 67.0567 28.7418 67.5104 26.5208C67.5375 26.4192 67.6797 26.4192 67.7068 26.5208C68.1605 28.7418 68.6548 29.2361 70.8826 29.683C70.991 29.7101 70.991 29.8523 70.8826 29.8726Z" fill="#1A263A"/>
<path d="M53.9539 23.3043C52.0579 24.1846 52.1866 24.0491 51.3063 25.9248C50.4192 24.0424 50.5479 24.1778 48.6519 23.3043C50.5479 22.424 50.4192 22.5526 51.3063 20.6702C52.1798 22.5526 52.0579 22.424 53.9539 23.3043Z" fill="#1A263A"/>
<path d="M65.4451 8.31902C63.8673 8.64405 63.5152 8.98939 63.1969 10.5604C63.1766 10.6349 63.0683 10.6349 63.0615 10.5604C62.7365 8.99617 62.3844 8.64405 60.8066 8.31902C60.7321 8.31224 60.7321 8.2039 60.8066 8.18359C62.3844 7.8721 62.7365 7.51998 63.0615 5.95577C63.0683 5.88128 63.1766 5.88128 63.1969 5.95577C63.5152 7.51998 63.8673 7.8721 65.4451 8.18359C65.5196 8.2039 65.5196 8.31224 65.4451 8.31902Z" fill="#1A263A"/>
</svg>
